<svg width="360" height="251" viewBox="0 0 360 251" fill="none" xmlns="http://www.w3.org/2000/svg">
<g clip-path="url(#clip0_2634_16239)">
<mask id="mask0_2634_16239" style="mask-type:luminance" maskUnits="userSpaceOnUse" x="0" y="0" width="360" height="251">
<path d="M360 0H0V251H360V0Z" fill="white"/>
</mask>
<g mask="url(#mask0_2634_16239)">
<mask id="mask1_2634_16239" style="mask-type:luminance" maskUnits="userSpaceOnUse" x="-46" y="-69" width="452" height="443">
<path d="M296.206 -68.856L-45.4785 44.5104L63.794 373.856L405.478 260.49L296.206 -68.856Z" fill="white"/>
</mask>
<g mask="url(#mask1_2634_16239)">
<path fill-rule="evenodd" clip-rule="evenodd" d="M350.322 239.558C485.658 231.84 592.967 121.504 590.004 -6.88585C587.042 -135.276 474.927 -233.099 339.591 -225.381C249.864 -220.265 172.456 -170.04 131.336 -99.3519C153.081 -124.297 182.033 -144.16 216.35 -155.546C313.289 -187.709 416.335 -140.056 446.509 -49.1094C476.684 41.8365 422.562 141.637 325.623 173.8C252.215 198.156 175.304 176.74 129.187 125.414C171.523 198.254 255.185 244.983 350.322 239.558Z" fill="url(#paint0_linear_2634_16239)"/>
<path fill-rule="evenodd" clip-rule="evenodd" d="M-68.9942 18.7241C-196.745 20.2195 -299.538 119.763 -298.587 241.062L-298.4 265.001C-297.448 386.299 -193.115 483.418 -65.3641 481.924C24.0643 480.877 101.262 431.783 139.204 360.817C117.432 386.892 87.5101 407.351 51.8475 418.055C-40.0301 445.634 -135.215 398.023 -160.754 311.714L-166.734 291.507C-192.273 205.198 -138.495 112.874 -46.6173 85.296C26.2655 63.4193 101.23 88.8562 141.86 143.392C104.5 68.7472 23.9507 17.6362 -68.9942 18.7241Z" fill="url(#paint1_linear_2634_16239)"/>
</g>
</g>
</g>
<defs>
<linearGradient id="paint0_linear_2634_16239" x1="350.322" y1="239.558" x2="323.859" y2="-224.484" gradientUnits="userSpaceOnUse">
<stop stop-color="#DC3644"/>
<stop offset="1" stop-color="#1F1D76"/>
</linearGradient>
<linearGradient id="paint1_linear_2634_16239" x1="-67.8173" y1="17.9008" x2="-61.0695" y2="482.369" gradientUnits="userSpaceOnUse">
<stop stop-color="#DC3644"/>
<stop offset="1" stop-color="#1F1D76"/>
</linearGradient>
<clipPath id="clip0_2634_16239">
<rect width="360" height="251" fill="white"/>
</clipPath>
</defs>
</svg>
