<svg width="60" height="42" viewBox="0 0 60 42" fill="none" xmlns="http://www.w3.org/2000/svg">
<path d="M9.42004 37.8708C9.42004 38.0227 9.36547 38.157 9.2562 38.2738C9.14726 38.3906 9.01727 38.449 8.86626 38.449H6.44208C6.44208 38.5631 6.5231 38.7014 6.68544 38.8643C6.88115 39.0596 7.09658 39.1574 7.33139 39.1574H7.43194C7.66675 39.1304 8.01627 39.019 8.48047 38.8263C8.67042 38.7489 8.81599 38.7095 8.91655 38.7095C9.01728 38.7095 9.11802 38.7652 9.21859 38.8764C9.31931 38.9878 9.36959 39.106 9.36959 39.2309C9.36959 39.5076 9.1683 39.7561 8.76571 39.9758C8.36297 40.196 7.89614 40.3059 7.36489 40.3059C6.59325 40.3059 5.98364 40.0371 5.5362 39.4996C5.17273 39.0596 4.99097 38.5792 4.99097 38.0579C4.99097 37.3792 5.23731 36.82 5.72928 36.3802C6.19332 35.9622 6.73851 35.7532 7.36489 35.7532C7.91849 35.7532 8.39946 35.9893 8.80763 36.4617C9.1711 36.8797 9.37534 37.3494 9.42004 37.8708ZM8.09464 37.5449C8.09464 37.3494 8.01083 37.1784 7.84306 37.0319C7.67512 36.8853 7.48782 36.8119 7.28094 36.8119C7.10199 36.8119 6.93438 36.8701 6.77761 36.9871C6.62118 37.1037 6.48677 37.2897 6.37503 37.5449H8.09464ZM14.3619 39.5972C14.3619 39.7764 14.323 39.9149 14.2446 40.0127C14.1495 40.132 13.993 40.2081 13.7748 40.2407C13.6182 40.2678 13.4588 40.2094 13.2966 40.0655C13.1346 39.9216 13.0507 39.8523 13.0449 39.8579C12.8829 40.0154 12.708 40.1295 12.5207 40.2C12.3334 40.2707 12.1336 40.3059 11.921 40.3059C11.4121 40.3059 10.9551 40.0751 10.5497 39.6135C10.1442 39.1521 9.94159 38.6117 9.94159 37.9927C9.94159 37.2816 10.1568 36.7087 10.5875 36.2744C10.9733 35.8889 11.429 35.6962 11.9547 35.6962C12.4077 35.6962 12.771 35.821 13.0449 36.0707V34.5314C13.0449 34.3305 13.1093 34.173 13.238 34.059C13.3666 33.9451 13.5205 33.8879 13.6992 33.8879C13.8839 33.8879 14.0404 33.9411 14.1692 34.0468C14.2977 34.1526 14.3619 34.3142 14.3619 34.5314V39.5972ZM13.0702 38.0905C13.0702 37.7757 13.006 37.5204 12.8773 37.3248C12.7209 37.086 12.4915 36.9667 12.1895 36.9667C11.9265 36.9667 11.7072 37.0657 11.5311 37.2639C11.3549 37.4622 11.2668 37.6969 11.2668 37.9683C11.2668 38.2507 11.3577 38.5072 11.5393 38.7381C11.7212 38.9688 11.9379 39.0843 12.1895 39.0843C12.4466 39.0843 12.6578 38.9851 12.8228 38.7871C12.9877 38.5887 13.0702 38.3568 13.0702 38.0905ZM19.0439 38.449C19.0439 38.9158 18.8651 39.3394 18.507 39.7194C18.0989 40.1539 17.5732 40.371 16.9302 40.371C16.1975 40.371 15.672 40.1485 15.3533 39.7032C15.1242 39.3828 15.0092 38.9648 15.0092 38.449V36.4536C15.0092 36.2527 15.071 36.0952 15.1941 35.9812C15.317 35.8671 15.468 35.8101 15.6467 35.8101C15.8147 35.8101 15.9599 35.8671 16.0832 35.9812C16.2061 36.0952 16.2676 36.2527 16.2676 36.4536V38.449C16.2676 38.6661 16.3431 38.8345 16.4941 38.9538C16.6451 39.0734 16.8213 39.1331 17.0224 39.1331C17.2183 39.1331 17.3775 39.0787 17.5006 38.9702C17.646 38.8453 17.7188 38.6716 17.7188 38.449V36.5187C17.7188 36.2961 17.7803 36.1222 17.9032 35.9976C18.0262 35.8725 18.1745 35.8101 18.3478 35.8101C18.5322 35.8101 18.6947 35.8725 18.8342 35.9976C18.974 36.1222 19.0439 36.2961 19.0439 36.5187V38.449ZM23.3822 39.4752C23.3822 39.763 23.223 39.9827 22.904 40.1349C22.6245 40.2707 22.2749 40.3383 21.8555 40.3383C21.2684 40.3383 20.7567 40.1349 20.3206 39.7277C19.8452 39.2823 19.6075 38.6987 19.6075 37.9766C19.6075 37.477 19.781 36.9992 20.1275 36.5431C20.5357 36.0112 21.0448 35.745 21.6542 35.745C22.152 35.745 22.5043 35.7776 22.711 35.8428C23.1586 35.9839 23.3822 36.2771 23.3822 36.7222C23.3822 36.8473 23.3303 36.949 23.2271 37.0278C23.1236 37.1064 22.9906 37.1458 22.8286 37.1458C22.7447 37.1458 22.602 37.1241 22.4008 37.0806C22.1995 37.0372 22.0401 37.0155 21.9226 37.0155C21.6373 37.0155 21.4109 37.086 21.2433 37.2274C21.0362 37.4009 20.9329 37.6616 20.9329 38.0091C20.9329 38.2752 21.0027 38.517 21.1426 38.7339C21.3159 39.0001 21.5535 39.1331 21.8555 39.1331C22.0177 39.1331 22.1911 39.0868 22.3756 38.9946C22.5601 38.9024 22.7221 38.8563 22.862 38.8563C22.9796 38.8563 23.0886 38.905 23.1893 39.0026C23.318 39.1275 23.3822 39.2852 23.3822 39.4752ZM28.1649 39.7277C28.1649 39.8579 28.0964 39.9758 27.9593 40.0819C27.8223 40.1877 27.6727 40.2407 27.5106 40.2407C27.2981 40.2407 27.1218 40.1593 26.9821 39.9962C26.9262 39.9313 26.8815 39.9067 26.8479 39.9232C26.697 40.0588 26.5276 40.1593 26.3403 40.2242C26.153 40.2895 25.9643 40.3222 25.7742 40.3222C25.2541 40.3222 24.7929 40.113 24.3903 39.695C23.9598 39.2443 23.7444 38.677 23.7444 37.9927C23.7444 37.4335 23.9261 36.9177 24.2898 36.4454C24.681 35.9351 25.148 35.6798 25.6904 35.6798C25.763 35.6798 25.8624 35.6866 25.988 35.7002C26.114 35.7138 26.2608 35.7584 26.4285 35.8345C26.5684 35.8942 26.7305 35.9947 26.9151 36.1359C26.9711 35.9784 27.059 35.8577 27.1791 35.7736C27.2996 35.6894 27.4296 35.6474 27.5694 35.6474C27.7316 35.6474 27.8714 35.6962 27.9887 35.794C28.1062 35.8915 28.1649 36.0164 28.1649 36.1686V39.7277ZM26.8479 37.9927C26.8479 37.6345 26.7472 37.363 26.5459 37.1784C26.3725 37.0155 26.1574 36.9341 25.9001 36.9341C25.6653 36.9558 25.4668 37.0603 25.3046 37.2476C25.1424 37.4349 25.0614 37.6833 25.0614 37.9927C25.0614 38.2859 25.1439 38.5412 25.3087 38.7585C25.4737 38.9756 25.7016 39.0843 25.9924 39.0843C26.244 39.0843 26.4537 38.9673 26.6214 38.7339C26.7725 38.5222 26.8479 38.2752 26.8479 37.9927ZM31.8571 36.4617C31.8571 36.6246 31.8207 36.7549 31.748 36.8526C31.6586 36.9721 31.5354 37.0319 31.379 37.0319H30.8503V39.4752C30.8503 39.7303 30.7835 39.9297 30.6491 40.0736C30.515 40.2177 30.3584 40.2895 30.1794 40.2895C30.0061 40.2895 29.8551 40.223 29.7264 40.0899C29.5977 39.957 29.5335 39.771 29.5335 39.5321V37.0319H29.1981C29.0192 37.0319 28.878 36.9694 28.7745 36.8444C28.671 36.7195 28.6194 36.5704 28.6194 36.3966C28.6194 36.2554 28.6654 36.1345 28.7578 36.0343C28.8501 35.9336 28.9771 35.8834 29.1393 35.8834H29.5335V35.0445C29.5335 34.8492 29.5977 34.6943 29.7264 34.5804C29.8551 34.4663 30.0061 34.4093 30.1794 34.4093C30.3416 34.4093 30.4828 34.4596 30.6032 34.5599C30.7233 34.6603 30.7835 34.8002 30.7835 34.9794V35.8834H31.4462C31.5691 35.8834 31.6682 35.9419 31.7438 36.0585C31.8194 36.1753 31.8571 36.3097 31.8571 36.4617ZM36.581 37.8708C36.581 38.0227 36.5266 38.157 36.4175 38.2738C36.3084 38.3906 36.1784 38.449 36.0274 38.449H33.6034C33.6034 38.5631 33.6844 38.7014 33.8464 38.8643C34.0422 39.0596 34.2573 39.1574 34.4925 39.1574H34.593C34.8278 39.1304 35.1774 39.019 35.6416 38.8263C35.8315 38.7489 35.9771 38.7095 36.0777 38.7095C36.1784 38.7095 36.2791 38.7652 36.3798 38.8764C36.4804 38.9878 36.5307 39.106 36.5307 39.2309C36.5307 39.5076 36.3294 39.7561 35.9268 39.9758C35.5241 40.196 35.0571 40.3059 34.526 40.3059C33.7544 40.3059 33.1446 40.0371 32.6973 39.4996C32.334 39.0596 32.1521 38.5792 32.1521 38.0579C32.1521 37.3792 32.3982 36.82 32.8902 36.3802C33.3543 35.9622 33.8996 35.7532 34.526 35.7532C35.0794 35.7532 35.5604 35.9893 35.9687 36.4617C36.332 36.8797 36.5363 37.3494 36.581 37.8708ZM35.2557 37.5449C35.2557 37.3494 35.1718 37.1784 35.0042 37.0319C34.8363 36.8853 34.6489 36.8119 34.4419 36.8119C34.2631 36.8119 34.0953 36.8701 33.9387 36.9871C33.7821 37.1037 33.6479 37.2897 33.5362 37.5449H35.2557ZM42.8148 39.9313C42.8148 40.4417 42.6553 40.8841 42.338 41.2587C41.9187 41.7528 41.2964 42 40.4702 42C39.8623 42 39.3744 41.8803 39.0052 41.6415C38.6991 41.4408 38.5453 41.2235 38.5453 40.99C38.5453 40.8434 38.6082 40.7172 38.7341 40.6111C38.8599 40.5054 39.0039 40.4524 39.166 40.4524C39.2443 40.4524 39.3981 40.5149 39.6275 40.6398C39.8568 40.7646 40.1613 40.827 40.5416 40.827C40.8881 40.827 41.1344 40.7469 41.2797 40.5867C41.4253 40.4265 41.5202 40.1402 41.5651 39.7277C41.4476 39.8959 41.2488 40.029 40.9694 40.1268C40.7512 40.2025 40.5529 40.2407 40.3736 40.2407C39.7643 40.2407 39.275 39.9637 38.9059 39.4099C38.6095 38.9648 38.4614 38.5031 38.4614 38.0254C38.4614 37.374 38.6586 36.8215 39.0527 36.3681C39.447 35.9146 39.9321 35.6879 40.508 35.6879C40.7037 35.6879 40.8769 35.715 41.0281 35.7694C41.2631 35.8562 41.4419 36.0001 41.5651 36.201C41.6489 36.0544 41.748 35.9446 41.8627 35.8712C41.9774 35.798 42.0962 35.7613 42.2193 35.7613C42.3759 35.7613 42.5142 35.8224 42.6343 35.9446C42.7548 36.0665 42.8148 36.2174 42.8148 36.3966V39.9313ZM41.5651 37.9887C41.5651 37.7864 41.5005 37.5776 41.372 37.3588C41.2156 37.0916 41.0251 36.9585 40.8017 36.9585H40.6756C40.4296 36.9585 40.2185 37.0576 40.0425 37.2556C39.8664 37.4539 39.7783 37.6994 39.7783 37.9927C39.7783 38.362 39.8789 38.6497 40.0802 38.8563C40.2647 39.0407 40.4857 39.1223 40.7429 39.1004C40.9668 39.1004 41.1596 39.0015 41.3217 38.8019C41.4839 38.6036 41.5651 38.332 41.5651 37.9887ZM44.8211 39.5321C44.8211 39.7601 44.7595 39.938 44.6366 40.0655C44.5133 40.1931 44.3654 40.2569 44.1919 40.2569C44.0185 40.2569 43.8759 40.1973 43.764 40.0778C43.6298 39.9366 43.5629 39.7357 43.5629 39.4752V36.649C43.5629 36.4046 43.6244 36.2146 43.7474 36.0788C43.8703 35.943 44.0185 35.8754 44.1919 35.8754C44.3597 35.8754 44.5066 35.9446 44.6324 36.0829C44.7581 36.2214 44.8211 36.4046 44.8211 36.6326V39.5321ZM48.3791 36.4129C48.3791 36.7168 48.1148 36.9314 47.5864 37.0562C47.0579 37.1811 46.7937 37.4526 46.7937 37.8708V39.4752C46.7937 39.7249 46.7392 39.9149 46.6302 40.0451C46.5211 40.1756 46.3884 40.2407 46.2319 40.2407C46.0528 40.2407 45.8962 40.1729 45.762 40.0371C45.611 39.885 45.5356 39.6977 45.5356 39.4752V36.4536C45.5356 36.258 45.5942 36.1007 45.7117 35.9812C45.8292 35.8618 45.9717 35.802 46.1396 35.802C46.2904 35.802 46.426 35.84 46.5464 35.9161C46.6666 35.992 46.749 36.1088 46.7937 36.2663C47.0287 36.0383 47.2382 35.8754 47.4229 35.7776C47.5682 35.7015 47.6968 35.6637 47.8087 35.6637C47.9486 35.6637 48.0785 35.7436 48.1986 35.9038C48.3189 36.064 48.3791 36.2336 48.3791 36.4129ZM50.2091 39.5321C50.2091 39.7493 50.1463 39.9136 50.0203 40.025C49.8946 40.136 49.7421 40.1917 49.5633 40.1917C49.3844 40.1917 49.2278 40.132 49.0935 40.0127C48.9593 39.8932 48.8921 39.733 48.8921 39.5321V34.5966C48.8921 34.3686 48.9565 34.1908 49.0852 34.0631C49.2137 33.9355 49.3675 33.8718 49.5466 33.8718C49.7198 33.8718 49.8737 33.9315 50.0078 34.051C50.1421 34.1703 50.2091 34.3305 50.2091 34.5314V39.5321ZM54.0607 39.019C54.0607 39.3231 53.9043 39.6135 53.5911 39.8905C53.2779 40.1673 52.9144 40.3059 52.5007 40.3059C52.1091 40.3059 51.7345 40.2461 51.3767 40.1268C50.8511 39.9529 50.5882 39.6922 50.5882 39.3448C50.5882 39.1982 50.6455 39.0719 50.7602 38.9661C50.8746 38.8601 51.0243 38.8072 51.2088 38.8072C51.2984 38.8072 51.536 38.8833 51.9218 39.0353C52.1121 39.1113 52.2547 39.1494 52.3497 39.1494C52.4726 39.1494 52.5705 39.1275 52.6433 39.0843C52.7159 39.0407 52.7523 38.9865 52.7523 38.9212C52.7634 38.8072 52.5957 38.6878 52.249 38.5631C51.7682 38.3892 51.4436 38.2454 51.276 38.1313C50.918 37.8925 50.7392 37.5857 50.7392 37.2111C50.7392 36.7819 50.8971 36.4306 51.2129 36.1562C51.5291 35.8821 51.9192 35.745 52.3834 35.745C52.7915 35.745 53.1535 35.8441 53.4695 36.0423C53.7855 36.2406 53.9434 36.4724 53.9434 36.7387C53.9434 37.0101 53.7421 37.1458 53.3396 37.1458C53.155 37.1458 53.004 37.1186 52.8865 37.0643C52.6294 36.945 52.4783 36.8853 52.4335 36.8853C52.3216 36.8853 52.2238 36.9083 52.14 36.9545C52.0562 37.0006 52.0142 37.059 52.0142 37.1296C52.0142 37.2274 52.1903 37.344 52.5426 37.4798C53.0124 37.6589 53.3395 37.8191 53.5239 37.9603C53.8818 38.2319 54.0607 38.5848 54.0607 39.019Z" fill="#FEFEFE"/>
<path fill-rule="evenodd" clip-rule="evenodd" d="M44.197 33.5288C44.7462 33.5288 45.1918 33.9666 45.1918 34.5065C45.1918 35.0466 44.7462 35.4843 44.197 35.4843C43.6477 35.4843 43.2024 35.0466 43.2024 34.5065C43.2024 33.9666 43.6477 33.5288 44.197 33.5288Z" fill="#FEFEFE"/>
<path d="M53.1733 14.071C52.9122 13.9845 52.0376 14.6503 51.8427 14.7744C51.3284 15.1005 50.4839 15.6913 50.7964 16.396C50.9972 16.8414 51.6284 17.1486 52.0663 17.3169C53.0314 17.6881 53.9913 17.6942 54.026 16.4817C54.0728 14.861 53.9754 14.3358 53.9754 14.3358L53.1733 14.071Z" fill="#FEFEFE"/>
<path d="M54.4155 13.1859C54.6848 13.2441 55.4784 12.4892 55.6583 12.3451C56.1325 11.9662 56.9046 11.2884 56.5144 10.6215C56.2646 10.1997 55.6026 9.96182 55.1479 9.84104C54.1469 9.57492 53.1923 9.67081 53.2954 10.8802C53.4318 12.496 53.5885 13.0078 53.5885 13.0078L54.4155 13.1859Z" fill="#FEFEFE"/>
<path d="M4.85846 16.1595C4.58734 16.2089 4.16255 17.2057 4.05558 17.4069C3.77246 17.9365 3.33604 18.854 3.96488 19.3184C4.36517 19.6106 5.07025 19.5772 5.53708 19.5147C6.56572 19.3776 7.40442 18.9248 6.82092 17.8524C6.04172 16.4186 5.69107 16.0076 5.69107 16.0076L4.85846 16.1595Z" fill="#FEFEFE"/>
<path d="M5.27548 14.8231C5.54315 14.7579 5.9027 13.7373 5.99652 13.53C6.24481 12.9844 6.62093 12.0423 5.96382 11.6166C5.54546 11.3489 4.84396 11.4255 4.38174 11.5156C3.36444 11.7144 2.556 12.217 3.20769 13.2523C4.07759 14.6365 4.45436 15.0253 4.45436 15.0253L5.27548 14.8231Z" fill="#FEFEFE"/>
<path d="M1.60307 18.029C10.8289 13.59 24.2037 15.1478 30.0226 5.36277C30.7503 4.13907 31.2822 2.79762 31.6768 1.44054C31.8688 0.780502 31.3373 0.167853 30.6593 0.143602C24.5077 -0.0741759 17.9724 3.00678 14.3956 7.86825C12.4514 10.5108 11.8459 13.7296 12.306 16.9096C12.7845 20.2173 14.6745 23.2764 17.0914 25.5976C22.0455 30.3552 29.5224 31.5982 35.8797 28.9132C41.6389 26.4807 46.3342 20.825 46.3346 14.5573C46.335 7.51614 40.6504 0.367443 33.1476 0.000970291C32.6079 -0.0253545 32.0456 0.488217 32.0923 1.0254C32.3268 3.71595 33.1222 6.24297 34.8709 8.37257C36.3505 10.1737 38.4692 11.3438 40.6517 12.1586C45.2518 13.8765 50.3102 13.9501 55.1157 14.7738C56.0919 14.9413 57.0617 15.1452 58.0156 15.4086C59.3274 15.7709 59.8832 13.7937 58.5766 13.4332C53.9028 12.1418 48.9629 12.1353 44.2378 11.0649C42.0111 10.5602 39.8378 9.81006 37.9876 8.47659C36.1375 7.14312 35.0247 5.12154 34.5063 2.97184C34.3517 2.33079 34.2597 1.68097 34.2026 1.0254C33.8512 1.36715 33.4994 1.70857 33.1476 2.05015C38.9827 2.33494 43.4022 7.69243 44.1218 13.0477C44.9393 19.1322 40.4977 24.6706 34.9911 27.0694C32.0711 28.3413 28.7062 28.6149 25.5971 27.9325C22.3196 27.2128 19.4723 25.3217 17.3396 22.8324C15.2001 20.3344 14.0302 17.1028 14.2855 13.8555C14.5179 10.9015 16.2805 8.39555 18.5171 6.48835C21.7625 3.72106 26.3326 2.03947 30.6593 2.19263C30.3203 1.76027 29.981 1.32822 29.6421 0.895855C28.8943 3.46755 27.5635 5.75381 25.5074 7.54757C23.6578 9.16167 21.3327 10.2017 19.0028 10.9811C13.8494 12.7044 8.36496 13.2758 3.24905 15.1238C2.32689 15.4573 1.41985 15.8354 0.537947 16.26C-0.6813 16.8466 0.388093 18.6135 1.60307 18.029Z" fill="#FEFEFE"/>
</svg>
