<svg width="360" height="420" viewBox="0 0 360 420" fill="none" xmlns="http://www.w3.org/2000/svg">
<g clip-path="url(#clip0_229_27441)">
<mask id="mask0_229_27441" style="mask-type:luminance" maskUnits="userSpaceOnUse" x="-50" y="0" width="410" height="420">
<path d="M360 0H-50V420H360V0Z" fill="white"/>
</mask>
<g mask="url(#mask0_229_27441)">
<path fill-rule="evenodd" clip-rule="evenodd" d="M306.809 378.376C455.868 421.095 611.435 335.242 654.279 186.62C697.122 37.9972 611.017 -117.115 461.958 -159.833C363.133 -188.155 261.446 -159.961 191.646 -94.4281C224.098 -114.797 262.517 -126.58 303.695 -126.58C420.016 -126.58 514.312 -32.5599 514.312 83.4199C514.312 199.399 420.016 293.42 303.695 293.42C215.61 293.42 140.154 239.503 108.712 162.963C128.351 262.777 202.026 348.348 306.809 378.376Z" fill="url(#paint0_linear_229_27441)"/>
<path fill-rule="evenodd" clip-rule="evenodd" d="M-67.2473 -35.1399C-205.876 -82.1149 -352.69 -6.93891 -395.165 132.77L-403.548 160.343C-446.022 300.052 -368.074 451.389 -229.447 498.365C-132.404 531.248 -31.3512 504.274 35.1144 437.21C2.22849 458.867 -37.4533 470.965 -79.8415 469.669C-189.047 466.331 -274.861 375.357 -271.514 266.47L-270.73 240.978C-267.383 132.092 -176.14 46.5287 -66.9346 49.8666C19.6936 52.5144 91.603 110.309 115.963 188.445C102.35 88.4545 33.6113 -0.963264 -67.2473 -35.1399Z" fill="url(#paint1_linear_229_27441)"/>
</g>
</g>
<defs>
<linearGradient id="paint0_linear_229_27441" x1="306.809" y1="378.376" x2="461.12" y2="-160.073" gradientUnits="userSpaceOnUse">
<stop stop-color="#DC3644"/>
<stop offset="1" stop-color="#1F1D76"/>
</linearGradient>
<linearGradient id="paint1_linear_229_27441" x1="-65.6799" y1="-35.637" x2="-243.501" y2="494.294" gradientUnits="userSpaceOnUse">
<stop stop-color="#DC3644"/>
<stop offset="1" stop-color="#1F1D76"/>
</linearGradient>
<clipPath id="clip0_229_27441">
<rect width="410" height="420" fill="white" transform="translate(-50)"/>
</clipPath>
</defs>
</svg>
