<svg width="43" height="48" viewBox="0 0 43 48" fill="none" xmlns="http://www.w3.org/2000/svg">
<path fill-rule="evenodd" clip-rule="evenodd" d="M8.80193 2.30565C9.53791 2.28615 9.72436 2.3154 10.4211 2.55918C10.9216 2.73469 11.4122 2.97847 11.7655 3.22225C12.0697 3.43677 12.472 3.79756 12.6781 4.03158C12.8744 4.25586 13.1295 4.59714 13.4631 5.11395L14.3463 4.7044C14.837 4.48013 15.6515 4.1486 16.1617 3.96333C16.672 3.78781 17.5159 3.54403 18.0459 3.43677C18.5856 3.31976 19.4393 3.18324 19.9594 3.12474C20.5286 3.06623 21.3823 3.04673 22.0888 3.07598C22.7463 3.10523 23.6491 3.19299 24.1005 3.271C24.5617 3.33926 25.3173 3.50503 25.7982 3.64154C26.279 3.7683 27.0052 4.01208 27.4173 4.17785C27.8295 4.34362 28.4477 4.61665 28.7912 4.79216C29.1444 4.96768 29.4388 5.1237 29.4683 5.1432C29.4879 5.15295 29.6155 4.98718 29.7529 4.76291C29.8902 4.53864 30.2239 4.12909 30.4987 3.84631C30.7734 3.57328 31.2346 3.20274 31.5094 3.03698C31.794 2.86146 32.3239 2.62743 32.6968 2.51042C33.2169 2.34465 33.5407 2.2959 34.1197 2.2959C34.6987 2.2959 35.0225 2.34465 35.5328 2.51042C35.9057 2.62743 36.4356 2.86146 36.7202 3.02723C37.0145 3.20274 37.4856 3.60254 37.829 3.97308C38.1725 4.33387 38.5454 4.84092 38.7122 5.1627C38.8594 5.45523 39.0655 5.97204 39.1636 6.29382C39.2519 6.62536 39.3501 7.22992 39.3795 7.64922C39.4089 8.20503 39.3893 8.58532 39.2814 9.08262C39.2127 9.45316 39.0066 10.0675 38.8398 10.4478C38.6141 10.9646 38.3786 11.3156 37.9566 11.7837C37.6426 12.1347 37.2402 12.5247 36.7398 12.8758L37.0145 13.5096C37.1617 13.8509 37.4071 14.4749 37.5543 14.8942C37.7113 15.3135 37.937 16.0741 38.0645 16.5812C38.1921 17.0882 38.3491 17.8878 38.4178 18.3559C38.4963 18.8922 38.5945 19.253 38.6828 19.3602C38.7613 19.4577 38.9183 19.682 39.036 19.8673C39.144 20.0525 39.3304 20.4913 39.4384 20.8424C39.5758 21.2714 39.6346 21.6517 39.6346 22.0417C39.6346 22.3928 39.5659 22.8413 39.458 23.2216C39.3599 23.5629 39.1538 24.0407 39.0066 24.2942C38.8496 24.538 38.5258 24.9378 38.2804 25.1718C37.8683 25.5716 37.829 25.6301 37.829 25.9617C37.8192 26.1567 37.7702 26.5955 37.7015 26.927C37.6426 27.2683 37.4954 27.7851 37.3776 28.0874C37.2697 28.3897 37.0538 28.8285 36.9164 29.0625C36.779 29.2965 36.4944 29.6671 36.2786 29.8913C36.0627 30.1156 35.6603 30.4471 35.3758 30.6324C35.0912 30.8079 34.6692 31.0225 33.9725 31.2565L34.2963 31.6368C34.4828 31.8513 34.7673 32.2413 34.944 32.5241C35.1108 32.7971 35.3659 33.3042 35.5131 33.6552C35.6505 34.0063 35.8272 34.6108 35.8959 35.0009C35.994 35.5177 36.0136 35.9662 35.994 36.6098C35.9645 37.0973 35.886 37.7409 35.8173 38.0432C35.7388 38.3455 35.5916 38.794 35.4739 39.0476C35.3561 39.3108 35.1697 39.5644 35.0617 39.6326C34.944 39.7009 34.7772 39.7301 34.6496 39.6911C34.5122 39.6619 34.3846 39.5449 34.3061 39.3693C34.1884 39.1061 34.1884 39.0671 34.3944 38.5405C34.5122 38.248 34.6594 37.7507 34.7183 37.4484C34.7772 37.1461 34.8262 36.6195 34.8262 36.2685C34.8262 35.898 34.7575 35.3617 34.6692 34.9619C34.5809 34.5913 34.3748 34.0258 34.2178 33.6942C34.0216 33.2944 33.7173 32.8849 33.2561 32.3876C32.7066 31.8025 32.4515 31.588 31.9117 31.315C31.5388 31.12 30.9501 30.8957 30.6066 30.8274C30.165 30.7202 29.7627 30.7007 29.2622 30.7299C28.7912 30.7559 28.3594 30.8437 27.9669 30.9932C27.643 31.1102 27.1818 31.3345 26.9463 31.4808C26.7108 31.6368 26.2594 32.0268 25.9552 32.3486C25.651 32.6704 25.2683 33.1872 25.1015 33.4895C24.9445 33.7917 24.7188 34.3378 24.601 34.7083C24.4342 35.2642 24.3949 35.5469 24.3851 36.3075C24.3851 36.9706 24.4244 37.3801 24.5225 37.7409C24.601 38.0237 24.8169 38.5503 24.9935 38.9208C25.229 39.4083 25.494 39.7886 25.9356 40.2567C26.4262 40.7735 26.6912 40.9783 27.28 41.2903C27.6725 41.4951 28.2515 41.7193 28.5557 41.7876C28.8599 41.8559 29.3113 41.9144 29.5664 41.9144C29.8117 41.9144 30.2926 41.8559 30.6262 41.7876C30.9599 41.7096 31.4898 41.5243 31.794 41.3683C32.0982 41.222 32.5202 40.9588 32.736 40.793C32.9716 40.6077 33.2267 40.481 33.3641 40.481C33.5015 40.481 33.6585 40.5492 33.737 40.6272C33.8057 40.715 33.894 40.871 33.9136 40.988C33.9529 41.144 33.9136 41.2708 33.786 41.4463C33.6879 41.5828 33.3935 41.8461 33.1286 42.0314C32.8734 42.2264 32.373 42.4994 31.3916 42.9285L31.4211 44.0011C31.4407 45.0347 31.4407 45.0834 31.0776 45.4637L21.5001 45.454C14.101 45.454 11.893 45.4345 11.7851 45.3467C11.7164 45.298 11.6281 45.1517 11.5888 45.0347C11.5398 44.9177 11.5398 44.4204 11.579 43.8548C11.6183 43.2503 11.7262 42.5092 11.8832 41.8754C12.0206 41.2805 12.2758 40.52 12.4916 40.0227C12.7075 39.5546 13.0706 38.872 13.3061 38.5015C13.5416 38.1407 14.0127 37.5264 14.3659 37.1559C14.7094 36.7853 15.2197 36.2978 15.9851 35.6834L15.0529 35.2056C14.5426 34.9521 13.787 34.5036 13.3748 34.211C12.9627 33.9185 12.315 33.4017 11.9225 33.0507C11.53 32.6996 11.0197 32.1926 10.3524 31.4222L9.7538 31.354C9.42997 31.3247 8.96875 31.237 8.72342 31.159C8.48791 31.0907 8.04632 30.8859 7.74211 30.7202C7.40847 30.5349 6.98651 30.1936 6.6823 29.8621C6.3094 29.472 6.06408 29.1015 5.82856 28.5944C5.64211 28.2044 5.43604 27.6486 5.37716 27.3756C5.30847 27.0928 5.22996 26.5857 5.12202 25.6009L4.62155 25.0841C4.33697 24.8013 4.00333 24.343 3.86595 24.0797C3.72856 23.8067 3.56174 23.3679 3.49305 23.1144C3.42436 22.8608 3.36548 22.4025 3.36548 22.1003C3.36548 21.8077 3.42436 21.3299 3.49305 21.0471C3.56174 20.7741 3.68931 20.3938 3.77763 20.2086C3.86595 20.0233 4.05239 19.721 4.18978 19.5357C4.40567 19.253 4.46454 19.0774 4.54305 18.5216C4.59211 18.1511 4.7295 17.449 4.83744 16.9615C4.94539 16.4739 5.17109 15.6743 5.3281 15.1868C5.49492 14.709 5.76968 13.9874 6.26034 12.8758L6.05426 12.7393C5.94632 12.6613 5.69118 12.4565 5.49492 12.281C5.29866 12.1152 4.98464 11.7739 4.808 11.5399C4.62155 11.2961 4.34679 10.8573 4.19959 10.555C4.04258 10.2527 3.84632 9.70669 3.758 9.33615C3.65987 8.9071 3.60099 8.3903 3.60099 7.94175C3.60099 7.4932 3.65987 6.9764 3.758 6.54735C3.84632 6.17681 4.05239 5.61125 4.21922 5.28947C4.37623 4.96768 4.70006 4.47038 4.94538 4.19735C5.1809 3.92432 5.57342 3.54403 5.80894 3.34901C6.04445 3.16374 6.47623 2.91021 6.75099 2.78345C7.03557 2.65669 7.4281 2.50067 7.62436 2.43241C7.82062 2.36416 8.3309 2.30565 8.80193 2.30565ZM6.97669 4.07059C6.66267 4.23635 6.28978 4.54839 5.96595 4.89943C5.68137 5.20171 5.35753 5.66001 5.23978 5.91353C5.12202 6.17681 4.97482 6.60586 4.90613 6.88864C4.83744 7.16167 4.78838 7.65897 4.78838 7.98075C4.78838 8.31229 4.83744 8.78034 4.90613 9.03387C4.96501 9.28739 5.11221 9.70669 5.23978 9.96021C5.35753 10.2235 5.65193 10.6525 5.88744 10.9256C6.12296 11.1888 6.43697 11.4911 6.57436 11.5789C6.72155 11.6666 6.84912 11.7252 6.85894 11.7154C6.87856 11.7056 7.09445 11.3741 7.34959 10.9743C7.60473 10.5843 8.00707 10.009 8.24258 9.70669C8.4781 9.41416 8.90006 8.9071 9.19445 8.58532C9.47903 8.27328 10.0089 7.73698 10.3818 7.40544C10.7547 7.07391 11.3337 6.59611 11.687 6.34258C12.0304 6.0988 12.3543 5.86478 12.3935 5.82577C12.4426 5.78677 12.3543 5.59175 12.158 5.31872C11.9814 5.07494 11.6673 4.72391 11.4515 4.53864C11.2258 4.36312 10.8823 4.11934 10.6762 4.01208C10.4702 3.90482 10.0776 3.7488 9.81267 3.68055C9.53791 3.61229 9.10613 3.56353 8.84118 3.56353C8.58604 3.56353 8.16408 3.62204 7.91875 3.6903C7.67342 3.75855 7.24165 3.92432 6.97669 4.07059ZM32.2454 4.05108C31.9902 4.1876 31.6173 4.46063 31.3916 4.67515C31.1758 4.87992 30.8912 5.21146 30.7636 5.40648C30.5477 5.72826 30.5379 5.77702 30.6557 5.86478C30.7342 5.91353 31.1071 6.19631 31.4898 6.47909C31.8725 6.77162 32.5398 7.33718 32.9716 7.74673C33.4033 8.15627 34.0412 8.8486 34.3944 9.27764C34.7379 9.70669 35.2188 10.3503 35.4543 10.711C35.6996 11.0718 35.9449 11.4521 36.0136 11.5691L36.1412 11.7739C36.5533 11.5009 36.8772 11.1888 37.1127 10.9158C37.3482 10.6428 37.6426 10.2137 37.7603 9.96021C37.8781 9.70669 38.0253 9.27764 38.094 8.99486C38.1627 8.71208 38.2117 8.26353 38.2117 7.98075C38.2117 7.70772 38.1627 7.22992 38.094 6.92764C38.0253 6.62536 37.8585 6.15731 37.7211 5.87453C37.5837 5.6015 37.2599 5.1432 36.9949 4.86042C36.7398 4.57764 36.308 4.23635 36.0529 4.09009C35.7879 3.94382 35.3463 3.75855 35.0617 3.6903C34.7772 3.62204 34.3356 3.56353 34.0804 3.56353C33.8155 3.56353 33.4033 3.62204 33.1482 3.6903C32.9029 3.75855 32.4907 3.91457 32.2454 4.05108ZM19.2529 4.48988C18.8603 4.53864 18.0851 4.71416 17.5159 4.86042C16.9566 5.01644 16.1519 5.27972 15.7398 5.45523C15.3276 5.63075 14.6603 5.95254 14.2482 6.17681C13.836 6.39133 13.1589 6.81063 12.7468 7.10316C12.3346 7.38594 11.8244 7.78573 11.6085 7.971C11.3926 8.15627 10.9706 8.54631 10.6664 8.81934C10.372 9.10212 9.79305 9.74569 9.3809 10.2625C8.96875 10.7695 8.41922 11.5301 8.16408 11.9494C7.90894 12.359 7.5066 13.1 7.27109 13.5876C7.03557 14.0752 6.71174 14.8357 6.55473 15.2745C6.39772 15.7133 6.16221 16.5032 6.03464 17.0297C5.91688 17.5465 5.80894 18.0341 5.80894 18.1023C5.80894 18.2096 5.84819 18.2096 6.12296 18.1023C6.29959 18.0341 6.79025 17.9366 7.21221 17.8976C7.68324 17.8488 8.4094 17.683 9.11595 17.4685C9.7538 17.2735 10.686 16.942 11.2061 16.7274C11.7262 16.5227 12.6388 16.1229 13.2178 15.8303C13.8066 15.5476 14.7094 15.0405 15.2295 14.7187C15.7496 14.3872 16.5346 13.8314 16.9664 13.4803C17.3982 13.1391 17.987 12.632 18.2617 12.359C18.5365 12.0859 19.0173 11.5399 19.3314 11.1401C19.6356 10.75 20.087 10.087 20.3225 9.67743C20.5678 9.24839 20.8524 8.85835 20.9898 8.77059C21.1173 8.68283 21.3529 8.61457 21.5001 8.61457C21.6473 8.61457 21.8828 8.68283 22.0103 8.77059C22.1477 8.85835 22.4029 9.20938 22.5991 9.55067C22.7856 9.89196 23.1683 10.477 23.4332 10.8476C23.708 11.2181 24.1888 11.7934 24.5029 12.1152C24.8267 12.4467 25.337 12.9245 25.6412 13.1878C25.9454 13.4413 26.6225 13.9484 27.1426 14.3092C27.6627 14.6602 28.6145 15.2258 29.2622 15.5671C29.9197 15.9083 30.7734 16.3179 31.1561 16.4837C31.5487 16.6397 32.2454 16.9127 32.6968 17.0785C33.1482 17.2442 33.8645 17.4783 34.2767 17.5953C34.6888 17.7123 35.3561 17.8488 35.7683 17.8976C36.1804 17.9366 36.6515 18.0243 36.8183 18.0828C36.9753 18.1413 37.1225 18.1608 37.1519 18.1413C37.1716 18.1218 37.1029 17.722 36.9949 17.254C36.8968 16.7957 36.7005 16.0741 36.5631 15.6548C36.4258 15.2355 36.1019 14.4457 35.8566 13.8801C35.6015 13.3243 35.1795 12.5345 34.9244 12.1152C34.6692 11.6959 34.2473 11.0718 33.9921 10.7208C33.7272 10.3795 33.1973 9.74569 32.8145 9.33615C32.422 8.91685 31.7645 8.29279 31.3524 7.9515C30.9402 7.61021 30.2926 7.12266 29.9001 6.85938C29.5075 6.60586 28.8304 6.21582 28.3987 5.99154C27.9669 5.76727 27.2015 5.44548 26.701 5.26021C26.2103 5.07494 25.4449 4.84092 25.0131 4.74341C24.5716 4.63615 23.8159 4.49963 23.3155 4.44113C22.815 4.37287 21.9613 4.32411 21.4216 4.33386C20.8818 4.33386 20.3323 4.35337 20.1949 4.37287C20.0673 4.38262 19.6454 4.44113 19.2529 4.48988ZM19.4884 12.788C18.929 13.4023 18.1538 14.1434 17.7809 14.4359C17.408 14.7382 16.7505 15.216 16.3188 15.4988C15.8968 15.7816 15.0823 16.2594 14.523 16.5617C13.9538 16.8639 13.1589 17.2637 12.7468 17.449C12.3346 17.6343 11.5692 17.9463 11.0491 18.1413C10.529 18.3364 9.66548 18.6191 9.11595 18.7849C8.57623 18.9409 8.11501 19.0969 8.09539 19.1262C8.07576 19.1457 8.02669 19.4187 7.99725 19.7308C7.96782 20.0428 7.94819 20.7059 7.94819 21.2227C7.93838 21.7297 7.98744 22.5488 8.04632 23.0364C8.11501 23.5239 8.23277 24.2162 8.32109 24.5965C8.4094 24.9671 8.59585 25.6106 8.73324 26.0299C8.87062 26.4395 9.11595 27.0733 9.28277 27.4341C9.4594 27.7949 9.74398 28.3507 9.92062 28.6627C10.0973 28.9747 10.48 29.55 10.7645 29.9498C11.0491 30.3399 11.5692 30.9639 11.9225 31.3345C12.2758 31.705 12.8547 32.2511 13.2276 32.5534C13.5907 32.8459 14.2089 33.2847 14.6015 33.5285C14.994 33.782 15.5926 34.1135 15.9459 34.2793C16.2893 34.4353 16.8879 34.6888 17.2804 34.8254C17.673 34.9619 18.3795 35.1569 18.8603 35.2544C19.4491 35.3812 20.1459 35.4592 21.029 35.4884C21.7454 35.5177 22.5206 35.5079 22.7659 35.4787L23.1977 35.4202C23.4038 34.4158 23.6197 33.7917 23.7963 33.4017C23.973 33.0117 24.2281 32.5144 24.3655 32.3096C24.5029 32.0951 24.8267 31.6953 25.0916 31.4222C25.3468 31.1395 25.8473 30.7299 26.1907 30.4959C26.544 30.2619 27.1033 29.9693 27.4566 29.8426C27.8001 29.7158 28.3103 29.5793 28.5949 29.5305C28.8795 29.4818 29.3505 29.4428 29.6449 29.4428C29.9295 29.4428 30.43 29.4915 30.744 29.5598C31.058 29.6281 31.5192 29.7646 31.7744 29.8523L32.2258 30.0278C33.0893 28.6237 33.5211 27.8339 33.7272 27.3756C33.9332 26.9075 34.208 26.1859 34.3454 25.7764C34.473 25.3571 34.6496 24.6745 34.7379 24.2552C34.8262 23.8359 34.9342 23.1241 34.9734 22.6756C35.0225 22.2173 35.0617 21.5542 35.0617 21.2032C35.0617 20.8424 35.0225 20.2183 34.9832 19.8283C34.9342 19.4382 34.8949 19.1067 34.8851 19.0969C34.8753 19.0872 34.5318 18.9799 34.1197 18.8629C33.7075 18.7361 32.9814 18.5119 32.5005 18.3364C32.0197 18.1706 31.2052 17.8586 30.6851 17.6343C30.165 17.4198 29.4388 17.0882 29.0659 16.903C28.7029 16.7177 28.065 16.3666 27.6529 16.1229C27.2407 15.8791 26.5832 15.45 26.1907 15.1673C25.7982 14.8942 25.229 14.4554 24.9346 14.1922C24.6304 13.9386 24.0613 13.4023 23.6786 13.0025C23.2959 12.6027 22.7365 11.9397 22.4323 11.5204C22.1281 11.1108 21.8043 10.6233 21.7061 10.4478C21.6178 10.2722 21.5197 10.1357 21.5001 10.1357C21.4804 10.1357 21.2449 10.4868 20.9898 10.9061C20.6856 11.4131 20.1557 12.0664 19.4884 12.788ZM5.46548 19.916C5.28884 20.0818 5.07296 20.3451 4.97482 20.5011C4.88651 20.6669 4.73931 21.0276 4.66081 21.3007C4.56267 21.681 4.54305 21.954 4.5823 22.3538C4.61174 22.6853 4.70987 23.0754 4.82763 23.3289C4.94538 23.5629 5.1809 23.9139 5.35753 24.109C5.54398 24.304 5.88744 24.5575 6.12296 24.6745C6.35847 24.7818 6.70193 24.8988 6.86875 24.9378L7.19258 25.0061C7.10426 24.616 7.01595 24.148 6.93744 23.7092C6.83931 23.1144 6.80006 22.4318 6.80006 21.0764C6.79024 19.4967 6.78043 19.2432 6.67249 19.2432C6.61361 19.2432 6.3781 19.331 6.16221 19.4382C5.94632 19.5455 5.6323 19.76 5.46548 19.916ZM36.2099 21.7297C36.1902 22.3733 36.1216 23.2314 36.0529 23.6214C35.994 24.0212 35.9057 24.4893 35.8762 24.6745L35.8075 24.9963C36.2982 24.8988 36.622 24.7915 36.8379 24.6843C37.0538 24.5868 37.3874 24.3527 37.5739 24.1675C37.7701 23.9725 38.0253 23.6019 38.1627 23.2899C38.3786 22.8121 38.4178 22.6561 38.408 22.0612C38.408 21.5249 38.3687 21.3007 38.2117 20.9204C38.1038 20.6669 37.8683 20.2963 37.7015 20.0915C37.5248 19.8965 37.1716 19.6235 36.9164 19.487C36.6515 19.3505 36.3669 19.2334 36.2786 19.2334C36.1314 19.2334 36.1216 19.2627 36.1902 19.8965C36.2295 20.2476 36.2393 21.0764 36.2099 21.7297ZM6.41735 26.498C6.43697 26.7027 6.52529 27.0928 6.61361 27.3756C6.70193 27.6486 6.84912 28.0289 6.95707 28.2142C7.0552 28.3994 7.32996 28.7505 7.55567 28.9942C7.79118 29.238 8.16408 29.5305 8.38978 29.6476C8.61548 29.7646 8.90987 29.8913 9.04725 29.9206L9.29258 29.9888C8.4781 28.5457 8.07576 27.7071 7.8795 27.1805L7.5066 26.2347C7.07482 26.2347 6.81968 26.2054 6.66267 26.1762L6.36828 26.1274L6.41735 26.498ZM35.4445 26.2737C35.1697 27.0635 34.9342 27.6291 34.7379 28.0484C34.5416 28.4677 34.2374 29.0527 34.0608 29.355C33.8744 29.6573 33.7272 29.9303 33.7272 29.9693C33.7272 29.9986 33.894 29.9596 34.1001 29.8816C34.3061 29.7938 34.6398 29.6281 34.836 29.511C35.0225 29.3843 35.3463 29.1015 35.5524 28.8772C35.7487 28.6529 36.0038 28.2629 36.1314 28.0094C36.2491 27.7559 36.4159 27.2586 36.4944 26.9075C36.5828 26.5662 36.6515 26.2542 36.6416 26.2152C36.6416 26.1762 36.5631 26.1567 36.465 26.1664C36.3669 26.1762 36.1019 26.2054 35.8664 26.2249L35.4445 26.2737ZM18.1047 37.1559C18.144 37.2924 18.2323 37.5166 18.301 37.6629C18.3795 37.7994 18.5561 37.9944 18.6935 38.1017C18.8309 38.209 19.0664 38.3162 19.2234 38.3455C19.3706 38.3747 19.6258 38.3747 19.7926 38.3455C19.9594 38.3162 20.2047 38.1797 20.3716 38.0139C20.5286 37.8677 20.7052 37.6434 20.7641 37.5069C20.823 37.3801 20.872 37.1656 20.872 37.0291C20.872 36.7951 20.8524 36.7756 20.5776 36.7756C20.4206 36.7756 19.93 36.7171 19.4982 36.6488C19.0664 36.5805 18.5856 36.5025 18.4286 36.4733C18.1734 36.4245 18.1538 36.4343 18.0949 36.6586C18.0655 36.7951 18.0753 37.0096 18.1047 37.1559ZM15.1608 38.092C14.8959 38.3747 14.4935 38.9013 14.258 39.2718C14.0225 39.6326 13.6888 40.2372 13.5318 40.6077C13.3748 40.9783 13.1491 41.6413 13.0412 42.0899C12.9332 42.5287 12.8155 43.182 12.7762 43.5428L12.7173 44.1961H30.2631C30.2631 43.8353 30.2435 43.611 30.2141 43.4745L30.165 43.221C28.9286 43.1332 28.3005 43.0357 27.9767 42.948C27.643 42.8505 27.1131 42.6359 26.7893 42.4702C26.4655 42.2947 26.0239 42.0119 25.808 41.8364C25.5921 41.6608 25.18 41.261 24.8954 40.9393C24.6108 40.6175 24.2968 40.1982 24.1888 40.0032L23.9926 39.6521C23.0996 39.5936 22.7365 39.5156 22.4912 39.3986C22.2753 39.2913 21.9515 39.0768 21.7846 38.9305L21.4706 38.6478C21.0977 39.0476 20.8033 39.2523 20.558 39.3791C20.2047 39.5546 20.0085 39.5936 19.4982 39.5936C18.9388 39.5936 18.7916 39.5644 18.3304 39.3206C17.9772 39.1386 17.7122 38.9305 17.5356 38.6965C17.3884 38.4917 17.2117 38.2187 17.1431 38.0822C17.0842 37.9457 16.986 37.5751 16.9468 37.2631C16.8977 36.9413 16.8388 36.6878 16.7996 36.6878C16.7603 36.6878 16.4758 36.8926 16.1814 37.1266C15.8772 37.3704 15.4159 37.7994 15.1608 38.092ZM22.1281 37.0681C22.1379 37.2046 22.2164 37.4581 22.3047 37.6142C22.393 37.7799 22.5697 37.9944 22.7169 38.1017C22.8543 38.1992 23.0702 38.3065 23.1977 38.3357L23.4431 38.3845C23.2959 37.5654 23.2272 37.1754 23.2075 37.0096C23.1781 36.8243 23.1192 36.6976 23.0603 36.7073C23.0113 36.7073 22.7659 36.7366 22.5304 36.7658C22.1085 36.8146 22.0987 36.8243 22.1281 37.0681ZM29.586 32.6411C29.694 32.6411 29.8706 32.7386 29.9786 32.8556C30.1748 33.0604 30.1846 33.0897 30.1846 35.6737H31.4015C32.5987 35.6737 32.6281 35.6834 32.8244 35.8882C32.9323 36.0052 33.0206 36.1905 33.0206 36.3075C33.0206 36.4245 32.9323 36.6195 32.8244 36.7268C32.6379 36.9413 32.6085 36.9413 30.1846 36.9413V39.5546L29.9589 39.7789C29.7921 39.9544 29.7038 39.9934 29.5075 39.9446C29.38 39.9154 29.2131 39.8081 29.1346 39.7009C29.0071 39.5351 28.9874 39.3401 28.9973 36.9413H27.7902C26.7206 36.9511 26.5734 36.9316 26.3968 36.7853C26.2496 36.6586 26.2005 36.5415 26.2005 36.3075C26.2005 36.0832 26.2496 35.9565 26.3968 35.8395C26.5734 35.6834 26.7206 35.6737 28.9973 35.6737V34.3671C29.0071 33.0994 29.0071 33.0507 29.1935 32.8459C29.3015 32.7386 29.4781 32.6411 29.586 32.6411ZM14.7683 20.3938C14.8566 20.4133 14.994 20.5108 15.0823 20.5986C15.2197 20.7449 15.2393 20.8716 15.2393 21.7297C15.2393 22.6756 15.2295 22.7146 15.043 22.8706C14.9351 22.9681 14.7487 23.0364 14.6309 23.0364C14.5033 23.0364 14.3365 22.9583 14.2482 22.8608C14.1108 22.7146 14.0912 22.5781 14.0912 21.7005C14.0912 20.8619 14.1108 20.6961 14.2286 20.5791C14.3071 20.5011 14.4248 20.4231 14.4935 20.3938C14.5524 20.3646 14.68 20.3646 14.7683 20.3938ZM28.4281 20.3743C28.5459 20.4036 28.7029 20.5108 28.7814 20.6083C28.8991 20.7644 28.9286 20.9594 28.9188 21.7492C28.9188 22.5781 28.8991 22.7146 28.7617 22.8608C28.6734 22.9583 28.4968 23.0266 28.3692 23.0266C28.222 23.0266 28.0552 22.9486 27.9374 22.8218C27.751 22.6171 27.7314 22.5586 27.7412 21.72C27.751 20.8424 27.751 20.8229 27.9865 20.5693C28.173 20.3646 28.2613 20.3256 28.4281 20.3743ZM20.2832 23.2021C20.3323 23.2021 20.4893 23.2899 20.6365 23.3874C20.7837 23.4947 20.98 23.6214 21.0683 23.6799C21.1566 23.7384 21.3529 23.7872 21.5099 23.7872C21.6767 23.7969 21.8828 23.7189 22.0594 23.5824C22.2066 23.4654 22.4127 23.3386 22.5108 23.2899C22.6089 23.2411 22.7856 23.2314 22.9033 23.2606C23.0113 23.2996 23.1585 23.4069 23.2173 23.4947C23.2762 23.5922 23.3253 23.7482 23.3253 23.8554C23.3253 23.953 23.1879 24.1967 23.0211 24.382C22.8346 24.6063 22.5697 24.7915 22.2949 24.8988C21.9711 25.0256 21.7356 25.0646 21.3529 25.0353C21.0683 25.0158 20.715 24.9281 20.558 24.85C20.4108 24.7623 20.1557 24.5575 19.9888 24.3917C19.8122 24.2162 19.6945 24.0017 19.6945 23.8944C19.6945 23.7872 19.7337 23.6312 19.7926 23.5337C19.8416 23.4361 19.9594 23.3289 20.0477 23.2801C20.136 23.2411 20.244 23.2119 20.2832 23.2021ZM14.6407 23.8749C15.7202 23.8749 15.7594 23.8847 15.9459 24.0895C16.0538 24.1967 16.1421 24.3917 16.1421 24.5088C16.1421 24.6258 16.0538 24.811 15.9557 24.9281C15.7594 25.1328 15.73 25.1426 14.6505 25.1426C13.5711 25.1426 13.5416 25.1328 13.3454 24.9281C13.2374 24.811 13.1491 24.6258 13.1491 24.499C13.1589 24.382 13.2374 24.1967 13.3454 24.0797C13.5318 23.8847 13.5711 23.8749 14.6407 23.8749ZM28.3594 23.8749C29.3015 23.8652 29.4585 23.8847 29.6253 24.031C29.7725 24.1577 29.8216 24.2747 29.8216 24.5088C29.8216 24.733 29.7725 24.8598 29.6253 24.9768C29.4487 25.1231 29.3113 25.1426 28.33 25.1426C27.2996 25.1328 27.2113 25.1231 27.0445 24.9476C26.9365 24.8305 26.858 24.655 26.858 24.4893C26.858 24.2942 26.9071 24.1772 27.0739 24.0505C27.2603 23.8944 27.3977 23.8749 28.3594 23.8749ZM21.5197 39.8081C21.6374 39.8081 21.8141 39.8861 21.9024 39.9739C21.9907 40.0714 22.0594 40.2567 22.0594 40.4225C22.0594 40.598 22.0005 40.754 21.8926 40.8612C21.8043 40.9588 21.6276 41.027 21.5001 41.027C21.3725 41.027 21.1959 40.949 21.0977 40.8417C20.98 40.7247 20.9113 40.5492 20.9113 40.3834C20.9113 40.2079 20.98 40.0714 21.1075 39.9642C21.2057 39.8764 21.3921 39.8081 21.5197 39.8081ZM21.5001 42.0899C21.6571 42.0899 21.8435 42.1484 21.922 42.2361C22.0005 42.3142 22.0594 42.4897 22.0594 42.6359C22.0594 42.7724 22.0103 42.9675 21.9416 43.0747C21.8533 43.2112 21.7454 43.2698 21.5295 43.2698C21.3234 43.2698 21.1762 43.2112 21.0683 43.0942C20.9898 42.987 20.9113 42.8017 20.9113 42.6749C20.9113 42.5482 20.98 42.3629 21.0683 42.2654C21.1664 42.1484 21.3038 42.0899 21.5001 42.0899Z" fill="#790000"/>
</svg>
