<svg width="36" height="56" viewBox="0 0 36 56" fill="none" xmlns="http://www.w3.org/2000/svg">
<path d="M21.9021 31.1743C20.6917 31.6457 19.3767 31.9075 17.9996 31.9075C16.6226 31.9075 15.3076 31.6462 14.0971 31.1743C6.92325 31.6819 1.25977 37.6585 1.25977 44.9618V54.5341C1.25977 55.0739 1.69696 55.5111 2.23673 55.5111H33.7635C34.3033 55.5111 34.7404 55.0739 34.7404 54.5341V44.9623C34.7404 37.6585 29.0765 31.6814 21.9021 31.1743Z" fill="#CAE9FF"/>
<path d="M17.9997 31.9076C16.5553 31.9076 15.1787 31.6208 13.9204 31.1045L16.5118 35.7749C16.5651 35.8711 18.0002 38.2334 18.0002 38.2334C18.0002 38.2334 19.3651 35.874 19.4178 35.7778C19.7925 35.0939 21.2711 32.397 21.9545 31.1533C20.7299 31.6384 19.3963 31.9076 17.9997 31.9076Z" fill="white"/>
<path d="M14.0092 40.2603L7.88748 33.1548C6.76592 33.8401 5.74988 34.6803 4.86865 35.6461L8.84393 40.2598L14.0092 40.2603Z" fill="#14242D"/>
<path d="M17.9995 44.8911V50.8858L21.9841 55.5103H27.1493L17.9995 44.8911Z" fill="#14242D"/>
<path d="M13.4045 50.706C13.9301 50.706 14.3561 51.132 14.3561 51.6576C14.3561 51.6576 16.6837 51.0733 18.0002 52.3409V41.2123C18.0002 40.6867 17.5742 40.2607 17.0486 40.2607H5.61124C5.08563 40.2607 4.65967 40.6867 4.65967 41.2123V50.7065L13.4045 50.706Z" fill="white"/>
<path d="M13.4045 50.706C13.9301 50.706 14.3561 51.132 14.3561 51.6576C14.3561 51.6576 16.6837 51.0733 18.0002 52.3409V41.2123C18.0002 40.6867 17.5742 40.2607 17.0486 40.2607H5.61124C5.08563 40.2607 4.65967 40.6867 4.65967 41.2123V50.7065L13.4045 50.706Z" fill="#CAE9FF" fill-opacity="0.4"/>
<path d="M17.0486 40.2607H5.61124C5.08563 40.2607 4.65967 40.6867 4.65967 41.2123V42.7833C4.65967 42.2577 5.08563 41.8317 5.61124 41.8317H17.0481C17.5737 41.8317 17.9997 42.2577 17.9997 42.7833V41.2123C18.0002 40.6867 17.5737 40.2607 17.0486 40.2607Z" fill="white"/>
<path d="M14.0682 43.3223H8.5918V46.0304H14.0682V43.3223Z" fill="white"/>
<path d="M14.355 51.6584C14.355 51.6584 19.3233 50.4093 18.8476 55.5115H14.355V51.6584Z" fill="white"/>
<path d="M29.3914 18.7246C29.1667 18.7246 28.9528 18.791 28.7589 18.9093V21.1499C28.7589 21.7635 28.7046 22.3638 28.606 22.9495C28.839 23.1361 29.1047 23.2514 29.3914 23.2514C30.2766 23.2514 30.9942 22.2383 30.9942 20.9882C30.9942 19.7382 30.2766 18.7246 29.3914 18.7246Z" fill="white"/>
<path d="M7.24214 21.1499V18.9093C7.04772 18.791 6.83425 18.7246 6.60955 18.7246C5.72442 18.7246 5.00684 19.7377 5.00684 20.9878C5.00684 22.2378 5.72442 23.2509 6.60955 23.2509C6.89678 23.2509 7.16203 23.1356 7.39503 22.949C7.29587 22.3643 7.24214 21.7635 7.24214 21.1499Z" fill="white"/>
<path d="M17.9991 31.907C12.0582 31.907 7.24219 27.091 7.24219 21.1501V11.2578H28.7555V21.1506C28.7555 27.091 23.9395 31.907 17.9991 31.907Z" fill="white"/>
<path d="M13.9459 23.0183H10.9891C9.28573 23.0183 7.90479 21.6373 7.90479 19.934V18.1207C7.90479 16.6533 9.09424 15.4639 10.5616 15.4639H15.2096C16.2154 15.4639 17.0302 16.2791 17.0302 17.2844V19.934C17.0302 21.6373 15.6492 23.0183 13.9459 23.0183Z" fill="white"/>
<path d="M21.9852 23.0183H24.942C26.6453 23.0183 28.0262 21.6373 28.0262 19.934V18.1207C28.0262 16.6533 26.8368 15.4639 25.3694 15.4639H20.7229C19.7166 15.4639 18.9009 16.2796 18.9009 17.2859V19.934C18.9004 21.6373 20.2813 23.0183 21.9852 23.0183Z" fill="white"/>
<path d="M23.5866 30.9037C26.2606 29.3659 28.2448 26.7618 28.956 23.6746C29.0991 23.7166 29.2447 23.74 29.3913 23.74C30.5641 23.74 31.4829 22.5315 31.4829 20.9884C31.4829 20.1341 31.2006 19.3833 30.7497 18.8826L30.8386 15.2101C30.8386 8.78657 26.1209 3.46454 19.9611 2.5203C19.9919 2.24773 20.0451 1.92826 20.1408 1.62589C20.3914 0.833079 20.8662 0.142851 20.6166 0.0177993C20.1404 -0.220581 18.033 2.01423 18.033 2.01423C18.033 2.01423 16.4533 0.572717 15.9291 0.914656C15.7484 1.03238 15.913 1.87599 16.0684 2.51639C9.89392 3.44793 5.16051 8.77631 5.16051 15.2106L5.24941 18.8835C4.79903 19.3842 4.51669 20.135 4.51669 20.9894C4.51669 22.5325 5.43504 23.741 6.60789 23.741C6.75443 23.741 6.90049 23.7181 7.04362 23.6756C7.75485 26.7628 9.73907 29.3669 12.413 30.9046C5.79359 32.1605 0.770996 37.9832 0.770996 44.9627V54.5345C0.770996 55.3425 1.4285 56 2.23645 56H33.7637C34.5716 56 35.2291 55.3425 35.2291 54.5345V44.9622C35.2296 37.9823 30.2061 32.1595 23.5866 30.9037ZM22.2081 55.0225L18.4883 50.7048V46.2069L26.0837 55.0221L22.2081 55.0225ZM14.7289 51.0946C14.5091 50.5798 13.9982 50.2178 13.4042 50.2178H5.14781V41.2121C5.14781 40.9571 5.35542 40.749 5.61089 40.749H17.0483C17.3032 40.749 17.5113 40.9566 17.5113 41.2121V43.6062V51.4253C16.5085 50.951 15.3659 51.0067 14.7289 51.0946ZM11.9592 37.1328L8.64535 33.287C9.39664 32.8708 10.1919 32.5254 11.0228 32.2592L11.9592 37.1328ZM11.967 31.9959C12.5288 31.8606 13.1033 31.7585 13.6904 31.6974L15.9936 35.8476L13.2239 38.5377L11.967 31.9959ZM13.8331 39.3075L16.506 36.7117C16.8353 37.2554 17.2739 37.9784 17.5113 38.3687V39.8551C17.3653 39.8053 17.2114 39.7721 17.0483 39.7721H14.2336L13.8331 39.3075ZM18.8078 52.5728L20.9185 55.0225H19.3642C19.3881 54.0304 19.2025 53.2108 18.8078 52.5728ZM17.99 37.2754C17.4967 36.4621 14.9624 31.9759 14.9624 31.9759C15.9291 32.2475 16.9471 32.396 17.9998 32.396C19.0129 32.396 19.9948 32.2592 20.9293 32.0067C20.4969 32.7941 18.3926 36.5793 17.99 37.2754ZM22.2179 31.6882C22.8412 31.7487 23.4513 31.8547 24.0468 31.9988L22.7772 38.6075L19.9367 35.8471C19.9367 35.8471 21.6718 32.6832 22.2179 31.6882ZM16.8426 22.0176C17.2661 21.4305 17.5187 20.7119 17.5187 19.9343V18.0751H18.4126V19.9343C18.4126 20.7173 18.6686 21.4398 19.0974 22.0294C18.8898 22.0855 18.734 22.2673 18.734 22.4925V23.2095C18.734 23.6145 18.4043 23.9442 17.9993 23.9442C17.5944 23.9442 17.2647 23.6145 17.2647 23.2095V22.4925C17.2647 22.2463 17.0795 22.0509 16.8426 22.0176ZM20.6909 14.5487C20.6459 14.6738 20.5712 14.8301 20.4808 15.0001C19.3847 15.1168 18.523 15.9946 18.4321 17.0981H17.5001C17.4576 16.5774 17.2466 16.107 16.9149 15.7406C17.2627 15.6879 18.2001 15.4246 19.011 14.9302C20.0285 14.3099 20.8545 13.3602 20.8545 13.3602C20.8545 13.3602 20.8731 14.0412 20.6909 14.5487ZM10.5617 14.9757C10.4229 14.9757 10.2871 14.9879 10.1528 15.0055C10.5827 14.1452 10.9095 13.3607 10.9095 13.3607C10.9095 13.3607 10.8543 14.2195 10.7112 14.9757H10.5617ZM13.197 14.727C13.177 14.8159 13.1531 14.8975 13.1277 14.9757H12.2636C12.8409 14.1692 13.2542 13.3607 13.2542 13.3607C13.2542 13.3607 13.3177 14.1926 13.197 14.727ZM16.8192 15.6341C16.4191 15.2438 15.8783 15.0016 15.2809 14.983C16.5495 14.3094 17.7312 13.3607 17.7312 13.3607C17.7312 13.3607 17.6887 14.2962 17.4791 14.7422C17.2593 15.2106 16.9486 15.49 16.8192 15.6341ZM8.3933 18.121C8.3933 17.9266 8.42749 17.7415 8.47585 17.5617C8.77236 17.2154 9.07327 16.8397 9.31653 16.4817C9.36343 16.4128 9.41081 16.34 9.4577 16.2653C9.74689 16.0928 10.0771 15.9873 10.4322 15.9658C10.2095 16.5457 9.98038 16.8597 10.0302 16.868C10.0781 16.8759 10.7825 16.574 11.4395 15.9526H15.2101C15.9448 15.9526 16.5422 16.55 16.5422 17.2847V19.9343C16.5422 21.3655 15.3776 22.5301 13.9464 22.5301H10.9896C9.55833 22.5301 8.39379 21.3655 8.39379 19.9343L8.3933 18.121ZM19.3896 19.9343V17.2862C19.3896 17.0825 19.4394 16.8915 19.5214 16.7186C19.5908 16.72 20.3665 16.4001 21.2179 15.9526H25.3696C26.5654 15.9526 27.538 16.9252 27.538 18.121V19.9343C27.538 21.3655 26.3734 22.5301 24.9422 22.5301H21.9854C20.5546 22.5301 19.3896 21.3655 19.3896 19.9343ZM25.3696 14.9757H22.7918C24.2456 13.8663 25.5528 12.1698 25.5528 12.1698L28.2682 15.1198V16.8993C27.79 15.7699 26.6709 14.9757 25.3696 14.9757ZM29.1373 22.7084L29.1348 22.7069C29.2056 22.1979 29.2452 21.6791 29.2452 21.1511V19.2308L29.2472 19.2304C29.8939 19.0863 30.506 19.9504 30.506 20.9889C30.506 22.0836 29.8416 23.0122 29.1373 22.7084ZM6.8619 22.7084C6.16142 23.0098 5.49366 22.0841 5.49366 20.9889C5.49366 20.0271 6.00412 19.2142 6.60789 19.2142C6.65625 19.2142 6.70412 19.2196 6.75199 19.2304L6.75395 19.2308V21.1511C6.75395 21.6791 6.79351 22.1979 6.86385 22.7069L6.8619 22.7084ZM7.74508 21.4217C8.31074 22.6502 9.55052 23.507 10.9891 23.507H13.9459C14.8418 23.507 15.66 23.1729 16.2877 22.6258V23.2095C16.2877 24.1533 17.0556 24.9212 17.9993 24.9212C18.9431 24.9212 19.711 24.1533 19.711 23.2095V22.6874C20.3294 23.1988 21.1217 23.5065 21.9849 23.5065H24.9417C26.4496 23.5065 27.7392 22.5662 28.2629 21.2429C28.213 26.8624 23.6306 31.419 17.9998 31.419C12.4291 31.419 7.89065 26.9577 7.74508 21.4217ZM7.79783 33.7999L12.944 39.7726H9.06887L5.53274 35.6683C6.21564 34.9659 6.97474 34.3387 7.79783 33.7999ZM2.23645 55.0225C1.96729 55.0225 1.74796 54.8032 1.74796 54.5341V44.9622C1.74796 41.7045 2.92374 38.717 4.87084 36.3981L7.7783 39.7726H5.61089C4.81711 39.7726 4.17084 40.4183 4.17084 41.2126V50.2183H4.05019C3.78055 50.2183 3.5617 50.4371 3.5617 50.7068C3.5617 50.9764 3.78055 51.1953 4.05019 51.1953H13.4037C13.6592 51.1953 13.8668 51.4029 13.8668 51.6584V55.023H4.05019L2.23645 55.0225ZM14.8442 55.0225V52.0653C15.4719 51.9778 16.7557 51.9085 17.5792 52.6172C18.1493 53.1077 18.4209 53.9156 18.3891 55.0225H14.8442ZM34.2527 54.5341C34.2527 54.8032 34.0338 55.0225 33.7642 55.0225H27.3733L27.1521 54.7656V49.7884C27.1521 49.5188 26.9337 49.3 26.6636 49.3C26.3934 49.3 26.1751 49.5188 26.1751 49.7884V53.6318L18.4883 44.7102V38.3657C18.6529 38.0809 19.0999 37.3082 19.4374 36.7234L22.7464 39.9396C22.8387 40.0295 22.9613 40.0779 23.0869 40.0779C23.1362 40.0779 23.1851 40.0705 23.2334 40.0554C23.4049 40.0012 23.5329 39.8581 23.5671 39.6812L24.992 32.2636C26.942 32.8913 28.6957 33.9567 30.1406 35.343C27.7119 36.6575 26.1756 39.1957 26.1756 41.9971V43.6062C26.1756 43.8758 26.3939 44.0947 26.6641 44.0947C26.9342 44.0947 27.1525 43.8758 27.1525 43.6062V41.9971C27.1525 39.4643 28.5941 37.1787 30.8508 36.0762C32.9645 38.437 34.2527 41.5516 34.2527 44.9622V54.5341Z" fill="#14242D"/>
<path d="M20.1697 39.3711C19.8234 39.3711 19.543 39.6515 19.543 39.9978C19.543 40.3442 19.8234 40.6245 20.1697 40.6245C20.516 40.6245 20.7964 40.3442 20.7964 39.9978C20.7964 39.6515 20.5155 39.3711 20.1697 39.3711Z" fill="#14242D"/>
<path d="M20.1697 42.1953C19.8234 42.1953 19.543 42.4757 19.543 42.822C19.543 43.1684 19.8234 43.4488 20.1697 43.4488C20.516 43.4488 20.7964 43.1684 20.7964 42.822C20.7964 42.4757 20.5155 42.1953 20.1697 42.1953Z" fill="#14242D"/>
<path d="M14.0679 42.8345H8.59102C8.32138 42.8345 8.10254 43.0533 8.10254 43.323V46.0311C8.10254 46.3008 8.32138 46.5196 8.59102 46.5196H14.0679C14.3375 46.5196 14.5564 46.3008 14.5564 46.0311V43.323C14.5564 43.0533 14.3375 42.8345 14.0679 42.8345ZM13.5794 45.5426H9.08V43.8114H13.5794V45.5426Z" fill="#14242D"/>
<path d="M26.6633 45.0186C26.3932 45.0186 26.1748 45.2374 26.1748 45.507V47.8855C26.1748 48.1551 26.3932 48.3739 26.6633 48.3739C26.9334 48.3739 27.1518 48.1551 27.1518 47.8855V45.507C27.1518 45.2374 26.9334 45.0186 26.6633 45.0186Z" fill="#14242D"/>
<path d="M20.7724 26.4377C20.9346 26.2238 20.8925 25.9199 20.6801 25.7563C20.4666 25.5931 20.1608 25.6327 19.9962 25.8452C19.9669 25.8823 19.2737 26.7552 18.0002 26.7552C16.7004 26.7552 16.0424 25.8965 16.0111 25.8545C15.8529 25.6376 15.549 25.5897 15.3312 25.7465C15.1123 25.9043 15.063 26.2096 15.2208 26.4284C15.2593 26.4817 16.1826 27.7322 18.0002 27.7322C19.771 27.7327 20.7323 26.4905 20.7724 26.4377Z" fill="#14242D"/>
</svg>
