<svg width="26" height="30" viewBox="0 0 26 30" fill="none" xmlns="http://www.w3.org/2000/svg">
<path d="M7 4.61336L13 8.08003L19 4.61336M7 25.3867V18.4667L1 15M25 15L19 18.4667V25.3867M1.36003 8.28003L13 15.0134L24.64 8.28003M13 28.44V15M25 20.3334V9.6667C24.9995 9.19906 24.8761 8.73978 24.6421 8.33492C24.408 7.93005 24.0717 7.59385 23.6667 7.36003L14.3333 2.0267C13.9279 1.79265 13.4681 1.66943 13 1.66943C12.5319 1.66943 12.0721 1.79265 11.6667 2.0267L2.33333 7.36003C1.92835 7.59385 1.59197 7.93005 1.35795 8.33492C1.12392 8.73978 1.00048 9.19906 1 9.6667V20.3334C1.00048 20.801 1.12392 21.2603 1.35795 21.6651C1.59197 22.07 1.92835 22.4062 2.33333 22.64L11.6667 27.9734C12.0721 28.2074 12.5319 28.3306 13 28.3306C13.4681 28.3306 13.9279 28.2074 14.3333 27.9734L23.6667 22.64C24.0717 22.4062 24.408 22.07 24.6421 21.6651C24.8761 21.2603 24.9995 20.801 25 20.3334Z" stroke="#3F8BF1" stroke-width="1.4" stroke-linecap="round" stroke-linejoin="round"/>
</svg>
