<svg width="19" height="19" viewBox="0 0 19 19" fill="none" xmlns="http://www.w3.org/2000/svg">
<path d="M16.5 12.4086V6.40862C16.4997 6.14557 16.4303 5.88723 16.2987 5.65949C16.167 5.43175 15.9778 5.24264 15.75 5.11112L10.5 2.11112C10.272 1.97947 10.0133 1.91016 9.75 1.91016C9.4867 1.91016 9.22803 1.97947 9 2.11112L3.75 5.11112C3.5222 5.24264 3.33299 5.43175 3.20135 5.65949C3.06971 5.88723 3.00027 6.14557 3 6.40862V12.4086C3.00027 12.6717 3.06971 12.93 3.20135 13.1577C3.33299 13.3855 3.5222 13.5746 3.75 13.7061L9 16.7061C9.22803 16.8378 9.4867 16.9071 9.75 16.9071C10.0133 16.9071 10.272 16.8378 10.5 16.7061L15.75 13.7061C15.9778 13.5746 16.167 13.3855 16.2987 13.1577C16.4303 12.93 16.4997 12.6717 16.5 12.4086Z" stroke="#212121" stroke-width="1.4" stroke-linecap="round" stroke-linejoin="round"/>
<path d="M3.20239 5.62891L9.74989 9.41641L16.2974 5.62891" stroke="black" stroke-width="1.4" stroke-linecap="round" stroke-linejoin="round"/>
<path d="M9.75 16.9702V9.41016" stroke="black" stroke-width="1.4" stroke-linecap="round" stroke-linejoin="round"/>
</svg>
