<svg width="43" height="42" viewBox="0 0 43 42" fill="none" xmlns="http://www.w3.org/2000/svg">
<path d="M21.4998 0.166992C9.99984 0.166992 0.666504 9.50033 0.666504 21.0003C0.666504 32.5003 9.99984 41.8337 21.4998 41.8337C32.9998 41.8337 42.3332 32.5003 42.3332 21.0003C42.3332 9.50033 32.9998 0.166992 21.4998 0.166992ZM21.4998 37.667C12.3123 37.667 4.83317 30.1878 4.83317 21.0003C4.83317 11.8128 12.3123 4.33366 21.4998 4.33366C30.6873 4.33366 38.1665 11.8128 38.1665 21.0003C38.1665 30.1878 30.6873 37.667 21.4998 37.667ZM31.0623 11.792L17.3332 25.5212L11.9373 20.1462L8.99984 23.0837L17.3332 31.417L33.9998 14.7503L31.0623 11.792Z" fill="#61646B"/>
</svg>
