<svg width="14" height="17" viewBox="0 0 14 17" fill="none" xmlns="http://www.w3.org/2000/svg">
<path d="M12.3335 3.16667H1.66683C0.933496 3.16667 0.333496 3.76667 0.333496 4.5V12.5C0.333496 13.2333 0.933496 13.8333 1.66683 13.8333H12.3335C13.0668 13.8333 13.6668 13.2333 13.6668 12.5V4.5C13.6668 3.76667 13.0668 3.16667 12.3335 3.16667ZM12.3335 12.5H1.66683V4.5H12.3335V12.5ZM1.66683 0.5H12.3335V1.83333H1.66683V0.5ZM1.66683 15.1667H12.3335V16.5H1.66683V15.1667ZM7.00016 8.5C7.92016 8.5 8.66683 7.75333 8.66683 6.83333C8.66683 5.91333 7.92016 5.16667 7.00016 5.16667C6.08016 5.16667 5.3335 5.91333 5.3335 6.83333C5.3335 7.75333 6.08016 8.5 7.00016 8.5ZM7.00016 6.16667C7.36683 6.16667 7.66683 6.46667 7.66683 6.83333C7.66683 7.2 7.36683 7.5 7.00016 7.5C6.6335 7.5 6.3335 7.2 6.3335 6.83333C6.3335 6.46667 6.6335 6.16667 7.00016 6.16667ZM10.3335 11.16C10.3335 9.76667 8.12683 9.16667 7.00016 9.16667C5.8735 9.16667 3.66683 9.76667 3.66683 11.16V11.8333H10.3335V11.16ZM4.8735 10.8333C5.28016 10.4867 6.22683 10.1667 7.00016 10.1667C7.78016 10.1667 8.72683 10.4867 9.1335 10.8333H4.8735Z" fill="white"/>
</svg>
