<svg width="16" height="17" viewBox="0 0 16 17" fill="none" xmlns="http://www.w3.org/2000/svg">
<path d="M7.20848 15.2996C6.59344 14.806 0.882137 9.25199 0.818298 9.19126C0.566054 8.93902 0.407233 8.67743 0.363636 8.43764C0.318481 8.18851 0.394777 7.97052 0.597195 7.76811C0.7856 7.5797 1.01604 7.48005 1.26362 7.48005C1.56569 7.48005 1.87554 7.6233 2.13402 7.88333L4.72341 10.3715C4.76857 10.4151 4.82773 10.4369 4.88534 10.4369C4.94607 10.4369 5.00524 10.4136 5.05039 10.3684C5.1407 10.2781 5.1407 10.1317 5.05195 10.0414L0.91795 5.77195C0.503771 5.35777 0.309138 4.72405 0.80117 4.23202C0.989575 4.04361 1.22002 3.94396 1.46759 3.94396C1.76966 3.94396 2.07952 4.08721 2.33799 4.34724L6.56697 8.47034C6.61213 8.51394 6.6713 8.5373 6.73046 8.5373C6.78963 8.5373 6.85036 8.51394 6.89551 8.46878C6.98582 8.37847 6.98738 8.23211 6.89707 8.14024L1.81793 2.93343C1.58282 2.69831 1.44112 2.41648 1.41621 2.14244C1.39285 1.86373 1.49095 1.60525 1.70115 1.39505C1.88956 1.20665 2.12 1.10699 2.36757 1.10699C2.66965 1.10699 2.9795 1.25024 3.23797 1.50872L8.41832 6.55983C8.46348 6.60342 8.52264 6.62678 8.58181 6.62678C8.64098 6.62678 8.7017 6.60342 8.74686 6.55827C8.83717 6.46796 8.83873 6.3216 8.74842 6.22973L4.98655 2.36354C4.74988 2.12687 4.60819 1.8466 4.58483 1.57256C4.56148 1.29384 4.65957 1.03537 4.86977 0.825166C5.05818 0.636761 5.28862 0.537109 5.5362 0.537109C5.83827 0.537109 6.14812 0.680359 6.4066 0.940389C7.78615 2.29503 11.3876 5.83735 11.5091 5.96814C11.9715 6.28734 12.065 5.80465 12.0883 5.49168C12.1148 5.12733 11.6975 3.85521 11.9404 2.71077C12.3483 1.18952 13.5239 1.43865 13.5504 1.4511C14.195 1.75318 14.072 2.20472 13.8431 3.11249L13.8198 3.29155C13.58 4.47803 15.2274 7.99388 15.3488 8.25702C15.995 9.67084 16.7393 12.5374 14.2744 15.0022C11.5729 17.7037 8.22836 16.3195 7.20848 15.2996Z" fill="url(#paint0_radial_553_126543)"/>
<defs>
<radialGradient id="paint0_radial_553_126543" cx="0" cy="0" r="1" gradientUnits="userSpaceOnUse" gradientTransform="translate(4.79756 4.48736) rotate(-45) scale(14.1704)">
<stop offset="0.3533" stop-color="#F9DDBD"/>
<stop offset="0.8723" stop-color="#FFD29C"/>
</radialGradient>
</defs>
</svg>
