<svg width="60" height="56" viewBox="0 0 60 56" fill="none" xmlns="http://www.w3.org/2000/svg">
<path d="M57.072 34.2584V13.1858C57.072 12.8208 56.7761 12.5249 56.4111 12.5249H24.8352C24.4702 12.5249 24.1743 12.8208 24.1743 13.1858V34.2584H57.072Z" fill="#14242D"/>
<path d="M54.502 34.2582V15.0947L26.7443 15.0947L26.7443 34.2582H54.502Z" fill="#CAE9FF"/>
<path d="M58.4044 37.5405H22.841C22.2732 37.5405 21.813 37.0802 21.813 36.5125V35.2858C21.813 34.7181 22.2732 34.2578 22.841 34.2578H58.4044C58.9722 34.2578 59.4324 34.7181 59.4324 35.2858V36.5125C59.4324 37.0802 58.9722 37.5405 58.4044 37.5405Z" fill="#14242D"/>
<path d="M28.1802 18.9023C27.9595 18.9023 27.7496 18.9679 27.5592 19.0836V21.2829C27.5592 21.885 27.5059 22.4748 27.4092 23.0492C27.638 23.2325 27.8986 23.3451 28.1802 23.3451C29.049 23.3451 29.7534 22.3504 29.7534 21.1237C29.7534 19.8971 29.049 18.9023 28.1802 18.9023Z" fill="white"/>
<path d="M6.4418 21.2829V19.0836C6.25135 18.9679 6.04145 18.9023 5.82079 18.9023C4.95201 18.9023 4.24756 19.8971 4.24756 21.1237C4.24756 22.3504 4.95201 23.3451 5.82079 23.3451C6.10237 23.3451 6.36295 23.2319 6.5918 23.0492C6.49504 22.4748 6.4418 21.885 6.4418 21.2829Z" fill="white"/>
<path d="M19.8604 31.5601H19.3858C18.6179 31.7377 17.8218 31.8406 17.0006 31.8406C16.1794 31.8406 15.3828 31.7377 14.6154 31.5601H14.1408C6.64377 31.5601 0.567383 37.6364 0.567383 45.1325V54.4634C0.567383 55.0291 1.02558 55.4873 1.59129 55.4873H32.4089C32.9746 55.4873 33.4328 55.0291 33.4328 54.4634V45.1325C33.4328 37.6364 27.3559 31.5601 19.8604 31.5601Z" fill="#CAE9FF"/>
<path d="M9.66891 32.3169C4.37069 34.1656 0.567383 39.2032 0.567383 45.1321V46.6741C0.567383 40.9659 4.0927 36.0844 9.08375 34.079L9.66891 32.3169Z" fill="white"/>
<path d="M10.507 32.0557C10.2244 32.134 9.94484 32.221 9.66992 32.3168C9.94484 32.221 10.2244 32.135 10.507 32.0557Z" fill="white"/>
<path d="M24.3311 32.3169L24.9167 34.0785C29.9073 36.0839 33.4331 40.9659 33.4331 46.6736V45.1316C33.4331 39.2032 29.6298 34.1656 24.3311 32.3169Z" fill="white"/>
<path d="M22.825 40.2079L26.36 38.4227L24.3312 32.3171C23.7521 32.1154 23.1567 31.9495 22.545 31.8267L19.9888 45.0904L24.003 42.9274L22.825 40.2079Z" fill="#CAE9FF"/>
<path d="M9.99766 42.9279L14.0119 45.0909L11.4557 31.8271C10.8439 31.95 10.2485 32.1159 9.6695 32.3176L7.64062 38.4232L11.1757 40.2084L9.99766 42.9279Z" fill="#CAE9FF"/>
<path d="M19.3852 31.5601C18.6173 31.7377 17.8212 31.8406 17 31.8406C16.1789 31.8406 15.3823 31.7377 14.6148 31.5601H14.1403C13.2208 31.5601 12.3233 31.6527 11.4556 31.8268L14.0118 45.0905V55.4873H19.9893V45.0905L22.5455 31.8268C21.6778 31.6527 20.7803 31.5601 19.8608 31.5601H19.3852Z" fill="white"/>
<path d="M17 31.8406C11.1688 31.8406 6.44141 27.1132 6.44141 21.282V11.5718H27.5585V21.282C27.5585 27.1132 22.8311 31.8406 17 31.8406Z" fill="white"/>
<path d="M13.054 23.1163H10.1517C8.47968 23.1163 7.12402 21.7607 7.12402 20.0886V18.3091C7.12402 16.8689 8.29179 15.7012 9.73192 15.7012H14.2939C15.281 15.7012 16.0812 16.5014 16.0812 17.4884V20.0891C16.0812 21.7612 14.726 23.1163 13.054 23.1163Z" fill="white"/>
<path d="M20.9452 23.1163H23.8474C25.5195 23.1163 26.8751 21.7607 26.8751 20.0886V18.3091C26.8751 16.8689 25.7074 15.7012 24.2672 15.7012H19.7047C18.7182 15.7012 17.918 16.5014 17.918 17.4879V20.0886C17.918 21.7612 19.2731 23.1163 20.9452 23.1163Z" fill="white"/>
<path d="M18.9262 2.99531C18.9564 2.72807 19.0086 2.41424 19.1023 2.11731C19.3485 1.33914 19.8144 0.661309 19.5692 0.538951C19.1013 0.304988 17.0335 2.49871 17.0335 2.49871C17.0335 2.49871 15.4828 1.08367 14.9682 1.419C14.7911 1.5347 14.9524 2.36253 15.1049 2.99121C9.04442 3.90556 4.39844 9.13569 4.39844 15.4512L4.50646 19.9082C4.78752 19.3031 5.27081 18.9022 5.82167 18.9022C6.04283 18.9022 6.25222 18.9693 6.44267 19.086V19.064C6.44267 19.064 7.73382 17.7944 8.4782 16.6998C9.22258 15.6053 10.0417 13.6363 10.0417 13.6363C10.0417 13.6363 9.96338 14.867 9.74785 15.6636C9.50109 16.5754 9.11661 17.0689 9.17856 17.0792C9.23129 17.0879 10.099 16.7147 10.7984 15.9406C11.6441 15.0047 12.3429 13.6363 12.3429 13.6363C12.3429 13.6363 12.4059 14.4528 12.2871 14.9776C12.1453 15.6047 11.8248 15.9595 11.9175 15.9826C11.9902 16.0005 13.0858 15.851 14.0826 15.357C15.4177 14.6955 16.7381 13.6363 16.7381 13.6363C16.7381 13.6363 16.6961 14.5542 16.4908 14.9919C16.1795 15.6554 15.6737 15.9396 15.8007 15.9821C15.9036 16.0164 17.0427 15.7568 17.9939 15.1767C18.9927 14.5675 19.8037 13.6358 19.8037 13.6358C19.8037 13.6358 19.8221 14.3039 19.6429 14.802C19.412 15.4455 18.3861 16.9092 18.49 16.9328C18.5642 16.9496 20.3909 16.1751 21.5254 15.3564C23.0228 14.2762 24.4148 12.467 24.4148 12.467L27.5593 15.8832V19.0855C27.7497 18.9688 27.9591 18.9017 28.1803 18.9017C28.7311 18.9017 29.2144 19.3031 29.4955 19.9077L29.6035 15.4506C29.603 9.14593 24.9723 3.92195 18.9262 2.99531Z" fill="#14242D"/>
<path d="M33.3685 49.1222C35.536 49.1222 37.2931 47.3651 37.2931 45.1976C37.2931 43.0301 35.536 41.2729 33.3685 41.2729C31.201 41.2729 29.4438 43.0301 29.4438 45.1976C29.4438 47.3651 31.201 49.1222 33.3685 49.1222Z" fill="white"/>
<path d="M58.4046 33.7453H57.5835V13.1842C57.5835 12.5376 57.0577 12.0113 56.4106 12.0113H29.6466C28.3437 7.29573 24.439 3.53594 19.5099 2.57705C19.5335 2.46749 19.5601 2.3651 19.5898 2.2709C19.6702 2.01594 19.7813 1.76304 19.8791 1.53983C20.0946 1.04886 20.3895 0.376154 19.7977 0.0802445C19.5488 -0.0441604 19.0435 -0.29553 17.0014 1.79171C16.2181 1.1446 15.2878 0.599366 14.6883 0.989475C14.3546 1.20706 14.2921 1.61662 14.4866 2.57807C8.40615 3.76324 3.88611 9.20225 3.88611 15.4634L3.99157 19.8176C3.83286 20.2052 3.73508 20.6444 3.73508 21.1231C3.73508 22.6559 4.65097 23.8564 5.82027 23.8564C5.95543 23.8564 6.08956 23.8349 6.22164 23.7991C6.98087 27.0495 9.17408 29.7536 12.0973 31.204C5.29705 32.1972 0.0556641 38.0606 0.0556641 45.1327V47.8528C0.0556641 48.1354 0.28502 48.3647 0.567618 48.3647C0.850217 48.3647 1.07957 48.1354 1.07957 47.8528V45.1327C1.07957 41.8025 2.33437 38.761 4.39345 36.4515C6.58513 37.5328 7.98379 39.7582 7.98379 42.2243V54.9761H1.59153C1.30944 54.9761 1.07957 54.7462 1.07957 54.4641V53.6128C1.07957 53.3302 0.850217 53.1008 0.567618 53.1008C0.28502 53.1008 0.0556641 53.3302 0.0556641 53.6128V54.4641C0.0556641 55.3109 0.744755 56 1.59153 56H32.4091C33.2559 56 33.945 55.3109 33.945 54.4641V49.5924C36.1193 49.3082 37.8051 47.4483 37.8051 45.1978C37.8051 43.5088 36.8565 42.038 35.464 41.289L36.6619 38.0524H58.4046C59.254 38.0524 59.9446 37.3618 59.9446 36.5125V35.2858C59.9441 34.436 59.2535 33.7453 58.4046 33.7453ZM56.4106 13.0358C56.4925 13.0358 56.5596 13.1023 56.5596 13.1847V33.7458H55.0135V15.0938C55.0135 14.8112 54.7841 14.5819 54.5015 14.5819H30.0756C30.0403 14.0592 29.9784 13.5426 29.8821 13.0358H56.4106ZM39.5427 28.7922C39.277 28.6949 38.9831 28.8296 38.8848 29.0947L37.1637 33.7453H28.1231C27.8415 33.5406 27.5522 33.3465 27.2558 33.1627V25.4445C27.4713 24.9152 27.6464 24.3658 27.7785 23.7996C27.9106 23.8354 28.0447 23.8569 28.1799 23.8569C29.3492 23.8569 30.2651 22.6564 30.2651 21.1236C30.2651 20.6449 30.1673 20.2057 30.0091 19.8181L30.111 15.6063H53.9896V33.7458H38.2557L39.8453 29.4506C39.9436 29.1849 39.8079 28.8905 39.5427 28.7922ZM29.3717 34.7692H36.7843L35.9483 37.028H31.3571C30.776 36.2058 30.1115 35.4486 29.3717 34.7692ZM24.993 54.9756H20.5011V45.3969L24.246 43.3788C24.48 43.2528 24.5783 42.9687 24.4728 42.7245L23.4868 40.4478L25.5464 39.4076C25.189 40.2856 24.9925 41.2378 24.9925 42.2243L24.993 54.9756ZM11.4057 39.7511L8.26536 38.165L10.0736 32.7235C10.3946 32.618 10.7212 32.5243 11.053 32.444L13.3045 44.1283L10.6536 42.6999L11.6448 40.4115C11.7528 40.1627 11.6478 39.8734 11.4057 39.7511ZM12.0564 32.2402C12.3902 32.1864 12.7291 32.147 13.0711 32.1194L15.1742 36.1986L13.0061 37.1683L12.0564 32.2402ZM16.5734 17.2722C16.5432 16.963 16.4531 16.6742 16.3112 16.4136C16.9118 16.2708 17.7222 15.9416 18.2597 15.614C18.4804 15.4793 18.6918 15.3309 18.8884 15.1798C18.8454 15.2566 18.7978 15.3365 18.7512 15.4158C18.0242 15.7486 17.5061 16.4423 17.4273 17.2722H16.5734ZM7.63669 18.551C7.97714 18.1753 8.36673 17.7217 8.69899 17.2706C8.7036 17.2814 8.70872 17.2922 8.71384 17.3029C8.78654 17.4493 8.93039 17.5558 9.09166 17.5829C9.47511 17.6495 10.5477 16.9804 11.1774 16.2831C11.1984 16.26 11.2178 16.2355 11.2388 16.2119H11.4543C11.5245 16.3404 11.6535 16.4444 11.7953 16.4787C11.9755 16.5217 12.6006 16.4269 13.2938 16.2119H14.2952C14.9986 16.2119 15.5704 16.7843 15.5704 17.4872V20.0879C15.5704 21.4748 14.4421 22.6037 13.0547 22.6037H10.1524C8.76554 22.6037 7.63669 21.4753 7.63669 20.0879V18.551ZM15.5423 15.4368C15.5172 15.4629 15.4906 15.4931 15.464 15.5228C15.359 15.4604 15.2505 15.4051 15.1358 15.36C15.4517 15.1716 15.7512 14.9781 16.0143 14.7989C15.8699 15.0948 15.6733 15.3001 15.5423 15.4368ZM18.4307 17.4872C18.4307 17.4688 18.4369 17.4519 18.4374 17.434C18.8654 17.4381 20.2123 16.7551 21.1313 16.2124H24.2675C25.4235 16.2124 26.3635 17.1524 26.3635 18.3084V20.0884C26.3635 21.4753 25.2351 22.6042 23.8477 22.6042H20.9455C19.5586 22.6042 18.4297 21.4758 18.4297 20.0884V17.4872H18.4307ZM24.2675 15.1885H22.5525C23.3404 14.5035 24.032 13.7315 24.438 13.2487L27.0464 16.0829V16.8974C26.5304 15.8848 25.4798 15.1885 24.2675 15.1885ZM29.2412 21.1231C29.2412 22.1629 28.6294 23.0481 27.9659 22.7905C27.9659 22.79 27.9649 22.79 27.9649 22.7895C28.0324 22.2965 28.0703 21.7938 28.0703 21.2823V19.4239C28.6852 19.3118 29.2412 20.1381 29.2412 21.1231ZM24.6858 31.9151V29.2391C25.2653 28.679 25.785 28.057 26.2319 27.3828V32.5827C25.7333 32.3288 25.2162 32.1091 24.6858 31.9151ZM23.6619 31.5849C23.0885 31.4236 22.5038 31.2921 21.9038 31.204C22.5248 30.8958 23.1136 30.5323 23.6619 30.1176V31.5849ZM14.1979 32.0723H14.5327C15.3268 32.254 16.152 32.3528 17.0003 32.3528C17.8486 32.3528 18.6739 32.2535 19.468 32.0723H19.8407L17.6725 36.2421L17.009 37.7729L16.3312 36.2114L14.1979 32.0723ZM20.97 32.1194C21.2987 32.147 21.6228 32.1895 21.9438 32.2412L20.9956 37.1606L18.847 36.1996L20.97 32.1194ZM22.9472 32.4455C23.2795 32.5264 23.6061 32.6206 23.9276 32.7266L25.7348 38.165L22.5945 39.7511C22.3523 39.8734 22.2479 40.1627 22.3554 40.4115L23.3465 42.6999L20.6956 44.1283L22.9472 32.4455ZM26.6179 37.5758L25.165 33.2037C26.5386 33.817 27.7826 34.6648 28.8572 35.6897C27.9807 36.1715 27.2235 36.815 26.6179 37.5758ZM15.1808 3.49754C15.3227 3.47604 15.4491 3.39617 15.5295 3.27689C15.6099 3.1576 15.636 3.01016 15.6022 2.87091C15.4972 2.43984 15.4465 2.15264 15.4225 1.96424C15.7481 2.12345 16.26 2.48643 16.6886 2.87654C16.8954 3.06494 17.2148 3.05265 17.4058 2.84941C17.8619 2.36561 18.3565 1.89768 18.7604 1.55672C18.7087 1.68573 18.6586 1.8214 18.614 1.96219C18.5249 2.24479 18.4584 2.57244 18.4174 2.93746C18.3862 3.21085 18.5772 3.45966 18.8485 3.50112C24.6878 4.39653 29.0912 9.53399 29.0912 15.4389L29.0144 18.612C28.7599 18.4702 28.4789 18.3898 28.1804 18.3898C28.1435 18.3898 28.1082 18.3985 28.0713 18.401L28.0708 18.3939V15.8833C28.0708 15.7548 28.0227 15.6309 27.9357 15.5367L24.7913 12.1204C24.6889 12.0093 24.5414 11.9499 24.3919 11.9555C24.2409 11.9622 24.1006 12.0349 24.0085 12.1547C23.9952 12.1721 22.6451 13.9168 21.225 14.9413C20.7709 15.2689 20.1985 15.5894 19.6855 15.849C19.8719 15.5264 20.0378 15.2157 20.1238 14.975C20.3296 14.4022 20.3163 13.6998 20.3142 13.6214C20.3086 13.4105 20.1739 13.2252 19.9753 13.1535C19.7772 13.0823 19.555 13.1397 19.4162 13.2994C19.4086 13.3081 18.6468 14.1779 17.7263 14.739C17.4852 14.8865 17.2338 15.0093 16.9952 15.1097C17.2005 14.5829 17.244 13.7566 17.2486 13.6588C17.2578 13.4576 17.1483 13.2702 16.9691 13.1786C16.7894 13.088 16.5739 13.11 16.4167 13.2359C16.4039 13.2462 15.125 14.268 13.8544 14.8972C13.4653 15.0897 13.0629 15.2239 12.7265 15.3134C12.748 15.2423 12.768 15.1675 12.7859 15.0892C12.9175 14.5061 12.8596 13.6875 12.8525 13.5958C12.8351 13.3675 12.6677 13.1786 12.4429 13.133C12.2182 13.0875 11.9909 13.1975 11.8864 13.4018C11.8798 13.4151 11.2071 14.7237 10.4181 15.596C10.3623 15.658 10.3055 15.7164 10.2477 15.7727C10.4693 14.9366 10.5487 13.7192 10.5523 13.6675C10.5681 13.4177 10.4012 13.1934 10.1575 13.1366C9.91284 13.0793 9.66505 13.2073 9.5688 13.4382C9.56061 13.4576 8.76043 15.3723 8.05444 16.4106C7.53173 17.1795 6.70954 18.057 6.31277 18.4656C6.31072 18.465 6.30868 18.4712 6.30663 18.4727C6.14843 18.4231 5.98717 18.3893 5.82129 18.3893C5.52283 18.3893 5.24176 18.4691 4.98732 18.6115L4.91104 15.4507C4.91002 9.51966 9.32562 4.38066 15.1808 3.49754ZM6.03427 22.7905C5.37282 23.0481 4.75899 22.1629 4.75899 21.1231C4.75899 20.1965 5.24483 19.4137 5.82027 19.4137C5.85662 19.4137 5.89297 19.4168 5.92932 19.4239V21.2823C5.92932 21.7938 5.9672 22.296 6.03478 22.7895C6.03529 22.79 6.03427 22.79 6.03427 22.7905ZM6.97166 21.6305C7.54607 22.8105 8.75428 23.6276 10.1524 23.6276H13.0547C15.0063 23.6276 16.5944 22.0395 16.5944 20.0879V18.2956H17.4068V20.0879C17.4068 22.0395 18.9949 23.6276 20.9465 23.6276H23.8487C25.2469 23.6276 26.4551 22.8105 27.0295 21.6305C26.8442 27.008 22.423 31.3289 17.0008 31.3289C11.5782 31.3289 7.15698 27.008 6.97166 21.6305ZM5.1363 35.6851C6.21192 34.6592 7.46108 33.8155 8.83619 33.2016L7.38276 37.5753C6.77507 36.813 6.01584 36.1679 5.1363 35.6851ZM8.45376 39.407L10.5134 40.4473L9.52733 42.724C9.42136 42.9682 9.52017 43.2523 9.75413 43.3783L13.4991 45.3964V54.9756H9.00719V42.2243C9.0077 41.2373 8.81111 40.285 8.45376 39.407ZM14.5235 54.9756V45.0908C14.5235 45.0585 14.5204 45.0257 14.5143 44.994L13.2052 38.2014L15.6124 37.1247L16.5396 39.2627C16.621 39.45 16.8053 39.5709 17.009 39.5709C17.2128 39.5709 17.3976 39.4495 17.4785 39.2627L18.4046 37.1237L20.7965 38.1932L19.4859 44.9935C19.4797 45.0257 19.4767 45.058 19.4767 45.0902V54.9751L14.5235 54.9756ZM32.4091 54.9756H26.0169V42.2243C26.0169 39.7618 27.4114 37.5389 29.598 36.4561C30.7453 37.7427 31.6397 39.255 32.2095 40.9199C30.3245 41.4313 28.9314 43.153 28.9314 45.1978C28.9314 47.4928 30.6838 49.3866 32.9206 49.6118V54.4641C32.9211 54.7462 32.6912 54.9756 32.4091 54.9756ZM36.7812 45.1972C36.7812 47.0792 35.25 48.6099 33.368 48.6099C31.4861 48.6099 29.9553 47.0792 29.9553 45.1972C29.9553 43.3153 31.4861 41.784 33.368 41.784C35.25 41.784 36.7812 43.3153 36.7812 45.1972ZM34.5102 40.9147C34.1452 40.8175 33.7638 40.7601 33.368 40.7601C33.324 40.7601 33.2815 40.7653 33.238 40.7668C32.9257 39.813 32.5172 38.9043 32.019 38.0519H35.5694L34.5102 40.9147ZM58.9202 36.5119C58.9202 36.7966 58.6888 37.028 58.4041 37.028H37.0403L37.8763 34.7692H58.4041C58.6888 34.7692 58.9202 35.0006 58.9202 35.2853V36.5119Z" fill="#2D142C"/>
<path d="M16.9957 42.6274C16.6558 42.6274 16.3804 42.9029 16.3804 43.2428C16.3804 43.5827 16.6558 43.8582 16.9957 43.8582C17.3357 43.8582 17.6111 43.5827 17.6111 43.2428C17.6111 42.9029 17.3357 42.6274 16.9957 42.6274Z" fill="#2D142C"/>
<path d="M16.9957 47.6575C17.3356 47.6575 17.6111 47.382 17.6111 47.0421C17.6111 46.7023 17.3356 46.4268 16.9957 46.4268C16.6559 46.4268 16.3804 46.7023 16.3804 47.0421C16.3804 47.382 16.6559 47.6575 16.9957 47.6575Z" fill="#2D142C"/>
<path d="M0.567618 52.1785C0.850217 52.1785 1.07957 51.9491 1.07957 51.6665V49.8762C1.07957 49.5936 0.850217 49.3643 0.567618 49.3643C0.28502 49.3643 0.0556641 49.5936 0.0556641 49.8762V51.6665C0.0556641 51.9496 0.28502 52.1785 0.567618 52.1785Z" fill="#2D142C"/>
<path d="M17.0001 25.016C17.9447 25.016 18.7126 24.2475 18.7126 23.303C18.7126 23.0204 18.4832 22.791 18.2006 22.791C17.918 22.791 17.6887 23.0204 17.6887 23.303C17.6887 23.6828 17.3795 23.9921 17.0001 23.9921C16.6202 23.9921 16.311 23.6828 16.311 23.303C16.311 23.0204 16.0817 22.791 15.7991 22.791C15.5165 22.791 15.2871 23.0204 15.2871 23.303C15.2871 24.2475 16.0556 25.016 17.0001 25.016Z" fill="#2D142C"/>
<path d="M19.7477 26.4924C19.9182 26.2671 19.8741 25.9461 19.6489 25.7751C19.4226 25.6036 19.1016 25.6487 18.9316 25.874C18.925 25.8827 18.2517 26.752 17.0005 26.752C15.7447 26.752 15.1073 25.9251 15.0746 25.8811C14.9087 25.6538 14.5897 25.6036 14.3614 25.768C14.1321 25.9333 14.0803 26.2533 14.2457 26.4827C14.2841 26.5354 15.1995 27.7759 17.0005 27.7759C18.7555 27.7759 19.7083 26.5446 19.7477 26.4924Z" fill="#2D142C"/>
</svg>
