<svg width="60" height="56" viewBox="0 0 60 56" fill="none" xmlns="http://www.w3.org/2000/svg">
<path d="M35.8563 50.9813C34.0046 51.5649 32.0349 51.8812 29.9927 51.8812C27.9096 51.8812 25.9029 51.5504 24.0187 50.9438C23.2162 52.0091 22.2689 52.958 21.2056 53.7625C23.9173 54.8787 26.8833 55.4988 29.9927 55.4988C33.0597 55.4988 35.9872 54.8942 38.6685 53.8064C37.6057 52.9995 36.6573 52.0486 35.8563 50.9813Z" fill="#CAE9FF"/>
<path d="M43.1562 17.9058C46.1118 20.604 48.2359 24.1961 49.1018 28.2494C50.4509 28.4213 51.742 28.7796 52.9477 29.3017C52.1343 23.1198 48.8764 17.7009 44.1766 14.0474C44.0157 15.3995 43.6689 16.6956 43.1562 17.9058Z" fill="#CAE9FF"/>
<path d="M10.8944 28.18C11.7698 24.1556 13.8854 20.589 16.8239 17.9063C16.3113 16.6961 15.9645 15.4 15.8036 14.0474C11.1302 17.6804 7.88185 23.0589 7.04541 29.1973C8.25311 28.6866 9.54575 28.3409 10.8944 28.18Z" fill="#CAE9FF"/>
<path d="M29.9974 24.0154C36.491 24.0154 41.7551 18.7513 41.7551 12.2577C41.7551 5.7641 36.491 0.5 29.9974 0.5C23.5038 0.5 18.2397 5.7641 18.2397 12.2577C18.2397 18.7513 23.5038 24.0154 29.9974 24.0154Z" fill="#CAE9FF"/>
<path d="M29.9974 1.999C36.2388 1.999 41.3419 6.86327 41.7286 13.0072C41.7441 12.7594 41.7551 12.5095 41.7551 12.2577C41.7551 5.764 36.4911 0.5 29.9974 0.5C23.5037 0.5 18.2397 5.764 18.2397 12.2577C18.2397 12.5095 18.2502 12.7594 18.2662 13.0072C18.653 6.86277 23.7561 1.999 29.9974 1.999Z" fill="white"/>
<path d="M31.9509 16.6572C31.6101 17.2778 30.8856 18.5994 30.7007 18.9362C30.6747 18.9837 29.9987 20.1519 29.9987 20.1519C29.9987 20.1519 29.2882 18.9822 29.2617 18.9347L27.9995 16.6602C25.3288 16.8756 23.0953 18.6269 22.1714 21.0278C24.2505 22.8846 26.9922 24.0153 29.9992 24.0153C33.0057 24.0153 35.7469 22.8856 37.826 21.0288C36.8971 18.6134 34.6431 16.8561 31.9509 16.6572Z" fill="white"/>
<path d="M29.9972 17.0194C29.2817 17.0194 28.5996 16.8759 27.9766 16.6201L29.2607 18.9346C29.2872 18.982 29.9977 20.1518 29.9977 20.1518C29.9977 20.1518 30.6738 18.9835 30.6998 18.9361C30.8856 18.5968 31.6206 17.2562 31.9579 16.6426C31.3503 16.8829 30.6903 17.0194 29.9972 17.0194Z" fill="white"/>
<path d="M35.6387 10.4932C35.5273 10.4932 35.4214 10.5261 35.3254 10.5846V11.6939C35.3254 11.9977 35.2985 12.295 35.25 12.5848C35.3654 12.6772 35.4968 12.7342 35.6387 12.7342C36.077 12.7342 36.4322 12.2325 36.4322 11.6139C36.4322 10.9948 36.077 10.4932 35.6387 10.4932Z" fill="white"/>
<path d="M24.6712 11.6939V10.5846C24.5753 10.5261 24.4694 10.4932 24.3579 10.4932C23.9197 10.4932 23.5645 10.9948 23.5645 11.6134C23.5645 12.232 23.9197 12.7337 24.3579 12.7337C24.4998 12.7337 24.6312 12.6767 24.7467 12.5843C24.6982 12.295 24.6712 11.9977 24.6712 11.6939Z" fill="white"/>
<path d="M29.9973 17.0196C27.0558 17.0196 24.6714 14.6352 24.6714 11.6937V6.79541H35.3228V11.6937C35.3233 14.6352 32.9389 17.0196 29.9973 17.0196Z" fill="white"/>
<path d="M47.3456 54.1511C53.8392 54.1511 59.1033 48.887 59.1033 42.3934C59.1033 35.8998 53.8392 30.6357 47.3456 30.6357C40.852 30.6357 35.5879 35.8998 35.5879 42.3934C35.5879 48.887 40.852 54.1511 47.3456 54.1511Z" fill="#CAE9FF"/>
<path d="M49.2971 46.7876C48.9564 47.4082 48.2319 48.7298 48.047 49.0666C48.021 49.1141 47.3449 50.2823 47.3449 50.2823C47.3449 50.2823 46.6344 49.1126 46.6079 49.0651L45.3463 46.7906C42.6721 47.006 40.437 48.7613 39.5146 51.1672C41.5938 53.024 44.3354 54.1542 47.3424 54.1542C50.3509 54.1542 53.0946 53.0225 55.1742 51.1637C54.2459 48.7453 51.9909 46.986 49.2971 46.7876Z" fill="white"/>
<path d="M47.3478 47.1468C46.6323 47.1468 45.9502 47.0034 45.3271 46.7476L46.6113 49.062C46.6378 49.1095 47.3483 50.2792 47.3483 50.2792C47.3483 50.2792 48.0239 49.111 48.0503 49.0635C48.2362 48.7242 48.9712 47.3836 49.3085 46.77C48.7009 47.0104 48.0408 47.1468 47.3478 47.1468Z" fill="white"/>
<path d="M52.9864 40.625C52.875 40.625 52.769 40.658 52.6731 40.7164V41.8257C52.6731 42.1295 52.6461 42.4268 52.5977 42.7166C52.7131 42.809 52.8445 42.866 52.9864 42.866C53.4246 42.866 53.7799 42.3643 53.7799 41.7458C53.7799 41.1267 53.4246 40.625 52.9864 40.625Z" fill="white"/>
<path d="M42.0169 41.8257V40.7164C41.921 40.658 41.8151 40.625 41.7036 40.625C41.2654 40.625 40.9102 41.1267 40.9102 41.7458C40.9102 42.3643 41.2654 42.866 41.7036 42.866C41.8455 42.866 41.9769 42.809 42.0924 42.7166C42.0439 42.4268 42.0169 42.1295 42.0169 41.8257Z" fill="white"/>
<path d="M47.3435 47.1485C44.402 47.1485 42.0176 44.7641 42.0176 41.8226V36.9243H52.669V41.8226C52.6695 44.7641 50.2851 47.1485 47.3435 47.1485Z" fill="white"/>
<path d="M12.6551 54.1506C19.1487 54.1506 24.4128 48.8865 24.4128 42.3929C24.4128 35.8993 19.1487 30.6353 12.6551 30.6353C6.16156 30.6353 0.897461 35.8993 0.897461 42.3929C0.897461 48.8865 6.16156 54.1506 12.6551 54.1506Z" fill="#CAE9FF"/>
<path d="M14.5969 46.7861C14.2561 47.4067 13.5311 48.7283 13.3467 49.0651C13.3207 49.1126 12.6447 50.2808 12.6447 50.2808C12.6447 50.2808 11.9341 49.1111 11.9077 49.0636L10.646 46.7891C7.97527 47.0045 5.74226 48.7558 4.81787 51.1567C6.89799 53.019 9.64416 54.1522 12.6557 54.1522C15.6597 54.1522 18.3993 53.024 20.4775 51.1702C19.5506 48.7483 17.2936 46.985 14.5969 46.7861Z" fill="white"/>
<path d="M12.6442 47.1463C11.9287 47.1463 11.2466 47.0029 10.6235 46.7471L11.9077 49.0615C11.9342 49.109 12.6447 50.2787 12.6447 50.2787C12.6447 50.2787 13.3207 49.1105 13.3467 49.063C13.5326 48.7238 14.2676 47.3832 14.6049 46.7696C13.9973 47.0099 13.3372 47.1463 12.6442 47.1463Z" fill="white"/>
<path d="M18.2847 40.6182C18.1733 40.6182 18.0674 40.6511 17.9714 40.7096V41.8189C17.9714 42.1227 17.9445 42.42 17.896 42.7098C18.0114 42.8022 18.1428 42.8592 18.2847 42.8592C18.7229 42.8592 19.0782 42.3575 19.0782 41.7389C19.0782 41.1198 18.7229 40.6182 18.2847 40.6182Z" fill="white"/>
<path d="M7.31819 41.8189V40.7096C7.22225 40.6511 7.11632 40.6182 7.0049 40.6182C6.56669 40.6182 6.21143 41.1198 6.21143 41.7389C6.21143 42.3575 6.56669 42.8592 7.0049 42.8592C7.1468 42.8592 7.27822 42.8022 7.39364 42.7098C7.34517 42.42 7.31819 42.1227 7.31819 41.8189Z" fill="white"/>
<path d="M12.6443 47.1471C9.70277 47.1471 7.31836 44.7626 7.31836 41.8211V36.9229H17.9698V41.8211C17.9698 44.7626 15.5854 47.1471 12.6443 47.1471Z" fill="white"/>
<path d="M38.9696 53.4095C37.9398 52.6281 37.0264 51.7107 36.2544 50.6824C36.127 50.513 35.9076 50.443 35.7043 50.5055C31.9797 51.6802 27.9034 51.6702 24.1699 50.469C23.9661 50.4035 23.7452 50.474 23.6178 50.6444C22.8438 51.6722 21.9304 52.5876 20.9021 53.3651C20.7592 53.4735 20.6847 53.6499 20.7077 53.8278C20.7312 54.0056 20.8471 54.1575 21.013 54.226C23.8731 55.4027 26.8936 55.9998 29.9906 55.9998C33.0435 55.9998 36.026 55.4182 38.8547 54.271C39.0211 54.2035 39.1385 54.0521 39.162 53.8737C39.1869 53.6958 39.1125 53.5185 38.9696 53.4095ZM29.9911 55.0005C27.3108 55.0005 24.6911 54.5338 22.1897 53.6124C22.9268 52.9833 23.5993 52.2853 24.1999 51.5258C27.9229 52.652 31.9553 52.6615 35.6698 51.5613C36.2689 52.3213 36.9419 53.0213 37.6789 53.6524C35.2106 54.5473 32.6288 55.0005 29.9911 55.0005Z" fill="#14242D"/>
<path d="M48.6167 28.3541C48.6611 28.5614 48.8315 28.7183 49.0424 28.7453C50.3265 28.9087 51.5752 29.2505 52.7529 29.7601C52.8169 29.7876 52.8843 29.8011 52.9513 29.8011C53.0582 29.8011 53.1641 29.7671 53.2526 29.7002C53.396 29.5917 53.4704 29.4149 53.447 29.236C52.6325 23.0451 49.4506 17.5108 44.4864 13.6523C44.3445 13.5409 44.1536 13.5164 43.9872 13.5854C43.8214 13.6548 43.7054 13.8082 43.6839 13.9876C43.53 15.2797 43.1988 16.5324 42.6996 17.7101C42.6172 17.9055 42.6666 18.1314 42.823 18.2743C45.7811 20.976 47.7847 24.4616 48.6167 28.3541ZM44.5449 14.9839C48.6946 18.4626 51.4268 23.2135 52.3277 28.5164C51.4203 28.1872 50.4789 27.9478 49.5176 27.8024C48.6257 23.956 46.64 20.5023 43.7529 17.7751C44.1077 16.8777 44.3725 15.9433 44.5449 14.9839Z" fill="#14242D"/>
<path d="M6.74616 29.5936C6.8351 29.6615 6.94203 29.6965 7.04946 29.6965C7.11541 29.6965 7.18187 29.6835 7.24433 29.657C8.42005 29.1599 9.66922 28.8296 10.9574 28.6757C11.1692 28.6502 11.3416 28.4938 11.3866 28.286C12.2275 24.42 14.2257 20.9583 17.1642 18.2746C17.3206 18.1317 17.3701 17.9059 17.2877 17.7105C16.7875 16.5313 16.4567 15.2786 16.3033 13.988C16.2818 13.8096 16.1664 13.6557 16 13.5857C15.8346 13.5163 15.6427 13.5408 15.5008 13.6527C10.5686 17.4866 7.39173 22.9835 6.55429 29.1299C6.5303 29.3078 6.60375 29.4852 6.74616 29.5936ZM15.4419 14.9838C15.6143 15.9422 15.8796 16.877 16.2344 17.7749C13.3673 20.4831 11.3881 23.9119 10.4877 27.7298C9.52431 27.8677 8.58244 28.0986 7.67604 28.4189C8.59393 23.1564 11.3206 18.4395 15.4419 14.9838Z" fill="#14242D"/>
<path d="M31.0735 21.334C31.2449 21.334 31.3838 21.1951 31.3838 21.0237C31.3838 20.8523 31.2449 20.7134 31.0735 20.7134C30.9021 20.7134 30.7632 20.8523 30.7632 21.0237C30.7632 21.1951 30.9021 21.334 31.0735 21.334Z" fill="#14242D"/>
<path d="M31.0735 22.7334C31.2449 22.7334 31.3838 22.5945 31.3838 22.4231C31.3838 22.2517 31.2449 22.1128 31.0735 22.1128C30.9021 22.1128 30.7632 22.2517 30.7632 22.4231C30.7632 22.5945 30.9021 22.7334 31.0735 22.7334Z" fill="#14242D"/>
<path d="M29.9981 24.5137C36.7566 24.5137 42.2554 19.0154 42.2554 12.2569C42.2554 9.29282 41.1831 6.43222 39.2369 4.20121C39.0546 3.99235 38.7393 3.97186 38.5319 4.15274C38.324 4.33412 38.3026 4.64991 38.4834 4.85777C40.2712 6.90691 41.2561 9.53416 41.2561 12.2569C41.2561 15.3428 40.0069 18.1424 37.9888 20.1781C37.0504 18.3283 35.362 16.9677 33.3948 16.4151C34.4601 15.6461 35.2536 14.5288 35.6098 13.2292C35.6188 13.2297 35.6278 13.2327 35.6373 13.2327C36.3623 13.2327 36.9305 12.5212 36.9305 11.6128C36.9305 11.0207 36.6866 10.516 36.3179 10.2337L36.3539 8.75168C36.3539 5.5713 34.0179 2.93605 30.9684 2.46886C30.9839 2.33395 31.0099 2.17555 31.0574 2.02615C31.1813 1.63341 31.4166 1.29164 31.2927 1.22968C31.0569 1.11176 30.0136 2.21803 30.0136 2.21803C30.0136 2.21803 29.2316 1.5045 28.9718 1.67339C28.8823 1.73185 28.9638 2.14957 29.0407 2.46636C25.9837 2.92755 23.6403 5.5658 23.6403 8.75118L23.6763 10.2337C23.3075 10.516 23.0637 11.0207 23.0637 11.6128C23.0637 12.5212 23.6318 13.2327 24.3568 13.2327C24.3658 13.2327 24.3748 13.2292 24.3838 13.2292C24.7401 14.5288 25.534 15.6466 26.5993 16.4151C24.6321 16.9672 22.9443 18.3273 22.0064 20.1766C19.9887 18.1409 18.7401 15.3423 18.7401 12.2564C18.7401 6.04898 23.7902 0.998836 29.9981 0.998836C31.4171 0.998836 32.8007 1.25916 34.1098 1.77332C34.3662 1.87275 34.657 1.74784 34.7574 1.49101C34.8583 1.23418 34.7319 0.943873 34.4751 0.843439C33.049 0.283811 31.543 0 29.9981 0C23.2396 0 17.7407 5.49885 17.7407 12.2574C17.7407 19.0159 23.2396 24.5137 29.9981 24.5137ZM30.2629 18.6916C30.2484 18.7176 30.1255 18.9304 29.9866 19.1703C29.8432 18.9339 29.7153 18.7226 29.6968 18.6911L28.9947 17.4259C29.321 17.4829 29.6543 17.5184 29.9966 17.5184C30.3229 17.5184 30.6406 17.4849 30.9524 17.4329C30.7995 17.7117 30.6466 17.9905 30.5202 18.2214L30.2629 18.6916ZM27.7236 17.1931L28.6825 18.9219L27.796 19.7829L27.3114 17.2605C27.4473 17.234 27.5847 17.2111 27.7236 17.1931ZM31.3971 18.7021C31.6385 18.2619 31.9763 17.6458 32.2261 17.1901C32.382 17.2101 32.5364 17.2355 32.6898 17.267L32.2001 19.8183L31.2772 18.9214L31.3971 18.7021ZM35.8102 12.0855C35.8197 11.9536 35.8237 11.8226 35.8237 11.6927V11.1626C35.8837 11.2705 35.9311 11.4244 35.9311 11.6123C35.9311 11.8141 35.8767 11.977 35.8102 12.0855ZM24.063 11.6128C24.063 11.4249 24.1105 11.2705 24.1704 11.1631V11.6932C24.1704 11.8231 24.1749 11.9541 24.1839 12.086C24.118 11.977 24.063 11.8141 24.063 11.6128ZM25.1708 11.6927V10.0428C25.3512 9.83946 25.5465 9.60412 25.6979 9.38126C26.0732 8.82913 26.4864 7.83629 26.4864 7.83629C26.4864 7.83629 26.4469 8.45688 26.338 8.85911C26.2136 9.31881 26.0192 9.56814 26.0507 9.57314C26.0772 9.57763 26.5149 9.38926 26.8677 8.99902C27.2944 8.52683 27.6466 7.83679 27.6466 7.83679C27.6466 7.83679 27.6791 8.24752 27.6192 8.51234C27.5477 8.82863 27.3858 9.00801 27.4328 9.01901C27.4693 9.028 28.0219 8.95255 28.5246 8.70371C29.1981 8.36994 29.8642 7.83579 29.8642 7.83579C29.8642 7.83579 29.8432 8.29898 29.7392 8.51984C29.5824 8.85461 29.327 8.99802 29.391 9.0195C29.4429 9.03699 30.0176 8.90608 30.4972 8.61327C31.0009 8.30598 31.4101 7.83579 31.4101 7.83579C31.4101 7.83579 31.4196 8.17257 31.3292 8.4239C31.2128 8.74819 30.6951 9.4867 30.7476 9.49869C30.7851 9.50718 31.7064 9.11644 32.2786 8.70371C32.9326 8.23203 33.5452 7.48602 33.6981 7.29415H33.7806L34.8224 8.4264V11.6927C34.8224 14.354 32.6573 16.519 29.9966 16.519C27.3358 16.519 25.1708 14.354 25.1708 11.6927ZM26.345 17.5313L26.9886 20.8806C27.0231 21.061 27.154 21.2079 27.3293 21.2634C27.3788 21.2789 27.4293 21.2864 27.4797 21.2864C27.6077 21.2864 27.7331 21.2369 27.8275 21.1454L29.2046 19.8078C29.3195 19.9967 29.4275 20.1756 29.4969 20.29V22.8113C29.4969 23.0877 29.7203 23.311 29.9966 23.311C30.2729 23.311 30.4962 23.0877 30.4962 22.8113V20.2865C30.5597 20.1766 30.6591 20.0042 30.7661 19.8193L32.1666 21.1804C32.2611 21.2729 32.3865 21.3218 32.5149 21.3218C32.5654 21.3218 32.6153 21.3143 32.6648 21.2988C32.8402 21.2439 32.9711 21.097 33.0061 20.9161L33.6536 17.5453C35.2136 18.1344 36.5167 19.3267 37.2193 20.8846C35.2631 22.5245 32.7443 23.5144 29.9976 23.5144C27.2504 23.5144 24.7311 22.524 22.7749 20.8831C23.4854 19.2967 24.7765 18.11 26.345 17.5313Z" fill="#14242D"/>
<path d="M35.7825 2.59558C36.2162 2.85591 36.6389 3.14971 37.0386 3.47C37.1311 3.54345 37.241 3.57993 37.3504 3.57993C37.4968 3.57993 37.6422 3.51597 37.7407 3.39255C37.9135 3.1772 37.8786 2.8629 37.6632 2.69052C37.229 2.34225 36.7688 2.02196 36.2971 1.73915C36.0598 1.59725 35.7535 1.67419 35.6116 1.91054C35.4692 2.14688 35.5461 2.45368 35.7825 2.59558Z" fill="#14242D"/>
<path d="M48.4221 50.8408C48.2507 50.8408 48.1118 50.9797 48.1118 51.1511C48.1118 51.3225 48.2507 51.4614 48.4221 51.4614C48.5935 51.4614 48.7324 51.3225 48.7324 51.1511C48.7324 50.9797 48.5935 50.8408 48.4221 50.8408Z" fill="#14242D"/>
<path d="M48.4221 52.2397C48.2507 52.2397 48.1118 52.3787 48.1118 52.55C48.1118 52.7214 48.2507 52.8603 48.4221 52.8603C48.5935 52.8603 48.7324 52.7214 48.7324 52.55C48.7324 52.3787 48.5935 52.2397 48.4221 52.2397Z" fill="#14242D"/>
<path d="M47.3457 30.1348C40.5872 30.1348 35.0889 35.6336 35.0889 42.3921C35.0889 49.1506 40.5872 54.6495 47.3457 54.6495C54.1042 54.6495 59.6031 49.1506 59.6031 42.3921C59.6031 35.6336 54.1042 30.1348 47.3457 30.1348ZM40.123 51.0194C40.8256 49.4554 42.1332 48.2592 43.6981 47.6701L44.3397 51.0089C44.3742 51.1893 44.5051 51.3362 44.6805 51.3916C44.73 51.4071 44.7804 51.4146 44.8309 51.4146C44.9588 51.4146 45.0842 51.3652 45.1787 51.2737L46.5562 49.9361C46.6707 50.1255 46.7791 50.3039 46.8486 50.4178V52.9391C46.8486 53.2154 47.0719 53.4388 47.3482 53.4388C47.6245 53.4388 47.8479 53.2154 47.8479 52.9391V50.4133C47.9113 50.3034 48.0113 50.131 48.1177 49.9466L49.5188 51.3077C49.6132 51.4001 49.7391 51.4491 49.867 51.4491C49.9175 51.4491 49.968 51.4416 50.0174 51.4261C50.1928 51.3712 50.3232 51.2242 50.3582 51.0434L51.0058 47.6726C52.5668 48.2622 53.8714 49.4559 54.5729 51.0164C52.6157 52.6588 50.0949 53.6506 47.3462 53.6506C44.5985 53.6506 42.0792 52.6603 40.123 51.0194ZM53.1748 41.8205V41.2903C53.2348 41.3983 53.2823 41.5517 53.2823 41.7396C53.2823 41.9414 53.2278 42.1043 53.1614 42.2127C53.1703 42.0813 53.1748 41.9504 53.1748 41.8205ZM41.5221 41.2899V41.821C41.5221 41.9519 41.5266 42.0828 41.5356 42.2142C41.4686 42.1058 41.4142 41.9429 41.4142 41.7406C41.4142 41.5517 41.4621 41.3973 41.5221 41.2899ZM42.5224 40.1696C42.7028 39.9662 42.8977 39.7309 43.0491 39.5085C43.4243 38.9564 43.8381 37.9631 43.8381 37.9631C43.8381 37.9631 43.7986 38.5836 43.6897 38.9854C43.5652 39.4451 43.3709 39.6944 43.4023 39.6994C43.4288 39.7039 43.8665 39.5155 44.2193 39.1253C44.646 38.6531 44.9983 37.9631 44.9983 37.9631C44.9983 37.9631 45.0298 38.3748 44.9703 38.6396C44.8988 38.9559 44.737 39.1348 44.7839 39.1463C44.8204 39.1553 45.373 39.0798 45.8757 38.831C46.5493 38.4977 47.2153 37.9631 47.2153 37.9631C47.2153 37.9631 47.1943 38.4263 47.0904 38.6471C46.9335 38.9819 46.6782 39.1253 46.7421 39.1468C46.7941 39.1643 47.3687 39.0329 47.8484 38.7405C48.3521 38.4333 48.7613 37.9636 48.7613 37.9636C48.7613 37.9636 48.7708 38.3003 48.6803 38.5517C48.5639 38.876 48.0463 39.6145 48.0987 39.6265C48.1362 39.6349 49.0576 39.2442 49.6297 38.8315C50.2838 38.3598 50.8959 37.6143 51.0493 37.4224H51.1322L52.1745 38.5547V41.821C52.1745 44.4817 50.0095 46.6468 47.3482 46.6468C44.6875 46.6468 42.5224 44.4817 42.5224 41.821V40.1696ZM47.6125 48.8213C47.5966 48.8513 47.4751 49.0607 47.3382 49.298C47.1953 49.0622 47.0679 48.8518 47.0484 48.8183L46.3464 47.5537C46.6727 47.6107 47.0059 47.6461 47.3477 47.6461C47.674 47.6461 47.9918 47.6126 48.3036 47.5607C48.0118 48.0933 47.7205 48.6255 47.6125 48.8213ZM45.0757 47.3223L46.0341 49.0492L45.1472 49.9111L44.663 47.3928C44.7994 47.3653 44.9368 47.3413 45.0757 47.3223ZM49.5767 47.3173C49.7326 47.3373 49.8875 47.3628 50.0404 47.3943L49.5503 49.9456L48.6274 49.0487C48.8647 48.617 49.2809 47.857 49.5767 47.3173ZM55.3414 50.3084C54.404 48.4561 52.7152 47.0945 50.7465 46.5419C51.8118 45.7734 52.6052 44.6561 52.9615 43.3565C52.9705 43.3565 52.9795 43.36 52.9885 43.36C53.7135 43.36 54.2816 42.6479 54.2816 41.7396C54.2816 41.1474 54.0383 40.6433 53.669 40.361L53.705 38.8785C53.705 35.6981 51.369 33.0633 48.3196 32.5956C48.3351 32.4607 48.361 32.3023 48.4085 32.1529C48.5324 31.7602 48.7678 31.4184 48.6439 31.3565C48.408 31.2385 47.3647 32.3448 47.3647 32.3448C47.3647 32.3448 46.5827 31.6313 46.3229 31.8002C46.2335 31.8586 46.3149 32.2763 46.3919 32.5931C43.3349 33.0543 40.9914 35.6926 40.9914 38.878L41.0274 40.3605C40.6587 40.6428 40.4148 41.1469 40.4148 41.7391C40.4148 42.6474 40.983 43.3595 41.708 43.3595C41.717 43.3595 41.726 43.356 41.7355 43.356C42.0917 44.6556 42.8852 45.7729 43.9505 46.5414C41.9803 47.094 40.2909 48.4576 39.354 50.3114C37.3369 48.2757 36.0882 45.4771 36.0882 42.3916C36.0882 36.1837 41.1383 31.1336 47.3457 31.1336C53.5536 31.1336 58.6037 36.1837 58.6037 42.3916C58.6037 45.4761 57.3571 48.2732 55.3414 50.3084Z" fill="#14242D"/>
<path d="M13.7175 50.8408C13.5461 50.8408 13.4072 50.9797 13.4072 51.1511C13.4072 51.3225 13.5461 51.4614 13.7175 51.4614C13.8889 51.4614 14.0278 51.3225 14.0278 51.1511C14.0278 50.9797 13.8889 50.8408 13.7175 50.8408Z" fill="#14242D"/>
<path d="M13.7175 52.2397C13.5461 52.2397 13.4072 52.3787 13.4072 52.55C13.4072 52.7214 13.5461 52.8603 13.7175 52.8603C13.8889 52.8603 14.0278 52.7214 14.0278 52.55C14.0278 52.3787 13.8889 52.2397 13.7175 52.2397Z" fill="#14242D"/>
<path d="M24.9122 42.3921C24.9122 35.6336 19.4133 30.1348 12.6548 30.1348C5.89632 30.1348 0.396973 35.6331 0.396973 42.3921C0.396973 49.1511 5.89582 54.6495 12.6543 54.6495C19.4128 54.6495 24.9122 49.1506 24.9122 42.3921ZM1.39631 42.3921C1.39631 36.1842 6.44645 31.1341 12.6543 31.1341C18.8622 31.1341 23.9123 36.1842 23.9123 42.3921C23.9123 45.4801 22.6617 48.2812 20.6415 50.3174C19.7051 48.4606 18.0138 47.0955 16.0416 46.5419C17.1064 45.7734 17.9003 44.6561 18.2561 43.3565C18.2651 43.3565 18.2741 43.36 18.2836 43.36C19.0086 43.36 19.5767 42.6479 19.5767 41.7396C19.5767 41.1474 19.3329 40.6433 18.9641 40.361L19.0001 38.8785C19.0001 35.6981 16.6642 33.0633 13.6147 32.5956C13.6302 32.4607 13.6562 32.3023 13.7036 32.1529C13.8275 31.7602 14.0629 31.4184 13.939 31.3565C13.7031 31.2385 12.6598 32.3448 12.6598 32.3448C12.6598 32.3448 11.8778 31.6313 11.618 31.8002C11.5286 31.8586 11.61 32.2763 11.687 32.5931C8.63 33.0543 6.28656 35.6926 6.28656 38.878L6.32253 40.3605C5.95378 40.6428 5.70994 41.1469 5.70994 41.7391C5.70994 42.6474 6.27806 43.3595 7.00308 43.3595C7.01208 43.3595 7.02107 43.356 7.03006 43.356C7.38633 44.6556 8.1803 45.7729 9.24559 46.5414C7.2789 47.0935 5.59152 48.4531 4.65314 50.3019C2.64148 48.2677 1.39631 45.4731 1.39631 42.3921ZM18.4705 41.82V41.2899C18.5304 41.3978 18.5779 41.5512 18.5779 41.7391C18.5779 41.9409 18.5234 42.1038 18.457 42.2122C18.466 42.0808 18.4705 41.9499 18.4705 41.82ZM6.81721 41.2899V41.82C6.81721 41.9499 6.8217 42.0808 6.8307 42.2127C6.76424 42.1043 6.70978 41.9414 6.70978 41.7396C6.70978 41.5517 6.75725 41.3978 6.81721 41.2899ZM7.81754 40.1696C7.99792 39.9657 8.19329 39.7309 8.34469 39.508C8.71994 38.9559 9.13367 37.9626 9.13367 37.9626C9.13367 37.9626 9.09419 38.5831 8.98526 38.9849C8.86085 39.4446 8.66648 39.6939 8.69796 39.6989C8.72444 39.7034 9.16215 39.515 9.51491 39.1248C9.94163 38.6526 10.2939 37.9626 10.2939 37.9626C10.2939 37.9626 10.3254 38.3743 10.2659 38.6391C10.1945 38.9554 10.0326 39.1343 10.0795 39.1458C10.116 39.1548 10.6686 39.0793 11.1718 38.8305C11.8454 38.4972 12.5114 37.9626 12.5114 37.9626C12.5114 37.9626 12.4904 38.4258 12.3865 38.6466C12.2296 38.9814 11.9743 39.1248 12.0382 39.1463C12.0902 39.1638 12.6648 39.0324 13.1445 38.74C13.6482 38.4328 14.0574 37.9631 14.0574 37.9631C14.0574 37.9631 14.0669 38.2998 13.9764 38.5512C13.86 38.8755 13.3424 39.614 13.3948 39.626C13.4323 39.6344 14.3537 39.2437 14.9258 38.831C15.5799 38.3593 16.192 37.6138 16.3454 37.4219H16.4283L17.4701 38.5537V41.8205C17.4701 44.4812 15.3051 46.6463 12.6443 46.6463C9.9831 46.6463 7.81804 44.4812 7.81804 41.8205L7.81754 40.1696ZM12.9082 48.8208C12.8922 48.8508 12.7707 49.0607 12.6333 49.298C12.4904 49.0622 12.363 48.8513 12.3435 48.8178L11.6415 47.5527C11.9678 47.6097 12.3011 47.6451 12.6433 47.6451C12.9696 47.6451 13.2874 47.6117 13.5992 47.5597C13.3074 48.0928 13.0161 48.625 12.9082 48.8208ZM10.3698 47.3198L11.3292 49.0492L10.4428 49.9106L9.95812 47.3878C10.094 47.3608 10.2309 47.3378 10.3698 47.3198ZM14.8724 47.3168C15.0282 47.3368 15.1831 47.3623 15.336 47.3938L14.8459 49.9451L13.923 49.0482C14.1603 48.6165 14.5765 47.8565 14.8724 47.3168ZM5.42163 51.0104C6.13216 49.4234 7.4233 48.2367 8.99176 47.6581L9.63533 51.0079C9.66981 51.1883 9.80072 51.3352 9.97611 51.3906C10.0256 51.4061 10.076 51.4136 10.1265 51.4136C10.2544 51.4136 10.3798 51.3642 10.4743 51.2727L11.8514 49.9351C11.9663 50.1245 12.0742 50.3029 12.1437 50.4173V52.9386C12.1437 53.2149 12.367 53.4383 12.6433 53.4383C12.9196 53.4383 13.143 53.2149 13.143 52.9386V50.4128C13.2065 50.3029 13.3064 50.1305 13.4128 49.9461L14.8139 51.3072C14.9088 51.3996 15.0342 51.4486 15.1622 51.4486C15.2126 51.4486 15.2631 51.4411 15.3126 51.4256C15.4879 51.3707 15.6184 51.2238 15.6533 51.0429L16.3009 47.6721C17.8649 48.2627 19.171 49.4594 19.872 51.0239C17.9163 52.6618 15.399 53.6501 12.6543 53.6501C9.90265 53.6501 7.37933 52.6563 5.42163 51.0104Z" fill="#14242D"/>
</svg>
