<svg width="32" height="26" viewBox="0 0 32 26" fill="none" xmlns="http://www.w3.org/2000/svg">
<path d="M22.3333 25V22.3333C22.3333 20.9188 21.7714 19.5623 20.7712 18.5621C19.771 17.5619 18.4145 17 17 17H6.33333C4.91885 17 3.56229 17.5619 2.5621 18.5621C1.5619 19.5623 1 20.9188 1 22.3333V25M30.3333 25C30.3333 21 30.3333 19 26.3333 17M21 1.17333C22.1472 1.46706 23.1641 2.13426 23.8902 3.06974C24.6163 4.00522 25.0105 5.15577 25.0105 6.34C25.0105 7.52422 24.6163 8.67477 23.8902 9.61025C23.1641 10.5457 22.1472 11.2129 21 11.5067M17 6.33333C17 9.27885 14.6122 11.6667 11.6667 11.6667C8.72115 11.6667 6.33333 9.27885 6.33333 6.33333C6.33333 3.38781 8.72115 1 11.6667 1C14.6122 1 17 3.38781 17 6.33333Z" stroke="#212121" stroke-width="1.8" stroke-linecap="round" stroke-linejoin="round"/>
</svg>
