<svg width="611" height="427" viewBox="0 0 611 427" fill="none" xmlns="http://www.w3.org/2000/svg">
<ellipse cx="55.5" cy="350" rx="37.5" ry="38" fill="#D9D9D9"/>
<circle cx="26.5" cy="329.5" r="26.5" fill="#FF7A7A" fill-opacity="0.4"/>
<path d="M415.152 98.3161C415.176 98.5961 415.384 98.8591 415.659 98.8601C416.284 98.8221 417.033 98.7651 417.874 98.7041C419.167 92.9291 420.753 88.2621 420.406 90.0461C419.904 92.6271 419.746 96.2621 420.05 98.5401C421.026 98.4631 423.284 98.2601 424.415 98.1581C424.935 88.2381 426.245 80.7521 426.38 82.9861C426.926 91.9971 427.771 94.7991 428.726 97.7851C439.258 96.8321 453.053 95.4201 463.005 94.1701C463.496 88.6581 463.788 82.7251 464.012 83.1051C465.737 85.9401 466.643 90.2721 467.088 93.6461C470.253 93.2241 472.776 92.8241 474.303 92.4981C474.303 92.4981 474.49 87.8951 474.415 86.4001C474.242 82.5911 473.378 78.7831 471.924 75.2851C470.413 71.6821 468.188 68.6261 466.048 65.4731C466.031 65.4471 466.014 65.4201 465.996 65.4051C465.997 65.3941 465.988 65.3921 465.979 65.3781C464.512 63.1951 463.363 61.0691 462.48 58.7701C462.472 58.7571 462.463 58.7431 462.456 58.7191C461.841 57.0851 461.357 55.3771 460.981 53.4731C459.709 46.9301 455.539 41.7021 449.536 40.7711C437.247 31.2641 426.862 37.4491 424.594 46.3861C424.376 47.2561 424.183 48.2471 424.01 49.3221L424.005 49.3551C423.353 53.3311 422.958 58.4281 422.501 62.3891C422.509 62.4021 422.498 62.4111 422.498 62.4111C422.506 62.4241 422.505 62.4351 422.492 62.4561L422.491 62.4671C422.26 64.3551 422.024 65.9671 421.735 67.0741C419.819 74.3581 413.987 79.1611 415.152 98.3161Z" fill="#263238"/>
<path d="M406.395 110.778C414.94 86.2088 402.255 59.4708 378.063 51.0566C353.871 42.6425 327.332 55.7385 318.787 80.3074C310.242 104.876 322.926 131.614 347.118 140.028C371.311 148.443 397.85 135.347 406.395 110.778Z" fill="#EBEBEB"/>
<path d="M396.779 107.426C403.447 88.2617 393.554 67.4032 374.683 60.8378C355.812 54.2723 335.109 64.4862 328.441 83.651C321.773 102.816 331.666 123.674 350.537 130.24C369.408 136.805 390.112 126.591 396.779 107.426Z" fill="#3FC400"/>
<path d="M387.259 104.12C392.067 90.3023 384.934 75.2636 371.328 70.53C357.723 65.7965 342.796 73.1605 337.989 86.978C333.181 100.796 340.314 115.834 353.92 120.568C367.525 125.301 382.452 117.937 387.259 104.12Z" fill="#EBEBEB"/>
<path d="M377.61 100.758C380.537 92.346 376.195 83.1903 367.912 80.3085C359.629 77.4268 350.542 81.9103 347.615 90.3227C344.688 98.735 349.03 107.891 357.313 110.772C365.596 113.654 374.684 109.171 377.61 100.758Z" fill="#3FC400"/>
<path d="M369.683 95.433C369.709 99.391 366.559 102.651 362.649 102.715C358.738 102.779 355.547 99.622 355.521 95.664C355.495 91.706 358.645 88.446 362.555 88.382C366.467 88.318 369.658 91.475 369.683 95.433Z" fill="#EBEBEB"/>
<path d="M294.499 59.3932L294.128 60.1021L362.235 95.7081L362.606 94.9992L294.499 59.3932Z" fill="#C7C7C7"/>
<path d="M291.25 61.342L291.425 61.272L294.545 60.31L288.398 57.096L285.067 58.11L291.25 61.342Z" fill="#C7C7C7"/>
<path d="M287.657 53.156L288.764 56.396L294.911 59.61C294.425 58.592 294.068 57.503 293.821 56.379L287.657 53.156Z" fill="#C7C7C7"/>
<path d="M364.09 94.758L362.807 97.062L359.389 96.771L361.633 94.935L361.86 92.053L364.09 94.758Z" fill="#C7C7C7"/>
<path d="M148.228 167.525C147.67 167.494 145.057 167.357 141.236 167.166C140.085 164.636 138.841 160.217 139.973 154.18C140.167 153.181 137.348 158.792 137.684 166.987C130.301 166.609 120.259 166.09 111.492 165.554C111.58 162.122 111.506 158.936 111.506 158.936C111.02 161.378 110.326 163.562 109.585 165.444C108.385 165.38 107.211 165.295 106.085 165.224C106.741 159.934 106.532 150.617 106.532 150.617C105.255 156.991 102.813 161.975 101.104 164.891C95.5421 164.492 91.8901 164.128 92.1451 163.883C101.283 154.871 95.5411 148.853 98.5721 140.539C102.208 130.577 111.104 129.62 111.419 121.956C111.691 115.721 111.765 104.379 119.804 102.558C119.804 102.558 126.721 96.0395 136.469 100.648C148.528 106.338 142.171 125.15 142.725 129.114C143.511 134.778 146.016 136.942 147.519 143.447C149.056 150.032 145.805 154.082 145.144 158.418C144.5 162.754 149.625 167.617 148.228 167.525Z" fill="#263238"/>
<path d="M92.0001 162.488C93.2521 160.85 94.3871 159.11 95.1101 157.246C95.8881 155.398 95.7581 153.435 95.5261 151.403C95.2941 149.381 94.9921 147.309 94.9651 145.181C94.9621 143.063 95.2051 140.854 96.0601 138.824C96.8791 136.787 98.2241 134.982 99.8241 133.558C101.409 132.108 103.187 130.978 104.904 129.861C106.607 128.727 108.305 127.609 109.63 126.103C110.98 124.625 111.875 122.742 112.277 120.711C112.204 122.776 111.496 124.867 110.216 126.576C108.95 128.3 107.264 129.636 105.605 130.864C103.944 132.102 102.278 133.275 100.855 134.654C99.4401 136.034 98.2721 137.625 97.5751 139.432C96.8721 141.233 96.5641 143.188 96.5561 145.183C96.5211 147.182 96.7411 149.21 96.8541 151.295C96.9011 152.338 96.9331 153.399 96.8161 154.479C96.7051 155.561 96.3491 156.639 95.8761 157.586C94.8841 159.477 93.5381 161.101 92.0001 162.488Z" fill="#263238"/>
<path d="M142.953 108.31C143.742 110.741 143.909 113.324 144.084 115.859C144.21 118.406 144.212 120.952 144.187 123.487L144.174 127.273C144.172 128.539 144.242 129.731 144.471 130.915C144.912 133.29 146.063 135.42 147.379 137.596C148.013 138.698 148.655 139.843 149.157 141.07C149.661 142.294 150.041 143.58 150.26 144.889C150.44 146.21 150.531 147.498 150.514 148.81C150.504 150.12 150.333 151.449 150.004 152.723C149.68 154.002 149.222 155.201 148.826 156.38C148.427 157.556 148.135 158.77 147.97 159.985C147.602 162.391 148.7 164.903 150.54 166.634C148.464 165.182 147.056 162.613 147.184 159.922C147.247 158.613 147.477 157.333 147.8 156.08C148.116 154.827 148.526 153.636 148.754 152.439C149.237 150.068 149.12 147.548 148.721 145.156C148.482 143.971 148.147 142.813 147.669 141.699C147.199 140.582 146.589 139.514 145.948 138.427C145.319 137.334 144.663 136.21 144.122 135.002C143.583 133.796 143.152 132.514 142.931 131.196C142.716 129.88 142.683 128.532 142.725 127.262C142.75 125.98 142.822 124.711 142.897 123.445C143.033 120.913 143.205 118.39 143.273 115.866C143.372 113.343 143.374 110.816 142.953 108.31Z" fill="#263238"/>
<path d="M123.616 147.796C126.582 170.703 133.168 193.426 139.559 196.447C148.155 200.511 170.613 199.868 182.241 198.456C185.657 198.041 181.892 171.52 178.239 171.959C173.825 172.49 151.032 175.602 150.593 175.52C149.653 175.345 135.771 152.686 132.585 147.192C127.265 138.017 122.299 137.629 123.616 147.796Z" fill="#F7A9A0"/>
<path d="M177.521 197.537C180.56 198.151 192.171 199.418 200.208 197.877C204.107 197.129 215.077 193.796 214.732 190.759C214.387 187.722 211.095 188.413 211.095 188.413C211.095 188.413 215.519 186.311 214.893 183.286C214.268 180.261 209.18 181.503 209.18 181.503C209.18 181.503 213.565 179.013 212.726 176.04C211.886 173.067 206.98 175.173 206.98 175.173C206.98 175.173 211.096 173.084 209.373 170.925C207.301 168.329 200.148 173.038 195.795 173.649C194.806 173.787 175.559 175.031 175.559 175.031L177.521 197.537Z" fill="#F7A9A0"/>
<path d="M206.893 175.15C201.625 178.601 198.723 179.199 192.524 179.303C192.403 179.305 192.379 179.486 192.505 179.495C198.585 179.945 202.333 179.72 207.073 175.396C207.305 175.185 207.144 174.986 206.893 175.15Z" fill="#263238"/>
<path d="M209.436 181.434C203.651 184.54 200.509 185.217 194.025 185.804C193.933 185.812 193.938 185.968 194.031 185.968C200.44 185.925 204.175 185.614 209.547 181.751C209.79 181.576 209.701 181.292 209.436 181.434Z" fill="#263238"/>
<path d="M210.606 188.645C204.788 191.248 201.376 192.139 195.007 191.9C194.856 191.894 194.834 192.113 194.984 192.133C201.454 193.008 205.721 191.928 210.666 188.83C211.004 188.619 210.972 188.481 210.606 188.645Z" fill="#263238"/>
<path d="M175.075 174.268C175.075 174.268 181.044 169.106 184.167 167.417C187.289 165.728 201.242 163.716 201.848 166.705C202.63 170.564 194.804 173.312 190.795 174.158C190.795 174.158 192.612 183.083 187.422 186.271C182.232 189.459 175.075 174.268 175.075 174.268Z" fill="#F7A9A0"/>
<path d="M201.714 167.837C199.888 171.87 194.555 172.64 190.727 173.751C190.436 173.835 190.401 174.099 190.51 174.309C191.022 178.101 190.64 183.599 187.664 186.329C187.577 186.409 187.678 186.544 187.777 186.475C191.366 183.98 192.182 178.609 191.356 174.491C195.299 173.414 200.615 172.407 201.755 167.852C201.76 167.827 201.726 167.811 201.714 167.837Z" fill="#263238"/>
<path d="M177.4 171.044L176.245 200.736C176.245 200.736 144.696 202.173 137.844 195.544C133.259 191.108 125.086 167.795 123.419 151.804C121.752 135.813 126.839 136.099 135.168 150.155C143.496 164.21 150.437 174.568 150.884 174.576C151.33 174.583 177.4 171.044 177.4 171.044Z" fill="#FF7A7A"/>
<path d="M171.85 173.762C171.851 173.67 171.706 173.666 171.695 173.757C170.67 181.98 170.207 190.296 170.047 198.568C170.045 198.66 170.192 198.664 170.202 198.573C171.14 190.344 171.778 182.037 171.85 173.762Z" fill="#263238"/>
<path opacity="0.1" d="M151.619 199.943C145.614 199.186 140.232 197.855 137.847 195.547C133.26 191.103 125.081 167.793 123.414 151.799C122.82 146.082 123.088 142.452 124.065 140.776L151.619 199.943Z" fill="black"/>
<path d="M185.804 391.154C183.767 391.786 125.917 390.371 123.75 388.917C122.917 388.379 129.992 337.08 129.992 337.08L167.215 338.056L159.884 370.536C159.884 370.536 181.785 380.982 184.001 382.832C186.198 384.675 187.842 390.531 185.804 391.154Z" fill="#F7A9A0"/>
<path d="M185.806 391.149C183.764 391.789 125.921 390.375 123.748 388.915C123.344 388.654 124.819 376.313 126.43 363.742L161.288 364.321L159.882 370.536C159.882 370.536 181.78 380.98 184.001 382.828C186.201 384.675 187.837 390.532 185.806 391.149Z" fill="#EBEBEB"/>
<path d="M186.652 391.409C184.581 392.068 125.638 391.061 123.42 389.596C122.567 389.054 125.321 369.603 125.32 369.494L160.118 369.955L160.092 370.6C160.092 370.6 182.481 381.077 184.752 382.945C187.005 384.806 188.724 390.76 186.652 391.409Z" fill="#FF7A7A"/>
<path d="M186.024 389.112C176.092 388.698 135.994 387.967 126.145 388.313C126.065 388.316 126.064 388.37 126.144 388.375C135.979 389 176.082 389.406 186.021 389.275C186.231 389.272 186.234 389.121 186.024 389.112Z" fill="#263238"/>
<path d="M164.349 370.136C160.452 369.34 155.659 369.858 152.624 372.593C152.506 372.699 152.659 372.864 152.786 372.827C156.664 371.677 160.28 370.958 164.325 370.63C164.61 370.607 164.628 370.193 164.349 370.136Z" fill="#263238"/>
<path d="M167.142 371.885C163.244 371.088 158.452 371.607 155.417 374.341C155.299 374.447 155.452 374.613 155.579 374.575C159.457 373.425 163.073 372.706 167.118 372.378C167.403 372.356 167.422 371.943 167.142 371.885Z" fill="#263238"/>
<path d="M169.936 373.634C166.038 372.838 161.246 373.356 158.211 376.091C158.093 376.197 158.246 376.362 158.373 376.325C162.251 375.175 165.867 374.456 169.912 374.128C170.197 374.105 170.214 373.691 169.936 373.634Z" fill="#263238"/>
<path d="M163.243 368.681L124.207 368.467C124.207 368.467 135.698 287.602 134.7 284.275C134.31 282.975 92.028 241.931 92.028 241.931C75.174 225.317 80.233 198.521 80.233 198.521H128.842C128.842 198.521 126.626 210.365 129.145 212.946C132.203 216.08 168.879 255.647 173.653 268.256C180.027 285.095 163.243 368.681 163.243 368.681Z" fill="#37474F"/>
<path d="M162.74 360.942C156.737 360.554 158.466 360.561 152.458 360.256C149.518 360.107 130.199 359.148 127.43 359.603C127.369 359.613 127.364 359.739 127.424 359.754C130.15 360.422 149.485 360.965 152.427 361.045C158.44 361.207 156.716 361.08 162.731 361.159C162.844 361.16 162.852 360.949 162.74 360.942Z" fill="#263238"/>
<path d="M131.214 215.14L112.789 262.202C102.312 251.924 92.024 241.933 92.024 241.933C75.178 225.318 80.234 198.514 80.234 198.514H128.841C128.841 198.514 126.622 210.359 129.139 212.943C129.469 213.286 130.187 214.036 131.214 215.14Z" fill="#263238"/>
<path d="M98.5851 426.504C96.4661 426.749 39.87 414.686 38.009 412.857C37.289 412.174 38.567 403.825 40.399 393.781C40.419 393.676 40.439 393.572 40.459 393.467C40.832 391.397 50.799 360.758 50.799 360.758L87.689 365.447L77.06 400.842L76.914 401.459C76.914 401.459 96.5121 415.766 98.3481 417.993C100.168 420.209 100.703 426.268 98.5851 426.504Z" fill="#F7A9A0"/>
<path d="M98.581 426.5C96.472 426.754 39.8731 414.688 38.0071 412.855C37.2901 412.171 38.57 403.825 40.403 393.779C40.425 393.68 40.436 393.569 40.458 393.47C40.557 392.929 41.319 390.125 42.39 386.294L79.03 394.287L77.0651 400.844L76.9101 401.462C76.9101 401.462 96.516 415.769 98.349 417.988C100.171 420.208 100.7 426.268 98.581 426.5Z" fill="#EBEBEB"/>
<path d="M99.12 426.728C96.961 426.973 39.334 414.546 37.442 412.678C36.711 411.981 38.032 403.478 39.924 393.251C39.945 393.144 39.966 393.038 39.986 392.931L77.254 400.533L77.104 401.161C77.104 401.161 97.034 415.784 98.9 418.057C100.748 420.319 101.279 426.493 99.12 426.728Z" fill="#FF7A7A"/>
<path d="M98.95 424.353C89.287 422.02 50.094 413.52 40.365 411.948C40.286 411.935 40.274 411.988 40.352 412.009C49.879 414.531 89.14 422.712 98.916 424.512C99.122 424.55 99.154 424.403 98.95 424.353Z" fill="#263238"/>
<path d="M81.37 401.531C77.701 399.993 72.899 399.572 69.391 401.666C69.255 401.747 69.372 401.939 69.505 401.927C73.533 401.551 77.219 401.548 81.251 402.011C81.535 402.044 81.633 401.642 81.37 401.531Z" fill="#263238"/>
<path d="M83.77 403.789C80.101 402.251 75.299 401.83 71.791 403.923C71.655 404.004 71.772 404.196 71.904 404.184C75.932 403.809 79.618 403.805 83.65 404.268C83.935 404.302 84.033 403.9 83.77 403.789Z" fill="#263238"/>
<path d="M86.171 406.047C82.502 404.509 77.7 404.088 74.192 406.181C74.056 406.262 74.173 406.454 74.306 406.442C78.334 406.066 82.02 406.063 86.052 406.526C86.336 406.56 86.434 406.157 86.171 406.047Z" fill="#263238"/>
<path d="M119.617 199.001C119.617 199.001 122.778 226.055 117.194 232.218C117.194 232.218 107.3 294.521 103.764 312.468C99.0951 336.16 80.3131 400.715 80.3131 400.715L39.0001 393.734C39.0001 393.734 63.3621 308.876 63.5611 307.331C64.6861 298.569 74.5711 237.77 74.0651 236.259C68.8871 220.806 76.3511 199 76.3511 199H119.617V199.001Z" fill="#37474F"/>
<path d="M128.925 199.001C128.925 199.001 124.985 227.593 117.194 232.218C117.194 232.218 107.3 294.521 103.764 312.468C99.0951 336.16 81.5001 387.5 81.5001 387.5H60.0001L45.0001 379.5C45.0001 379.5 63.3621 308.876 63.5611 307.331C64.6861 298.569 74.5711 237.77 74.0651 236.259C68.8871 220.806 76.3511 199 76.3511 199H128.925V199.001Z" fill="#37474F"/>
<path d="M80.1371 392.211C74.0291 390.844 75.8041 391.134 69.6781 389.848C66.6801 389.219 46.9771 385.105 44.0611 385.1C43.9971 385.1 43.9721 385.224 44.0311 385.248C46.7291 386.355 66.5121 390.061 69.5241 390.621C75.6781 391.767 73.9261 391.358 80.0941 392.422C80.2111 392.444 80.2521 392.237 80.1371 392.211Z" fill="#263238"/>
<path d="M122.737 228.626C118.38 230.125 114.176 232.254 110.155 234.486C109.997 234.574 110.101 234.818 110.272 234.745C114.51 232.925 118.833 231.183 122.965 229.132C123.29 228.971 123.072 228.511 122.737 228.626Z" fill="#263238"/>
<path d="M124.084 199.542C124.072 199.396 123.815 199.363 123.816 199.521C123.85 204.553 123.529 208.98 123.105 213.683C122.908 215.866 121.152 227.932 117.366 227.052C116.732 226.905 116.409 226.281 116.309 225.325C116.19 224.176 116.622 222.767 116.812 221.625C117.232 219.099 117.57 216.565 117.786 214.014C118.191 209.252 118.211 204.489 117.632 199.741C117.613 199.585 117.388 199.597 117.388 199.755C117.393 206.348 117.221 212.928 116.235 219.459C115.761 222.597 114.181 227.322 117.463 227.805C120.807 228.297 122.969 220.383 123.377 218.218C124.516 212.176 124.562 205.654 124.084 199.542Z" fill="#263238"/>
<path d="M117.467 227.377C117.125 228.187 116.85 229.03 116.615 229.878C116.433 230.536 116.186 231.247 116.261 231.934C116.276 232.067 116.452 232.08 116.523 231.99C116.967 231.427 117.155 230.657 117.403 229.99C117.691 229.217 117.996 228.448 118.261 227.667C118.439 227.148 117.678 226.877 117.467 227.377Z" fill="#263238"/>
<path d="M78.906 215.191C79.827 215.035 81.172 215.357 85.159 215.083C86.26 215.007 87.355 214.795 88.431 214.55C89.506 214.305 90.6 214.028 91.471 213.316C92.939 212.117 94.05 210.192 94.938 208.543C95.913 206.731 96.902 204.664 97.364 202.65C97.392 202.526 97.572 202.586 97.55 202.706C97.341 203.872 97.224 205.036 96.917 206.189C96.628 207.273 96.209 208.328 95.753 209.352C94.902 211.264 93.907 213.316 92.193 214.607C90.394 215.962 87.887 216.215 85.708 216.367C84.448 216.455 79.504 216.322 78.84 215.616C78.722 215.492 78.731 215.22 78.906 215.191Z" fill="#263238"/>
<path d="M130.078 209.65C128.98 210.428 75.712 198.694 75.495 198.272C74.905 197.124 101.44 143.654 116.644 136.154C119.914 134.541 128.117 137.905 129.796 140.261C130.849 141.739 132.073 150.245 132.773 157.173C134.172 171.039 131.035 208.965 130.078 209.65Z" fill="#FF7A7A"/>
<path d="M127.771 146.135C127.606 151.422 127.337 156.702 127.054 161.98C126.772 167.259 126.407 172.532 126.087 177.809C125.692 183.08 125.337 188.354 124.903 193.623L124.234 201.525C123.977 204.157 123.752 206.79 123.466 209.42C123.539 206.776 123.673 204.136 123.775 201.494L124.182 193.574C124.466 188.295 124.829 183.022 125.151 177.746C125.549 172.475 125.9 167.201 126.336 161.932C126.77 156.663 127.22 151.396 127.771 146.135Z" fill="#263238"/>
<path d="M130.573 162.586C130.546 163.133 130.081 163.555 129.534 163.528C128.987 163.501 128.565 163.036 128.592 162.489C128.619 161.942 129.084 161.52 129.631 161.547C130.178 161.574 130.599 162.039 130.573 162.586Z" fill="#263238"/>
<path d="M129.676 172.759C129.649 173.306 129.184 173.728 128.638 173.701C128.091 173.674 127.669 173.209 127.696 172.662C127.723 172.115 128.188 171.693 128.735 171.72C129.281 171.747 129.702 172.212 129.676 172.759Z" fill="#263238"/>
<path d="M128.779 182.932C128.752 183.479 128.287 183.901 127.74 183.874C127.193 183.847 126.771 183.382 126.798 182.836C126.825 182.289 127.29 181.867 127.837 181.894C128.383 181.919 128.805 182.385 128.779 182.932Z" fill="#263238"/>
<path d="M127.882 193.104C127.855 193.651 127.39 194.073 126.843 194.046C126.296 194.019 125.874 193.554 125.901 193.007C125.928 192.46 126.393 192.038 126.94 192.065C127.487 192.092 127.908 192.557 127.882 193.104Z" fill="#263238"/>
<path d="M126.985 203.277C126.958 203.824 126.493 204.246 125.946 204.219C125.399 204.192 124.977 203.727 125.004 203.18C125.031 202.633 125.496 202.211 126.043 202.238C126.59 202.265 127.011 202.73 126.985 203.277Z" fill="#263238"/>
<path d="M105.483 141.54C85.282 150.758 69.222 165.868 69.269 172.495C69.337 182.003 77.775 205.411 83.595 215.576C85.305 218.562 108.278 204.786 106.454 201.592C104.249 197.731 92.934 174.966 92.839 174.53C92.635 173.596 108.448 154.569 112.605 149.926C120.229 141.408 116.47 136.527 105.483 141.54Z" fill="#F7A9A0"/>
<path d="M121.89 232.99C120.026 235.147 117.316 233.975 117.316 233.975C117.316 233.975 117.031 236.233 115.321 237.597C113.363 239.159 110.056 236.773 110.056 236.773C110.056 236.773 109.294 238.999 107.344 240.258C105.32 241.564 101.639 239.633 101.639 239.633C101.639 239.633 99.7901 241.317 97.3241 241.195C93.1071 240.987 89.963 235.358 87.928 231.8C85.893 228.242 83.453 216.243 82.756 214.004L105.48 200.746C105.48 200.746 119.146 214.105 120.945 218.629C122.46 222.439 123.982 230.569 121.89 232.99Z" fill="#F7A9A0"/>
<path d="M117.589 233.605C116.95 229.167 115.033 225.16 113.348 221.051C113.31 220.96 113.168 221.02 113.206 221.111C114.93 225.178 115.824 229.534 117.383 233.661C117.427 233.775 117.607 233.725 117.589 233.605Z" fill="#263238"/>
<path d="M110.311 236.527C110.136 235.527 109.632 234.588 109.204 233.678C108.743 232.698 108.266 231.726 107.773 230.761C106.786 228.83 105.756 226.92 104.67 225.043C104.622 224.96 104.483 225.013 104.529 225.103C105.509 227.03 106.459 228.971 107.357 230.937C107.806 231.921 108.247 232.909 108.681 233.9C109.085 234.822 109.435 235.828 110.037 236.642C110.126 236.762 110.337 236.678 110.311 236.527Z" fill="#263238"/>
<path d="M101.6 239.551C101.483 238.676 100.879 237.806 100.467 237.039C99.9991 236.168 99.5361 235.295 99.0781 234.419C98.1621 232.668 97.2471 230.916 96.3931 229.134C96.3501 229.045 96.2091 229.104 96.2511 229.194C97.1101 231.009 97.9441 232.836 98.8191 234.643C99.2481 235.531 99.6831 236.416 100.122 237.299C100.495 238.05 100.877 239.03 101.513 239.6C101.55 239.632 101.606 239.595 101.6 239.551Z" fill="#263238"/>
<path d="M106.214 200.628L77.5561 209.435C77.5561 209.435 65.7291 175.492 68.5661 169.778C71.4031 164.064 88.2591 148.441 103.035 142.104C117.811 135.767 121.475 140.765 110.524 152.889C99.5731 165.013 93.2211 174.112 93.3461 174.541C93.4711 174.971 106.214 200.628 106.214 200.628Z" fill="#FF7A7A"/>
<path d="M101.379 195.671C101.462 195.641 101.418 195.504 101.332 195.523C93.598 197.293 85.967 199.622 78.476 202.222C78.393 202.251 78.437 202.39 78.523 202.37C86.233 200.517 93.913 198.355 101.379 195.671Z" fill="#263238"/>
<path d="M106.315 200.164C104.342 195.73 96.148 179.55 93.972 175.216C93.877 175.026 93.75 174.824 93.716 174.611C93.648 174.187 93.888 173.885 94.127 173.552C94.473 173.069 94.83 172.594 95.183 172.116C95.917 171.124 96.659 170.138 97.406 169.156C98.874 167.229 100.378 165.33 101.877 163.427C101.955 163.329 102.032 163.23 102.11 163.131C103.299 162.115 104.51 161.113 105.62 160.014C105.675 159.959 105.589 159.866 105.528 159.914C104.582 160.649 103.686 161.454 102.795 162.261C104.213 160.458 105.629 158.652 107.051 156.851C107.075 156.82 107.031 156.784 107.005 156.813C103.456 160.644 100.167 164.669 97.004 168.822C96.228 169.84 95.46 170.863 94.699 171.892C94.319 172.406 93.931 172.916 93.562 173.439C93.365 173.717 93.173 173.991 93.143 174.338C93.105 174.772 93.326 175.158 93.508 175.533C93.805 176.145 94.101 176.758 94.404 177.366C94.972 178.503 95.54 179.64 96.108 180.776C97.393 183.348 104.778 197.725 106.164 200.244C106.209 200.329 106.354 200.253 106.315 200.164Z" fill="#263238"/>
<path d="M125.088 147.171C121.761 147.048 117.715 140.796 116.664 136.343C116.594 136.038 117.771 133.354 119.048 130.025C119.815 128.002 120.621 125.731 121.207 123.606L133.642 130.519C133.642 130.519 131.104 134.612 130.104 138.324C130.024 138.635 129.975 138.932 129.955 139.221C129.948 139.262 129.946 139.314 129.934 139.371C129.749 141.102 128.305 147.287 125.088 147.171Z" fill="#F7A9A0"/>
<path d="M117.89 112.285C117.175 117.36 121.934 130.947 125.87 133.524C131.575 137.26 139.818 136.405 142.715 129.798C145.523 123.394 139.007 105.797 134.713 103.568C128.389 100.285 118.946 104.788 117.89 112.285Z" fill="#F7A9A0"/>
<path d="M132.821 118.685C132.802 118.653 132.764 118.753 132.779 118.79C133.124 119.696 133.367 120.793 132.642 121.383C132.62 121.401 132.638 121.446 132.667 121.432C133.63 120.941 133.294 119.489 132.821 118.685Z" fill="#263238"/>
<path d="M131.672 118.01C130.159 118.406 131.063 121.403 132.465 121.036C133.845 120.675 132.941 117.678 131.672 118.01Z" fill="#263238"/>
<path d="M137.971 117.158C137.967 117.12 138.057 117.18 138.067 117.218C138.318 118.155 138.763 119.186 139.695 119.241C139.724 119.243 139.736 119.29 139.703 119.295C138.635 119.46 138.058 118.085 137.971 117.158Z" fill="#263238"/>
<path d="M138.507 115.938C139.966 115.374 140.986 118.333 139.635 118.856C138.305 119.37 137.284 116.41 138.507 115.938Z" fill="#263238"/>
<path d="M130.076 116.997C130.453 116.771 130.763 116.5 131.113 116.238C131.508 115.942 131.853 115.748 132.023 115.262C132.114 115.002 131.934 114.638 131.689 114.526C131.119 114.264 130.546 114.505 130.056 114.842C129.525 115.207 129.208 115.624 129.027 116.242C128.853 116.84 129.579 117.294 130.076 116.997Z" fill="#263238"/>
<path d="M139.211 114.079C138.775 114.137 138.363 114.117 137.927 114.129C137.434 114.143 137.043 114.205 136.607 113.931C136.373 113.784 136.289 113.388 136.41 113.147C136.693 112.588 137.293 112.42 137.885 112.379C138.528 112.335 139.035 112.465 139.561 112.836C140.071 113.196 139.785 114.003 139.211 114.079Z" fill="#263238"/>
<path d="M134.294 127.653C134.582 127.803 134.894 128.036 135.239 127.962C135.57 127.892 135.905 127.632 136.167 127.427C136.193 127.407 136.232 127.429 136.221 127.462C136.088 127.891 135.648 128.267 135.195 128.321C134.753 128.375 134.435 128.074 134.217 127.72C134.187 127.672 134.252 127.631 134.294 127.653Z" fill="#263238"/>
<path d="M134.431 124.579C135.194 125.228 136.091 125.438 136.965 125.349C137.356 125.312 137.748 125.207 138.118 125.058C138.192 125.034 138.265 125.003 138.328 124.968C138.393 124.939 138.452 124.913 138.522 124.876C138.626 124.827 138.658 124.72 138.645 124.612L138.643 124.605C138.632 124.571 138.623 124.544 138.606 124.513C138.606 124.513 138.606 124.513 138.604 124.506L138.578 124.425C138.382 123.704 137.984 122.638 137.984 122.638C138.285 122.69 139.797 122.887 139.663 122.52C138.546 119.485 137.303 116.109 135.55 113.324C135.497 113.229 135.348 113.3 135.388 113.399C136.346 116.359 137.819 119.13 138.829 122.088C138.355 122.055 137.572 121.965 137.201 122.085C137.108 122.145 138.006 124.132 138.068 124.463C138.068 124.463 138.073 124.477 138.072 124.499C136.918 125.015 135.903 124.925 134.494 124.47C134.408 124.437 134.353 124.522 134.431 124.579Z" fill="#263238"/>
<path d="M137.241 127.567C137.241 127.567 136.779 128.568 135.965 129.064C135.665 129.248 135.326 129.366 134.94 129.345C134.147 129.304 133.985 128.619 134 128C134.011 127.492 134.149 127.027 134.149 127.027C134.149 127.027 135.459 127.825 137.241 127.567Z" fill="#263238"/>
<path d="M123.767 118.934C124.34 116.108 122.207 111.772 123.404 110.383C125.995 107.376 132.634 111.656 136.753 111.155C140.744 110.669 141.749 107.934 140.615 104.79C139.481 101.646 136.453 99.823 131.892 99.728C127.173 99.629 123.191 102.035 121.085 103.799C121.085 103.799 121.885 102.054 121.444 101.6C121.003 101.146 119.249 102.95 118.736 103.688C118.216 104.438 118.006 105.735 118.006 105.735C118.006 105.735 117.251 105.612 116.161 105.78C115.15 105.936 113.974 106.894 113.932 107.141C113.89 107.389 115.366 107.388 116.39 107.309C116.39 107.309 114.816 110.072 115.132 112.222C115.448 114.372 120.115 124.186 120.935 124.193C121.99 124.203 123.535 120.083 123.767 118.934Z" fill="#263238"/>
<path d="M116.751 106.997C116.784 106.971 116.839 107.015 116.808 107.049C115.945 108.011 115.284 109.088 115.042 110.375C114.76 111.872 115.056 113.409 115.567 114.824C116.561 117.575 118.273 119.967 119.811 122.427C119.856 122.499 119.735 122.577 119.686 122.508C117.89 120.007 116.04 117.277 115.106 114.318C114.308 111.796 114.526 108.749 116.751 106.997Z" fill="#263238"/>
<path d="M123.112 109.357C124.262 109.044 125.579 108.988 126.76 109.131C127.924 109.272 128.978 109.85 130.058 110.27C132.481 111.211 135.088 111.847 137.686 111.352C137.72 111.346 137.727 111.395 137.695 111.403C135.34 112.01 132.909 111.597 130.648 110.811C129.508 110.414 128.398 109.78 127.217 109.523C125.875 109.231 124.495 109.427 123.15 109.572C123.011 109.585 122.978 109.393 123.112 109.357Z" fill="#263238"/>
<path d="M123.398 102.351C124.897 101.326 126.574 100.565 128.299 100.006C129.954 99.469 131.688 99.107 133.435 99.167C136.451 99.271 139.409 100.805 140.49 103.75C141.038 105.243 141.093 106.952 140.478 108.434C140.436 108.534 140.288 108.479 140.32 108.376C141.195 105.564 140.307 102.403 137.801 100.734C135.11 98.941 131.686 99.215 128.725 100.084C126.861 100.631 125.116 101.449 123.411 102.37C123.399 102.375 123.388 102.358 123.398 102.351Z" fill="#263238"/>
<path d="M132.326 124.366C130.535 124.707 128.667 123.808 127.86 122.082C126.906 120.04 127.79 117.604 129.831 116.649C131.872 115.694 134.309 116.578 135.263 118.62C136.217 120.661 135.333 123.098 133.292 124.052C132.978 124.2 132.654 124.304 132.326 124.366ZM130.9 116.873C130.617 116.927 130.336 117.017 130.063 117.144C128.295 117.971 127.529 120.082 128.355 121.85C129.182 123.617 131.294 124.385 133.061 123.557C134.829 122.73 135.595 120.619 134.769 118.851C134.07 117.357 132.452 116.578 130.9 116.873Z" fill="#37474F"/>
<path d="M141.256 121.503C139.72 121.795 138.027 120.487 137.387 118.454C137.064 117.428 137.051 116.368 137.353 115.47C137.663 114.541 138.271 113.892 139.062 113.643C139.856 113.391 140.722 113.578 141.51 114.161C142.271 114.725 142.868 115.601 143.191 116.627C143.867 118.776 143.116 120.934 141.517 121.438C141.43 121.464 141.344 121.486 141.256 121.503ZM139.427 114.113C139.359 114.126 139.292 114.142 139.226 114.164C138.606 114.359 138.125 114.884 137.87 115.643C137.606 116.433 137.619 117.373 137.907 118.289C138.494 120.151 140.034 121.332 141.351 120.916C142.664 120.503 143.254 118.652 142.669 116.79C142.38 115.873 141.853 115.095 141.183 114.599C140.61 114.174 139.994 114.005 139.427 114.113Z" fill="#37474F"/>
<path d="M135.275 119.113L134.814 118.819C135.249 118.137 136.406 117.039 137.678 117.758L137.409 118.233C136.271 117.587 135.315 119.051 135.275 119.113Z" fill="#37474F"/>
<path d="M118.225 125.583L117.687 125.49C117.731 125.239 118.145 123.022 119.25 122.467C120.283 121.951 127.474 120.407 127.779 120.341L127.893 120.875C125.831 121.316 120.292 122.554 119.495 122.955C118.765 123.32 118.331 124.975 118.225 125.583Z" fill="#37474F"/>
<path d="M123.5 122.612C123.5 122.612 119.545 118.665 117.699 120.153C115.853 121.642 119.388 127.755 121.949 128.221C124.51 128.688 124.988 126.325 124.988 126.325L123.5 122.612Z" fill="#F7A9A0"/>
<path d="M118.756 121.881C118.717 121.885 118.719 121.94 118.755 121.948C120.561 122.33 121.725 123.734 122.635 125.243C122.023 124.709 121.28 124.489 120.551 125.234C120.513 125.273 120.567 125.334 120.613 125.316C121.276 125.045 121.796 125.076 122.36 125.546C122.76 125.879 123.073 126.333 123.39 126.743C123.496 126.88 123.754 126.751 123.665 126.587C123.658 126.575 123.651 126.563 123.644 126.551C123.304 124.394 121.1 121.686 118.756 121.881Z" fill="#263238"/>
<path d="M129.935 139.371L127.344 145.759L116.986 135.021L113.96 138.127C113.96 138.127 122.814 154.888 122.918 154.16L127.579 147.373L131.154 152.517L131.538 142.242L129.935 139.371Z" fill="#FF7A7A"/>
<path d="M277.464 400.126C275.258 400.381 216.325 387.82 214.387 385.916C213.638 385.205 214.967 376.511 216.876 366.053C216.897 365.944 216.918 365.835 216.939 365.726C217.328 363.57 227.706 327.501 227.706 327.501L266.119 336.549L255.051 373.405L254.899 374.047C254.899 374.047 275.306 388.944 277.218 391.263C279.111 393.571 279.669 399.88 277.464 400.126Z" fill="#AD6359"/>
<path d="M215.948 371.253C214.572 379.267 213.762 385.325 214.389 385.916C216.329 387.823 275.257 400.382 277.466 400.125C279.674 399.877 279.113 393.572 277.215 391.26C276.052 389.851 268.022 383.768 261.918 379.223C266.008 382.533 271.888 390.452 246.665 382.348C231.102 377.347 221.378 373.555 215.948 371.253Z" fill="#263238"/>
<path d="M294.894 167.001C294.894 167.001 298.185 195.172 292.371 201.589C292.371 201.589 280.683 267.312 277 286C272.139 310.67 260.025 362.978 260.025 362.978L218 352.812C218 352.812 239.967 284.11 239.967 279.803C241.138 270.679 250.394 207.564 249.84 206C242.686 185.81 249.84 167 249.84 167H294.894V167.001Z" fill="#263238"/>
<path d="M259.245 351.676C253.392 350.059 255.1 350.414 249.224 348.883C246.349 348.134 227.448 343.233 224.608 343.153C224.545 343.151 224.513 343.283 224.569 343.311C227.119 344.563 246.127 349.03 249.02 349.706C254.932 351.088 253.255 350.607 259.188 351.902C259.301 351.926 259.355 351.707 259.245 351.676Z" fill="#37474F"/>
<path d="M254.752 344.721L259.888 323.233L265.104 301.765L267.67 291.023L268.285 288.336C268.459 287.451 268.599 286.537 268.736 285.63L269.52 280.167L272.446 258.272L278.287 214.474L279.757 203.525L280.515 198.052L280.719 196.683C280.741 196.488 280.821 196.146 280.845 196.004C280.872 195.795 280.886 195.563 280.899 195.337C280.94 194.423 280.96 193.503 280.978 192.584C281.082 185.224 281.037 177.857 280.998 170.494C281.148 177.857 281.304 185.219 281.311 192.588C281.307 193.51 281.303 194.43 281.263 195.356C281.25 195.589 281.24 195.817 281.208 196.064C281.143 196.373 281.126 196.482 281.086 196.743L280.89 198.106L280.161 203.579L278.748 214.534L273.135 258.363C272.194 265.668 271.174 272.961 270.141 280.255L269.327 285.722C269.184 286.634 269.041 287.541 268.855 288.461L268.221 291.154L265.589 301.884L260.244 323.321L254.752 344.721Z" fill="#37474F"/>
<path d="M292.53 201.583C292.53 201.583 287.025 226.685 283.5 250L254.5 182.5L295.057 167C295.057 167 298.341 195.163 292.53 201.583Z" fill="#37474F"/>
<path d="M364.444 366.328C362.334 367.021 302.08 366.549 299.799 365.072C298.922 364.526 305.401 310.995 305.401 310.995L343.904 312.656L337.101 345.311C337.101 345.311 360.084 355.807 362.423 357.695C364.742 359.576 366.555 365.644 364.444 366.328Z" fill="#AD6359"/>
<path d="M364.447 366.328C363.518 366.633 351.369 366.711 337.838 366.583C336.95 366.571 336.051 366.56 335.152 366.55C332.843 366.532 330.512 366.495 328.202 366.457C327.303 366.436 326.403 366.414 325.515 366.403L325.474 366.406C324.585 366.384 323.696 366.362 322.828 366.349C321.479 366.327 320.162 366.293 318.875 366.257C318.038 366.231 317.211 366.205 316.406 366.188L316.375 366.19C315.569 366.162 314.774 366.134 314.01 366.113L313.979 366.115C312.818 366.081 311.708 366.042 310.65 365.99C309.938 365.966 309.237 365.942 308.566 365.905C307.257 365.849 306.062 365.786 305.003 365.713C304.469 365.687 303.965 365.649 303.502 365.608C302.347 365.521 301.422 365.428 300.789 365.326C300.272 365.247 299.931 365.155 299.8 365.071C299.495 364.883 299.691 358.365 300.065 349.891C305.881 351.253 316.523 353.388 332.797 355.728C359.554 359.577 351.58 352.381 347.036 349.939C346.992 349.911 346.949 349.893 346.906 349.865C347.186 349.992 347.478 350.128 347.759 350.265C347.802 350.283 347.855 350.3 347.899 350.329C348.417 350.575 348.936 350.821 349.454 351.067C350.015 351.331 350.588 351.605 351.149 351.879C352.088 352.326 353.028 352.772 353.926 353.222C354.833 353.65 355.698 354.081 356.52 354.494C357.007 354.742 357.483 354.981 357.937 355.2C358.164 355.31 358.381 355.43 358.597 355.541C358.889 355.688 359.181 355.835 359.453 355.983C360.059 356.296 360.591 356.583 361.047 356.844C361.155 356.899 361.263 356.954 361.362 357.021C361.851 357.301 362.212 357.537 362.422 357.699C364.742 359.572 366.551 365.639 364.447 366.328Z" fill="#263238"/>
<path d="M342.161 330.317L301.818 330.805C301.818 330.805 311.811 257.646 310.771 254.182C310.365 252.828 273 213.5 273 213.5C255.45 196.2 249.925 167.185 249.925 167.185H294.979C294.979 167.185 295.585 174.221 297.954 176.88C311.504 192.083 336.872 224.529 342.161 238.5C348.802 256.034 342.161 330.317 342.161 330.317Z" fill="#263238"/>
<path d="M250.05 182.712C250.183 185.402 250.642 188.061 251.478 190.604C252.272 193.157 253.344 195.618 254.626 197.96C257.195 202.644 260.465 206.934 264.201 210.756C267.882 214.649 271.893 218.24 275.884 221.84C279.896 225.421 283.968 228.939 288.053 232.449C285.879 230.858 283.765 229.189 281.643 227.529C279.544 225.841 277.465 224.128 275.4 222.396C271.299 218.899 267.28 215.298 263.511 211.415C259.787 207.489 256.451 203.14 253.98 198.3C252.757 195.879 251.743 193.348 251.032 190.732C250.336 188.117 249.968 185.406 250.05 182.712Z" fill="#37474F"/>
<path d="M284.511 170.676C284.432 172.406 284.531 174.15 284.881 175.844C285.071 176.678 285.289 177.543 285.71 178.272C286.205 178.973 286.785 179.623 287.347 180.279C289.631 182.884 291.997 185.419 294.356 187.959L308.508 203.205C313.226 208.287 317.936 213.378 322.603 218.508C327.262 223.647 331.911 228.795 336.354 234.136C337.455 235.48 338.536 236.841 339.567 238.249C340.078 238.957 340.582 239.671 341.03 240.442C341.252 240.814 341.471 241.254 341.589 241.7C341.713 242.135 341.8 242.571 341.869 243.008C342.367 246.504 342.223 249.987 342.088 253.457C341.742 260.398 341 267.3 340.178 274.188C339.343 281.075 338.39 287.946 337.362 294.804C336.297 301.657 335.172 308.501 333.964 315.329C335.056 308.481 336.066 301.621 337.014 294.753C337.991 287.889 338.912 281.018 339.703 274.132C340.484 267.247 341.185 260.346 341.49 253.431C341.607 249.984 341.721 246.492 341.219 243.116C341.151 242.697 341.064 242.283 340.948 241.884C340.84 241.493 340.666 241.15 340.445 240.779C340.018 240.053 339.517 239.35 339.01 238.657C337.985 237.273 336.899 235.926 335.799 234.592C331.404 229.245 326.785 224.07 322.159 218.908C317.524 213.753 312.845 208.636 308.157 203.527L294.097 188.194C291.78 185.614 289.457 183.039 287.213 180.392C286.659 179.723 286.093 179.067 285.599 178.343C285.168 177.564 284.975 176.71 284.794 175.86C284.473 174.152 284.404 172.405 284.511 170.676Z" fill="#37474F"/>
<path d="M339.014 320.733C333.374 320.567 334.994 320.503 329.354 320.426C326.594 320.388 308.454 320.165 305.875 320.768C305.818 320.782 305.818 320.917 305.875 320.93C308.454 321.533 326.594 321.31 329.354 321.272C334.995 321.195 333.375 321.131 339.014 320.965C339.12 320.963 339.12 320.737 339.014 320.733Z" fill="#37474F"/>
<path d="M308.204 150.032C307.646 150.001 305.033 149.864 301.212 149.673C300.061 147.143 298.817 142.724 299.949 136.687C300.143 135.688 297.324 141.299 297.66 149.494C290.277 149.116 280.235 148.597 271.468 148.061C271.556 144.629 271.482 141.443 271.482 141.443C270.996 143.885 270.302 146.069 269.561 147.951C268.361 147.887 267.187 147.802 266.061 147.731C266.717 142.441 266.508 133.124 266.508 133.124C265.231 139.498 262.789 144.482 261.08 147.398C255.518 146.999 251.866 146.635 252.121 146.39C261.259 137.378 255.517 131.36 258.548 123.046C262.184 113.084 271.08 112.127 271.395 104.463C271.667 98.2279 271.741 86.8858 279.78 85.0648C279.78 85.0648 286.697 78.5458 296.445 83.1548C308.504 88.8448 302.147 107.657 302.701 111.621C303.487 117.285 305.992 119.449 307.495 125.954C309.032 132.539 305.781 136.589 305.12 140.925C304.476 145.261 309.601 150.124 308.204 150.032Z" fill="#263238"/>
<path d="M251.976 144.995C253.228 143.357 254.363 141.617 255.086 139.753C255.864 137.905 255.734 135.942 255.502 133.91C255.27 131.888 254.968 129.816 254.941 127.688C254.938 125.57 255.181 123.361 256.036 121.331C256.855 119.294 258.2 117.489 259.8 116.065C261.385 114.615 263.163 113.485 264.88 112.368C266.583 111.234 268.281 110.116 269.606 108.61C270.956 107.132 271.851 105.249 272.253 103.218C272.18 105.283 271.472 107.374 270.192 109.083C268.926 110.807 267.24 112.143 265.581 113.371C263.92 114.609 262.254 115.782 260.831 117.161C259.416 118.541 258.248 120.132 257.551 121.939C256.848 123.74 256.54 125.695 256.532 127.69C256.497 129.689 256.717 131.717 256.83 133.802C256.877 134.845 256.909 135.906 256.792 136.986C256.681 138.068 256.325 139.146 255.852 140.093C254.86 141.984 253.514 143.608 251.976 144.995Z" fill="#263238"/>
<path d="M302.929 90.8168C303.718 93.2478 303.885 95.8308 304.06 98.3658C304.186 100.913 304.188 103.459 304.163 105.994L304.15 109.78C304.148 111.046 304.218 112.238 304.447 113.422C304.888 115.797 306.039 117.927 307.355 120.103C307.989 121.205 308.631 122.35 309.133 123.577C309.637 124.801 310.017 126.087 310.236 127.396C310.416 128.717 310.507 130.005 310.49 131.317C310.48 132.627 310.309 133.956 309.98 135.23C309.656 136.509 309.198 137.708 308.802 138.887C308.403 140.063 308.111 141.277 307.946 142.492C307.578 144.898 308.676 147.41 310.516 149.141C308.44 147.689 307.032 145.12 307.16 142.429C307.223 141.12 307.453 139.84 307.776 138.587C308.092 137.334 308.502 136.143 308.73 134.946C309.213 132.575 309.096 130.055 308.697 127.663C308.458 126.478 308.123 125.32 307.645 124.206C307.175 123.089 306.565 122.021 305.924 120.934C305.295 119.841 304.639 118.717 304.098 117.509C303.559 116.303 303.128 115.021 302.907 113.703C302.692 112.387 302.659 111.039 302.701 109.769C302.726 108.487 302.798 107.218 302.873 105.952C303.009 103.42 303.181 100.897 303.249 98.3728C303.348 95.8498 303.35 93.3228 302.929 90.8168Z" fill="#263238"/>
<path d="M288.488 128.518C295.816 149.018 309.246 165.96 315.723 166.464C325.017 167.186 344.063 162.861 354.476 158.019C357.535 156.596 347.213 133.482 343.941 134.999C339.986 136.832 320.1 143.549 319.666 143.606C318.736 143.728 301.462 126.701 297.27 122.255C289.582 114.102 284.502 117.369 288.488 128.518Z" fill="#AD6359"/>
<path d="M350.004 159.187C353.019 158.938 364.248 156.974 371.364 153.348C374.816 151.589 384.195 145.486 383.047 142.733C381.9 139.98 379 141.521 379 141.521C379 141.521 382.577 138.35 381.169 135.684C379.762 133.018 375.33 135.564 375.33 135.564C375.33 135.564 378.765 132.04 377.171 129.481C375.577 126.922 371.55 130.228 371.55 130.228C371.55 130.228 374.841 127.152 372.641 125.596C369.994 123.725 364.567 130.081 360.652 131.834C359.763 132.232 342.057 138.622 342.057 138.622L350.004 159.187Z" fill="#AD6359"/>
<path d="M371.463 130.229C367.461 134.894 364.903 136.242 359.12 138.022C359.007 138.057 359.034 138.233 359.155 138.207C364.977 136.979 368.429 135.75 371.699 130.41C371.859 130.15 371.653 130.007 371.463 130.229Z" fill="#263238"/>
<path d="M375.552 135.43C370.972 139.912 368.211 141.399 362.291 143.709C362.207 143.742 362.254 143.887 362.341 143.861C368.338 142.081 371.754 140.776 375.742 135.697C375.923 135.467 375.762 135.225 375.552 135.43Z" fill="#263238"/>
<path d="M378.606 141.872C373.858 145.891 370.901 147.652 364.866 149.157C364.723 149.193 364.762 149.404 364.908 149.382C371.211 148.446 374.918 146.276 378.712 142.03C378.972 141.74 378.905 141.619 378.606 141.872Z" fill="#263238"/>
<path d="M341.396 138.038C341.396 138.038 345.591 131.579 348.059 129.148C350.528 126.717 363.062 121.044 364.441 123.681C366.221 127.087 359.631 131.787 356.102 133.667C356.102 133.667 360.228 141.541 356.228 145.938C352.228 150.336 341.396 138.038 341.396 138.038Z" fill="#AD6359"/>
<path d="M364.623 124.78C364.006 129.057 359.215 131.226 355.928 133.306C355.678 133.464 355.717 133.721 355.876 133.888C357.385 137.303 358.519 142.561 356.47 145.929C356.41 146.027 356.542 146.126 356.616 146.035C359.303 142.722 358.611 137.465 356.718 133.83C360.122 131.75 364.832 129.363 364.664 124.784C364.663 124.757 364.627 124.752 364.623 124.78Z" fill="#263238"/>
<path d="M329.636 139.367L335.253 165.284C335.253 165.284 318.356 170.17 313.01 166.924C307.663 163.678 293.799 145.916 288.835 130.955C283.871 115.994 289.057 112.83 299.992 124.534C310.927 136.238 319.289 143.198 319.719 143.112C320.149 143.026 329.636 139.367 329.636 139.367Z" fill="#FF7A7A"/>
<path d="M325.303 142.153C325.281 142.07 325.143 142.101 325.155 142.186C326.242 149.888 327.884 157.536 329.803 165.07C329.824 165.153 329.964 165.122 329.951 165.037C328.78 157.351 327.306 149.669 325.303 142.153Z" fill="#263238"/>
<path opacity="0.1" d="M321.185 167.941C317.875 168.191 314.805 168.009 313.013 166.922C307.669 163.673 293.803 145.92 288.839 130.95C285.248 120.136 286.959 115.491 292.315 118.167L321.185 167.941Z" fill="black"/>
<path d="M297.877 156.959L294.981 167.19L249.925 167.185C249.925 167.185 259.94 130.861 277.03 119.688C285.578 114.1 291.401 116.634 295.134 122.995C296.079 124.604 303.125 140.175 303.461 146.841C303.821 153.943 297.877 156.959 297.877 156.959Z" fill="#FF7A7A"/>
<path d="M293.103 153.513C291.413 153.67 289.712 153.913 288.04 154.442C287.208 154.705 286.387 155.023 285.565 155.368C285.155 155.54 284.746 155.691 284.333 155.84C283.91 155.992 283.457 156.131 283.026 156.125C282.987 156.124 282.982 156.211 283.021 156.215C283.438 156.258 283.837 156.296 284.259 156.255C284.66 156.216 285.063 156.112 285.459 155.993C286.304 155.738 287.143 155.425 287.987 155.158C289.69 154.618 291.392 154.079 293.109 153.722C293.189 153.705 293.183 153.506 293.103 153.513Z" fill="#263238"/>
<path d="M297.099 155.991C295.738 155.698 294.343 155.499 292.959 155.441C292.262 155.412 291.568 155.443 290.869 155.502C290.535 155.53 290.202 155.567 289.868 155.61C289.501 155.657 289.135 155.778 288.768 155.818C288.73 155.822 288.724 155.911 288.763 155.908C289.109 155.886 289.456 155.95 289.801 155.959C290.148 155.968 290.495 155.972 290.842 155.98C291.537 155.996 292.23 156.024 292.926 156.031C294.318 156.044 295.702 156.078 297.09 156.163C297.164 156.167 297.169 156.006 297.099 155.991Z" fill="#263238"/>
<path d="M278.764 117.65C256.502 119.992 239.035 127.083 232.988 130.301C229.037 132.404 207.068 147.905 202.062 152.499C199.605 154.754 215.143 173.232 218.023 171.131C221.928 168.282 246.184 146.441 246.523 146.172C247.841 145.125 273.745 129.312 279.141 126.353C288.153 121.412 288.644 116.61 278.764 117.65Z" fill="#AD6359"/>
<path d="M200.556 193.537C197.942 192.644 198.012 189.784 198.012 189.784C198.012 189.784 195.879 190.347 194.034 189.305C191.92 188.112 192.865 184.275 192.865 184.275C192.865 184.275 190.588 184.398 188.75 183.101C186.842 181.756 187.242 177.748 187.242 177.748C187.242 177.748 185.058 176.697 184.273 174.437C182.93 170.572 186.849 165.704 189.308 162.585C191.767 159.465 201.666 152.921 203.425 151.483L218.024 171.131C218.024 171.131 216.533 184.222 213.121 187.479C210.245 190.223 203.491 194.54 200.556 193.537Z" fill="#AD6359"/>
<path d="M198.444 189.896C202.201 187.712 205.107 184.536 208.188 181.531C208.257 181.464 208.151 181.358 208.083 181.426C205.054 184.45 201.463 186.834 198.32 189.732C198.232 189.811 198.342 189.955 198.444 189.896Z" fill="#263238"/>
<path d="M193.178 184.415C194.013 183.895 194.674 183.102 195.337 182.387C196.051 181.617 196.751 180.836 197.44 180.043C198.818 178.456 200.16 176.838 201.453 175.181C201.51 175.108 201.412 175.002 201.348 175.076C199.972 176.655 198.572 178.214 197.131 179.734C196.41 180.495 195.682 181.249 194.949 181.999C194.267 182.696 193.49 183.375 192.976 184.212C192.9 184.334 193.052 184.493 193.178 184.415Z" fill="#263238"/>
<path d="M187.301 177.683C188.045 177.26 188.607 176.402 189.147 175.754C189.76 175.018 190.377 174.285 190.998 173.556C192.239 172.098 193.482 170.64 194.774 169.226C194.838 169.156 194.734 169.05 194.669 169.12C193.349 170.55 192.01 171.962 190.703 173.404C190.061 174.112 189.423 174.823 188.789 175.539C188.25 176.147 187.507 176.845 187.225 177.624C187.21 177.667 187.264 177.704 187.301 177.683Z" fill="#263238"/>
<path d="M229.087 165.572L210.775 143.656C210.775 143.656 227.591 132.266 232.83 129.107C238.124 125.914 259.356 118.61 274.887 117.366C290.418 116.122 290.023 121.044 276.212 128.787C262.402 136.53 252.481 143.128 252.188 143.446C251.308 144.402 229.087 165.572 229.087 165.572Z" fill="#FF7A7A"/>
<path d="M233.032 159.121C233.091 159.182 233.195 159.089 233.144 159.021C228.51 152.886 223.422 147.064 218.149 141.474C218.091 141.412 217.985 141.507 218.037 141.574C222.736 147.655 227.696 153.587 233.032 159.121Z" fill="#263238"/>
<path d="M253.037 142.733C254.791 141.501 256.586 140.335 258.388 139.18C260.189 138.023 262.024 136.922 263.84 135.79C265.686 134.708 267.516 133.599 269.377 132.543C271.238 131.487 273.104 130.441 275.01 129.464C273.254 130.699 271.458 131.864 269.656 133.02C267.854 134.175 266.022 135.278 264.206 136.407C262.36 137.487 260.533 138.597 258.672 139.652C256.811 140.707 254.945 141.753 253.037 142.733Z" fill="#263238"/>
<path d="M269.534 132.887C270.264 132.464 271.032 132.169 271.806 131.896C272.586 131.636 273.37 131.414 274.196 131.257C273.86 131.516 273.486 131.707 273.112 131.886C272.738 132.069 272.35 132.212 271.961 132.35C271.176 132.606 270.376 132.82 269.534 132.887Z" fill="#263238"/>
<path d="M285.457 121.481C285.755 122.409 290.764 128.185 295.072 127.634C296.475 127.452 295.823 119.753 295.823 119.753L295.905 119.174L297.044 111.063L287.201 105.812L285.784 105.126C285.784 105.126 285.619 107.366 285.44 110.156C285.431 110.286 285.422 110.415 285.414 110.553C285.4 110.711 285.385 110.859 285.378 111.007C285.346 111.424 285.315 111.849 285.294 112.273C285.276 112.596 285.257 112.91 285.25 113.25C285.235 113.591 285.227 113.922 285.212 114.262C285.135 117.626 285.336 121.086 285.457 121.481Z" fill="#AD6359"/>
<path d="M285.441 110.156C288.235 116.313 293.508 118.49 295.905 119.173L297.044 111.062L287.201 105.811L285.784 105.125C285.784 105.125 285.619 107.366 285.441 110.156Z" fill="#263238"/>
<path d="M306.437 95.5388C311.222 109.094 303.643 113.49 300.719 114.519C298.064 115.452 288.907 118.295 282.748 105.306C276.588 92.3178 281.378 85.8079 287.336 83.3509C293.294 80.8949 301.652 81.9828 306.437 95.5388Z" fill="#AD6359"/>
<path d="M303.673 95.0328C303.388 95.2178 303.095 95.3418 302.795 95.4958C302.456 95.6698 302.204 95.8438 301.809 95.7968C301.598 95.7728 301.406 95.5238 301.411 95.3168C301.421 94.8328 301.784 94.5158 302.183 94.2898C302.616 94.0448 303.013 93.9658 303.503 94.0498C303.978 94.1308 304.048 94.7888 303.673 95.0328Z" fill="#263238"/>
<path d="M294.56 98.3618C294.889 98.2778 295.179 98.1458 295.496 98.0288C295.853 97.8968 296.151 97.8298 296.385 97.5078C296.51 97.3358 296.457 97.0268 296.301 96.8888C295.937 96.5688 295.459 96.6208 295.023 96.7618C294.549 96.9148 294.223 97.1538 293.952 97.5708C293.69 97.9758 294.126 98.4728 294.56 98.3618Z" fill="#263238"/>
<path d="M297.393 99.9858C297.375 99.9528 297.333 100.053 297.346 100.091C297.658 101.019 297.86 102.134 297.105 102.701C297.082 102.719 297.099 102.765 297.129 102.751C298.119 102.293 297.837 100.815 297.393 99.9858Z" fill="#263238"/>
<path d="M296.261 99.2588C294.719 99.5988 295.512 102.657 296.941 102.343C298.346 102.033 297.553 98.9738 296.261 99.2588Z" fill="#263238"/>
<path d="M295.702 99.5768C295.48 99.8188 295.297 100.193 294.983 100.308C294.62 100.442 294.255 100.195 293.932 99.9488C293.899 99.9238 293.879 99.9568 293.889 99.9978C294.032 100.586 294.414 101.129 295.065 101.054C295.659 100.985 295.936 100.359 295.929 99.7318C295.928 99.6158 295.792 99.4788 295.702 99.5768Z" fill="#263238"/>
<path d="M302.436 98.0258C302.433 97.9878 302.522 98.0498 302.532 98.0888C302.763 99.0398 303.188 100.091 304.128 100.168C304.157 100.171 304.167 100.219 304.135 100.223C303.052 100.365 302.502 98.9648 302.436 98.0258Z" fill="#263238"/>
<path d="M303.005 96.8078C304.491 96.2728 305.451 99.2828 304.075 99.7788C302.722 100.266 301.76 97.2558 303.005 96.8078Z" fill="#263238"/>
<path d="M303.647 96.7778C303.964 96.8638 304.318 97.0828 304.645 97.0128C305.023 96.9318 305.2 96.5288 305.343 96.1488C305.358 96.1098 305.392 96.1278 305.406 96.1668C305.599 96.7408 305.566 97.4038 304.975 97.6868C304.436 97.9458 303.868 97.5638 303.539 97.0298C303.477 96.9308 303.52 96.7428 303.647 96.7778Z" fill="#263238"/>
<path d="M299.161 107.333C299.437 107.509 299.731 107.769 300.085 107.725C300.424 107.683 300.783 107.449 301.063 107.267C301.091 107.249 301.128 107.274 301.115 107.307C300.944 107.727 300.47 108.068 300.01 108.084C299.561 108.1 299.267 107.771 299.078 107.396C299.051 107.344 299.12 107.308 299.161 107.333Z" fill="#263238"/>
<path d="M302.181 102.845C302.181 102.845 302.759 104.203 302.941 104.868C302.958 104.93 302.804 105.004 302.582 105.078C302.572 105.085 302.567 105.09 302.556 105.086C301.431 105.589 300.138 105.505 299.163 104.74C299.1 104.688 299.165 104.596 299.237 104.621C300.289 105.026 301.304 104.929 302.35 104.663C302.347 104.466 301.282 102.371 301.385 102.334C301.74 102.204 302.524 102.257 302.989 102.265C301.866 99.4018 300.294 96.7418 299.218 93.8748C299.182 93.7718 299.324 93.6988 299.38 93.7848C301.226 96.4558 302.59 99.7218 303.826 102.649C303.984 103.013 302.478 102.886 302.181 102.845Z" fill="#263238"/>
<path d="M302.421 104.855C302.421 104.855 302.042 105.929 301.252 106.517C300.961 106.735 300.624 106.889 300.225 106.905C299.406 106.939 299.173 106.25 299.129 105.612C299.091 105.088 299.188 104.597 299.188 104.597C299.188 104.597 300.613 105.292 302.421 104.855Z" fill="#263238"/>
<path d="M301.253 106.518C300.962 106.736 300.625 106.89 300.226 106.906C299.407 106.94 299.174 106.251 299.13 105.613C299.967 105.446 300.941 105.749 301.253 106.518Z" fill="#FF99BA"/>
<path d="M283.015 105.524C286.331 104.476 284.604 99.2708 284.604 99.2708C284.604 99.2708 288.243 97.7078 286.544 91.5658C286.544 91.5658 289.539 94.6308 294.865 93.7168C295.993 93.5238 291.476 91.9108 291.476 91.9108C291.476 91.9108 297.074 94.4128 304.61 90.3118C305.143 90.0218 301.175 81.9558 293.941 81.1228C286.708 80.2898 281.57 83.7778 278.971 89.0168C278.971 89.0168 275.965 91.7518 276.872 96.2878C277.78 100.823 281.726 105.931 283.015 105.524Z" fill="#263238"/>
<path d="M286.073 105.025C286.073 105.025 281.913 101.465 280.222 103.058C278.531 104.651 282.441 110.358 284.978 110.621C287.515 110.885 287.805 108.541 287.805 108.541L286.073 105.025Z" fill="#AD6359"/>
<path d="M281.384 104.666C281.346 104.672 281.352 104.726 281.388 104.731C283.181 104.969 284.423 106.253 285.425 107.659C284.787 107.183 284.045 107.024 283.389 107.806C283.355 107.847 283.412 107.903 283.456 107.882C284.084 107.568 284.593 107.559 285.18 107.976C285.595 108.271 285.936 108.691 286.276 109.068C286.389 109.194 286.631 109.048 286.533 108.896C286.526 108.885 286.517 108.873 286.51 108.862C286.015 106.78 283.659 104.3 281.384 104.666Z" fill="#263238"/>
<path d="M453.849 85.477C460.592 103.114 479.292 126.491 483.964 128.189C491.379 130.885 514.911 121.393 523.828 116.646C526.507 115.22 515.048 91.266 512.316 93.018C506.527 96.73 490.688 103.36 488.618 103.201C487.241 103.095 472.484 89.88 463.318 82.107C451.728 72.279 452.078 80.845 453.849 85.477Z" fill="#D3766A"/>
<path d="M469.016 114.334L477.663 92.25C477.663 92.25 468.658 83.573 459.761 77.917C450.864 72.261 450.413 81.348 457.131 93.928C463.851 106.507 469.016 114.334 469.016 114.334Z" fill="#FF7A7A"/>
<path d="M466.186 108.368C467.855 103.521 469.866 98.784 471.965 94.099C472.559 92.773 473.184 91.461 473.84 90.165C473.858 90.128 473.916 90.145 473.902 90.186C473.017 92.589 472.035 94.954 471.065 97.327C470.094 99.705 469.101 102.078 468.063 104.429C467.477 105.757 466.892 107.083 466.278 108.399C466.252 108.455 466.165 108.428 466.186 108.368Z" fill="#263238"/>
<path opacity="0.2" d="M474.041 101.5L469.018 114.339C469.018 114.339 463.85 106.509 457.132 93.93C453.479 87.083 451.942 81.279 452.733 78.309C458.123 84.146 468.188 95.086 474.041 101.5Z" fill="black"/>
<path d="M515.973 117.177C512.843 116.376 509.131 96.127 511.422 93.729C511.855 93.28 512.839 92.63 514.19 91.897C514.189 91.887 514.189 91.887 514.189 91.887C514.189 91.887 519.03 86.298 521.405 80.217C523.409 75.112 525.799 67.303 528.584 68.278C532.65 69.688 530.814 79.925 529.402 85.737C532.532 84.855 535.309 84.39 537.027 84.712C542.729 85.781 544.391 107.61 539.823 111.345C535.25 115.084 519.103 117.978 515.973 117.177Z" fill="#D3766A"/>
<path d="M570.791 74.731L567.015 26.113C567.075 26.887 567.247 27.682 567.604 28.522C567.955 29.346 568.45 30.125 569.088 30.859C573.787 36.267 586.246 39.228 606.235 39.691L610.011 88.308C590.022 87.846 577.563 84.884 572.864 79.476C572.227 78.743 571.732 77.963 571.381 77.139C571.023 76.3 570.851 75.505 570.791 74.731Z" fill="#FF7A7A"/>
<g opacity="0.1">
<path d="M570.791 74.731L567.015 26.113C567.075 26.887 567.247 27.682 567.604 28.522C567.955 29.346 568.45 30.125 569.088 30.859C573.787 36.267 586.246 39.228 606.235 39.691L610.011 88.308C590.022 87.846 577.563 84.884 572.864 79.476C572.227 78.743 571.732 77.963 571.381 77.139C571.023 76.3 570.851 75.505 570.791 74.731Z" fill="black"/>
</g>
<path d="M571.271 67.745C571.367 68.979 571.195 70.151 571.03 71.304C570.862 72.455 570.7 73.57 570.79 74.731L567.014 26.113C566.924 24.951 567.086 23.837 567.254 22.686C567.419 21.533 567.591 20.361 567.495 19.127C568.628 33.712 570.139 53.16 571.271 67.745Z" fill="#FF7A7A"/>
<g opacity="0.4">
<path d="M571.271 67.745C571.367 68.979 571.195 70.151 571.03 71.304C570.862 72.455 570.7 73.57 570.79 74.731L567.014 26.113C566.924 24.951 567.086 23.837 567.254 22.686C567.419 21.533 567.591 20.361 567.495 19.127C568.628 33.712 570.139 53.16 571.271 67.745Z" fill="black"/>
</g>
<path d="M567.495 19.127L571.271 67.744C571.203 66.864 570.998 65.952 570.559 64.992C570.189 64.186 569.695 63.429 569.077 62.718C564.196 57.1 551.56 54.431 530.636 54.593L526.86 5.975C547.783 5.813 560.42 8.482 565.301 14.1C565.919 14.811 566.412 15.568 566.783 16.374C567.223 17.335 567.427 18.247 567.495 19.127Z" fill="#FF7A7A"/>
<path d="M528.11 0.970049L525.797 1.14869L546.641 271.04L548.954 270.861L528.11 0.970049Z" fill="#263238"/>
<path d="M526.224 84.134C525.084 86.925 529.026 86.671 529.026 86.671C529.026 86.671 523.44 88.405 523.378 91.737C523.327 94.949 528.078 94.473 528.419 94.444C528.124 94.538 523.033 96.266 523.316 99.62C523.612 103.106 528.3 101.81 528.602 101.725C528.352 101.901 525.081 104.29 525.876 106.79C527.243 111.085 535.773 105.209 539.331 106.02C539.331 106.02 537.501 112.564 537.519 112.747C537.519 112.747 546.892 106.966 547.718 102.105C548.154 99.543 545.851 98.631 545.851 98.631C545.851 98.631 548.698 97.175 548.559 94.527C548.484 93.168 546.243 92.078 546.243 92.078C546.243 92.078 548.474 90.817 548.203 88.469C547.993 86.594 545.778 85.793 545.778 85.793C545.778 85.793 547.358 83.588 546.522 81.743C544.843 78.018 528.67 78.159 526.224 84.134Z" fill="#D3766A"/>
<path d="M545.448 85.613C545.502 85.617 545.518 85.542 545.464 85.53C540.134 84.278 533.894 84.536 528.813 86.661C528.646 86.731 528.687 87.032 528.885 86.99C534.54 85.801 539.655 85.197 545.448 85.613Z" fill="#263238"/>
<path d="M546.323 92.045C546.386 92.05 546.394 91.945 546.328 91.931C540.829 90.671 533.809 91.155 528.241 94.294C528.05 94.402 527.986 94.69 528.216 94.583C532.077 92.776 541.111 91.644 546.323 92.045Z" fill="#263238"/>
<path d="M528.289 102.078C533.745 99.274 539.55 98.501 545.628 98.565C545.707 98.566 545.7 98.454 545.634 98.435C542.67 97.594 538.792 97.957 535.798 98.495C532.931 99.011 530.447 100.052 528.191 101.887C528.103 101.959 528.172 102.138 528.289 102.078Z" fill="#263238"/>
<path d="M528.939 86.616C528.739 86.7 529.082 86.9 528.884 86.99C528.054 87.369 523.256 90.081 523.672 92.002C524.01 93.541 526.311 94.155 527.288 94.045L529.744 93.767L527.534 94.883C526.569 95.37 525.619 96.02 524.87 96.79C524.12 97.557 523.578 98.52 523.66 99.489C523.726 100.503 524.334 101.298 525.317 101.494C526.28 101.727 527.438 101.566 528.441 101.263L531.245 100.416L528.883 102.126C528.243 102.589 527.617 103.165 527.113 103.785C526.613 104.407 526.211 105.118 526.157 105.833C526.101 106.534 526.43 107.272 527.019 107.596C527.634 107.945 528.491 107.96 529.303 107.894C530.96 107.739 532.605 107.226 534.261 106.799C535.089 106.579 535.921 106.356 536.764 106.173C537.6 106.007 538.483 105.823 539.33 106.022C538.473 105.913 537.639 106.186 536.822 106.403C536.004 106.647 535.198 106.93 534.389 107.213C532.77 107.779 531.135 108.332 529.382 108.596C528.511 108.696 527.562 108.774 526.632 108.326C525.675 107.856 525.188 106.768 525.26 105.775C525.329 104.761 525.829 103.916 526.377 103.202C526.947 102.485 527.582 101.879 528.321 101.326L528.763 102.189C527.58 102.556 526.375 102.771 525.075 102.499C524.437 102.362 523.779 102.002 523.347 101.439C522.91 100.875 522.714 100.217 522.671 99.554C522.588 98.175 523.352 96.979 524.202 96.137C525.079 95.272 526.069 94.619 527.165 94.085L527.411 94.922C526.165 95.021 523.517 94.614 522.693 92.293C522.072 89.104 527.854 86.938 528.939 86.616Z" fill="#263238"/>
<path d="M529.026 86.67C528.376 86.569 527.753 86.409 527.249 86.154C526.742 85.901 526.441 85.473 526.414 85.007C526.376 84.539 526.632 83.991 526.94 83.476C527.267 82.964 527.636 82.442 528.039 81.919C527.431 82.187 526.875 82.573 526.415 83.078C525.966 83.577 525.545 84.226 525.571 85.064C525.615 85.477 525.769 85.863 526.035 86.17C526.31 86.469 526.656 86.667 527.005 86.764C527.705 86.971 528.402 86.89 529.026 86.67Z" fill="#263238"/>
<path d="M436.696 286.136C436.696 286.136 430.156 322.906 430.151 322.931C429.125 330.003 428.352 336.221 428.252 339.476C428.249 339.493 428.246 339.51 428.251 339.529C428.212 340.757 428.27 341.552 428.456 341.789C428.47 341.809 428.475 341.828 428.491 341.839C430.389 343.57 486.666 353.416 488.744 353.099C490.829 352.792 490.081 346.834 488.202 344.709C486.306 342.581 466.454 329.177 466.454 329.177L472.514 292.352L436.696 286.136Z" fill="#D3766A"/>
<path d="M431.214 315.334C431.214 315.334 430.157 322.906 430.152 322.932C429.126 330.004 428.353 336.222 428.253 339.477C428.25 339.494 428.247 339.511 428.252 339.53C428.284 340.753 428.356 341.569 428.457 341.79C428.471 341.81 428.476 341.829 428.492 341.84C430.39 343.571 486.667 353.417 488.745 353.1C490.83 352.793 490.082 346.835 488.203 344.71C486.307 342.582 466.455 329.178 466.455 329.178L467.638 321.482L431.214 315.334Z" fill="#EBEBEB"/>
<path d="M488.702 353.308C486.587 353.627 429.387 343.639 427.446 341.879C426.707 341.215 427.389 332.246 429.875 322.631L466.744 329.115C466.744 329.115 486.221 342.618 488.142 344.776C490.052 346.933 490.816 352.989 488.702 353.308Z" fill="#FF7A7A"/>
<path d="M488.281 350.877C478.734 348.967 440.046 342.165 430.463 341.003C430.385 340.993 430.376 341.046 430.453 341.063C439.874 343.163 478.616 349.651 488.254 351.034C488.457 351.063 488.482 350.917 488.281 350.877Z" fill="#263238"/>
<path d="M484.823 342.077C482.565 341.587 480.154 342.279 478.678 343.417C477.26 344.51 475.921 346.162 475.641 348.162C475.633 348.219 475.738 348.239 475.757 348.182C476.96 344.526 480.949 341.826 484.802 342.198C484.88 342.204 484.9 342.094 484.823 342.077Z" fill="#263238"/>
<path d="M469.584 330.602C465.755 329.879 461.069 330.456 458.136 333.178C458.022 333.284 458.174 333.443 458.298 333.405C462.08 332.222 465.61 331.466 469.567 331.086C469.847 331.059 469.859 330.654 469.584 330.602Z" fill="#263238"/>
<path d="M472.345 332.274C468.517 331.55 463.831 332.128 460.897 334.851C460.783 334.956 460.935 335.116 461.059 335.077C464.84 333.895 468.371 333.138 472.328 332.758C472.608 332.732 472.62 332.326 472.345 332.274Z" fill="#263238"/>
<path d="M475.106 333.947C471.278 333.224 466.592 333.801 463.658 336.523C463.544 336.628 463.696 336.788 463.82 336.75C467.601 335.567 471.132 334.811 475.089 334.431C475.369 334.404 475.381 333.999 475.106 333.947Z" fill="#263238"/>
<path d="M477.867 335.619C474.038 334.896 469.353 335.473 466.42 338.196C466.306 338.301 466.458 338.461 466.582 338.423C470.364 337.241 473.894 336.484 477.851 336.104C478.13 336.076 478.141 335.671 477.867 335.619Z" fill="#263238"/>
<path d="M439.807 130.827C439.807 130.827 446.793 223.929 447.04 225.249C447.065 225.37 428.248 320.416 428.248 320.416L468.993 327.48C468.993 327.48 482.46 235.862 482.583 225.744C482.794 208.396 480.255 156.377 473.876 130.826L439.807 130.827Z" fill="#455A64"/>
<path d="M468.872 317.489C467.897 317.072 443.606 312.338 434.101 311.401C433.999 311.391 433.757 311.629 434.094 311.748C436.669 312.657 468.215 317.801 468.828 317.768C468.935 317.763 468.966 317.53 468.872 317.489Z" fill="#263238"/>
<path d="M449.16 138.033C449.011 136.947 448.822 135.869 448.629 134.79C448.6 134.63 448.335 134.674 448.346 134.835C448.692 139.501 449.337 144.148 449.851 148.799C450.367 153.462 456.274 223.614 456.045 225.907C455.818 228.179 455.317 230.422 454.795 232.641C453.729 237.176 441.582 296.49 439.281 305.552C438.993 306.686 438.756 307.83 438.527 308.977C438.499 309.117 438.692 309.161 438.739 309.03C440.327 304.587 457.238 230.324 457.315 225.745C457.393 221.103 450.454 147.432 449.16 138.033Z" fill="#263238"/>
<path d="M482.342 210.781L444.051 186.926C442.054 160.758 439.808 130.825 439.808 130.825H473.874C478.986 151.313 481.823 188.566 482.342 210.781Z" fill="#263238"/>
<path d="M495.468 278.337C495.468 278.337 493.171 315.633 493.168 315.659C492.691 322.789 492.401 329.049 492.552 332.301C492.55 332.318 492.548 332.335 492.555 332.354C492.611 333.581 492.73 334.37 492.934 334.592C492.95 334.611 492.957 334.629 492.973 334.64C494.999 336.219 551.868 341.691 553.915 341.214C555.97 340.747 554.765 334.864 552.727 332.891C550.672 330.916 529.844 319.084 529.844 319.084L531.786 281.782L495.468 278.337Z" fill="#D3766A"/>
<path d="M493.64 308.003C493.64 308.003 493.17 315.634 493.168 315.66C492.691 322.79 492.401 329.05 492.552 332.302C492.55 332.319 492.548 332.336 492.555 332.355C492.682 333.572 492.816 334.38 492.934 334.593C492.95 334.612 492.957 334.63 492.973 334.641C494.999 336.22 551.868 341.692 553.915 341.215C555.97 340.748 554.765 334.865 552.727 332.892C550.672 330.917 529.844 319.085 529.844 319.085L530.429 311.321L493.64 308.003Z" fill="#EBEBEB"/>
<path d="M554.17 341.112C552.096 341.634 494.2 337.204 492.098 335.64C491.298 335.051 491.113 326.057 492.661 316.247L529.984 319.147C529.984 319.147 550.671 330.71 552.792 332.673C554.9 334.636 556.244 340.59 554.17 341.112Z" fill="#FF7A7A"/>
<path d="M553.517 338.733C543.83 337.752 504.667 334.71 495.017 334.477C494.939 334.475 494.935 334.528 495.012 334.538C504.592 335.72 543.779 338.445 553.505 338.893C553.71 338.901 553.721 338.753 553.517 338.733Z" fill="#263238"/>
<path d="M549.227 330.306C546.932 330.036 544.599 330.957 543.24 332.232C541.933 333.457 540.76 335.23 540.675 337.248C540.673 337.306 540.779 337.316 540.792 337.256C541.637 333.501 545.347 330.429 549.219 330.428C549.296 330.428 549.305 330.316 549.227 330.306Z" fill="#263238"/>
<path d="M532.953 320.354C529.073 320.003 524.464 321.029 521.807 324.022C521.704 324.138 521.87 324.282 521.99 324.232C525.64 322.69 529.081 321.597 532.983 320.838C533.259 320.783 533.232 320.379 532.953 320.354Z" fill="#263238"/>
<path d="M535.863 321.752C531.983 321.401 527.374 322.427 524.717 325.42C524.614 325.536 524.78 325.68 524.9 325.63C528.55 324.089 531.992 322.995 535.893 322.236C536.168 322.182 536.141 321.777 535.863 321.752Z" fill="#263238"/>
<path d="M538.772 323.151C534.892 322.8 530.283 323.826 527.626 326.818C527.523 326.934 527.69 327.079 527.809 327.028C531.459 325.486 534.9 324.393 538.802 323.634C539.077 323.58 539.05 323.176 538.772 323.151Z" fill="#263238"/>
<path d="M541.681 324.549C537.801 324.198 533.192 325.225 530.535 328.217C530.432 328.333 530.598 328.477 530.718 328.427C534.368 326.885 537.809 325.792 541.711 325.033C541.987 324.979 541.959 324.574 541.681 324.549Z" fill="#263238"/>
<path d="M491.26 313.259L533.176 317.098C533.176 317.098 544.745 204.748 540.673 192.733C535.278 176.814 465.258 154.36 467.031 152.097C467.031 152.097 470.372 138.615 473.875 130.826H422.424C415.499 151.254 419.42 165.718 421.814 169.797C433.061 188.96 501.931 208.938 501.226 213.964C500.114 221.901 491.26 313.259 491.26 313.259Z" fill="#455A64"/>
<path d="M530.311 307.718C529.3 307.396 504.669 305.001 495.118 304.975C495.016 304.975 494.797 305.234 495.144 305.32C497.794 305.98 529.687 308.091 530.294 307.999C530.401 307.984 530.409 307.749 530.311 307.718Z" fill="#263238"/>
<path d="M472.841 151.42C472.173 151.45 471.508 151.392 470.84 151.456C470.176 151.52 469.512 151.578 468.849 151.66C467.559 151.818 466.286 152.088 465.019 152.373C462.504 152.939 459.919 153.67 457.571 154.749C457.485 154.788 457.555 154.906 457.635 154.89C460.187 154.373 462.711 153.706 465.264 153.184C466.5 152.931 467.745 152.73 468.981 152.481C469.634 152.349 470.287 152.214 470.943 152.101C471.597 151.989 472.226 151.778 472.88 151.666C473.02 151.64 472.979 151.414 472.841 151.42Z" fill="#263238"/>
<path d="M472.917 130.875C472.915 130.818 472.837 130.824 472.831 130.877C472.308 135.873 472.025 139.471 470.86 144.371C470.624 145.364 470.302 146.418 469.565 147.163C469.167 147.566 468.646 147.909 468.116 147.526C467.626 147.173 467.51 146.558 467.512 145.99C467.517 144.737 467.829 143.461 467.972 142.217C468.108 141.032 468.215 139.843 468.313 138.655C468.551 135.785 468.536 133.912 468.645 131.038C468.649 130.937 468.495 130.942 468.489 131.042C468.318 134.013 467.855 135.985 467.471 138.934C467.285 140.361 467.075 141.784 466.87 143.208C466.693 144.438 466.252 145.893 466.652 147.118C466.902 147.883 467.56 148.556 468.362 148.672C468.331 148.746 468.3 148.821 468.269 148.895C468.122 149.25 467.976 149.604 467.833 149.96C467.552 150.664 467.291 151.383 466.982 152.074C466.941 152.166 467.056 152.267 467.132 152.184C467.667 151.592 468.057 150.945 468.345 150.201C468.531 149.72 468.699 149.199 468.806 148.676C469.816 148.555 470.597 147.563 471.018 146.717C471.529 145.692 471.733 144.552 471.931 143.435C472.188 141.984 472.398 140.525 472.577 139.063C472.965 135.889 473.029 134.074 472.917 130.875Z" fill="#263238"/>
<path d="M449.309 134.773C449.279 134.609 449.027 134.632 448.993 134.781C448.728 135.951 448.642 137.162 448.475 138.349C448.311 139.513 448.108 140.677 447.849 141.824C447.402 143.81 446.736 145.832 445.386 147.4C442.518 150.732 437.602 151.6 433.431 151.53C433.328 151.528 433.338 151.676 433.435 151.686C437.12 152.083 440.97 152.312 444.231 150.227C447.292 148.27 448.477 144.915 449.029 141.48C449.376 139.317 449.705 136.945 449.309 134.773Z" fill="#263238"/>
<path d="M478.58 157.336C476.639 156.248 474.624 155.352 472.56 154.52C470.547 153.709 468.472 153.096 466.449 152.318C466.367 152.286 466.312 152.426 466.392 152.462C468.421 153.359 470.368 154.41 472.415 155.273C474.419 156.117 476.435 156.881 478.529 157.466C478.607 157.487 478.649 157.375 478.58 157.336Z" fill="#263238"/>
<path d="M488.088 198.501C486.114 197.316 453.305 183.228 451.281 182.127C449.215 181.004 447.177 179.832 445.161 178.62C441.322 176.313 437.476 173.874 433.969 171.08C430.61 168.404 427.723 165.221 426.15 161.17C424.602 157.183 424.285 152.886 424.317 148.648C424.358 143.216 424.826 137.678 425.801 132.333C425.819 132.235 425.668 132.196 425.65 132.295C424.755 137.198 423.989 142.094 423.688 147.074C423.426 151.407 423.572 155.868 424.828 160.051C426.073 164.198 428.559 167.645 431.777 170.5C435.17 173.511 439.073 175.988 442.949 178.322C445.261 179.714 447.62 181.022 450.022 182.253C452.375 183.459 485.48 197.902 487.997 198.729C488.137 198.777 488.205 198.571 488.088 198.501Z" fill="#263238"/>
<path d="M509.203 208.992C508.622 207.83 482.133 195.494 479.956 194.937C479.859 194.912 479.745 195.302 479.838 195.34C481.295 195.937 507.972 208.775 508.354 209.348C509.153 210.549 500.805 298.499 500.806 299.377C500.806 299.627 501.16 299.649 501.229 299.424C501.715 297.816 509.883 210.353 509.203 208.992Z" fill="#263238"/>
<path d="M417.484 147.454C417.629 147.604 477.233 144.151 477.754 143.513C478.482 142.615 462.144 84.453 455.659 76.677C454.271 75.014 449.908 74.715 446.233 75.326C445.215 75.489 444.252 75.729 443.413 76.023C443.396 76.033 443.362 76.043 443.319 76.053C442.472 76.366 441.758 76.742 441.272 77.162C431.334 85.785 424.358 111.097 422.691 119.789C419.926 134.111 416.967 146.91 417.484 147.454Z" fill="#FF7A7A"/>
<path d="M439.102 78.46C417.482 84.259 401.34 93.998 395.872 98.123C392.299 100.819 373.028 119.569 368.803 124.89C366.729 127.501 384.969 143.319 387.485 140.793C390.896 137.368 411.433 111.998 411.725 111.679C412.863 110.439 435.971 90.765 440.838 86.998C448.965 80.706 448.698 75.886 439.102 78.46Z" fill="#D3766A"/>
<path d="M345.838 149.404C346.246 149.696 346.633 149.75 347.01 149.638C346.551 151.695 346.687 153.46 348.133 154.113C348.976 154.499 349.858 154.217 350.692 153.513C350.634 154.571 350.988 155.337 351.956 155.604C353.655 156.072 356.335 153.121 358.665 149.901C357.418 152.362 356.802 154.604 358.307 155.088C362.308 156.361 366.766 148.594 370.524 143.759C371.638 142.323 373.159 140.638 374.528 139.723C374.779 139.555 375.028 139.414 375.274 139.306C375.985 138.982 376.625 138.947 377.088 139.384C377.911 140.169 376.704 142.485 375.461 143.717C373.094 146.044 372.158 151.071 373.601 152.569C375.709 154.767 380.43 148.708 382.598 147.007C385.501 144.731 388.44 138.565 388.744 138.219C388.744 138.219 388.148 137.035 386.529 134.282C383.45 129.027 378.316 121.204 374.587 120.088C374.587 120.088 362.564 123.843 352.677 130.863C349.321 133.254 342.372 147.006 345.838 149.404Z" fill="#D3766A"/>
<path d="M366.951 138.193C364.789 139.494 363.339 140.877 361.907 142.976C360.09 145.641 359.672 147.428 358.374 150.227C358.34 150.301 358.452 150.357 358.487 150.283C359.106 148.951 361.368 144.613 362.112 143.388C363.475 141.143 364.77 139.651 366.976 138.23C366.999 138.214 366.975 138.179 366.951 138.193Z" fill="#263238"/>
<path d="M362.805 134.618C360.515 136.374 359.003 137.641 357.108 139.842C355.034 142.251 353.871 145.278 352.71 148.209C352.013 149.969 351.352 151.744 350.735 153.535C350.709 153.61 350.818 153.668 350.848 153.591C352.011 150.578 353.262 147.599 354.606 144.665C355.87 141.904 357.553 139.502 359.764 137.433C361.01 136.268 361.504 135.724 362.835 134.66C362.858 134.641 362.83 134.599 362.805 134.618Z" fill="#263238"/>
<path d="M358.907 131.394C356.612 132.928 354.54 134.24 352.869 136.494C350.657 139.478 349.355 143.145 348.793 144.62C348.172 146.249 347.607 147.898 347.065 149.556C347.043 149.623 347.159 149.665 347.183 149.597C348.469 145.93 349.993 142.325 351.739 138.858C352.573 137.202 353.334 136.169 354.634 134.844C355.919 133.534 357.433 132.474 358.917 131.409C358.928 131.403 358.917 131.388 358.907 131.394Z" fill="#263238"/>
<path d="M358.308 155.088C357.986 154.933 357.712 154.682 357.582 154.352C357.443 154.025 357.448 153.659 357.488 153.312C357.572 152.609 357.835 151.941 358.091 151.28C358.22 150.948 358.362 150.622 358.462 150.265C358.469 150.246 358.473 150.212 358.478 150.186C358.477 150.161 358.489 150.183 358.477 150.119C358.455 150.052 358.399 150.015 358.363 150.031C358.247 150.065 358.272 150.088 358.244 150.105C358.224 150.126 358.209 150.145 358.195 150.163L358.034 150.384L357.734 150.828C357.339 151.421 356.936 152.005 356.503 152.567C355.638 153.666 354.671 154.789 353.414 155.333C352.785 155.594 352.103 155.563 351.524 155.208C350.932 154.907 350.706 154.198 350.917 153.605L351.181 152.864L350.596 153.398C350.161 153.795 349.558 154.076 348.968 154.072C348.365 154.065 347.792 153.814 347.52 153.272C347.227 152.749 347.111 152.111 347.081 151.484C347.054 150.858 347.096 150.204 347.27 149.623L347.402 149.183L346.972 149.367C346.663 149.499 346.208 149.392 345.882 149.142C345.517 148.904 345.349 148.554 345.241 148.113C345.04 147.253 345.087 146.321 345.193 145.418C345.427 143.601 346.031 141.944 346.721 140.238C348.134 136.83 350.161 133.583 352.682 130.864C350.056 133.481 347.856 136.566 346.375 139.996C345.632 141.706 345.058 143.503 344.808 145.369C344.695 146.3 344.632 147.254 344.846 148.209C344.904 148.447 344.981 148.685 345.111 148.911C345.229 149.148 345.448 149.338 345.64 149.479C346.046 149.772 346.596 149.977 347.166 149.744L346.867 149.488C346.664 150.159 346.619 150.83 346.653 151.504C346.692 152.174 346.812 152.86 347.161 153.479C347.33 153.788 347.597 154.07 347.932 154.236C348.262 154.399 348.61 154.472 348.969 154.473C349.692 154.464 350.352 154.152 350.873 153.67L350.552 153.463C350.423 153.857 350.415 154.261 350.556 154.648C350.693 155.035 350.996 155.341 351.332 155.53C351.665 155.721 352.032 155.847 352.427 155.87C352.817 155.892 353.2 155.801 353.546 155.657C354.92 155.022 355.853 153.856 356.715 152.725C357.141 152.148 357.536 151.55 357.92 150.948L358.207 150.498C358.28 150.35 358.499 150.171 358.275 150.218C358.195 150.551 358.064 150.887 357.946 151.223C357.713 151.896 357.47 152.581 357.41 153.301C357.382 153.656 357.39 154.032 357.545 154.363C357.692 154.702 357.981 154.945 358.308 155.088Z" fill="#263238"/>
<path d="M409.184 86.955L429.289 99.417C429.289 99.417 439.389 92.113 446.511 84.373C453.633 76.633 444.808 74.562 431.289 78.919C417.77 83.275 409.184 86.955 409.184 86.955Z" fill="#FF7A7A"/>
<path d="M414.893 85.255C419.346 87.766 423.631 90.592 427.849 93.496C429.042 94.317 430.217 95.167 431.371 96.045C431.404 96.07 431.377 96.124 431.34 96.102C429.143 94.801 426.999 93.411 424.847 92.032C422.689 90.65 420.54 89.249 418.42 87.807C417.223 86.992 416.027 86.18 414.847 85.34C414.796 85.305 414.838 85.224 414.893 85.255Z" fill="#263238"/>
<path d="M439.302 92.642C439.375 92.593 439.352 92.517 439.275 92.561C438.297 93.122 437.346 93.721 436.4 94.331C438.138 92.816 439.822 91.245 441.476 89.631C441.551 89.558 441.453 89.441 441.37 89.506C439.157 91.252 436.946 92.994 434.791 94.811C433.73 95.705 429.453 99.342 429.306 99.374C429.255 99.385 428.442 98.873 428.15 98.698C428.064 98.646 427.976 98.778 428.063 98.827C428.392 99.015 429.227 99.716 429.439 99.764C429.687 99.82 433.162 97.048 434.39 96.038C434.777 95.72 435.156 95.393 435.536 95.069H435.54C436.834 94.306 438.056 93.481 439.302 92.642Z" fill="#263238"/>
<path d="M453.45 86.077C450.302 86.623 444.966 82.611 442.146 79.124C441.954 78.884 441.854 76.013 441.567 72.531C441.385 70.418 441.132 68.07 440.747 65.944L454.668 66.767C454.668 66.767 454.165 71.461 454.859 75.163C454.92 75.472 455.003 75.754 455.109 76.019C455.121 76.058 455.141 76.104 455.155 76.16C455.725 77.769 457.886 85.308 453.45 86.077Z" fill="#D3766A"/>
<path d="M454.673 66.761C454.673 66.761 454.606 67.357 454.563 68.301C452.382 72.501 448.324 77.805 441.901 77.191C441.816 76.001 441.713 74.351 441.567 72.527C441.384 70.417 441.136 68.074 440.741 65.94L454.673 66.761Z" fill="#263238"/>
<path d="M454.011 47.562C456.341 52.013 456.415 66.123 453.629 69.797C449.59 75.123 441.698 77.045 436.85 71.897C432.151 66.907 432.379 48.517 435.611 45.047C440.37 39.936 450.57 40.988 454.011 47.562Z" fill="#D3766A"/>
<path d="M441.767 58.195C441.774 58.159 441.842 58.24 441.841 58.279C441.821 59.23 441.957 60.322 442.82 60.629C442.847 60.638 442.844 60.686 442.813 60.682C441.761 60.545 441.595 59.093 441.767 58.195Z" fill="#263238"/>
<path d="M442.605 57.194C444.132 57.063 444.283 60.127 442.868 60.249C441.475 60.369 441.325 57.305 442.605 57.194Z" fill="#263238"/>
<path d="M436.556 58.669C436.546 58.633 436.485 58.719 436.489 58.758C436.586 59.704 436.538 60.804 435.703 61.179C435.677 61.191 435.683 61.238 435.715 61.231C436.75 61.01 436.799 59.549 436.556 58.669Z" fill="#263238"/>
<path d="M435.639 57.739C434.106 57.731 434.204 60.798 435.624 60.805C437.021 60.812 436.924 57.745 435.639 57.739Z" fill="#263238"/>
<path d="M443.746 55.734C443.323 55.65 442.948 55.501 442.539 55.374C442.077 55.231 441.695 55.165 441.378 54.773C441.208 54.563 441.255 54.168 441.444 53.983C441.884 53.553 442.493 53.588 443.055 53.738C443.666 53.9 444.095 54.182 444.465 54.692C444.823 55.187 444.303 55.845 443.746 55.734Z" fill="#263238"/>
<path d="M434.346 56.282C434.765 56.183 435.135 56.021 435.54 55.88C435.996 55.721 436.376 55.641 436.679 55.238C436.842 55.022 436.781 54.629 436.586 54.451C436.132 54.037 435.524 54.093 434.967 54.263C434.362 54.446 433.943 54.743 433.591 55.266C433.249 55.773 433.793 56.413 434.346 56.282Z" fill="#263238"/>
<path d="M443.552 67C443.335 67.233 443.124 67.551 442.781 67.597C442.452 67.641 442.057 67.511 441.749 67.408C441.719 67.398 441.69 67.431 441.71 67.459C441.974 67.811 442.504 68.014 442.94 67.915C443.366 67.819 443.56 67.437 443.645 67.039C443.658 66.983 443.584 66.966 443.552 67Z" fill="#263238"/>
<path d="M442.415 64.207C441.924 65.057 441.165 65.546 440.329 65.751C439.955 65.845 439.559 65.878 439.169 65.861C439.092 65.863 439.016 65.858 438.946 65.847C438.876 65.842 438.813 65.837 438.736 65.825C438.624 65.814 438.559 65.726 438.535 65.622V65.615C438.534 65.58 438.533 65.552 438.539 65.517C438.539 65.517 438.539 65.517 438.539 65.51L438.537 65.427C438.481 64.697 438.497 63.582 438.497 63.582C438.237 63.729 436.905 64.408 436.908 64.025C436.941 60.855 436.978 57.329 437.681 54.181C437.699 54.076 437.859 54.092 437.855 54.197C437.944 57.245 437.496 60.288 437.536 63.352C437.962 63.165 438.656 62.825 439.039 62.814C439.144 62.839 438.969 64.968 439.021 65.294C439.021 65.294 439.021 65.308 439.029 65.329C440.265 65.426 441.172 65.009 442.324 64.126C442.39 64.069 442.468 64.129 442.415 64.207Z" fill="#263238"/>
<path d="M439.581 65.47C439.581 65.47 440.272 66.312 441.175 66.585C441.508 66.686 441.862 66.715 442.226 66.598C442.974 66.362 442.959 65.665 442.79 65.077C442.653 64.593 442.405 64.183 442.405 64.183C442.405 64.183 441.35 65.273 439.581 65.47Z" fill="#263238"/>
<path d="M441.175 66.585C441.508 66.686 441.862 66.715 442.226 66.598C442.974 66.362 442.959 65.665 442.79 65.077C441.982 65.2 441.205 65.791 441.175 66.585Z" fill="#FF9CBD"/>
<path d="M432.568 51.538C438.024 54.379 444.28 48.319 444.28 48.319C446.382 52.061 450.259 51.11 450.259 51.11C450.259 51.11 452.286 59.516 454.53 59.227C457.953 58.789 457.598 47.035 456.24 44.881C454.883 42.727 451.906 42.496 451.906 42.496C451.906 42.496 451.477 40.75 449.164 39.39C446.608 37.884 438.829 41.276 438.829 41.276C438.829 41.276 438.092 39.841 436.423 38.737C435.364 38.042 434.108 38.36 433.409 39.387C433.87 39.9 434.25 40.574 434.486 41.39C435.193 43.837 433.154 44.082 432.897 41.816C432.784 40.808 433.005 39.979 433.409 39.387C432.223 38.03 430.522 37.748 429.62 38.661C427.985 40.318 428.031 49.178 432.568 51.538Z" fill="#263238"/>
<path d="M452.682 59.483C452.682 59.483 455.036 54.537 457.23 55.305C459.424 56.072 458.171 62.879 455.96 64.153C453.749 65.426 452.53 63.402 452.53 63.402L452.682 59.483Z" fill="#D3766A"/>
<path d="M456.823 57.247C456.86 57.237 456.877 57.289 456.846 57.308C455.305 58.255 454.691 59.934 454.348 61.626C454.737 60.932 455.351 60.484 456.268 60.932C456.316 60.956 456.286 61.03 456.238 61.028C455.536 60.996 455.067 61.195 454.701 61.815C454.441 62.253 454.301 62.776 454.143 63.258C454.09 63.419 453.81 63.385 453.838 63.205C453.84 63.192 453.843 63.178 453.845 63.165C453.45 61.064 454.594 57.839 456.823 57.247Z" fill="#263238"/>
</svg>
