<svg width="396" height="442" viewBox="0 0 396 442" fill="none" xmlns="http://www.w3.org/2000/svg">
<path d="M298.101 47.314C298.101 62.428 286.889 78.46 277.602 91.331C273.869 96.498 270.524 101.278 268.077 104.82C265.487 108.559 263.889 110.925 263.889 110.925H246.402C246.402 110.925 244.804 108.559 242.214 104.82C239.766 101.278 236.421 96.498 232.689 91.331C223.401 78.461 212.19 62.428 212.19 47.314C212.19 22.613 230.568 6.506 250.972 4.555C251.04 4.548 251.108 4.541 251.183 4.535C252.495 4.419 253.821 4.358 255.147 4.358C256.473 4.358 257.799 4.419 259.111 4.535C259.186 4.542 259.254 4.549 259.322 4.555C279.723 6.506 298.101 22.613 298.101 47.314Z" fill="#EBEBEB"/>
<path d="M258.15 104.82C257.817 106.819 257.47 108.852 257.103 110.925H253.187C252.82 108.851 252.473 106.818 252.14 104.82C237.828 18.615 255.145 4.358 255.145 4.358C255.145 4.358 272.462 18.615 258.15 104.82Z" fill="#3FC400"/>
<path d="M248.686 104.82C250.297 108.661 251.378 110.925 251.378 110.925H249.094C249.094 110.925 247.619 108.654 245.259 104.82C243.559 102.032 241.39 98.422 238.983 94.241C231.11 80.541 221.006 63.564 222.89 44.608C225.494 18.371 247.679 6.221 250.97 4.555C251.235 4.426 251.378 4.358 251.378 4.358C251.378 4.358 251.31 4.419 251.181 4.535C249.298 6.255 234.496 20.635 234.496 47.172C234.496 68.343 243.92 93.466 248.686 104.82Z" fill="#3FC400"/>
<path d="M271.306 94.241C268.899 98.422 266.73 102.033 265.03 104.82C262.671 108.655 261.195 110.925 261.195 110.925H258.91C258.91 110.925 259.991 108.661 261.602 104.82C266.368 93.466 275.792 68.343 275.792 47.171C275.792 20.634 260.991 6.254 259.107 4.534C258.978 4.418 258.91 4.357 258.91 4.357C258.91 4.357 259.053 4.425 259.318 4.554C262.609 6.22 284.794 18.37 287.398 44.607C289.283 63.564 279.179 80.541 271.306 94.241Z" fill="#3FC400"/>
<path d="M268.077 104.82C265.487 108.559 263.889 110.925 263.889 110.925H246.402C246.402 110.925 244.804 108.559 242.214 104.82H268.077Z" fill="#DBDBDB"/>
<path d="M229.018 69.7538L228.061 70.0441L245.723 128.262L246.68 127.972L229.018 69.7538Z" fill="#DBDBDB"/>
<path d="M246.703 69.8575L245.705 69.9248L249.632 128.143L250.63 128.075L246.703 69.8575Z" fill="#DBDBDB"/>
<path d="M281.236 69.7449L263.592 127.97L264.549 128.26L282.193 70.0349L281.236 69.7449Z" fill="#DBDBDB"/>
<path d="M263.587 69.8733L259.654 128.091L260.651 128.159L264.584 69.9407L263.587 69.8733Z" fill="#DBDBDB"/>
<path d="M292.846 69.457H217.443V71.457H292.846V69.457Z" fill="#DBDBDB"/>
<path d="M264.942 128.338L264.521 133.39L263.582 144.764H246.707L245.769 133.39L245.348 128.338H264.942Z" fill="#EBEBEB"/>
<path d="M264.942 128.338L264.521 133.39H245.769L245.348 128.338H264.942Z" fill="#DBDBDB"/>
<path d="M265.922 126.905H244.368V129.769H265.922V126.905Z" fill="#EBEBEB"/>
<path d="M-0.0090332 371.91L46.493 371.667L92.995 371.578L186 371.411L279.005 371.577L325.507 371.665L372.009 371.91L325.507 372.154L279.005 372.242L186 372.409L92.995 372.241L46.493 372.153L-0.0090332 371.91Z" fill="#263238"/>
<path d="M186 441.095C282.113 441.095 360.028 432.369 360.028 421.606C360.028 410.843 282.113 402.117 186 402.117C89.887 402.117 11.972 410.843 11.972 421.606C11.972 432.369 89.887 441.095 186 441.095Z" fill="#EBEBEB"/>
<path d="M72.435 29.126C72.108 28.892 55.91 25.8 45.287 39.124C35.52 51.375 35.672 69.754 37.38 69.766C39.471 69.781 42.779 60.162 51.97 53.027C55.229 50.497 61.465 50.644 61.465 50.644L72.435 29.126Z" fill="#FF7A7A"/>
<path d="M103.408 51.32C103.735 51.554 111.869 65.898 102.667 80.241C94.2061 93.428 76.7541 99.192 76.1941 97.578C75.5081 95.603 83.5531 89.378 87.3541 78.381C88.7021 74.482 86.5581 68.624 86.5581 68.624L103.408 51.32Z" fill="#FF7A7A"/>
<path d="M75.534 77.813L56.436 64.128C56.436 64.128 57.29 43.909 70.104 28.247C76.505 20.434 84.914 13.97 92.812 9.296C103.706 2.829 113.618 -0.194002 115.838 1.397C118.068 2.995 118.383 13.346 115.77 25.747C113.874 34.722 110.456 44.762 105.116 53.335C94.405 70.505 75.534 77.813 75.534 77.813Z" fill="#EBEBEB"/>
<path d="M74.0702 76.7718L57.8983 65.1836L54.3777 70.0968L70.5495 81.685L74.0702 76.7718Z" fill="#FF7A7A"/>
<path d="M99.241 44.461C95.511 49.667 88.267 50.863 83.061 47.133C77.855 43.403 76.659 36.159 80.39 30.953C84.12 25.747 91.364 24.551 96.57 28.281C101.776 32.011 102.972 39.255 99.241 44.461Z" fill="#FF7A7A"/>
<path d="M89.816 45.751C94.2585 45.751 97.86 42.1496 97.86 37.707C97.86 33.2644 94.2585 29.663 89.816 29.663C85.3734 29.663 81.772 33.2644 81.772 37.707C81.772 42.1496 85.3734 45.751 89.816 45.751Z" fill="white"/>
<path d="M115.771 25.748L92.813 9.297C103.707 2.83 113.619 -0.193003 115.839 1.398C118.069 2.995 118.383 13.346 115.771 25.748Z" fill="#FF7A7A"/>
<path d="M97.621 9.667C97.346 10.05 96.813 10.139 96.429 9.864C96.046 9.589 95.958 9.056 96.232 8.672C96.507 8.289 97.04 8.201 97.424 8.475C97.808 8.75 97.896 9.284 97.621 9.667Z" fill="#EBEBEB"/>
<path d="M102.032 12.828C101.757 13.211 101.224 13.299 100.84 13.025C100.457 12.75 100.369 12.217 100.643 11.833C100.918 11.45 101.451 11.361 101.835 11.636C102.218 11.911 102.306 12.444 102.032 12.828Z" fill="#EBEBEB"/>
<path d="M106.442 15.988C106.167 16.371 105.634 16.46 105.25 16.185C104.867 15.91 104.778 15.377 105.053 14.993C105.328 14.61 105.861 14.522 106.245 14.796C106.628 15.071 106.717 15.604 106.442 15.988Z" fill="#EBEBEB"/>
<path d="M110.852 19.148C110.577 19.531 110.044 19.62 109.66 19.345C109.277 19.07 109.189 18.537 109.463 18.153C109.738 17.77 110.271 17.681 110.655 17.956C111.039 18.231 111.127 18.765 110.852 19.148Z" fill="#EBEBEB"/>
<path d="M115.262 22.308C114.987 22.691 114.454 22.78 114.07 22.505C113.687 22.23 113.599 21.697 113.873 21.313C114.148 20.93 114.681 20.841 115.065 21.116C115.449 21.391 115.537 21.925 115.262 22.308Z" fill="#EBEBEB"/>
<path d="M104.171 198.189C104.121 197.509 104.096 196.828 104.096 196.166H104.846C104.846 196.811 104.87 197.473 104.919 198.135L104.171 198.189Z" fill="#263238"/>
<path d="M176.272 252.12C175.874 252.119 175.477 252.116 175.082 252.11L175.093 251.36C176.418 251.381 177.755 251.368 179.101 251.317L179.128 252.067C178.171 252.103 177.219 252.12 176.272 252.12ZM170.028 251.867C168.686 251.757 167.332 251.61 166.005 251.432L166.105 250.688C167.42 250.865 168.761 251.01 170.09 251.119L170.028 251.867ZM184.175 251.715L184.099 250.969C185.418 250.834 186.756 250.661 188.076 250.457L188.191 251.198C186.858 251.404 185.507 251.578 184.175 251.715ZM161.014 250.592C159.706 250.329 158.379 250.025 157.068 249.689L157.255 248.962C158.553 249.295 159.868 249.597 161.163 249.858L161.014 250.592ZM193.164 250.266L193.002 249.534C194.287 249.251 195.597 248.929 196.896 248.575L197.093 249.3C195.782 249.654 194.46 249.979 193.164 250.266ZM152.21 248.274C150.93 247.857 149.646 247.401 148.394 246.921L148.663 246.22C149.903 246.697 151.175 247.147 152.443 247.561L152.21 248.274ZM201.933 247.822L201.693 247.111C202.951 246.686 204.218 246.225 205.463 245.739L205.736 246.438C204.48 246.928 203.201 247.394 201.933 247.822ZM143.729 244.962C142.513 244.406 141.289 243.81 140.09 243.188L140.436 242.522C141.623 243.138 142.836 243.73 144.04 244.281L143.729 244.962ZM210.392 244.462L210.076 243.782C211.279 243.221 212.479 242.615 213.642 241.98L214.001 242.638C212.823 243.281 211.609 243.895 210.392 244.462ZM135.674 240.718C134.517 240.023 133.367 239.292 132.256 238.547L132.674 237.924C133.775 238.662 134.914 239.386 136.061 240.075L135.674 240.718ZM218.336 240.046L217.926 239.417C219.023 238.702 220.127 237.932 221.209 237.128L221.656 237.73C220.563 238.543 219.445 239.321 218.336 240.046ZM128.144 235.596C127.079 234.781 126.019 233.925 124.993 233.054L125.478 232.482C126.494 233.346 127.544 234.193 128.6 235.001L128.144 235.596ZM225.591 234.572L225.101 234.004C226.093 233.15 227.089 232.243 228.062 231.31L228.582 231.851C227.599 232.793 226.593 233.709 225.591 234.572ZM121.245 229.649C120.274 228.706 119.322 227.73 118.416 226.75L118.967 226.241C119.864 227.212 120.806 228.178 121.767 229.111L121.245 229.649ZM232.117 228.239L231.566 227.731C232.446 226.777 233.338 225.765 234.218 224.724L234.79 225.208C233.904 226.258 233.005 227.277 232.117 228.239ZM115.115 222.908C114.266 221.844 113.449 220.752 112.687 219.663L113.301 219.233C114.054 220.308 114.862 221.388 115.701 222.441L115.115 222.908ZM237.953 221.268L237.357 220.813C238.147 219.779 238.949 218.692 239.74 217.58L240.351 218.016C239.556 219.133 238.748 220.228 237.953 221.268ZM109.957 215.392C109.267 214.199 108.627 212.992 108.057 211.806L108.733 211.481C109.295 212.65 109.925 213.84 110.607 215.017L109.957 215.392ZM243.199 213.846L242.572 213.434C243.303 212.321 244.025 211.191 244.738 210.047L245.375 210.443C244.658 211.592 243.935 212.728 243.199 213.846ZM106.106 207.118C105.648 205.807 105.261 204.494 104.96 203.217L105.689 203.044C105.985 204.297 106.364 205.584 106.814 206.87L106.106 207.118ZM247.983 206.121L247.337 205.741C248.012 204.591 248.678 203.428 249.339 202.252L249.993 202.619C249.33 203.798 248.66 204.966 247.983 206.121ZM252.426 198.2L251.766 197.844C252.4 196.669 253.031 195.483 253.658 194.289L254.322 194.638C253.692 195.834 253.062 197.022 252.426 198.2ZM256.642 190.159L255.974 189.817C256.584 188.627 257.193 187.429 257.8 186.225L258.47 186.563C257.86 187.769 257.252 188.968 256.642 190.159ZM260.731 182.06L260.061 181.724L261.862 178.118L262.534 178.453L260.731 182.06ZM264.789 173.947L264.119 173.61C264.721 172.412 265.325 171.212 265.933 170.009L266.603 170.348C265.995 171.55 265.391 172.75 264.789 173.947ZM268.895 165.864L268.229 165.52C268.844 164.328 269.465 163.135 270.092 161.942L270.756 162.292C270.129 163.483 269.51 164.674 268.895 165.864ZM273.127 157.852L272.467 157.495C273.106 156.318 273.751 155.143 274.405 153.971L275.059 154.336C274.407 155.505 273.764 156.678 273.127 157.852ZM277.542 149.975L276.894 149.598C277.567 148.44 278.249 147.285 278.942 146.135L279.585 146.522C278.894 147.668 278.213 148.819 277.542 149.975ZM282.218 142.253L281.583 141.852C282.3 140.72 283.027 139.594 283.769 138.473L284.394 138.886C283.656 140.003 282.931 141.125 282.218 142.253ZM287.221 134.73L286.606 134.299C287.377 133.198 288.162 132.105 288.96 131.019L289.564 131.463C288.769 132.544 287.988 133.634 287.221 134.73ZM292.603 127.464L292.013 127.001C292.842 125.944 293.687 124.896 294.549 123.858L295.125 124.337C294.269 125.37 293.428 126.413 292.603 127.464ZM298.397 120.529L297.836 120.03C298.73 119.028 299.64 118.035 300.567 117.056L301.112 117.572C300.189 118.546 299.285 119.533 298.397 120.529ZM304.632 113.994L304.109 113.458C305.066 112.522 306.052 111.588 307.041 110.682L307.549 111.235C306.564 112.135 305.584 113.064 304.632 113.994ZM311.314 107.921L310.83 107.348C311.853 106.485 312.907 105.626 313.962 104.797L314.425 105.387C313.378 106.21 312.331 107.063 311.314 107.921ZM318.43 102.371L317.992 101.763C319.081 100.979 320.197 100.204 321.308 99.46L321.726 100.083C320.621 100.822 319.512 101.592 318.43 102.371ZM325.955 97.385L325.564 96.744C326.713 96.046 327.886 95.359 329.052 94.703L329.419 95.356C328.262 96.009 327.096 96.691 325.955 97.385Z" fill="#263238"/>
<path d="M334.038 92.891L333.7 92.222C334.294 91.921 334.894 91.624 335.499 91.33L335.827 92.005C335.227 92.296 334.63 92.592 334.038 92.891Z" fill="#263238"/>
<path d="M331.275 79.422L324.202 98.846L339.049 87.25L395.814 66.664L331.275 79.422Z" fill="#FF7A7A"/>
<path opacity="0.2" d="M331.275 79.422L324.202 98.846L339.049 87.25L395.814 66.664L331.275 79.422Z" fill="#222221"/>
<path d="M340.954 91.776L324.202 98.846L339.049 87.25L340.954 91.776Z" fill="#263238"/>
<path d="M339.049 87.25L395.814 66.664L349.254 112.1L339.049 87.25Z" fill="#FF7A7A"/>
<path d="M331.275 79.422L307.684 64.191L395.814 66.664L331.275 79.422Z" fill="#FF7A7A"/>
<path d="M202.925 180.13C202.925 180.13 196.815 234.65 192.625 270.04C191.865 276.43 191.175 282.2 190.585 286.9C189.795 293.26 189.205 297.69 188.935 299.13C188.695 300.36 188.775 305.26 188.825 312.15C188.855 316.02 188.865 320.52 188.815 325.35C188.595 344 188.645 368.72 188.695 384.22C188.735 393.05 188.395 398.89 188.395 398.89H146.205C146.205 398.89 146.085 393.21 145.985 384.22C145.715 359.84 145.555 311.15 148.105 285.4C151.645 249.63 163.035 180.13 163.035 180.13H202.925Z" fill="#EB9481"/>
<path d="M116.427 432.71C118.717 433.47 184.077 433.28 186.567 431.7C187.507 431.11 188.037 421.58 188.347 410.06C188.417 407.57 188.467 405.01 188.507 402.39C188.557 399.3 188.597 396.17 188.617 393.13C188.697 379.48 188.507 367.46 188.507 367.46H145.957L145.977 393.13L145.987 402.39L146.207 410.06C146.207 410.06 121.217 421.33 118.677 423.36C116.147 425.38 114.147 431.96 116.427 432.71Z" fill="#EB9481"/>
<path d="M116.427 432.71C118.717 433.47 184.077 433.28 186.567 431.7C187.507 431.11 188.037 421.58 188.347 410.06C188.417 407.57 188.467 405.01 188.507 402.39C188.557 399.3 188.597 396.17 188.617 393.13H145.977L145.987 402.39L146.207 410.06C146.207 410.06 121.217 421.33 118.677 423.36C116.147 425.38 114.147 431.96 116.427 432.71Z" fill="white"/>
<path d="M116.23 432.808C117.72 433.298 182.854 434.378 186.76 431.788C187.9 431.032 188.46 417.068 188.72 402.318H145.96L146.18 410.028C146.18 410.028 121.05 421.358 118.49 423.398C115.95 425.438 113.94 432.038 116.23 432.808Z" fill="#FF7A7A"/>
<path d="M117.165 430.177C128.182 429.875 172.644 429.695 183.557 430.233C183.646 430.237 183.646 430.298 183.557 430.302C172.644 430.84 128.182 430.66 117.165 430.358C116.933 430.351 116.933 430.183 117.165 430.177Z" fill="#263238"/>
<path d="M144.616 407.587C148.949 406.765 154.254 407.415 157.575 410.495C157.704 410.614 157.532 410.796 157.392 410.752C153.111 409.416 149.114 408.562 144.635 408.135C144.319 408.104 144.306 407.646 144.616 407.587Z" fill="#263238"/>
<path d="M141.492 409.482C145.825 408.66 151.129 409.311 154.451 412.39C154.58 412.509 154.408 412.69 154.268 412.647C149.987 411.311 145.99 410.457 141.511 410.03C141.195 409.999 141.182 409.54 141.492 409.482Z" fill="#263238"/>
<path d="M138.368 411.377C142.701 410.555 148.006 411.205 151.327 414.285C151.456 414.404 151.284 414.586 151.143 414.542C146.862 413.206 142.865 412.352 138.386 411.925C138.071 411.894 138.058 411.436 138.368 411.377Z" fill="#263238"/>
<path d="M135.244 413.272C139.577 412.45 144.882 413.1 148.203 416.18C148.332 416.299 148.16 416.48 148.02 416.437C143.739 415.101 139.742 414.247 135.263 413.82C134.947 413.789 134.934 413.331 135.244 413.272Z" fill="#263238"/>
<path d="M138.54 403.753C141.613 406.129 145.608 407.091 149.191 408.406C149.563 408.542 149.858 408.192 149.869 407.863C149.94 407.85 150 407.796 149.971 407.707C148.78 404.089 146.203 400.249 143.265 397.795C141.451 396.279 138.275 395.233 136.578 397.585C134.975 399.808 136.746 402.366 138.54 403.753ZM137.427 400.267C136.649 395.512 141.763 397.995 143.056 399.165C143.887 399.917 144.642 400.784 145.361 401.641C146.868 403.437 148.091 405.414 149.405 407.344C147.684 406.59 145.914 405.99 144.167 405.3C142.084 404.478 137.856 402.889 137.427 400.267Z" fill="#263238"/>
<path d="M164.427 401.058C163.371 398.358 160.035 398.578 157.899 399.593C154.441 401.236 150.988 404.311 148.931 407.517C148.88 407.596 148.925 407.663 148.99 407.694C148.919 408.016 149.117 408.429 149.511 408.39C153.31 408.011 157.418 408.076 160.987 406.543C163.072 405.647 165.426 403.612 164.427 401.058ZM155.154 406.637C153.29 406.869 151.426 407.008 149.572 407.308C151.326 405.767 153.003 404.159 154.911 402.795C155.821 402.144 156.769 401.494 157.761 400.973C159.305 400.162 164.877 399.035 162.937 403.445C161.867 405.876 157.375 406.36 155.154 406.637Z" fill="#263238"/>
<path d="M202.925 180.13C202.925 180.13 196.815 234.65 192.625 270.04C191.865 276.43 191.175 282.2 190.585 286.9C189.795 293.26 189.205 297.69 188.935 299.13C188.695 300.36 188.775 305.26 188.825 312.15C188.855 316.02 188.865 320.52 188.815 325.35C188.595 344 188.645 368.72 188.695 384.22H145.985C145.715 359.84 145.555 311.15 148.105 285.4C151.645 249.63 163.035 180.13 163.035 180.13H202.925Z" fill="#455A64"/>
<path d="M188.828 312.15C188.778 305.26 188.698 300.36 188.938 299.13C190.538 290.7 202.928 180.13 202.928 180.13H168.798L188.828 312.15Z" fill="#263238"/>
<path d="M336.49 298.78C336.49 298.78 335.06 299.36 332.49 300.34C330.25 301.21 327.13 302.38 323.34 303.75C322.86 303.91 322.37 304.09 321.86 304.27L321.59 304.37C321.28 304.48 320.97 304.59 320.66 304.7C294.68 313.92 243.54 329.84 220.16 321.76C196.92 313.73 163.65 179.69 163.04 180.13C163.01 180.15 219.71 180.13 219.71 180.13C219.71 180.13 230.25 207.32 221.26 224.43C220.43 226.01 241.39 281.83 254.07 280.3C263.97 279.1 291.58 268.74 309 263.38C309.98 263.08 310.93 262.79 311.84 262.51C312.95 262.17 314.01 261.84 315.01 261.54C315.03 261.53 315.04 261.53 315.06 261.52C317.19 260.87 319.02 260.3 320.46 259.86C322.77 259.15 324.1 258.74 324.1 258.74L336.49 298.78Z" fill="#EB9481"/>
<path d="M379.884 316.66C379.933 314.249 360.483 251.852 358.234 249.941C357.391 249.211 348.134 251.519 337.037 254.619C334.636 255.281 332.126 255.878 329.659 256.722C326.555 257.775 296.921 267.442 296.921 267.442L309.108 308.615L332.567 300.623L342.191 297.351L349.453 294.885C349.453 294.885 367.59 315.442 370.273 317.27C372.954 319.09 379.832 319.062 379.884 316.66Z" fill="#EB9481"/>
<path d="M379.884 316.66C379.933 314.249 360.483 251.852 358.234 249.941C357.391 249.211 348.134 251.519 337.037 254.619C334.636 255.281 332.126 255.878 329.659 256.722C326.555 257.775 323.394 258.672 320.424 259.762C324.122 271.952 329.367 289.698 332.567 300.623L342.191 297.351L349.453 294.885C349.453 294.885 367.59 315.442 370.273 317.27C372.954 319.09 379.832 319.062 379.884 316.66Z" fill="white"/>
<path d="M380.028 316.823C380.078 314.402 360.522 251.654 358.264 249.732C357.222 248.844 343.703 252.445 329.527 256.548L342.131 297.404L349.435 294.923C349.435 294.923 367.668 315.598 370.371 317.44C373.069 319.268 379.978 319.243 380.028 316.823Z" fill="#FF7A7A"/>
<path d="M377.237 316.705C373.701 306.267 360.422 263.833 357.719 253.247C357.697 253.161 357.755 253.143 357.785 253.227C361.516 263.496 374.451 306.036 377.409 316.652C377.472 316.876 377.312 316.926 377.237 316.705Z" fill="#263238"/>
<path d="M347.559 297.134C345.496 293.236 344.554 287.975 346.517 283.893C346.593 283.735 346.817 283.845 346.816 283.993C346.802 288.478 347.164 292.549 348.076 296.955C348.141 297.264 347.707 297.413 347.559 297.134Z" fill="#263238"/>
<path d="M350.291 299.56C348.228 295.662 347.286 290.401 349.249 286.319C349.325 286.161 349.549 286.271 349.548 286.419C349.533 290.904 349.896 294.975 350.808 299.381C350.873 299.691 350.439 299.839 350.291 299.56Z" fill="#263238"/>
<path d="M353.023 301.987C350.96 298.089 350.018 292.828 351.981 288.746C352.057 288.588 352.281 288.698 352.28 288.845C352.266 293.33 352.628 297.401 353.54 301.807C353.605 302.118 353.17 302.266 353.023 301.987Z" fill="#263238"/>
<path d="M355.754 304.413C353.691 300.515 352.749 295.254 354.712 291.172C354.788 291.014 355.012 291.124 355.011 291.272C354.997 295.757 355.359 299.828 356.271 304.234C356.336 304.544 355.902 304.692 355.754 304.413Z" fill="#263238"/>
<path d="M346.865 292.18C346.715 292.03 346.475 291.98 346.275 292.03C346.235 291.97 346.175 291.93 346.095 291.98C345.995 292.05 345.885 292.13 345.785 292.21C345.765 292.22 345.745 292.23 345.725 292.25C345.685 292.28 345.645 292.31 345.605 292.34C345.455 292.45 345.305 292.57 345.155 292.7C343.935 293.68 342.775 294.87 341.735 296.15C341.265 296.73 340.815 297.34 340.405 297.96C339.685 299.05 339.065 300.18 338.595 301.31C337.685 303.49 337.625 306.83 340.365 307.76C342.965 308.64 344.885 306.19 345.685 304.07C346.665 301.45 346.815 298.6 346.885 295.79C346.895 295.78 346.895 295.77 346.885 295.76C346.895 295.74 346.895 295.73 346.885 295.72C346.925 294.64 346.935 293.57 346.995 292.52C347.006 292.37 346.956 292.26 346.865 292.18ZM345.646 296.21C345.606 296.89 345.556 297.56 345.506 298.24C345.336 300.47 345.066 304.98 342.686 306.16C338.366 308.31 339.236 302.69 339.976 301.11C340.446 300.09 341.056 299.11 341.656 298.17C341.826 297.9 342.006 297.64 342.186 297.38C342.196 297.37 342.206 297.35 342.216 297.34C343.306 295.79 344.526 294.35 345.716 292.88C345.776 292.81 345.836 292.73 345.886 292.66L345.916 292.63C345.916 292.66 345.906 292.7 345.906 292.73C345.896 292.8 345.886 292.86 345.886 292.93C345.776 294.02 345.706 295.1 345.646 296.18V296.21Z" fill="#263238"/>
<path d="M346.886 292.22C346.876 292.21 346.876 292.19 346.866 292.18C346.386 291.02 345.926 289.81 345.446 288.61C344.486 286.18 343.416 283.77 341.736 281.8C340.516 280.36 338.486 278.98 336.616 279.54C336.226 279.65 335.846 279.84 335.486 280.13C333.216 281.93 334.406 285.06 336.006 286.8C337.086 287.98 338.416 289.09 339.856 290.04C341.526 291.16 343.356 292.08 345.156 292.7C345.346 292.77 345.526 292.83 345.716 292.88C345.776 292.9 345.826 292.92 345.886 292.93C345.906 292.94 345.936 292.95 345.956 292.95C346.046 292.98 346.126 293.01 346.216 293.03C346.316 293.06 346.366 292.99 346.376 292.92C346.706 292.89 347.035 292.58 346.886 292.22ZM345.605 292.34C343.685 291.17 341.745 290.08 339.945 288.71C339.725 288.54 339.505 288.37 339.285 288.2C338.615 287.67 337.965 287.12 337.365 286.52C336.255 285.41 333.925 281.22 337.015 280.84C337.345 280.79 337.745 280.8 338.205 280.85C340.835 281.15 342.625 285.3 343.545 287.34C344.285 288.98 344.935 290.64 345.725 292.25C345.755 292.33 345.795 292.4 345.835 292.48C345.756 292.43 345.685 292.39 345.605 292.34Z" fill="#263238"/>
<path d="M323.34 303.75C322.86 303.91 322.37 304.09 321.86 304.27L321.59 304.37C321.28 304.48 320.97 304.59 320.66 304.7C294.68 313.92 243.54 329.84 220.16 321.76C196.92 313.73 163.65 179.69 163.04 180.13C163.01 180.15 219.71 180.13 219.71 180.13C219.71 180.13 230.25 207.32 221.26 224.43C220.43 226.01 241.39 281.83 254.07 280.3C263.97 279.1 291.58 268.74 309 263.38C309.98 263.08 310.93 262.79 311.84 262.51L323.34 303.75Z" fill="#455A64"/>
<path d="M161.9 128.152C161.924 128.432 162.132 128.695 162.407 128.696C163.032 128.658 163.781 128.601 164.622 128.54C165.915 122.765 167.501 118.098 167.154 119.882C166.652 122.463 166.494 126.098 166.798 128.376C167.774 128.299 170.032 128.096 171.163 127.994C171.683 118.074 172.993 110.588 173.128 112.822C173.674 121.833 174.519 124.635 175.474 127.621C186.006 126.668 199.8 125.256 209.752 124.006C210.243 118.494 210.536 112.561 210.76 112.941C212.485 115.776 213.391 120.108 213.836 123.482C217.001 123.06 219.524 122.66 221.051 122.334C221.051 122.334 221.238 117.731 221.163 116.236C220.99 112.427 220.126 108.619 218.672 105.121C217.161 101.518 214.936 98.462 212.796 95.309C212.779 95.283 212.762 95.256 212.744 95.241C212.745 95.23 212.736 95.228 212.727 95.214C211.26 93.031 210.111 90.905 209.228 88.606C209.22 88.593 209.211 88.579 209.204 88.555C208.589 86.921 208.105 85.213 207.729 83.309C206.457 76.766 202.287 71.538 196.284 70.607C183.995 61.1 173.61 67.285 171.342 76.222C171.124 77.092 170.931 78.083 170.758 79.158L170.753 79.191C170.101 83.167 169.706 88.264 169.249 92.225C169.257 92.238 169.246 92.247 169.246 92.247C169.254 92.26 169.253 92.271 169.24 92.292L169.239 92.303C169.008 94.191 168.772 95.803 168.483 96.91C166.567 104.194 160.735 108.997 161.9 128.152Z" fill="#263238"/>
<path d="M199.03 72.075C203.09 73.665 205.8 76.442 206.981 81.183C207.669 83.946 208.18 86.665 209.511 89.177C210.885 91.77 212.805 93.785 214.771 95.792C217.894 98.98 220.202 102.266 221.2 106.941C222.213 111.689 222.693 117.392 221.732 122.089C221.726 122.116 221.689 122.109 221.693 122.081C222.361 117.362 221.621 111.061 220.282 106.403C218.81 101.287 215.645 98.382 212.332 94.801C209.7 91.956 207.841 88.664 206.869 84.704C206.294 82.36 206.022 79.875 204.853 77.754C203.457 75.223 201.119 73.816 198.822 72.6C198.509 72.434 198.722 71.954 199.03 72.075Z" fill="#263238"/>
<path d="M163.023 105.197C165.244 101.075 167.644 97.49 168.645 92.621C169.556 88.185 169.826 83.594 170.763 79.159C170.778 79.087 170.876 79.102 170.864 79.178C169.541 87.005 170.036 94.647 166.288 101.599C164.251 105.376 162.185 108.902 161.069 113.246C159.897 117.811 159.717 122.417 160.189 127.189C160.206 127.356 160.006 127.374 159.973 127.217C158.354 119.613 159.535 111.67 163.023 105.197Z" fill="#263238"/>
<path d="M180.274 126.081C171.422 134.67 138.678 150.642 126.998 146.545C119.381 143.873 97.534 122.511 93.229 116.216C88.187 108.842 103.878 94.537 108.291 97.393C113.797 100.957 130.885 119.586 136.066 122.555C139.045 124.262 159.988 117.413 180.135 113.226C187.937 111.604 185.558 120.954 180.274 126.081Z" fill="#EB9481"/>
<path d="M108.58 105.09C108.58 105.09 95.4201 95.8 94.6201 95.57C93.8101 95.35 93.4501 96.47 93.1301 97.34C93.0501 97.55 93.0701 98.19 93.0701 99.02C93.0901 101.67 93.0201 106.35 89.7201 105.78C85.3801 105.03 85.5201 94.51 85.8001 92.87C85.8801 92.43 86.2701 91.73 86.8901 90.96C88.5601 88.89 91.8601 86.3 95.0401 86.79C99.4001 87.46 103.44 90.12 107.11 92.18L108.58 105.09Z" fill="#EB9481"/>
<path d="M108.58 105.09C108.58 105.09 95.42 95.8 94.62 95.57C93.81 95.35 93.45 96.47 93.13 97.34C93.05 97.55 93.07 98.19 93.07 99.02C90.86 96.16 88.43 92.99 86.89 90.96C88.56 88.89 91.86 86.3 95.04 86.79C99.4 87.46 103.44 90.12 107.11 92.18L108.58 105.09Z" fill="#263238"/>
<path d="M102.375 126.456C101.828 125.687 96.1441 119.884 91.8541 115.514C92.4511 110.821 92.5461 101.332 92.5821 98.821C93.1001 96.033 92.6181 89.777 92.3401 89.775C91.8191 89.769 89.9771 89.751 87.7441 89.55C84.7941 89.28 81.1601 88.704 78.9821 87.442C77.7961 86.752 77.0491 85.872 77.0551 84.726C77.0701 82.67 81.5751 82.515 86.8951 81.865C94.1401 80.971 103.088 80.267 105.967 82.939C110.224 86.887 112.112 95.43 112.968 97.906C113.832 100.387 119.108 107.167 119.108 107.167C115.198 120.768 103.115 127.476 102.375 126.456Z" fill="#EB9481"/>
<path d="M65.137 81.803C65.137 81.803 74.678 85.061 84.705 87.999C94.732 90.936 114.943 101.623 115.049 102.485C115.155 103.347 92.789 96.752 83.319 92.693C73.849 88.634 64.527 83.915 64.527 83.915L65.137 81.803Z" fill="#455A64"/>
<path d="M64.966 81.622L71.64 83.566L70.238 87.056L64.099 84.022L64.966 81.622Z" fill="#EBEBEB"/>
<path d="M64.9661 81.622C64.0641 80.495 62.7551 79.486 60.4511 79.462C57.6681 79.433 56.4971 78.025 56.4971 78.025C56.4971 78.025 58.3931 84.431 64.0991 84.022L64.9661 81.622Z" fill="#455A64"/>
<path d="M56.305 77.841C56.697 77.866 57.797 79.174 59.3 79.301C60.715 79.421 60.182 83.625 58.777 82.241C57.18 80.669 55.584 77.795 56.305 77.841Z" fill="#FF7A7A"/>
<path d="M91.854 115.514C90.384 114.025 89.062 112.716 88.138 111.851C84.498 108.447 83.581 105.375 83.108 102.016C82.651 98.667 75.273 91.654 80.818 91.129C86.371 90.609 90.75 100.817 92.04 100.075C92.283 99.933 92.463 99.473 92.582 98.82C92.546 101.332 92.451 110.82 91.854 115.514Z" fill="#EB9481"/>
<path d="M92.7731 97.021C92.7621 96.89 92.6781 96.912 92.6621 97.06C92.6101 97.524 92.3541 99.588 91.8761 99.588C91.0451 99.588 88.1261 95.453 86.5981 93.933C86.5161 93.851 86.3951 93.958 86.4781 94.031C86.9121 94.413 88.2021 96.222 88.5281 96.652C89.1611 97.487 90.9031 100.168 91.9491 100.168C92.6481 100.168 92.8181 97.533 92.7731 97.021Z" fill="#263238"/>
<path d="M150.378 118.643C150.378 118.643 152.702 125.897 154.805 132.494C156.447 137.712 157.967 142.522 158.07 143.038C158.07 143.038 169.847 136.759 180.8 127.861C190.417 120.05 189.412 113.502 183.842 112.495C183.064 112.36 182.197 112.321 181.258 112.412C173.584 113.12 150.378 118.643 150.378 118.643Z" fill="#FF7A7A"/>
<path d="M166.273 120.152H165.487C164.687 120.152 164.036 119.501 164.036 118.701C164.036 118.177 163.609 117.75 163.085 117.75H162.255V117.25H163.085C163.885 117.25 164.536 117.901 164.536 118.701C164.536 119.225 164.963 119.652 165.487 119.652H166.273V120.152Z" fill="white"/>
<path d="M157.165 129.444L156.811 129.09L157.367 128.534C157.932 127.969 158.853 127.969 159.419 128.534C159.778 128.894 160.405 128.893 160.764 128.534L161.35 127.947L161.704 128.301L161.118 128.888C160.57 129.437 159.614 129.436 159.066 128.888C158.694 128.516 158.091 128.517 157.721 128.888L157.165 129.444Z" fill="white"/>
<path d="M154.805 132.494C156.447 137.712 157.967 142.522 158.07 143.038C158.07 143.038 169.847 136.759 180.8 127.861C190.417 120.05 189.412 113.502 183.842 112.495L154.805 132.494Z" fill="#263238"/>
<path d="M236.55 260.23H147.98L148.49 257.05L159.58 187.67L159.73 186.76L164.94 154.14C164.94 154.14 160.36 147.21 161.75 140.95C162.45 137.78 169.79 125.12 173.63 119.99C175.22 117.85 176.68 116.12 177.74 115.13C182 111.16 187.72 110.62 191.83 111.22H191.84C192.52 111.32 193.23 111.5 193.96 111.75C199.84 113.77 207.07 120.65 210.94 131.07C212.29 134.69 213.63 138.91 214.95 143.58V143.59C215.01 143.82 215.07 144.05 215.14 144.28C219.01 158.17 222.71 175.85 225.9 193.2C227.71 203.01 229.36 212.72 230.79 221.57C230.85 221.96 230.91 222.35 230.97 222.74C234.42 244.13 236.55 260.23 236.55 260.23Z" fill="#FF7A7A"/>
<path d="M192.508 183.937H191.722C190.922 183.937 190.271 183.286 190.271 182.486C190.271 181.962 189.844 181.535 189.32 181.535H188.49V181.035H189.32C190.12 181.035 190.771 181.686 190.771 182.486C190.771 183.01 191.198 183.437 191.722 183.437H192.508V183.937Z" fill="white"/>
<path d="M204.935 228.388H204.149C203.349 228.388 202.698 227.737 202.698 226.937C202.698 226.413 202.271 225.986 201.747 225.986H200.917V225.486H201.747C202.547 225.486 203.198 226.137 203.198 226.937C203.198 227.461 203.625 227.888 204.149 227.888H204.935V228.388Z" fill="white"/>
<path d="M220.402 186.339H219.616C218.816 186.339 218.165 185.688 218.165 184.888C218.165 184.364 217.738 183.937 217.214 183.937H216.385V183.437H217.214C218.014 183.437 218.665 184.088 218.665 184.888C218.665 185.412 219.092 185.839 219.616 185.839H220.402V186.339Z" fill="white"/>
<path d="M180.858 163.731H180.071C179.271 163.731 178.62 163.08 178.62 162.28C178.62 161.756 178.193 161.329 177.669 161.329H176.839V160.829H177.669C178.469 160.829 179.12 161.48 179.12 162.28C179.12 162.804 179.546 163.231 180.071 163.231H180.858V163.731Z" fill="white"/>
<path d="M166.273 145.031H165.487C164.687 145.031 164.036 144.38 164.036 143.58C164.036 143.056 163.609 142.629 163.085 142.629H162.255V142.129H163.085C163.885 142.129 164.536 142.78 164.536 143.58C164.536 144.104 164.963 144.531 165.487 144.531H166.273V145.031Z" fill="white"/>
<path d="M205.198 163.222H204.412C203.612 163.222 202.961 162.571 202.961 161.771C202.961 161.247 202.534 160.82 202.01 160.82H201.181V160.32H202.01C202.81 160.32 203.461 160.971 203.461 161.771C203.461 162.295 203.888 162.722 204.412 162.722H205.198V163.222Z" fill="white"/>
<path d="M190.799 137.783H190.012C189.212 137.783 188.562 137.132 188.562 136.332C188.562 135.808 188.135 135.381 187.611 135.381H186.781V134.881H187.611C188.411 134.881 189.062 135.532 189.062 136.332C189.062 136.856 189.488 137.283 190.012 137.283H190.799V137.783Z" fill="white"/>
<path d="M174.883 202.535H174.097C173.297 202.535 172.646 201.884 172.646 201.084C172.646 200.56 172.219 200.133 171.695 200.133H170.865V199.633H171.695C172.495 199.633 173.146 200.284 173.146 201.084C173.146 201.608 173.573 202.035 174.097 202.035H174.883V202.535Z" fill="white"/>
<path d="M195.077 244.22H194.291C193.491 244.22 192.84 243.569 192.84 242.769C192.84 242.245 192.413 241.818 191.889 241.818H191.06V241.318H191.889C192.689 241.318 193.34 241.969 193.34 242.769C193.34 243.293 193.767 243.72 194.291 243.72H195.077V244.22Z" fill="white"/>
<path d="M221.309 258.405H220.523C219.723 258.405 219.073 257.754 219.073 256.954C219.073 256.43 218.646 256.003 218.122 256.003H217.292V255.503H218.122C218.922 255.503 219.573 256.154 219.573 256.954C219.573 257.478 219.999 257.905 220.523 257.905H221.309V258.405Z" fill="white"/>
<path d="M166.189 248.517H165.403C164.603 248.517 163.952 247.866 163.952 247.066C163.952 246.542 163.525 246.116 163.001 246.116H162.171V245.616H163C163.8 245.616 164.451 246.266 164.451 247.066C164.451 247.59 164.878 248.017 165.402 248.017H166.188L166.189 248.517Z" fill="white"/>
<path d="M188.357 221.38H187.571C186.771 221.38 186.12 220.729 186.12 219.929C186.12 219.405 185.693 218.978 185.169 218.978H184.339V218.478H185.169C185.969 218.478 186.62 219.129 186.62 219.929C186.62 220.453 187.047 220.88 187.571 220.88H188.357V221.38Z" fill="white"/>
<path d="M164.18 225.356H163.394C162.594 225.356 161.943 224.705 161.943 223.905C161.943 223.381 161.516 222.954 160.992 222.954H160.162V222.454H160.992C161.792 222.454 162.443 223.105 162.443 223.905C162.443 224.429 162.869 224.856 163.394 224.856H164.18V225.356Z" fill="white"/>
<path d="M199.487 203.071H198.701C197.901 203.071 197.25 202.42 197.25 201.62C197.25 201.096 196.823 200.669 196.299 200.669H195.469V200.169H196.299C197.099 200.169 197.75 200.82 197.75 201.62C197.75 202.144 198.177 202.571 198.701 202.571H199.487V203.071Z" fill="white"/>
<path d="M230.406 233.036H229.62C228.82 233.036 228.169 232.385 228.169 231.585C228.169 231.061 227.742 230.634 227.218 230.634H226.389V230.134H227.218C228.018 230.134 228.669 230.785 228.669 231.585C228.669 232.109 229.096 232.536 229.62 232.536H230.406V233.036Z" fill="white"/>
<path d="M174.561 175.025L174.207 174.671L174.763 174.115C175.31 173.567 176.267 173.566 176.815 174.115C177.187 174.486 177.79 174.485 178.16 174.115L178.746 173.528L179.1 173.882L178.514 174.469C177.949 175.034 177.027 175.034 176.462 174.469C176.091 174.098 175.488 174.097 175.117 174.469L174.561 175.025Z" fill="white"/>
<path d="M165.581 160.009L165.227 159.655L165.783 159.099C166.331 158.551 167.287 158.551 167.835 159.099C168.206 159.47 168.809 159.469 169.18 159.099L169.767 158.512L170.121 158.866L169.534 159.453C168.969 160.018 168.047 160.018 167.482 159.453C167.123 159.094 166.497 159.094 166.137 159.453L165.581 160.009Z" fill="white"/>
<path d="M210.892 201.167L210.538 200.813L211.095 200.257C211.662 199.691 212.581 199.693 213.147 200.257C213.507 200.617 214.133 200.616 214.492 200.257L215.079 199.67L215.433 200.024L214.846 200.611C214.3 201.159 213.343 201.16 212.794 200.611C212.422 200.239 211.819 200.241 211.449 200.611L210.892 201.167Z" fill="white"/>
<path d="M188.219 152.495L187.865 152.141L188.422 151.585C188.97 151.037 189.928 151.038 190.474 151.585C190.832 151.944 191.459 151.945 191.819 151.585L192.406 150.998L192.76 151.352L192.173 151.939C191.625 152.488 190.668 152.486 190.121 151.939C189.75 151.567 189.146 151.568 188.776 151.939L188.219 152.495Z" fill="white"/>
<path d="M183.006 121.222L182.652 120.868L183.208 120.312C183.773 119.747 184.695 119.747 185.26 120.312C185.63 120.683 186.233 120.683 186.605 120.312L187.192 119.725L187.546 120.079L186.959 120.666C186.394 121.231 185.473 121.232 184.907 120.666C184.536 120.296 183.933 120.296 183.562 120.666L183.006 121.222Z" fill="white"/>
<path d="M172.79 138.281L172.436 137.927L172.992 137.371C173.558 136.806 174.479 136.806 175.044 137.371C175.416 137.742 176.019 137.742 176.389 137.371L176.976 136.785L177.33 137.139L176.743 137.725C176.177 138.291 175.256 138.291 174.691 137.725C174.32 137.355 173.717 137.355 173.346 137.725L172.79 138.281Z" fill="white"/>
<path d="M189.547 169.316H189.047V168.53C189.047 167.73 189.698 167.079 190.498 167.079C191.022 167.079 191.449 166.652 191.449 166.128V165.298H191.949V166.128C191.949 166.928 191.298 167.579 190.498 167.579C189.974 167.579 189.547 168.006 189.547 168.53V169.316Z" fill="white"/>
<path d="M184.196 208.817H183.696V208.031C183.696 207.231 184.347 206.58 185.147 206.58C185.671 206.58 186.098 206.153 186.098 205.629V204.799H186.598V205.629C186.598 206.429 185.947 207.08 185.147 207.08C184.623 207.08 184.196 207.507 184.196 208.031V208.817Z" fill="white"/>
<path d="M212.034 238.209H211.534V237.423C211.534 236.623 212.185 235.972 212.985 235.972C213.509 235.972 213.936 235.545 213.936 235.021V234.191H214.436V235.021C214.436 235.821 213.785 236.472 212.985 236.472C212.461 236.472 212.034 236.899 212.034 237.423V238.209Z" fill="white"/>
<path d="M231.257 257.366H230.757V256.58C230.757 255.78 231.408 255.129 232.208 255.129C232.732 255.129 233.159 254.702 233.159 254.178V253.349H233.659V254.178C233.659 254.978 233.008 255.629 232.208 255.629C231.684 255.629 231.257 256.056 231.257 256.58V257.366Z" fill="white"/>
<path d="M224.236 201.892H223.736V201.106C223.736 200.306 224.387 199.655 225.187 199.655C225.711 199.655 226.138 199.228 226.138 198.704V197.874H226.638V198.704C226.638 199.504 225.987 200.155 225.187 200.155C224.663 200.155 224.236 200.581 224.236 201.106V201.892Z" fill="white"/>
<path d="M162.421 210.23H161.921V209.444C161.921 208.644 162.572 207.993 163.372 207.993C163.896 207.993 164.323 207.567 164.323 207.042V206.212H164.823V207.042C164.823 207.842 164.172 208.493 163.372 208.493C162.848 208.493 162.421 208.92 162.421 209.444V210.23Z" fill="white"/>
<path d="M163.622 174.786H163.122V174C163.122 173.2 163.773 172.549 164.573 172.549C165.097 172.549 165.524 172.122 165.524 171.598V170.768H166.024V171.598C166.024 172.398 165.373 173.049 164.573 173.049C164.049 173.049 163.622 173.476 163.622 174V174.786Z" fill="white"/>
<path d="M176.551 151.747H176.051V150.96C176.051 150.16 176.702 149.509 177.502 149.509C178.026 149.509 178.453 149.082 178.453 148.558V147.728H178.953V148.558C178.953 149.358 178.302 150.009 177.502 150.009C176.978 150.009 176.551 150.435 176.551 150.96V151.747Z" fill="white"/>
<path d="M171.662 128.573H171.162V127.787C171.162 126.987 171.813 126.336 172.613 126.336C173.137 126.336 173.564 125.909 173.564 125.385V124.555H174.064V125.385C174.064 126.185 173.413 126.836 172.613 126.836C172.089 126.836 171.662 127.263 171.662 127.787V128.573Z" fill="white"/>
<path d="M173.08 187.368H172.58V186.582C172.58 185.782 173.231 185.131 174.031 185.131C174.555 185.131 174.982 184.704 174.982 184.18V183.35H175.482V184.18C175.482 184.98 174.831 185.631 174.031 185.631C173.507 185.631 173.08 186.058 173.08 186.582V187.368Z" fill="white"/>
<path d="M204.247 192.156H203.747V191.37C203.747 190.57 204.398 189.919 205.198 189.919C205.722 189.919 206.149 189.492 206.149 188.968V188.138H206.649V188.968C206.649 189.768 205.998 190.419 205.198 190.419C204.674 190.419 204.247 190.846 204.247 191.37V192.156Z" fill="white"/>
<path d="M175.441 232.156H174.941V231.37C174.941 230.57 175.592 229.919 176.392 229.919C176.916 229.919 177.343 229.492 177.343 228.968V228.138H177.843V228.968C177.843 229.768 177.192 230.419 176.392 230.419C175.868 230.419 175.441 230.846 175.441 231.37V232.156Z" fill="white"/>
<path d="M153.359 242.769H152.859V241.983C152.859 241.183 153.51 240.532 154.31 240.532C154.834 240.532 155.261 240.105 155.261 239.581V238.751H155.761V239.581C155.761 240.381 155.11 241.032 154.31 241.032C153.786 241.032 153.359 241.459 153.359 241.983V242.769Z" fill="white"/>
<path d="M182.187 254.786H181.687V254C181.687 253.2 182.338 252.549 183.138 252.549C183.662 252.549 184.089 252.122 184.089 251.598V250.768H184.589V251.598C184.589 252.398 183.938 253.049 183.138 253.049C182.614 253.049 182.187 253.476 182.187 254V254.786Z" fill="white"/>
<path d="M214.681 214.903H214.181V214.117C214.181 213.317 214.832 212.666 215.632 212.666C216.156 212.666 216.583 212.239 216.583 211.715V210.885H217.083V211.715C217.083 212.515 216.432 213.166 215.632 213.166C215.108 213.166 214.681 213.593 214.681 214.117V214.903Z" fill="white"/>
<path d="M200.835 175.596L200.481 175.242L201.068 174.656C201.634 174.091 202.554 174.091 203.121 174.656C203.491 175.025 204.094 175.027 204.466 174.656L205.022 174.1L205.376 174.454L204.82 175.01C204.255 175.575 203.336 175.576 202.768 175.01C202.397 174.64 201.793 174.64 201.422 175.01L200.835 175.596Z" fill="white"/>
<path d="M183.054 193.476L182.7 193.122L183.287 192.535C183.852 191.97 184.774 191.97 185.339 192.535C185.698 192.894 186.324 192.894 186.684 192.535L187.24 191.979L187.594 192.333L187.038 192.889C186.49 193.438 185.534 193.437 184.986 192.889C184.615 192.518 184.011 192.519 183.641 192.889L183.054 193.476Z" fill="white"/>
<path d="M170.737 217.736L170.383 217.382L170.97 216.795C171.535 216.231 172.457 216.231 173.022 216.795C173.392 217.166 173.996 217.166 174.367 216.795L174.923 216.239L175.277 216.593L174.721 217.149C174.155 217.715 173.234 217.715 172.669 217.149C172.297 216.778 171.694 216.779 171.324 217.149L170.737 217.736Z" fill="white"/>
<path d="M176.061 242.945L175.707 242.591L176.294 242.004C176.859 241.44 177.781 241.44 178.346 242.004C178.717 242.375 179.32 242.375 179.691 242.004L180.247 241.448L180.601 241.802L180.045 242.358C179.497 242.907 178.541 242.907 177.993 242.358C177.622 241.987 177.019 241.987 176.648 242.358L176.061 242.945Z" fill="white"/>
<path d="M193.376 257.702L193.022 257.348L193.609 256.761C194.174 256.196 195.093 256.195 195.661 256.761C196.033 257.133 196.636 257.131 197.006 256.761L197.563 256.205L197.917 256.559L197.36 257.115C196.813 257.665 195.855 257.663 195.308 257.115C194.936 256.743 194.334 256.745 193.963 257.115L193.376 257.702Z" fill="white"/>
<path d="M199.896 215.242L199.542 214.888L200.128 214.301C200.694 213.737 201.614 213.737 202.181 214.301C202.55 214.671 203.154 214.672 203.526 214.301L204.082 213.745L204.436 214.099L203.88 214.655C203.333 215.205 202.375 215.204 201.828 214.655C201.457 214.286 200.853 214.286 200.482 214.655L199.896 215.242Z" fill="white"/>
<path d="M204.307 248.386L203.953 248.032L204.54 247.445C205.087 246.896 206.045 246.896 206.592 247.445C206.964 247.816 207.567 247.816 207.937 247.445L208.494 246.888L208.848 247.242L208.291 247.799C207.724 248.366 206.805 248.364 206.239 247.799C205.879 247.44 205.253 247.44 204.894 247.799L204.307 248.386Z" fill="white"/>
<path d="M222.811 246.316L222.457 245.962L223.043 245.375C223.609 244.811 224.529 244.811 225.096 245.375C225.454 245.734 226.08 245.734 226.441 245.375L226.997 244.819L227.351 245.173L226.795 245.729C226.247 246.278 225.289 246.277 224.743 245.729C224.372 245.359 223.768 245.359 223.397 245.729L222.811 246.316Z" fill="white"/>
<path d="M224.295 215.242L223.941 214.888L224.528 214.301C225.075 213.753 226.033 213.751 226.58 214.301C226.951 214.67 227.555 214.67 227.926 214.301L228.482 213.745L228.836 214.099L228.28 214.655C227.714 215.219 226.794 215.219 226.227 214.655C225.856 214.284 225.253 214.283 224.882 214.655L224.295 215.242Z" fill="white"/>
<path d="M216.3 225.283L215.946 224.929L216.533 224.342C217.099 223.776 218.019 223.776 218.586 224.342C218.946 224.702 219.572 224.7 219.931 224.342L220.487 223.785L220.841 224.139L220.285 224.696C219.72 225.262 218.801 225.263 218.233 224.696C217.862 224.325 217.258 224.325 216.887 224.696L216.3 225.283Z" fill="white"/>
<path d="M188.705 232.904L188.351 232.55L188.938 231.963C189.485 231.415 190.443 231.414 190.99 231.963C191.361 232.332 191.965 232.332 192.336 231.963L192.892 231.407L193.246 231.761L192.69 232.317C192.124 232.881 191.204 232.881 190.637 232.317C190.266 231.946 189.663 231.944 189.292 232.317L188.705 232.904Z" fill="white"/>
<path d="M163.311 236.377L162.957 236.023L163.544 235.436C164.092 234.887 165.048 234.887 165.596 235.436C165.967 235.807 166.57 235.807 166.941 235.436L167.497 234.88L167.851 235.234L167.295 235.79C166.747 236.339 165.791 236.339 165.243 235.79C164.883 235.431 164.257 235.431 163.898 235.79L163.311 236.377Z" fill="white"/>
<path d="M167.628 259.085L167.274 258.731L167.861 258.144C168.426 257.58 169.348 257.58 169.913 258.144C170.283 258.515 170.887 258.515 171.258 258.144L171.814 257.588L172.168 257.942L171.612 258.498C171.046 259.064 170.125 259.064 169.56 258.498C169.188 258.126 168.585 258.128 168.215 258.498L167.628 259.085Z" fill="white"/>
<path d="M151.62 256.105L151.266 255.751L151.852 255.164C152.417 254.6 153.339 254.6 153.904 255.164C154.275 255.534 154.878 255.536 155.249 255.164L155.805 254.608L156.159 254.962L155.603 255.518C155.038 256.082 154.116 256.082 153.551 255.518C153.18 255.148 152.577 255.146 152.206 255.518L151.62 256.105Z" fill="white"/>
<path d="M161.279 194.047L160.925 193.693L161.512 193.106C162.077 192.541 162.998 192.541 163.564 193.106C163.936 193.478 164.539 193.477 164.909 193.106L165.465 192.55L165.819 192.904L165.263 193.46C164.716 194.009 163.759 194.009 163.211 193.46C162.84 193.089 162.237 193.089 161.866 193.46L161.279 194.047Z" fill="white"/>
<path d="M236.55 260.23H221.94L193.96 111.75C199.84 113.77 207.07 120.65 210.94 131.07C212.29 134.69 213.63 138.91 214.95 143.58V143.59C215.01 143.82 215.07 144.05 215.14 144.28C219.01 158.17 222.71 175.85 225.9 193.2C227.71 203.01 229.36 212.72 230.79 221.57C230.85 221.96 230.91 222.35 230.97 222.74C234.42 244.13 236.55 260.23 236.55 260.23Z" fill="#263238"/>
<path d="M244.503 230.526C246.312 234.607 245.318 241.475 248.615 241.082C251.552 240.732 251.779 235.906 251.779 235.906C251.779 235.906 253.28 241.425 256.333 240.149C259.386 238.873 258.553 233.535 258.553 233.535C258.553 233.535 259.597 238.186 262.551 236.695C265.505 235.204 265.625 230.538 265.625 230.538C265.625 230.538 266.837 231.663 268.45 229.672C270.758 226.823 268.999 219.096 267.122 215.279C265.246 211.462 255.554 198.875 254.033 196.975L229.432 208.809C229.432 208.809 229.637 217.136 230.256 221.346C230.876 225.556 236.767 238.858 240.167 237.62C243.567 236.382 239.246 227.058 238.688 224.544C238.129 222.03 238.616 221.473 239.749 222.41C240.493 223.026 243.703 228.72 244.503 230.526Z" fill="#EB9481"/>
<path d="M251.676 235.677C251.515 228.932 250.278 226.01 246.599 220.48C246.527 220.372 246.672 220.241 246.757 220.347C250.852 225.434 252.933 228.877 252.003 235.687C251.958 236.019 251.684 235.997 251.676 235.677Z" fill="#263238"/>
<path d="M258.492 233.824C257.713 226.833 256.399 223.652 252.972 217.576C252.924 217.49 253.064 217.399 253.12 217.482C256.98 223.16 258.977 226.642 258.838 233.729C258.833 234.05 258.528 234.144 258.492 233.824Z" fill="#263238"/>
<path d="M265.563 230.47C264.32 223.756 263.03 220.206 258.946 214.735C258.85 214.606 259.029 214.453 259.138 214.573C263.844 219.746 265.487 224.166 265.763 230.41C265.781 230.837 265.641 230.892 265.563 230.47Z" fill="#263238"/>
<path d="M203.004 118.699C222.008 138.428 251.279 190.92 254.709 198.09C257.037 202.956 231.598 215.826 230.513 212.286C229.123 207.753 207.423 156.382 201.504 135.266C198.24 123.622 199.078 114.624 203.004 118.699Z" fill="#EB9481"/>
<path d="M194.384 121.106C195.645 128.309 204.219 152.318 204.219 152.318L219.99 148.535L220.266 148.474L230.318 146.066C230.318 146.066 211.053 123.583 202.021 116.65C192.996 109.729 192.957 112.997 194.384 121.106Z" fill="#FF7A7A"/>
<path d="M219.896 145.031H219.11C218.31 145.031 217.659 144.38 217.659 143.58C217.659 143.056 217.232 142.629 216.708 142.629H215.879V142.129H216.708C217.508 142.129 218.159 142.78 218.159 143.58C218.159 144.104 218.586 144.531 219.11 144.531H219.896V145.031Z" fill="white"/>
<path d="M206.097 132.886L205.743 132.532L206.3 131.976C206.867 131.41 207.786 131.412 208.352 131.976C208.712 132.336 209.338 132.335 209.697 131.976L210.284 131.39L210.638 131.744L210.051 132.33C209.505 132.878 208.547 132.879 207.999 132.33C207.627 131.958 207.024 131.96 206.654 132.33L206.097 132.886Z" fill="white"/>
<path d="M202.238 144.388H201.738V143.602C201.738 142.802 202.389 142.151 203.189 142.151C203.713 142.151 204.14 141.724 204.14 141.2V140.37H204.64V141.2C204.64 142 203.989 142.651 203.189 142.651C202.665 142.651 202.238 143.078 202.238 143.602V144.388Z" fill="white"/>
<path d="M196.516 126.563H196.016V125.777C196.016 124.977 196.667 124.326 197.467 124.326C197.991 124.326 198.418 123.899 198.418 123.375V122.545H198.918V123.375C198.918 124.175 198.267 124.826 197.467 124.826C196.943 124.826 196.516 125.253 196.516 125.777V126.563Z" fill="white"/>
<path d="M202.907 117.354C203.114 116.895 190.363 128.358 179.846 126.321C174.603 125.306 173.613 113.613 174.232 113.49C183.067 111.731 191.464 106.909 202.907 117.354Z" fill="#EB9481"/>
<path d="M192.9 113.143C192.509 114.145 186.596 120.16 181.891 119.258C180.359 118.961 181.605 110.529 181.605 110.529L181.554 109.885L180.856 100.876L192.054 95.771L193.661 95.113C193.661 95.113 193.689 97.59 193.694 100.675C193.695 100.818 193.696 100.961 193.695 101.114C193.7 101.288 193.707 101.453 193.703 101.616C193.71 102.077 193.714 102.548 193.709 103.016C193.707 103.373 193.706 103.72 193.69 104.094C193.683 104.47 193.669 104.835 193.663 105.212C193.519 108.921 193.06 112.716 192.9 113.143Z" fill="#EB9481"/>
<path d="M193.695 100.675C190.196 107.262 184.24 109.297 181.555 109.885L180.857 100.876L192.055 95.771L193.662 95.113C193.662 95.113 193.691 97.59 193.695 100.675Z" fill="#263238"/>
<path d="M170.979 85.219C167.308 100.646 176.134 104.587 179.462 105.375C182.483 106.09 192.859 108.142 198.104 93.176C203.349 78.211 197.336 71.627 190.514 69.626C183.692 67.624 174.65 69.791 170.979 85.219Z" fill="#EB9481"/>
<path d="M174.383 83.548C174.757 83.566 175.105 83.52 175.477 83.5C175.897 83.477 176.233 83.501 176.584 83.238C176.772 83.097 176.815 82.754 176.695 82.558C176.415 82.103 175.894 82.003 175.388 82.011C174.839 82.019 174.417 82.166 173.997 82.518C173.59 82.859 173.89 83.524 174.383 83.548Z" fill="#263238"/>
<path d="M185.156 85.669C184.796 85.566 184.481 85.41 184.136 85.271C183.746 85.114 183.419 85.029 183.172 84.667C183.04 84.473 183.108 84.134 183.285 83.988C183.696 83.647 184.222 83.72 184.699 83.89C185.217 84.074 185.569 84.349 185.853 84.817C186.129 85.272 185.631 85.805 185.156 85.669Z" fill="#263238"/>
<path d="M182.42 89.272C182.436 89.233 182.493 89.338 182.484 89.381C182.25 90.435 182.159 91.683 183.052 92.216C183.08 92.233 183.066 92.285 183.032 92.274C181.892 91.888 182.029 90.234 182.42 89.272Z" fill="#263238"/>
<path d="M183.577 88.344C185.308 88.537 184.794 91.985 183.19 91.806C181.613 91.629 182.127 88.182 183.577 88.344Z" fill="#263238"/>
<path d="M184.227 88.627C184.499 88.867 184.743 89.255 185.1 89.345C185.514 89.449 185.885 89.135 186.211 88.829C186.245 88.797 186.27 88.832 186.264 88.878C186.175 89.54 185.82 90.18 185.097 90.173C184.437 90.167 184.061 89.512 183.995 88.824C183.984 88.696 184.118 88.53 184.227 88.627Z" fill="#263238"/>
<path d="M175.802 87.789C175.799 87.747 175.711 87.828 175.706 87.872C175.589 88.946 175.274 90.156 174.257 90.375C174.226 90.382 174.221 90.436 174.258 90.436C175.462 90.436 175.864 88.825 175.802 87.789Z" fill="#263238"/>
<path d="M175.005 86.537C173.304 86.164 172.682 89.593 174.258 89.939C175.809 90.28 176.431 86.85 175.005 86.537Z" fill="#263238"/>
<path d="M174.249 86.633C173.945 86.766 173.617 87.047 173.29 87.01C172.91 86.967 172.7 86.545 172.525 86.146C172.507 86.105 172.475 86.129 172.465 86.174C172.328 86.826 172.421 87.548 173.028 87.788C173.581 88.007 174.105 87.521 174.38 86.896C174.431 86.781 174.371 86.58 174.249 86.633Z" fill="#263238"/>
<path d="M180.673 97.387C180.39 97.612 180.098 97.932 179.704 97.925C179.327 97.918 178.906 97.704 178.577 97.536C178.544 97.519 178.506 97.552 178.525 97.586C178.761 98.027 179.321 98.345 179.828 98.31C180.323 98.275 180.607 97.88 180.77 97.447C180.794 97.386 180.714 97.354 180.673 97.387Z" fill="#263238"/>
<path d="M176.837 92.816C176.837 92.816 176.361 94.373 176.239 95.124C176.228 95.194 176.404 95.257 176.657 95.313C176.669 95.319 176.675 95.325 176.686 95.319C177.979 95.74 179.388 95.497 180.368 94.544C180.432 94.479 180.349 94.386 180.273 94.422C179.166 94.989 178.042 95.001 176.862 94.831C176.842 94.614 177.767 92.192 177.649 92.164C177.244 92.063 176.39 92.212 175.881 92.275C176.779 89.004 178.195 85.903 179.041 82.632C179.069 82.515 178.904 82.452 178.853 82.552C177.139 85.697 176.023 89.439 175.008 92.793C174.879 93.21 176.516 92.895 176.837 92.816Z" fill="#263238"/>
<path d="M176.811 94.745C176.811 94.745 177.258 95.919 178.144 96.547C178.47 96.779 178.847 96.941 179.288 96.947C180.192 96.963 180.431 96.196 180.462 95.491C180.49 94.912 180.369 94.373 180.369 94.373C180.369 94.373 178.817 95.178 176.811 94.745Z" fill="#263238"/>
<path d="M178.145 96.547C178.471 96.779 178.848 96.941 179.289 96.947C180.193 96.963 180.432 96.196 180.463 95.491C179.534 95.33 178.468 95.691 178.145 96.547Z" fill="#FF9BBC"/>
<path d="M197.973 93.234C196.2 92.832 192.349 87.137 193.632 78.466C193.632 78.466 193.019 86.332 193.415 87.566C193.811 88.8 191.265 84.364 192.202 77.356C192.202 77.356 187.88 79.507 184.435 79.888C180.99 80.268 178.98 79.905 178.784 79.628C178.588 79.351 183.686 78.623 185.245 77.328C185.245 77.328 175.813 79.957 171.725 79.599C171.252 79.558 172.278 69.86 179.192 66.812C186.106 63.764 195.27 69.796 197.506 72.803C197.506 72.803 200.555 73.762 203.188 78.939C205.819 84.117 199.882 93.667 197.973 93.234Z" fill="#263238"/>
<path d="M195.37 93.777C195.37 93.777 199.519 89.388 201.56 90.938C203.601 92.488 199.975 99.204 197.223 99.789C194.471 100.374 193.88 97.837 193.88 97.837L195.37 93.777Z" fill="#EB9481"/>
<path d="M200.473 92.837C200.516 92.839 200.515 92.9 200.477 92.909C198.538 93.379 197.324 94.932 196.39 96.591C197.034 95.995 197.83 95.734 198.64 96.515C198.683 96.556 198.626 96.624 198.576 96.605C197.851 96.334 197.291 96.384 196.696 96.908C196.275 97.28 195.95 97.781 195.621 98.233C195.511 98.384 195.229 98.253 195.319 98.074C195.326 98.061 195.333 98.047 195.34 98.034C195.638 95.696 197.934 92.701 200.473 92.837Z" fill="#263238"/>
<path opacity="0.5" d="M60.0889 81.054C54.7619 93.998 40.0429 146.489 49.6769 181.963C58.0769 212.894 77.5859 229.07 86.4439 234.307C99.4669 242.006 113.305 246.899 112.745 249.826C112.184 252.753 98.5339 246.42 97.9119 247.55C97.2899 248.68 127.623 277.873 181.549 283.83C264.904 293.037 313.852 263.072 321.054 261.78C328.256 260.488 293.863 302.044 268.605 311.734C262.796 313.962 283.952 308.244 298.305 299.644C303.699 296.412 288.851 339.954 239.242 350.717C229.699 352.787 250.304 352.665 257.663 351.804C265.022 350.943 236.432 371.519 162.12 365.597C104.3 360.99 50.4269 315.877 28.3029 266.127C25.8129 260.529 20.6779 264.186 19.0389 260.231C15.5379 251.785 17.1569 235.439 15.4449 232.209C13.7329 228.979 8.13194 232.209 6.41994 223.65C4.70794 215.091 5.64194 189.414 19.4899 148.233C21.1319 143.351 18.8679 145.003 15.9109 149.363C12.9549 153.723 9.45194 157.599 6.14594 157.438C2.84094 157.277 4.59794 145.173 18.5559 122.879C42.5199 84.604 64.9269 69.298 60.0889 81.054Z" fill="#FF7A7A"/>
<path opacity="0.5" d="M117.103 254.938C117.242 250.859 132.996 252.868 131.573 258.337C130.15 263.806 116.914 260.48 117.103 254.938Z" fill="#FF7A7A"/>
<path opacity="0.5" d="M264.232 350.488C265.199 354.312 278.973 351.652 277.878 346.497C276.782 341.343 263.069 345.889 264.232 350.488Z" fill="#FF7A7A"/>
<path opacity="0.5" d="M2.94395 162.065C0.313948 161.726 -1.49005 167.386 1.66895 168.439C4.82795 169.492 6.37995 162.508 2.94395 162.065Z" fill="#FF7A7A"/>
<path opacity="0.5" d="M325.063 259.213C327.046 261.782 340.822 253.338 335.115 249.339C331.126 246.544 323.076 256.638 325.063 259.213Z" fill="#FF7A7A"/>
<path d="M204.838 334.98L199.377 335.99L198.156 341.747L196.935 335.99L191.474 334.977L196.912 333.648L198.156 328.21L199.4 333.648L204.838 334.98Z" fill="#FEFEFE"/>
<path d="M73.8489 251.614L68.3869 252.624L67.1669 258.381L65.9459 252.624L60.4849 251.611L65.9229 250.282L67.1669 244.844L68.4109 250.282L73.8489 251.614Z" fill="#FEFEFE"/>
<path d="M46.1308 99.878L40.6698 100.887L39.4488 106.645L38.2288 100.887L32.7668 99.875L38.2048 98.546L39.4488 93.108L40.6928 98.546L46.1308 99.878Z" fill="#FEFEFE"/>
<path d="M307.857 276.155L304.804 276.719L304.122 279.937L303.44 276.719L300.387 276.153L303.427 275.41L304.122 272.371L304.817 275.41L307.857 276.155Z" fill="#FEFEFE"/>
<path d="M139.714 293.031L136.662 293.595L135.98 296.813L135.298 293.595L132.245 293.029L135.285 292.287L135.98 289.247L136.675 292.287L139.714 293.031Z" fill="#FEFEFE"/>
<path d="M269.58 331.994L266.528 332.558L265.846 335.776L265.164 332.558L262.111 331.992L265.15 331.25L265.846 328.21L266.541 331.25L269.58 331.994Z" fill="#FEFEFE"/>
<path d="M171.697 355.268L168.645 355.832L167.962 359.05L167.28 355.832L164.228 355.266L167.267 354.523L167.962 351.484L168.658 354.523L171.697 355.268Z" fill="#FEFEFE"/>
<path d="M53.8059 276.155L50.7539 276.719L50.0719 279.937L49.3889 276.719L46.3369 276.153L49.3759 275.41L50.0719 272.371L50.7669 275.41L53.8059 276.155Z" fill="#FEFEFE"/>
<path d="M50.0719 185.938L47.0189 186.502L46.3369 189.72L45.6549 186.502L42.6019 185.936L45.6419 185.193L46.3369 182.154L47.0319 185.193L50.0719 185.938Z" fill="#FEFEFE"/>
<path d="M214.556 300.887C213.417 300.887 213.416 302.657 214.556 302.657C215.694 302.657 215.696 300.887 214.556 300.887Z" fill="#FEFEFE"/>
<path d="M26.9939 134.281C25.8549 134.281 25.8529 136.051 26.9939 136.051C28.1329 136.05 28.1349 134.281 26.9939 134.281Z" fill="#FEFEFE"/>
<path d="M270.196 303.266C269.057 303.266 269.055 305.036 270.196 305.036C271.335 305.035 271.336 303.266 270.196 303.266Z" fill="#FEFEFE"/>
<path d="M32.7669 258.337C31.6279 258.337 31.6259 260.107 32.7669 260.107C33.9059 260.106 33.9079 258.337 32.7669 258.337Z" fill="#FEFEFE"/>
<path d="M11.5829 204.17C10.7769 204.17 10.7759 205.422 11.5829 205.422C12.3889 205.422 12.3899 204.17 11.5829 204.17Z" fill="#FEFEFE"/>
<path d="M151.323 316.973C150.517 316.973 150.516 318.225 151.323 318.225C152.128 318.225 152.129 316.973 151.323 316.973Z" fill="#FEFEFE"/>
<path d="M89.5689 314.747C88.7629 314.747 88.7619 315.999 89.5689 315.999C90.3749 315.999 90.3759 314.747 89.5689 314.747Z" fill="#FEFEFE"/>
<path d="M195.734 309.601C193.55 309.601 193.547 312.994 195.734 312.994C197.918 312.994 197.921 309.601 195.734 309.601Z" fill="#FEFEFE"/>
<path d="M97.5859 308.991C95.4019 308.991 95.3989 312.384 97.5859 312.384C99.7689 312.384 99.7729 308.991 97.5859 308.991Z" fill="#FEFEFE"/>
<path d="M100.797 183.746C100.238 186.685 97.402 188.615 94.462 188.056C91.523 187.497 89.593 184.661 90.152 181.721C90.711 178.781 93.547 176.852 96.487 177.411C99.426 177.97 101.356 180.806 100.797 183.746Z" fill="#455A64"/>
<path d="M105.899 156.927L101.834 156.154L96.7463 182.91L100.811 183.683L105.899 156.927Z" fill="#455A64"/>
<path d="M119.497 179.28C118.938 182.219 116.102 184.149 113.162 183.59C110.222 183.031 108.293 180.195 108.852 177.255C109.411 174.316 112.247 172.386 115.187 172.945C118.126 173.505 120.056 176.341 119.497 179.28Z" fill="#455A64"/>
<path d="M124.6 152.462L120.535 151.689L115.447 178.445L119.512 179.218L124.6 152.462Z" fill="#455A64"/>
<path d="M124.59 152.518L101.151 159.732L101.831 156.155L125.27 148.94L124.59 152.518Z" fill="#455A64"/>
<path d="M123.308 159.26L99.868 166.475L100.549 162.898L123.988 155.683L123.308 159.26Z" fill="#455A64"/>
<path d="M334.385 40.358C333.826 43.298 330.99 45.227 328.05 44.668C325.11 44.109 323.181 41.273 323.74 38.333C324.299 35.394 327.135 33.464 330.075 34.023C333.014 34.583 334.944 37.419 334.385 40.358Z" fill="#C7C7C7"/>
<path d="M339.486 13.536L335.421 12.763L330.333 39.5197L334.398 40.2927L339.486 13.536Z" fill="#C7C7C7"/>
<path d="M354.605 9.27447L350.54 8.50149L349.07 16.2359L353.135 17.0089L354.605 9.27447Z" fill="#C7C7C7"/>
<path d="M354.408 10.307L334.739 16.345L335.419 12.768L355.088 6.73L354.408 10.307Z" fill="#C7C7C7"/>
<path d="M353.125 17.05L333.456 23.088L334.137 19.511L353.806 13.473L353.125 17.05Z" fill="#C7C7C7"/>
<path d="M341.664 202.194C333.831 219.481 321.242 219.099 317.78 223.271C315.92 225.534 312.448 231.687 312.448 231.687L293.686 225.697C293.686 225.697 294.433 218.674 294.217 215.748C293.825 210.345 283.332 203.358 286.976 184.734C289.363 172.494 304.18 156.696 324.034 163.035C343.888 169.374 346.799 190.832 341.664 202.194Z" fill="#FF7A7A"/>
<path d="M301.557 196.75L297.574 228.37L298.566 228.495L302.55 196.875L301.557 196.75Z" fill="white"/>
<path d="M321.934 203.104L306.819 231.158L307.699 231.632L322.814 203.578L321.934 203.104Z" fill="white"/>
<path d="M309.968 210.142C309.66 210.142 309.351 210.098 309.041 209.999C307.571 209.53 306.46 207.888 305.913 205.376C305.889 205.265 305.866 205.153 305.845 205.039C305.187 205.423 304.528 205.581 303.949 205.396C301.137 204.499 301.861 198.348 301.893 198.086L302.389 198.147C302.382 198.207 301.682 204.147 304.101 204.919C304.565 205.066 305.147 204.885 305.751 204.489C305.336 201.671 305.691 198.267 306.993 197.082C307.44 196.677 307.974 196.558 308.535 196.736C309.771 197.131 310.164 198.346 309.614 200.071C309.092 201.707 307.73 203.691 306.297 204.739C306.328 204.917 306.362 205.093 306.401 205.268C306.695 206.617 307.449 208.964 309.193 209.52C310.359 209.894 311.821 209.348 313.315 207.99C313.441 207.875 313.566 207.756 313.689 207.633C312.978 206.079 312.978 203.927 313.573 202.066C314.237 199.983 315.434 198.938 316.695 199.34C317.194 199.5 317.522 199.882 317.645 200.445C318.017 202.153 316.46 205.45 314.284 207.739C314.645 208.382 315.179 208.879 315.924 209.117C317.641 209.664 320.471 206.046 321.415 204.605L321.833 204.879C321.687 205.104 318.2 210.373 315.771 209.593C314.969 209.337 314.362 208.801 313.933 208.093C313.84 208.183 313.745 208.272 313.651 208.358C312.705 209.222 311.367 210.142 309.968 210.142ZM316.175 199.759C315.195 199.759 314.43 201.026 314.049 202.219C313.582 203.681 313.446 205.74 314.053 207.255C316.034 205.103 317.487 202.062 317.157 200.553C317.072 200.163 316.871 199.922 316.543 199.818C316.417 199.778 316.294 199.759 316.175 199.759ZM308.035 197.156C307.782 197.156 307.55 197.255 307.331 197.454C306.299 198.393 305.839 201.346 306.208 204.156C307.429 203.167 308.652 201.445 309.139 199.921C309.406 199.085 309.662 197.622 308.384 197.214C308.264 197.175 308.147 197.156 308.035 197.156Z" fill="white"/>
<path d="M314.897 231.57L291.749 224.18L290.305 228.704L313.453 236.093L314.897 231.57Z" fill="#A6A6A6"/>
<path d="M313.218 236.826L290.07 229.437L288.626 233.96L311.774 241.35L313.218 236.826Z" fill="#A6A6A6"/>
<path d="M311.54 242.081L288.392 234.692L286.948 239.216L310.096 246.605L311.54 242.081Z" fill="#A6A6A6"/>
<path d="M328.122 147.688L325.729 155.196L326.682 155.5L329.075 147.992L328.122 147.688Z" fill="#DBDBDB"/>
<path d="M306.117 146.63L305.141 146.843L306.819 154.543L307.795 154.33L306.117 146.63Z" fill="#DBDBDB"/>
<path d="M285.543 156.899L284.804 157.572L290.107 163.401L290.847 162.728L285.543 156.899Z" fill="#DBDBDB"/>
<path d="M272.841 176.127L272.537 177.079L280.043 179.475L280.347 178.523L272.841 176.127Z" fill="#DBDBDB"/>
<path d="M279.189 197.415L271.489 199.093L271.702 200.07L279.402 198.392L279.189 197.415Z" fill="#DBDBDB"/>
<path d="M339.955 216.925L339.214 217.599L344.517 223.428L345.257 222.754L339.955 216.925Z" fill="#DBDBDB"/>
<path d="M349.985 200.88L349.681 201.833L357.187 204.229L357.491 203.276L349.985 200.88Z" fill="#DBDBDB"/>
<path d="M358.368 180.271L350.668 181.948L350.881 182.925L358.581 181.248L358.368 180.271Z" fill="#DBDBDB"/>
<path d="M347.617 159.956L341.794 165.263L342.467 166.002L348.291 160.695L347.617 159.956Z" fill="#DBDBDB"/>
</svg>
