<svg width="394" height="359" viewBox="0 0 394 359" fill="none" xmlns="http://www.w3.org/2000/svg">
<path d="M282.952 36.4L393.741 36.57C393.741 36.57 393.752 29.49 378.49 28.081C378.49 28.081 364.603 -2.879 343.323 1.245C330.07 3.813 323.269 21.994 323.269 21.994C323.269 21.994 313.28 7.664 305.267 10.422C297.254 13.18 292.475 28.411 292.475 28.411C292.475 28.411 284.21 32.4 282.952 36.4Z" fill="#EBEBEB"/>
<path d="M39.484 270.826L150.273 270.996C150.273 270.996 150.284 263.916 135.022 262.507C135.022 262.507 121.135 231.547 99.855 235.671C86.602 238.239 79.801 256.42 79.801 256.42C79.801 256.42 69.812 242.09 61.799 244.848C53.786 247.606 49.007 262.837 49.007 262.837C49.007 262.837 40.742 266.826 39.484 270.826Z" fill="#EBEBEB"/>
<path d="M103.13 211.368C96.504 216.463 89.814 221.47 83.114 226.464L62.941 241.345L42.632 256.039L32.429 263.32L22.163 270.515L32.139 262.924L42.178 255.418L62.352 240.539L82.662 225.847C89.457 220.981 96.261 216.13 103.13 211.368Z" fill="#263238"/>
<path d="M69.768 314.396C64.891 318.214 59.949 321.944 54.997 325.66C50.047 329.378 45.043 333.024 40.069 336.709C35.047 340.329 30.051 343.984 25.005 347.571L17.425 352.936C14.877 354.695 12.348 356.481 9.782 358.215C12.215 356.298 14.685 354.432 17.136 352.54L24.552 346.95C29.504 343.234 34.505 339.586 39.481 335.902C44.505 332.284 49.499 328.626 54.546 325.041C59.592 321.455 64.648 317.881 69.768 314.396Z" fill="#263238"/>
<path d="M271.51 229.865C266.633 233.683 261.691 237.413 256.739 241.129C251.789 244.847 246.785 248.493 241.811 252.178C236.789 255.798 231.793 259.453 226.747 263.04L219.166 268.405C216.618 270.164 214.089 271.95 211.523 273.685C213.956 271.768 216.426 269.902 218.877 268.01L226.293 262.42C231.245 258.704 236.246 255.056 241.222 251.372C246.245 247.754 251.24 244.096 256.287 240.511C261.333 236.923 266.389 233.35 271.51 229.865Z" fill="#263238"/>
<path d="M356.096 102.339C351.219 106.157 346.277 109.887 341.325 113.603C336.375 117.321 331.371 120.967 326.397 124.652C321.375 128.272 316.378 131.927 311.333 135.514L303.752 140.879C301.204 142.638 298.676 144.424 296.109 146.158C298.541 144.241 301.012 142.376 303.463 140.483L310.879 134.893C315.831 131.177 320.832 127.529 325.808 123.845C330.831 120.227 335.826 116.569 340.873 112.984C345.92 109.398 350.976 105.824 356.096 102.339Z" fill="#263238"/>
<path d="M60.13 97.86C55.253 101.678 50.311 105.408 45.359 109.124C40.409 112.842 35.405 116.488 30.431 120.173C25.409 123.793 20.413 127.448 15.367 131.035L7.78601 136.4C5.23801 138.159 2.70901 139.945 0.143005 141.679C2.57601 139.762 5.04601 137.897 7.49701 136.004L14.913 130.414C19.865 126.698 24.866 123.05 29.842 119.366C34.865 115.748 39.86 112.09 44.907 108.505C49.954 104.918 55.01 101.345 60.13 97.86Z" fill="#263238"/>
<path d="M344.402 97.515C341.474 99.909 338.481 102.215 335.479 104.508C332.478 106.802 329.424 109.024 326.399 111.285C323.326 113.481 320.279 115.712 317.182 117.876L312.525 121.105C310.951 122.152 309.398 123.227 307.806 124.249C309.264 123.044 310.76 121.89 312.236 120.709L316.728 117.255C319.731 114.963 322.783 112.738 325.809 110.479C328.883 108.285 331.929 106.051 335.027 103.89C338.124 101.726 341.23 99.577 344.402 97.515Z" fill="#263238"/>
<path d="M55.674 88.919C52.746 91.313 49.753 93.619 46.751 95.911C43.75 98.205 40.696 100.427 37.671 102.689C34.598 104.885 31.551 107.116 28.454 109.28L23.797 112.509C22.223 113.556 20.67 114.63 19.078 115.653C20.536 114.448 22.032 113.294 23.508 112.113L28 108.659C31.003 106.367 34.055 104.142 37.081 101.883C40.155 99.689 43.2 97.455 46.299 95.294C49.396 93.13 52.503 90.981 55.674 88.919Z" fill="#263238"/>
<path d="M102.629 193.806C97.752 197.624 92.81 201.354 87.858 205.07C82.908 208.788 77.904 212.434 72.93 216.119C67.908 219.739 62.912 223.394 57.866 226.981L50.285 232.346C47.737 234.105 45.209 235.891 42.642 237.625C45.075 235.708 47.545 233.843 49.996 231.95L57.412 226.36C62.364 222.644 67.365 218.996 72.341 215.312C77.364 211.694 82.359 208.036 87.406 204.451C92.453 200.865 97.508 197.292 102.629 193.806Z" fill="#263238"/>
<path d="M225.703 245.378L209.749 257.359L193.732 269.257L161.604 292.921L129.339 316.399L113.158 328.071L96.914 339.658L112.868 327.676L128.884 315.778L161.014 292.115L193.28 268.639L209.461 256.967L225.703 245.378Z" fill="#263238"/>
<path d="M279.562 56.769C271.809 64.097 263.737 74.2 253.146 77.376C244.842 79.853 235.946 77.692 228.321 74.09C211.557 66.156 195.302 48.817 200.282 28.822C202.274 20.837 212.348 11.068 221.372 13.674C226 15.019 229.6 18.261 233.519 20.909C238.676 24.415 244.078 25.496 250.146 23.94C261.976 20.923 267.324 14.871 276.952 7.935C278.742 6.654 280.714 5.63 283.529 6.061C286.155 6.209 288.761 7.248 291.059 8.826C293.251 9.96 295.232 11.432 296.65 13.487C299.657 17.808 299.286 24.767 299.656 29.797C300.026 34.891 298.85 38.397 295.164 41.997C290.037 46.995 284.763 51.845 279.562 56.769Z" fill="#263238"/>
<path d="M276.62 61.049C283.294 53.874 289.817 46.58 296.394 39.321C296.434 39.277 296.373 39.208 296.331 39.252C290.746 45.067 285.088 50.8 279.578 56.69C274.178 62.462 269.021 68.769 263.134 74.048C249.918 85.898 232.524 76.805 223.32 64.813C222.902 64.268 222.079 64.996 222.521 65.535C230.933 75.808 244.717 84.837 258.254 78.445C265.658 74.947 271.165 66.914 276.62 61.049Z" fill="#263238"/>
<path d="M278.217 7.973C278.358 7.846 278.168 7.63999 278.021 7.75599C270.342 13.797 261.955 21.561 251.889 22.908C246.963 23.567 241.857 22.714 237.426 20.454C233.903 18.656 231.265 15.8 228.191 13.391C216.171 3.971 200.76 17.084 201.901 30.482C201.925 30.764 202.41 30.733 202.399 30.449C202.014 20.657 208.766 11.49 219.019 10.895C227.247 10.418 231.971 19.065 239.112 21.935C253.911 27.882 267.684 17.461 278.217 7.973Z" fill="#263238"/>
<path d="M67.237 26.871C70.026 22.027 138.473 27.379 196.505 33.313C196.527 33.317 196.549 33.321 196.562 33.311C222.749 35.99 248.144 36.482 263.877 39.13C273.877 40.814 278.845 45.096 279.858 46.643C283.202 51.754 288.599 67.538 259.634 83.36C237.726 95.327 212.993 105.433 193.195 125.351C173.41 145.26 160.53 171.687 159.604 190.611C158.68 209.524 170.243 229.047 169.113 226.943C168.765 226.295 163.664 226.014 157.049 221.09C148.94 215.054 140.065 203.222 133.594 199.305C120.36 191.294 101.354 190.202 88.332 173.554C74.615 156.017 74.01 127.828 69.125 105C63.19 77.276 43.177 68.658 67.237 26.871Z" fill="#37474F"/>
<path d="M71.052 115.304C70.46 111.79 69.84 108.34 69.122 104.999C67.572 97.778 65.075 91.859 62.647 86.305C62.647 86.305 125.499 78.144 142.465 87.6C151.742 92.771 122.855 92.027 71.052 115.304Z" fill="#263238"/>
<path d="M143.537 208.195C139.932 204.457 136.513 201.075 133.595 199.31C130.328 197.341 126.714 195.781 122.931 194.31C129.774 169.38 136.229 152.362 148.525 141.999C156.412 135.352 133.8 176.112 143.537 208.195Z" fill="#263238"/>
<path d="M74.208 134.873C73.647 131.703 73.139 128.509 72.636 125.324C93.258 119.634 111.265 110.062 111.146 112.767C111.017 115.717 88.103 127.842 74.208 134.873Z" fill="#263238"/>
<path d="M42.711 80.401C42.711 80.401 39.954 54.72 60.597 26.541C62.606 23.798 93.11 14.729 112.729 15.336C132.348 15.942 146.468 23.4 169.173 29.434C191.878 35.468 254.117 35.078 268.597 39.957C278.552 43.311 279.835 46.66 279.835 46.66C279.835 46.66 268.348 41.517 261.162 40.808C232.752 38.007 180.685 47.235 167.5 45.516C151.405 43.417 133.628 39.902 120.186 41.531C105.13 43.355 52.328 72.217 42.711 80.401Z" fill="#455A64"/>
<path d="M268.817 100.859C268.817 100.859 267.41 110.884 261.098 121.045C244.487 147.786 210.046 191.53 202.204 203.727C187.919 225.945 120.595 271.003 120.595 271.003L99.549 238.367C99.549 238.367 163.956 181.048 164.78 179.557C169.451 171.097 206.542 116.833 206.635 115.093C207.589 97.291 223.018 82.014 223.018 82.014L268.817 100.859Z" fill="#394A53"/>
<path d="M268.813 100.859C268.813 100.859 267.566 109.765 262.13 119.296C240.353 120.735 215.052 114.913 206.837 112.83C208.883 96.024 223.017 82.018 223.017 82.018L268.813 100.859Z" fill="#263238"/>
<path d="M89.431 318.775C87.778 317.129 67.257 258.367 67.554 255.528C67.597 255.035 74.888 251.966 86.867 247.252C87.701 246.924 147.033 194.473 147.033 194.473L175.3 233.879L101.065 284.703C101.065 284.703 97.207 309.684 96.552 312.773C95.897 315.841 91.077 320.427 89.431 318.775Z" fill="#FF7A7A"/>
<path opacity="0.3" d="M175.3 233.88L165.09 240.87L137.42 202.96C143.18 197.88 147.03 194.47 147.03 194.47L175.3 233.88Z" fill="white"/>
<path opacity="0.1" d="M175.306 233.878L140.482 257.711L140.695 200.077C144.595 196.63 147.037 194.475 147.037 194.475L175.306 233.878Z" fill="black"/>
<g opacity="0.1">
<path d="M208.18 119.769C205.466 124.716 202.643 129.594 199.71 134.402C196.801 139.225 193.791 143.983 190.76 148.728C187.697 153.452 184.61 158.161 181.419 162.803C178.239 167.451 174.995 172.063 171.513 176.509L175.758 169.197C177.195 166.775 178.636 164.355 180.109 161.956C183.032 157.143 186.047 152.389 189.08 147.647C192.144 142.925 195.225 138.213 198.402 133.563C201.556 128.897 204.816 124.299 208.18 119.769Z" fill="white"/>
</g>
<path d="M187.687 224.393L182.537 185.978C182.537 185.978 243.386 167.934 244.953 164.473C245.566 163.12 206.122 137.189 206.512 108.155C206.707 93.651 222.772 81.985 222.772 81.985L259.374 97.29C259.374 97.29 254.142 110.046 255.754 112.204C259.243 116.876 305.147 153.198 302.567 176.005C299.89 199.669 187.687 224.393 187.687 224.393Z" fill="#455A64"/>
<path d="M255.75 112.2C239.015 106.478 220.218 113.152 208.18 119.175C207.073 115.585 206.462 111.891 206.51 108.152C206.71 93.65 222.769 81.99 222.769 81.99L259.38 97.288C259.38 97.288 254.147 110.042 255.75 112.2Z" fill="#263238"/>
<path d="M242.89 101.695C245.564 102.612 247.92 104.245 250.084 106.018C251.152 106.929 252.18 107.888 253.128 108.922C254.089 109.942 254.958 111.049 255.754 112.205C253.595 110.408 251.559 108.553 249.442 106.784C248.389 105.895 247.317 105.031 246.232 104.177C245.136 103.34 244.049 102.483 242.89 101.695Z" fill="#263238"/>
<path d="M249.545 103.719C250.375 103.998 251.109 104.497 251.769 105.059C252.434 105.622 253.012 106.282 253.525 106.985C254.511 108.415 255.23 110.046 255.416 111.774C254.927 111.051 254.519 110.323 254.072 109.622C253.639 108.915 253.178 108.234 252.71 107.563C251.757 106.223 250.735 104.964 249.545 103.719Z" fill="#263238"/>
<path d="M245 164C247.409 164.692 249.669 165.706 251.806 166.844C253.955 167.976 255.965 169.273 257.903 170.629C259.814 172.015 261.643 173.474 263.333 175.039C265.043 176.586 266.586 178.258 268 180C264.158 177.251 260.53 174.424 256.748 171.729C254.867 170.374 252.948 169.06 251.005 167.762C249.037 166.49 247.089 165.19 245 164Z" fill="#37474F"/>
<path d="M208.18 119.175C208.723 121.081 209.504 122.904 210.396 124.665C210.828 125.552 211.3 126.42 211.768 127.287C212.274 128.135 212.744 129.002 213.277 129.833C213.818 130.659 214.329 131.502 214.878 132.322L216.552 134.763C217.736 136.342 218.889 137.944 220.162 139.455C222.585 142.575 225.277 145.473 227.957 148.38L232.107 152.622C233.523 154.005 234.957 155.37 236.36 156.773C234.844 155.497 233.358 154.184 231.854 152.889L227.544 148.783C224.766 145.948 222.063 143.029 219.578 139.924C217.104 136.815 214.769 133.58 212.785 130.128C210.823 126.683 209.019 123.066 208.18 119.175Z" fill="#37474F"/>
<g opacity="0.1">
<path d="M220.875 86.027C218.375 88.992 216.314 92.299 214.813 95.822C213.287 99.329 212.329 103.065 212.13 106.831C211.932 110.598 212.547 114.369 213.862 117.885C214.544 119.641 215.327 121.329 216.29 122.995C217.22 124.663 218.232 126.287 219.298 127.878C221.411 131.073 223.746 134.13 226.223 137.073C228.679 140.035 231.301 142.863 233.983 145.637C236.678 148.398 239.457 151.087 242.313 153.696C245.144 156.336 248.088 158.854 251.084 161.323C244.614 157.023 238.541 152.111 232.892 146.742C227.242 141.376 222.015 135.506 217.634 128.986C216.546 127.353 215.525 125.672 214.578 123.946C213.616 122.244 212.759 120.407 212.075 118.535C210.783 114.756 210.162 110.7 210.565 106.724C211.298 98.737 215.336 91.423 220.875 86.027Z" fill="white"/>
</g>
<path d="M146.934 256.668C146.012 254.524 148.845 192.347 150.177 189.823C150.4 189.382 158.31 189.248 171.183 189.333C172.079 189.339 230.56 169.947 230.56 169.947L250.976 210.49L170.417 229.377C170.417 229.377 157.535 251.126 155.778 253.749C154.027 256.351 147.846 258.813 146.934 256.668Z" fill="#FF7A7A"/>
<path opacity="0.3" d="M250.98 210.49L238.19 213.49L219.51 173.61C226.05 171.45 230.56 169.95 230.56 169.95L250.98 210.49Z" fill="white"/>
<path d="M271.989 57.571C282.678 80.465 297.079 101.967 304.742 102.996C315.05 104.381 338.247 96.263 349.898 90.935C353.321 89.37 340.601 62.973 336.939 64.642C332.514 66.66 309.787 77.462 309.302 77.523C308.264 77.653 286.279 58.636 281.137 53.966C272.55 46.167 267.245 47.41 271.989 57.571Z" fill="#AD6359"/>
<path d="M366.974 82.048C362.469 86.395 349.778 91.682 346.226 91.779C342.674 91.877 332.969 70.599 334.667 67.373C336.365 64.146 352.667 50.685 359.028 50.096C365.389 49.507 371.642 77.544 366.974 82.048Z" fill="#AD6359"/>
<path d="M349.426 52.967C348.575 56.173 352.84 55.34 352.84 55.34C352.84 55.34 346.989 58.018 347.39 61.663C347.786 65.174 352.903 63.987 353.271 63.907C352.963 64.052 347.651 66.653 348.431 70.274C349.245 74.037 354.177 71.962 354.495 71.827C354.247 72.055 351.015 75.121 352.233 77.737C354.329 82.231 362.809 74.618 366.806 75.003C366.806 75.003 366.928 81.851 366.973 82.049C366.973 82.049 375.189 74.971 375.407 69.552C375.522 66.695 372.881 66.024 372.881 66.024C372.881 66.024 375.782 64.035 375.258 61.165C374.985 59.692 372.386 58.819 372.386 58.819C372.386 58.819 374.643 57.129 374.017 54.605C373.524 52.589 370.994 52.027 370.994 52.027C370.994 52.027 372.408 49.399 371.235 47.503C368.88 43.673 351.253 46.103 349.426 52.967Z" fill="#AD6359"/>
<path d="M370.609 51.875C370.668 51.872 370.675 51.788 370.614 51.782C364.622 51.167 357.85 52.326 352.605 55.361C352.433 55.46 352.52 55.783 352.73 55.71C358.735 53.616 364.23 52.236 370.609 51.875Z" fill="#263238"/>
<path d="M372.47 58.77C372.539 58.767 372.534 58.651 372.46 58.644C366.282 58.043 358.691 59.559 353.057 63.769C352.864 63.914 352.835 64.237 353.07 64.088C357.029 61.572 366.726 59.066 372.47 58.77Z" fill="#263238"/>
<path d="M354.204 72.256C359.762 68.429 365.988 66.768 372.628 65.982C372.714 65.972 372.691 65.851 372.616 65.839C369.263 65.339 365.083 66.281 361.893 67.29C358.837 68.256 356.274 69.741 354.07 72.062C353.985 72.151 354.086 72.337 354.204 72.256Z" fill="#263238"/>
<path d="M352.84 55.34C351.765 55.965 350.738 56.671 349.807 57.473C348.894 58.275 348.028 59.219 347.682 60.311C347.515 60.851 347.522 61.416 347.75 61.911C347.986 62.412 348.337 62.881 348.783 63.192C349.667 63.836 350.933 63.889 351.983 63.631L354.624 62.981L352.369 64.51C351.385 65.177 350.439 66.02 349.731 66.966C349.021 67.908 348.564 69.036 348.79 70.081C349.005 71.178 349.78 71.96 350.88 72.035C351.963 72.154 353.204 71.815 354.256 71.343L357.196 70.025L354.859 72.223C354.226 72.819 353.624 73.536 353.161 74.282C352.704 75.031 352.364 75.863 352.407 76.651C352.445 77.423 352.907 78.183 353.596 78.453C354.316 78.748 355.254 78.643 356.13 78.456C357.916 78.053 359.639 77.262 361.386 76.563C362.259 76.206 363.135 75.846 364.029 75.528C364.918 75.229 365.855 74.904 366.807 75.002C365.856 75.004 364.985 75.419 364.124 75.771C363.266 76.152 362.426 76.575 361.583 76.998C359.897 77.844 358.19 78.677 356.315 79.212C355.379 79.444 354.354 79.663 353.276 79.304C352.166 78.926 351.481 77.807 351.42 76.713C351.353 75.598 351.779 74.605 352.277 73.749C352.798 72.887 353.406 72.136 354.134 71.428L354.737 72.307C353.498 72.874 352.213 73.278 350.757 73.164C350.041 73.104 349.273 72.805 348.722 72.25C348.166 71.696 347.86 71.006 347.719 70.288C347.434 68.795 348.099 67.382 348.909 66.343C349.744 65.276 350.732 64.424 351.853 63.687L352.239 64.566C350.893 64.849 349.439 64.691 348.312 63.815C347.76 63.378 347.376 62.798 347.117 62.164C346.851 61.511 346.884 60.751 347.118 60.12C347.609 58.842 348.616 57.975 349.602 57.215C350.609 56.465 351.701 55.843 352.84 55.34Z" fill="#263238"/>
<path d="M337.04 64.591C337.04 64.591 347.352 40.113 354.944 48.832C357.2 51.423 363.373 64.755 360.72 66.046C357.294 67.714 353.678 62.63 351.915 59.078C351.915 59.078 349.579 67.898 342.954 68.103C338.799 68.231 337.04 64.591 337.04 64.591Z" fill="#AD6359"/>
<path d="M354.268 48.147C355.309 49.015 356.096 50.146 356.838 51.274C357.58 52.41 358.211 53.614 358.792 54.838C359.926 57.306 360.973 59.78 361.678 62.456C361.845 63.13 361.986 63.823 361.96 64.597C361.946 64.98 361.872 65.407 361.671 65.796C361.574 65.992 361.469 66.152 361.276 66.351C361.099 66.515 360.915 66.647 360.721 66.734C359.95 67.123 359.104 67.107 358.359 66.927C357.617 66.72 356.965 66.356 356.376 65.937C355.206 65.082 354.308 63.991 353.532 62.853C352.741 61.719 352.102 60.509 351.495 59.289L352.371 59.189C352.066 60.215 351.663 61.15 351.186 62.072C350.71 62.988 350.148 63.86 349.495 64.661C348.836 65.457 348.064 66.162 347.206 66.728C346.352 67.301 345.391 67.703 344.401 67.909C345.354 67.57 346.239 67.083 347.014 66.463C347.793 65.846 348.447 65.094 349.025 64.298C349.603 63.499 350.092 62.637 350.497 61.737C350.899 60.843 351.24 59.891 351.458 58.968L351.736 57.793L352.335 58.868C352.98 60.026 353.62 61.19 354.404 62.238C355.172 63.289 356.011 64.309 357.033 65.027C358.016 65.735 359.29 66.196 360.218 65.731C361.069 65.394 360.918 63.925 360.638 62.697C360.357 61.424 359.936 60.155 359.515 58.889C359.09 57.621 358.649 56.359 358.145 55.124C357.096 52.683 356.04 50.18 354.268 48.147Z" fill="#263238"/>
<path d="M320.618 71.74L329.804 100.926C329.804 100.926 308.926 105.685 302.655 102.624C296.384 99.563 280.153 77.931 273.113 61.815C266.072 45.699 271.47 44.31 284.813 56.199C298.156 68.088 308.825 76.582 309.294 76.443C309.761 76.302 320.618 71.74 320.618 71.74Z" fill="#FF7A7A"/>
<path d="M316.085 75.369C316.056 75.277 315.904 75.32 315.922 75.414C317.539 83.94 319.772 92.377 322.306 100.673C322.334 100.765 322.488 100.722 322.469 100.628C320.76 92.124 318.712 83.639 316.085 75.369Z" fill="#263238"/>
<path opacity="0.1" d="M292.556 92.794C285.621 84.293 277.544 71.956 273.109 61.811C267.404 48.766 269.864 45.366 278.095 50.862L292.556 92.794Z" fill="black"/>
<path d="M272.214 89.587L268.817 100.859L256.468 105.553L223.019 82.014C223.019 82.014 241.312 50.026 261.269 44.153C271.251 41.215 278.054 45.963 279.825 53.265C280.274 55.113 283.979 72.829 281.282 80.587C278.888 87.423 272.214 89.587 272.214 89.587Z" fill="#FF7A7A"/>
<path d="M259.306 81.554C261.247 82.476 263.166 83.494 264.932 84.801C265.811 85.451 266.653 86.154 267.484 86.886C267.899 87.251 268.323 87.594 268.75 87.935C269.189 88.285 269.669 88.634 270.184 88.822C270.23 88.839 270.2 88.933 270.153 88.919C269.64 88.777 269.149 88.639 268.666 88.407C268.207 88.186 267.771 87.897 267.35 87.593C266.452 86.946 265.586 86.24 264.695 85.58C262.898 84.248 261.102 82.917 259.211 81.771C259.123 81.718 259.214 81.51 259.306 81.554Z" fill="#263238"/>
<path d="M253.524 82.38C255.263 82.68 257.003 83.095 258.672 83.653C259.512 83.934 260.323 84.278 261.129 84.653C261.514 84.832 261.895 85.021 262.273 85.215C262.689 85.429 263.074 85.721 263.493 85.927C263.537 85.948 263.507 86.045 263.462 86.024C263.06 85.846 262.622 85.758 262.208 85.613C261.792 85.467 261.378 85.316 260.963 85.169C260.131 84.875 259.296 84.594 258.467 84.29C256.808 83.681 255.15 83.097 253.466 82.565C253.373 82.536 253.434 82.364 253.524 82.38Z" fill="#263238"/>
<path opacity="0.1" d="M271.088 78.02L261.224 63.472L262.066 58.484L280.952 66.631V69.817L271.088 78.02Z" fill="black"/>
<path opacity="0.1" d="M271.088 76.441L262.819 64.245L263.525 60.063L279.357 66.893V69.564L271.088 76.441Z" fill="#3FC400"/>
<path d="M258.634 40.851C233.868 38.103 213.857 41.126 208.715 46.235C204.465 50.459 190.605 69.468 184.313 81.312C182.547 84.636 208.878 100.272 210.315 96.513C212.54 90.695 228.533 63.107 228.717 62.654C229.111 61.685 255.148 54.307 261.771 52.691C273.919 49.726 271.764 42.307 258.634 40.851Z" fill="#AD6359"/>
<path d="M188.495 126.952C185.449 126.283 185.163 123.067 185.163 123.067C185.163 123.067 182.843 123.97 180.64 123.037C178.118 121.969 178.687 117.545 178.687 117.545C178.687 117.545 176.149 117.973 173.922 116.753C171.61 115.487 171.548 110.942 171.548 110.942C171.548 110.942 168.965 110.042 167.796 107.607C165.797 103.444 171.561 98.172 173.922 94.36C176.282 90.548 184.559 81.259 186.349 79.421L210.947 94.36C210.947 94.36 205.225 114.467 201.813 118.555C198.939 122 191.914 127.703 188.495 126.952Z" fill="#AD6359"/>
<path d="M185.661 123.138C189.596 120.21 192.45 116.277 195.522 112.514C195.59 112.43 195.458 112.324 195.391 112.409C192.379 116.187 188.657 119.319 185.5 122.969C185.413 123.07 185.555 123.217 185.661 123.138Z" fill="#263238"/>
<path d="M179.057 117.663C179.927 116.974 180.567 115.999 181.22 115.113C181.923 114.159 182.608 113.193 183.279 112.216C184.622 110.26 185.921 108.274 187.16 106.251C187.215 106.162 187.092 106.055 187.029 106.146C185.687 108.093 184.316 110.019 182.893 111.907C182.181 112.852 181.461 113.791 180.735 114.725C180.06 115.594 179.274 116.454 178.805 117.459C178.735 117.607 178.926 117.767 179.057 117.663Z" fill="#263238"/>
<path d="M171.608 110.862C172.388 110.293 172.91 109.259 173.433 108.463C174.026 107.559 174.625 106.659 175.228 105.762C176.434 103.968 177.642 102.175 178.91 100.424C178.973 100.337 178.843 100.231 178.778 100.319C177.48 102.091 176.159 103.845 174.877 105.629C174.247 106.505 173.623 107.384 173.003 108.267C172.476 109.018 171.732 109.896 171.515 110.805C171.503 110.856 171.568 110.891 171.608 110.862Z" fill="#263238"/>
<path d="M218.366 83.615L191.976 66.598C191.976 66.598 203.668 46.748 209.763 43.349C215.858 39.951 240.338 38.425 257.789 40.607C275.526 42.825 275.441 49.917 258.061 54.077C240.681 58.237 229.321 62.514 229.168 62.979C229.015 63.443 218.366 83.615 218.366 83.615Z" fill="#FF7A7A"/>
<path d="M220.286 80.569C221.841 77.789 229.296 63.126 229.505 63.026C229.928 62.823 236.671 60.447 238.666 59.744C240.365 59.146 242.076 58.58 243.788 58.017C245.196 57.884 246.607 57.758 247.999 57.501C248.103 57.482 248.085 57.338 247.981 57.34C247.006 57.351 246.038 57.452 245.075 57.588C246.95 56.977 248.828 56.374 250.701 55.761C250.737 55.749 250.723 55.686 250.685 55.695C246.497 56.638 229.136 62.065 229.078 62.308C228.996 62.649 220.186 79.915 220.104 80.318C220.084 80.418 220.241 80.651 220.286 80.569Z" fill="#263238"/>
<path d="M219.238 76.032C219.323 76.078 219.403 75.942 219.324 75.886C212.238 70.876 204.771 66.358 197.185 62.152C197.101 62.105 197.02 62.243 197.099 62.298C204.236 67.227 211.603 71.908 219.238 76.032Z" fill="#263238"/>
<path d="M261.648 41.219C261.648 41.219 266.171 57.586 272.912 59.366C279.653 61.146 282.478 54.186 282.478 54.186C282.478 54.186 274.697 42.722 261.648 41.219Z" fill="#AD6359"/>
<path d="M269.533 44.886C269.391 45.942 271.626 54.001 276.139 55.479C277.61 55.958 280.583 48.048 280.583 48.048L280.936 47.514L285.871 40.039L278.616 30.23L277.539 28.887C277.539 28.887 276.324 31.021 274.837 33.694C274.767 33.818 274.697 33.941 274.625 34.074C274.537 34.223 274.452 34.363 274.376 34.506C274.149 34.902 273.919 35.308 273.698 35.717C273.529 36.027 273.362 36.329 273.196 36.661C273.021 36.991 272.858 37.314 272.682 37.643C271.026 40.927 269.6 44.439 269.533 44.886Z" fill="#AD6359"/>
<path d="M274.837 33.694C274.704 41.087 278.89 45.714 280.936 47.514L285.871 40.039L278.616 30.23L277.539 28.887C277.539 28.887 276.324 31.021 274.837 33.694Z" fill="#263238"/>
<path d="M301.845 26.075C303.212 41.736 293.986 44.323 290.608 44.614C287.542 44.878 277.069 45.388 274.091 29.952C271.113 14.516 277.963 8.929 284.943 7.954C291.924 6.98 300.478 10.414 301.845 26.075Z" fill="#AD6359"/>
<path d="M294.326 34.01C294.326 34.01 293.721 35.149 292.738 35.676C292.376 35.872 291.971 35.988 291.521 35.938C290.597 35.839 290.452 35.027 290.51 34.305C290.555 33.711 290.747 33.177 290.747 33.177C290.747 33.177 292.226 34.195 294.326 34.01Z" fill="#263238"/>
<path d="M292.737 35.676C292.375 35.872 291.97 35.988 291.52 35.938C290.596 35.839 290.451 35.027 290.509 34.305C291.476 34.259 292.516 34.762 292.737 35.676Z" fill="#FF9BBC"/>
<path d="M297.306 23.886C296.957 24.013 296.613 24.071 296.256 24.16C295.852 24.261 295.54 24.383 295.131 24.235C294.912 24.156 294.77 23.844 294.827 23.624C294.959 23.111 295.424 22.864 295.905 22.723C296.428 22.569 296.87 22.585 297.371 22.796C297.857 23.001 297.767 23.719 297.306 23.886Z" fill="#263238"/>
<path d="M286.473 24.559C286.827 24.447 287.135 24.284 287.473 24.137C287.855 23.971 288.177 23.878 288.412 23.512C288.537 23.316 288.46 22.982 288.281 22.842C287.864 22.515 287.345 22.603 286.877 22.783C286.369 22.98 286.028 23.261 285.758 23.734C285.498 24.191 286.007 24.707 286.473 24.559Z" fill="#263238"/>
<path d="M288.73 27.56C288.717 27.52 288.652 27.619 288.658 27.663C288.811 28.723 288.807 29.962 287.884 30.423C287.855 30.437 287.864 30.49 287.9 30.481C289.055 30.186 289.044 28.54 288.73 27.56Z" fill="#263238"/>
<path d="M287.656 26.555C285.931 26.616 286.179 30.062 287.778 30.006C289.351 29.95 289.102 26.504 287.656 26.555Z" fill="#263238"/>
<path d="M286.992 26.786C286.705 27.002 286.435 27.368 286.075 27.43C285.658 27.502 285.315 27.164 285.015 26.837C284.984 26.803 284.956 26.835 284.959 26.881C284.997 27.542 285.3 28.201 286.015 28.249C286.667 28.292 287.089 27.674 287.206 26.998C287.228 26.872 287.107 26.699 286.992 26.786Z" fill="#263238"/>
<path d="M295.296 26.606C295.301 26.565 295.383 26.651 295.384 26.695C295.419 27.765 295.639 28.985 296.628 29.278C296.659 29.287 296.659 29.34 296.623 29.338C295.434 29.248 295.158 27.625 295.296 26.606Z" fill="#263238"/>
<path d="M296.178 25.429C297.888 25.188 298.244 28.625 296.66 28.848C295.101 29.068 294.745 25.631 296.178 25.429Z" fill="#263238"/>
<path d="M296.918 25.58C297.209 25.734 297.512 26.037 297.838 26.025C298.216 26.011 298.456 25.61 298.659 25.228C298.68 25.189 298.71 25.215 298.716 25.26C298.802 25.915 298.656 26.622 298.038 26.813C297.474 26.988 296.993 26.468 296.769 25.83C296.727 25.713 296.801 25.519 296.918 25.58Z" fill="#263238"/>
<path d="M289.915 36.205C290.178 36.449 290.443 36.787 290.832 36.809C291.205 36.83 291.637 36.651 291.975 36.509C292.008 36.495 292.044 36.53 292.023 36.562C291.756 36.98 291.179 37.253 290.68 37.18C290.194 37.108 289.942 36.696 289.813 36.256C289.795 36.195 289.877 36.17 289.915 36.205Z" fill="#263238"/>
<path d="M294.373 31.762C294.373 31.762 294.727 33.337 294.79 34.088C294.795 34.158 294.616 34.207 294.363 34.243C294.351 34.248 294.345 34.253 294.334 34.246C293.025 34.565 291.65 34.219 290.752 33.203C290.694 33.134 290.783 33.048 290.855 33.09C291.907 33.734 293.017 33.83 294.196 33.75C294.231 33.537 293.5 31.074 293.618 31.055C294.026 30.985 294.859 31.197 295.357 31.298C294.715 27.997 293.548 24.825 292.958 21.528C292.939 21.41 293.107 21.36 293.15 21.463C294.608 24.7 295.43 28.483 296.181 31.875C296.279 32.299 294.685 31.865 294.373 31.762Z" fill="#263238"/>
<path d="M275.428 30.677C277.977 30.68 278.153 25.323 278.153 25.323C278.153 25.323 283.303 24.946 284.437 17.413C284.437 17.413 284.588 20.868 282.625 23.709C282.625 23.709 291.629 22.055 294.873 14.166C294.873 14.166 293.643 18.152 292.318 19.637C292.318 19.637 296.045 18.285 297.666 15.051C297.666 15.051 299.589 19.315 300.905 20.433C300.905 20.433 299.32 4.577 284.734 7.388C284.734 7.388 275.567 8.702 272.814 16.247C270.06 23.794 275.428 30.677 275.428 30.677Z" fill="#263238"/>
<path d="M277.197 30.728C277.197 30.728 274.003 25.664 271.721 26.78C269.439 27.896 271.678 35.124 274.243 36.22C276.808 37.316 277.869 34.962 277.869 34.962L277.197 30.728Z" fill="#AD6359"/>
<path d="M272.414 28.836C272.372 28.83 272.361 28.889 272.397 28.905C274.193 29.734 275.075 31.477 275.667 33.27C275.155 32.567 274.431 32.16 273.493 32.765C273.444 32.797 273.486 32.874 273.538 32.865C274.295 32.74 274.831 32.896 275.308 33.521C275.646 33.963 275.866 34.513 276.1 35.016C276.178 35.184 276.478 35.11 276.424 34.919C276.42 34.905 276.415 34.89 276.411 34.876C276.568 32.543 274.909 29.19 272.414 28.836Z" fill="#263238"/>
<path d="M270.912 42.582C270.368 40.727 267.92 44.22 269.271 46.571C271.274 50.053 275.332 54.378 276.315 54.514C277.298 54.65 280.963 51.047 281.441 50.227C281.919 49.406 281.27 47.362 280.936 47.514C280.602 47.666 277.375 51.573 276.961 51.723C276.548 51.874 272.08 46.567 270.912 42.582Z" fill="#455A64"/>
<path d="M132.209 271.025L137.949 272.086L139.231 278.137L140.514 272.086L146.254 271.022L140.539 269.625L139.231 263.91L137.924 269.625L132.209 271.025Z" fill="#FFC727"/>
<path d="M175.563 21.677L181.302 22.739L182.585 28.789L183.868 22.739L189.608 21.674L183.893 20.278L182.585 14.562L181.278 20.278L175.563 21.677Z" fill="#FFC727"/>
<path d="M340.538 214.442L346.278 215.503L347.561 221.554L348.844 215.503L354.584 214.439L348.868 213.042L347.561 207.327L346.254 213.042L340.538 214.442Z" fill="#FFC727"/>
<path d="M287.218 149.283L292.958 150.345L294.241 156.395L295.524 150.345L301.264 149.28L295.549 147.884L294.241 142.168L292.934 147.884L287.218 149.283Z" fill="#FFC727"/>
<path d="M48.087 149.283L51.296 149.876L52.012 153.258L52.729 149.876L55.938 149.281L52.743 148.5L52.012 145.306L51.282 148.5L48.087 149.283Z" fill="#FFC727"/>
<path d="M354.441 130.494L357.649 131.087L358.366 134.469L359.083 131.087L362.291 130.492L359.097 129.711L358.366 126.517L357.635 129.711L354.441 130.494Z" fill="#FFC727"/>
<path d="M133.623 38.074L136.832 38.667L137.548 42.049L138.265 38.667L141.474 38.072L138.279 37.292L137.548 34.097L136.818 37.292L133.623 38.074Z" fill="#FFC727"/>
<path d="M66.599 210.117L69.807 210.71L70.525 214.092L71.242 210.71L74.45 210.115L71.255 209.335L70.525 206.14L69.794 209.335L66.599 210.117Z" fill="#FFC727"/>
<path d="M11.709 77.94L14.917 78.533L15.634 81.915L16.351 78.533L19.559 77.938L16.365 77.158L15.634 73.963L14.903 77.158L11.709 77.94Z" fill="#FFC727"/>
<path d="M105.054 81.916L108.263 82.509L108.98 85.891L109.697 82.509L112.905 81.914L109.71 81.134L108.98 77.939L108.249 81.134L105.054 81.916Z" fill="#FFC727"/>
<path d="M270.845 13.493L274.053 14.086L274.77 17.468L275.487 14.086L278.696 13.491L275.501 12.711L274.77 9.516L274.04 12.711L270.845 13.493Z" fill="#FFC727"/>
<path d="M314.105 65.842L317.313 66.435L318.03 69.817L318.747 66.435L321.955 65.84L318.76 65.06L318.03 61.865L317.299 65.06L314.105 65.842Z" fill="#FFC727"/>
<path d="M264.92 235.58L268.128 236.173L268.845 239.555L269.562 236.173L272.77 235.578L269.576 234.798L268.845 231.603L268.114 234.798L264.92 235.58Z" fill="#FFC727"/>
<path d="M109.268 214.786C110.465 214.786 110.466 216.646 109.268 216.646C108.071 216.646 108.069 214.786 109.268 214.786Z" fill="#FFC727"/>
<path d="M111.605 98.98C112.802 98.98 112.804 100.84 111.605 100.84C110.408 100.839 110.406 98.98 111.605 98.98Z" fill="#FFC727"/>
<path d="M240.44 30.755C241.637 30.755 241.639 32.615 240.44 32.615C239.243 32.615 239.241 30.755 240.44 30.755Z" fill="#FFC727"/>
<path d="M288.805 129.563C290.002 129.563 290.003 131.423 288.805 131.423C287.608 131.423 287.606 129.563 288.805 129.563Z" fill="#FFC727"/>
<path d="M322.522 182.952C323.719 182.952 323.721 184.812 322.522 184.812C321.325 184.812 321.323 182.952 322.522 182.952Z" fill="#FFC727"/>
<path d="M355.772 172.733C356.619 172.733 356.62 174.049 355.772 174.049C354.925 174.048 354.924 172.733 355.772 172.733Z" fill="#FFC727"/>
<path d="M305.761 53.859C306.608 53.859 306.609 55.175 305.761 55.175C304.914 55.175 304.913 53.859 305.761 53.859Z" fill="#FFC727"/>
<path d="M205.932 125.299C206.778 125.299 206.78 126.615 205.932 126.615C205.085 126.615 205.084 125.299 205.932 125.299Z" fill="#FFC727"/>
<path d="M289.353 255.801C290.2 255.801 290.201 257.117 289.353 257.117C288.506 257.117 288.505 255.801 289.353 255.801Z" fill="#FFC727"/>
<path d="M185.377 243.563C187.672 243.563 187.675 247.129 185.377 247.129C183.082 247.13 183.078 243.563 185.377 243.563Z" fill="#FFC727"/>
<path d="M70.524 157.055C72.819 157.055 72.822 160.621 70.524 160.621C68.23 160.622 68.226 157.055 70.524 157.055Z" fill="#FFC727"/>
<path d="M163.73 9.096C166.025 9.096 166.029 12.662 163.73 12.662C161.435 12.662 161.431 9.096 163.73 9.096Z" fill="#FFC727"/>
<path d="M260.717 4.289C263.012 4.289 263.016 7.855 260.717 7.855C258.422 7.856 258.418 4.289 260.717 4.289Z" fill="#FFC727"/>
<path d="M231.892 256.91C234.187 256.91 234.19 260.476 231.892 260.476C229.598 260.476 229.594 256.91 231.892 256.91Z" fill="#FFC727"/>
</svg>
