<svg width="449" height="415" viewBox="0 0 449 415" fill="none" xmlns="http://www.w3.org/2000/svg">
<path d="M314.449 363.145L298.047 410.177H306.248L334.951 363.145H314.449Z" fill="#EBEBEB"/>
<path d="M408.531 363.145L424.932 410.177H416.732L388.029 363.145H408.531Z" fill="#EBEBEB"/>
<path d="M447.534 233.295H316.499V364.33H447.534V233.295Z" fill="#EBEBEB"/>
<path d="M406.48 233.295H275.445V364.33H406.48V233.295Z" fill="#F5F5F5"/>
<path d="M397.479 355.906H284.447V242.873H397.479V355.906ZM285.447 354.906H396.479V243.873H285.447V354.906Z" fill="#3FC400"/>
<path d="M285.599 278.466C304.131 279.006 322.748 278.523 341.289 278.529C359.845 278.535 378.426 278.806 396.979 278.494C397.317 278.488 397.317 277.975 396.979 277.969C378.426 277.657 359.845 277.928 341.289 277.934C322.748 277.94 304.131 277.457 285.599 277.997C285.298 278.006 285.297 278.457 285.599 278.466Z" fill="#3FC400"/>
<path d="M344.152 261.746C344.152 263.507 342.724 264.935 340.963 264.935C339.202 264.935 337.774 263.507 337.774 261.746C337.774 259.985 339.202 258.557 340.963 258.557C342.724 258.557 344.152 259.985 344.152 261.746Z" fill="#3FC400"/>
<path d="M298.209 312.928C298.209 314.689 296.781 316.117 295.02 316.117C293.259 316.117 291.831 314.689 291.831 312.928C291.831 311.167 293.259 309.739 295.02 309.739C296.781 309.738 298.209 311.166 298.209 312.928Z" fill="#3FC400"/>
<path d="M400.905 199.267L414.599 234.3L406.086 234.261L399.263 212.732L400.905 199.267Z" fill="#E0E0E0"/>
<path d="M354.142 166.897L349.435 234.022L398.033 235.037L403.502 166.897H354.142Z" fill="#3FC400"/>
<path d="M359.004 172.303L355.085 228.175L391.213 229.867L396.261 171.972L359.004 172.303Z" fill="#FAFAFA"/>
<path d="M366.932 180.204L364.001 219.477H383.93L387.446 180.204H366.932Z" fill="#3FC400"/>
<path d="M106.943 0.312012H21.124V89.771H106.943V0.312012Z" fill="#E0E0E0"/>
<path d="M101.131 0.312012H15.312V89.771H101.131V0.312012Z" fill="#EBEBEB"/>
<path d="M89.595 12.338H26.848V77.746H89.595V12.338Z" fill="#FAFAFA"/>
<path d="M26.848 78.18C26.89 78.23 26.287 78.906 25.28 79.958C24.273 81.01 22.861 82.438 21.282 83.993C19.703 85.549 18.255 86.938 17.19 87.927C16.125 88.916 15.443 89.505 15.398 89.459C15.352 89.413 15.952 88.74 16.959 87.688C17.966 86.636 19.381 85.205 20.964 83.646C22.547 82.087 23.997 80.696 25.062 79.707C26.127 78.717 26.807 78.131 26.848 78.18Z" fill="#E0E0E0"/>
<path d="M89.595 78.02C89.645 77.978 90.321 78.581 91.373 79.588C92.425 80.595 93.853 82.007 95.408 83.586C96.964 85.165 98.353 86.613 99.342 87.678C100.331 88.743 100.92 89.425 100.874 89.47C100.828 89.516 100.155 88.917 99.103 87.909C98.051 86.902 96.62 85.487 95.061 83.904C93.502 82.321 92.111 80.871 91.122 79.806C90.131 78.741 89.545 78.062 89.595 78.02Z" fill="#E0E0E0"/>
<path d="M89.423 12.512C89.381 12.462 89.984 11.786 90.991 10.734C91.998 9.68196 93.41 8.25396 94.989 6.69896C96.568 5.14296 98.016 3.75395 99.081 2.76595C100.146 1.77695 100.828 1.18796 100.873 1.23396C100.919 1.27996 100.32 1.95296 99.312 3.00496C98.305 4.05696 96.89 5.48796 95.307 7.04696C93.724 8.60596 92.274 9.99695 91.209 10.986C90.144 11.976 89.465 12.562 89.423 12.512Z" fill="#E0E0E0"/>
<path d="M26.677 12.6729C26.627 12.7149 25.951 12.1119 24.899 11.1049C23.847 10.0979 22.419 8.68595 20.864 7.10695C19.308 5.52795 17.919 4.07995 16.931 3.01495C15.942 1.94995 15.353 1.26795 15.399 1.22195C15.445 1.17595 16.118 1.77595 17.17 2.78295C18.222 3.78995 19.652 5.20495 21.212 6.78795C22.771 8.37095 24.162 9.82095 25.151 10.886C26.14 11.952 26.726 12.6309 26.677 12.6729Z" fill="#E0E0E0"/>
<path d="M89.423 77.745C89.423 77.745 89.415 77.635 89.411 77.429C89.408 77.211 89.404 76.91 89.399 76.518C89.393 75.704 89.385 74.525 89.375 72.991C89.362 69.899 89.344 65.392 89.321 59.665C89.296 48.212 89.26 31.887 89.217 12.338L89.422 12.543C71.157 12.552 49.705 12.562 26.853 12.573H26.847L27.082 12.337C27.07 36.345 27.058 58.805 27.049 77.745L26.847 77.543C45.606 77.586 61.224 77.621 72.166 77.647C77.638 77.67 81.938 77.687 84.888 77.7C86.351 77.71 87.475 77.718 88.252 77.723C88.625 77.728 88.912 77.732 89.12 77.734C89.318 77.738 89.423 77.745 89.423 77.745C89.423 77.745 89.333 77.753 89.144 77.756C88.941 77.759 88.661 77.763 88.298 77.767C87.531 77.772 86.419 77.78 84.973 77.79C82.033 77.802 77.749 77.82 72.296 77.843C61.322 77.868 45.66 77.904 26.848 77.946H26.646V77.743C26.636 58.803 26.625 36.343 26.613 12.335V12.099H26.849H26.855C49.706 12.11 71.159 12.12 89.424 12.129H89.63V12.334C89.587 31.937 89.551 48.308 89.526 59.793C89.503 65.501 89.485 69.991 89.472 73.073C89.462 74.59 89.454 75.756 89.448 76.561C89.443 76.943 89.439 77.237 89.436 77.45C89.431 77.651 89.423 77.745 89.423 77.745Z" fill="#E0E0E0"/>
<path d="M43.409 39.6631C43.409 39.6631 42.065 55.8571 59.603 55.8571C59.603 47.2151 52.473 40.3931 43.409 39.6631Z" fill="#3FC400"/>
<path d="M75.5 39.6751C75.5 39.6751 59.306 38.3311 59.306 55.8691C67.948 55.8691 74.77 48.7391 75.5 39.6751Z" fill="#3FC400"/>
<path d="M58.825 30.811C58.825 30.811 45.595 42.687 59.549 55.857C66.039 48.981 65.489 38.199 58.825 30.811Z" fill="#2A8200"/>
<path d="M448.449 412.162C448.449 412.306 351.15 412.422 231.153 412.422C111.114 412.422 13.8359 412.305 13.8359 412.162C13.8359 412.018 111.114 411.902 231.153 411.902C351.15 411.902 448.449 412.019 448.449 412.162Z" fill="#263238"/>
<path d="M79.498 205.007C65.231 183.185 67.312 152.009 84.351 132.276C89.6399 126.151 97.0309 120.827 105.094 121.518C113.35 122.225 120.001 129.305 122.513 137.201C125.025 145.097 124.154 153.651 122.678 161.805C120.612 173.221 117.152 184.902 109.234 193.38C101.315 201.857 89.679 210.569 79.498 205.007Z" fill="#FF7A7A"/>
<path d="M87.388 310.04C82.015 297.504 85.912 281.631 96.479 273.008C99.759 270.332 104.049 268.258 108.141 269.345C112.33 270.457 115.116 274.708 115.694 279.004C116.273 283.3 115.049 287.628 113.55 291.695C111.451 297.39 108.61 303.094 103.762 306.745C98.913 310.394 92.129 313.828 87.388 310.04Z" fill="#FF7A7A"/>
<path d="M52.983 302.549C56.906 283.203 46.71 261.856 29.197 252.748C23.761 249.921 17.071 248.247 11.593 250.991C5.98397 253.801 3.28897 260.644 3.73297 266.902C4.17797 273.16 7.18697 278.933 10.508 284.255C15.159 291.706 20.864 298.954 28.809 302.699C36.755 306.445 47.38 309.314 52.983 302.549Z" fill="#FF7A7A"/>
<path d="M55.455 250.237C62.286 228.194 50.704 201.468 31.401 188.821C25.41 184.896 17.824 182.164 11.13 184.713C4.27596 187.324 0.338963 194.968 0.122963 202.299C-0.0930371 209.63 2.72996 216.698 5.96996 223.277C10.506 232.489 16.293 241.588 25.096 246.876C33.899 252.164 48.145 257.448 55.455 250.237Z" fill="#FF7A7A"/>
<path d="M69.174 357.977C69.142 357.98 69.0659 357.612 68.9509 356.909C68.8309 356.106 68.6799 355.088 68.4929 353.834C68.3989 353.155 68.2959 352.414 68.1839 351.612C68.0269 350.798 67.859 349.924 67.679 348.991C67.3209 347.11 66.95 344.962 66.333 342.631C66.049 341.458 65.7529 340.231 65.444 338.956C65.073 337.692 64.6889 336.38 64.291 335.023C63.556 332.287 62.47 329.458 61.452 326.442C59.193 320.489 56.387 314.067 52.943 307.574C49.434 301.113 45.6329 295.223 41.92 290.05C39.9699 287.535 38.212 285.065 36.338 282.94C35.427 281.859 34.546 280.813 33.698 279.805C32.806 278.843 31.948 277.918 31.127 277.033C29.525 275.231 27.94 273.734 26.57 272.396C25.892 271.73 25.256 271.106 24.665 270.526C24.058 269.99 23.498 269.494 22.984 269.04C22.043 268.191 21.278 267.502 20.675 266.959C20.154 266.475 19.889 266.208 19.909 266.183C19.929 266.158 20.233 266.375 20.794 266.813C21.428 267.322 22.232 267.969 23.221 268.765C23.753 269.202 24.334 269.679 24.962 270.195C25.572 270.76 26.2269 271.367 26.9269 272.016C28.3369 273.324 29.962 274.795 31.603 276.577C32.443 277.454 33.32 278.37 34.2319 279.323C35.0979 280.325 35.998 281.365 36.928 282.44C38.839 284.557 40.63 287.022 42.611 289.539C46.385 294.715 50.233 300.63 53.764 307.132C57.2299 313.666 60.03 320.141 62.258 326.146C63.261 329.188 64.3249 332.043 65.0319 334.805C65.4139 336.174 65.784 337.499 66.1399 338.774C66.43 340.061 66.708 341.298 66.9749 342.483C67.5529 344.836 67.881 347.004 68.191 348.901C68.345 349.843 68.488 350.725 68.622 351.545C68.705 352.354 68.7809 353.102 68.8509 353.787C68.9669 355.052 69.061 356.08 69.136 356.89C69.193 357.6 69.206 357.974 69.174 357.977Z" fill="#263238"/>
<path d="M68.67 361.938C68.654 361.936 68.655 361.787 68.671 361.498C68.696 361.155 68.727 360.735 68.765 360.22C68.875 359.024 69.026 357.389 69.217 355.322C69.322 354.252 69.439 353.073 69.566 351.787C69.664 350.493 69.699 349.081 69.778 347.568C69.891 344.539 70.18 341.096 70.074 337.28C70.065 335.371 70.055 333.374 70.045 331.294C70.024 329.213 69.827 327.053 69.722 324.815C69.572 320.33 68.962 315.575 68.423 310.565C67.054 300.58 64.916 289.684 61.661 278.512C58.298 267.367 54.151 257.064 49.855 247.946C47.575 243.451 45.494 239.131 43.175 235.29C42.043 233.355 41.031 231.437 39.914 229.681C38.789 227.932 37.708 226.252 36.675 224.647C34.684 221.389 32.564 218.661 30.819 216.183C29.928 214.958 29.129 213.793 28.341 212.761C27.534 211.753 26.794 210.827 26.122 209.988C24.836 208.36 23.819 207.072 23.074 206.129C22.762 205.718 22.507 205.383 22.299 205.109C22.128 204.876 22.046 204.751 22.059 204.741C22.071 204.73 22.177 204.834 22.372 205.047C22.599 205.305 22.877 205.62 23.218 206.007C23.997 206.924 25.061 208.177 26.406 209.76C27.098 210.586 27.862 211.496 28.694 212.488C29.504 213.506 30.326 214.657 31.239 215.871C33.029 218.325 35.193 221.036 37.226 224.281C38.279 225.881 39.38 227.557 40.527 229.3C41.664 231.053 42.696 232.968 43.847 234.902C46.204 238.742 48.32 243.065 50.63 247.57C54.988 256.706 59.179 267.049 62.557 278.245C65.827 289.469 67.95 300.422 69.277 310.455C69.795 315.49 70.379 320.267 70.496 324.772C70.585 327.02 70.764 329.189 70.767 331.278C70.756 333.365 70.746 335.37 70.736 337.285C70.8 341.114 70.464 344.566 70.301 347.6C70.197 349.116 70.136 350.529 70.011 351.825C69.854 353.11 69.711 354.29 69.58 355.36C69.316 357.421 69.106 359.051 68.953 360.245C68.878 360.755 68.817 361.171 68.767 361.511C68.718 361.795 68.686 361.94 68.67 361.938Z" fill="#263238"/>
<path d="M105.812 147.869C105.826 147.877 105.764 148.015 105.63 148.276C105.465 148.583 105.263 148.959 105.015 149.421C104.42 150.483 103.606 151.936 102.576 153.774C102.053 154.722 101.424 155.749 100.819 156.919C100.23 158.103 99.5929 159.384 98.9099 160.758C98.2209 162.137 97.4869 163.607 96.7099 165.164C95.9669 166.741 95.2599 168.445 94.4729 170.212C93.7089 171.99 92.8509 173.828 92.0609 175.786C91.3009 177.759 90.5099 179.809 89.6929 181.931C89.2839 182.993 88.8689 184.073 88.4469 185.17C88.0699 186.284 87.6869 187.416 87.2989 188.564C86.5249 190.862 85.7279 193.226 84.9109 195.649C81.8869 205.428 79.0219 216.318 76.6019 227.881C74.2599 239.466 72.6149 250.609 71.4019 260.776C70.3619 270.961 69.5919 280.157 69.3819 287.901C69.1859 291.77 69.1459 295.272 69.1329 298.35C69.0829 301.427 69.0719 304.077 69.1439 306.243C69.1739 308.35 69.1969 310.016 69.2139 311.233C69.2119 311.757 69.2099 312.184 69.2089 312.532C69.2029 312.825 69.1909 312.976 69.1749 312.976C69.1589 312.977 69.1379 312.828 69.1129 312.536C69.0899 312.189 69.0609 311.763 69.0249 311.24C68.9649 310.023 68.8829 308.357 68.7799 306.251C68.6519 304.084 68.6099 301.431 68.6099 298.349C68.5729 295.267 68.5669 291.757 68.7209 287.879C68.8469 280.117 69.5489 270.896 70.5449 260.682C71.7139 250.486 73.3369 239.31 75.6859 227.693C78.1119 216.098 81.0119 205.182 84.0899 195.388C84.9219 192.961 85.7339 190.594 86.5229 188.292C86.9199 187.143 87.3109 186.011 87.6959 184.896C88.1269 183.798 88.5509 182.718 88.9679 181.655C89.8059 179.533 90.6149 177.483 91.3939 175.51C92.2039 173.552 93.0839 171.716 93.8689 169.941C94.6779 168.177 95.4069 166.477 96.1739 164.906C96.9759 163.356 97.7349 161.892 98.4449 160.519C99.1539 159.155 99.8159 157.883 100.427 156.706C101.057 155.546 101.712 154.529 102.26 153.593C103.356 151.79 104.222 150.363 104.854 149.322C105.134 148.879 105.362 148.518 105.548 148.224C105.709 147.982 105.798 147.861 105.812 147.869Z" fill="#263238"/>
<path d="M100.964 281.769C101.017 281.805 100.474 282.753 99.447 284.432C98.404 286.1 96.971 288.563 95.292 291.649C93.598 294.729 91.756 298.489 89.887 302.739C88.064 307.009 86.242 311.781 84.643 316.896C83.078 322.023 81.89 326.992 80.987 331.547C80.132 336.111 79.533 340.256 79.194 343.754C78.839 347.249 78.633 350.091 78.554 352.057C78.455 354.023 78.369 355.111 78.304 355.111C78.24 355.111 78.202 354.021 78.19 352.047C78.158 350.073 78.264 347.215 78.536 343.694C78.792 340.17 79.327 335.992 80.141 331.389C81.004 326.795 82.174 321.783 83.751 316.621C85.361 311.471 87.222 306.673 89.1 302.394C91.024 298.135 92.94 294.383 94.716 291.329C96.477 288.268 98.002 285.848 99.142 284.236C100.265 282.611 100.911 281.733 100.964 281.769Z" fill="#263238"/>
<path d="M41.153 348.154H103.824L96.241 412.162H48.959L41.153 348.154Z" fill="#455A64"/>
<path d="M43.441 405.254L48.764 412.162H96.241L101.716 405.474L43.441 405.254Z" fill="#263238"/>
<path d="M101.382 366.98C101.382 367.238 88.377 367.447 72.337 367.447C56.292 367.447 43.29 367.238 43.29 366.98C43.29 366.722 56.293 366.513 72.337 366.513C88.376 366.513 101.382 366.722 101.382 366.98Z" fill="#FAFAFA"/>
<path d="M101.382 371.241C101.382 371.499 88.377 371.708 72.337 371.708C56.292 371.708 43.29 371.499 43.29 371.241C43.29 370.983 56.293 370.774 72.337 370.774C88.376 370.774 101.382 370.983 101.382 371.241Z" fill="#FAFAFA"/>
<path d="M100.6 375.367C100.6 375.625 88.05 375.834 72.572 375.834C57.089 375.834 44.542 375.625 44.542 375.367C44.542 375.109 57.089 374.9 72.572 374.9C88.05 374.9 100.6 375.109 100.6 375.367Z" fill="#FAFAFA"/>
<path d="M277.776 126.333C275.147 132.877 275.228 146.415 279.598 151.95C281.883 154.843 284.983 157.145 286.606 160.456C288.733 164.796 287.825 170.201 285.16 174.233C282.495 178.265 278.31 181.077 273.903 183.062C268.99 185.275 262.983 186.497 258.4 183.663C254.9 181.5 253.047 177.452 251.926 173.494C248.788 162.407 249.926 150.459 253.188 139.407C256.45 128.356 261.747 118.032 267.013 107.783" fill="#263238"/>
<path d="M292.361 218.164L315.802 203.853C315.802 203.853 298.036 169.556 295.322 168.322C292.608 167.088 256.712 161.786 256.712 161.786C245.781 178.968 232.1 174.732 218.313 163.27C217.079 163.517 195.383 168.464 189.708 169.204C184.033 169.944 167.756 195.957 167.756 195.957L186.283 228.352L187.681 261.915C187.681 261.915 188.694 285.782 184.775 298.1L282.985 301.286C282.985 301.286 281.508 294.858 280.719 285.781C280.356 281.614 279.217 277.451 280.071 272.094C282.783 255.069 292.361 218.164 292.361 218.164Z" fill="#FF7A7A"/>
<path d="M179.223 179.338C180.695 184.282 193.243 191.596 197.617 188.862C199.007 187.993 200.206 186.69 201.816 186.376C203.836 185.983 205.751 187.263 207.705 187.91C212.277 189.423 218.155 187.732 221.454 191.24C223.076 192.965 224.112 195.909 226.479 195.843C227.333 195.819 228.107 195.358 228.936 195.154C231.591 194.501 234.164 196.525 236.891 196.717C238.316 196.817 239.722 196.411 241.092 196.009C247.623 194.094 254.154 192.179 260.686 190.264C262.11 189.846 263.704 189.286 264.3 187.926C261.978 188.67 259.392 188.561 257.141 187.625C255.856 187.09 254.663 186.293 253.299 186.015C249.838 185.309 246.691 188.063 243.252 188.87C239.632 189.72 235.898 188.364 232.427 187.03C226.505 184.754 220.582 182.478 214.66 180.201C209.762 178.318 204.742 176.363 200.845 172.849C199.61 171.736 194.962 174.078 193.507 173.273C192.052 172.469 188.693 169.54 188.693 169.54C188.386 169.319 185.678 171.751 184.502 173.03C183.237 174.407 179.223 179.338 179.223 179.338Z" fill="#FAFAFA"/>
<path d="M187.68 261.914C192.035 260.066 199.517 257.173 204.167 256.297C207.606 255.65 211.14 255.277 214.602 255.781C216.333 256.033 218.12 256.499 219.797 256.003C221.384 255.534 222.606 254.277 224.091 253.546C228.34 251.455 233.424 254.063 238.119 253.447C239.279 253.295 240.478 252.899 241.224 251.998C241.97 251.097 242.059 249.59 241.164 248.836C240.652 248.404 239.948 248.295 239.281 248.234C237.046 248.03 234.795 248.173 232.555 248.317C231.352 248.394 230.149 248.471 228.946 248.549C227.445 248.645 225.912 248.739 224.46 248.349C223.013 247.961 221.736 247.117 220.364 246.513C215.549 244.391 210.014 245.339 204.804 246.074C202.205 246.44 199.534 246.741 196.978 246.147C196.093 245.942 195.211 245.629 194.305 245.686C192.778 245.783 191.491 246.906 189.982 247.16C188.473 247.414 188.378 244.515 186.942 244.214L187.68 261.914Z" fill="#FAFAFA"/>
<path d="M283.31 216.942C282.748 217.243 282.193 217.602 281.562 217.69C278.73 218.083 276.994 213.098 274.283 214.007C273.227 214.361 272.552 215.571 271.445 215.697C270.208 215.838 269.307 214.577 268.169 214.071C266.137 213.167 263.905 214.79 261.689 214.966C259.189 215.164 256.265 213.603 254.401 215.279C253.672 215.934 253.251 217.018 252.305 217.275C251.409 217.519 250.537 216.886 249.647 216.621C246.935 215.813 244.436 218.429 241.647 218.91C238.473 219.458 234.68 217.312 232.262 219.44C231.405 220.194 230.877 221.414 229.78 221.729C228.759 222.023 227.705 221.386 226.643 221.383C224.204 221.377 221.96 224.595 219.905 223.281C220.128 224.445 221.343 225.186 222.519 225.331C223.695 225.475 224.873 225.176 226.049 225.031C232.961 224.181 239.978 228.677 246.681 226.785C248.525 226.264 250.258 225.27 252.169 225.132C255.746 224.873 258.989 227.649 262.572 227.516C265.363 227.413 267.954 225.544 270.729 225.86C273.586 226.185 275.653 228.687 278.25 229.923C281.362 231.403 285.005 230.972 288.42 230.508L289.398 230.276C290.917 225.827 292.264 221.333 292.831 216.689C289.85 215.289 286.211 215.386 283.31 216.942Z" fill="#FAFAFA"/>
<path d="M275.265 276.789C273.904 276.789 272.685 277.575 271.534 278.302C270.383 279.029 269.101 279.751 267.748 279.604C265.293 279.336 263.088 276.319 260.94 277.538C260.349 277.874 259.962 278.474 259.435 278.903C257.931 280.127 255.542 279.787 254.112 281.097C253.374 281.773 252.97 282.832 252.063 283.256C250.352 284.056 248.729 282.081 247.006 281.307C244.303 280.094 241.236 281.973 238.274 281.918C236.771 281.89 235.186 281.369 233.818 281.991C233.079 282.327 232.519 282.954 231.844 283.406C229.584 284.919 226.542 284.216 224.015 283.212C221.487 282.208 218.842 280.927 216.175 281.459C215.434 281.607 214.592 282.073 214.607 282.829C214.613 283.122 214.754 283.394 214.907 283.644C216.495 286.245 219.516 287.585 222.444 288.43C225.653 289.356 229.042 289.903 231.898 291.636C233.709 292.735 235.613 294.361 237.656 293.802C239.267 293.361 240.26 291.679 241.818 291.077C244.021 290.227 246.631 291.77 248.811 290.862C249.54 290.558 250.147 290.001 250.89 289.731C252.818 289.029 254.97 290.438 256.972 289.984C257.689 289.821 258.361 289.422 259.097 289.426C261.002 289.435 262.242 292.055 264.13 291.804C265.298 291.649 266.083 290.419 267.242 290.205C268.769 289.924 270.504 291.468 271.739 290.528C272.019 290.315 272.248 289.981 272.598 289.947C273.088 289.899 273.39 290.442 273.686 290.835C275.029 292.618 279.152 291.467 281.232 290.659L279.878 278.699C279.9 277.135 276.626 276.789 275.265 276.789Z" fill="#FAFAFA"/>
<g opacity="0.3">
<path d="M191.01 179.76C189.15 185.642 188.416 192.079 190.273 197.962C191.132 200.685 192.517 203.206 193.703 205.804C197.746 214.659 199.485 224.553 198.705 234.256C198.678 234.588 198.654 234.945 198.828 235.23C199.223 235.879 200.208 235.642 200.899 235.327C202.378 234.652 203.856 233.977 205.334 233.302C207.249 234.865 207.535 237.956 209.661 239.216C211.91 240.549 214.735 239.06 216.845 237.518C221.497 234.117 225.911 230.149 228.607 225.056C230.458 221.559 231.425 217.674 232.374 213.833C233.212 210.446 234.05 207.053 234.574 203.603C236.627 190.071 233.596 175.829 226.211 164.306" fill="black"/>
</g>
<path d="M284.909 185.03C284.926 185.024 285 185.204 285.125 185.552C285.263 185.956 285.436 186.462 285.648 187.08C286.103 188.484 286.724 190.397 287.481 192.731C288.244 195.144 289.142 197.988 290.136 201.134C291.093 204.303 292.161 207.819 292.659 211.649C293.138 215.485 292.827 219.201 292.13 222.456C291.462 225.726 290.479 228.567 289.615 230.923C288.73 233.274 287.931 235.142 287.369 236.428C287.101 237.024 286.881 237.512 286.706 237.901C286.549 238.235 286.458 238.408 286.441 238.401C286.424 238.394 286.483 238.208 286.609 237.861C286.76 237.462 286.95 236.962 287.181 236.351C287.685 235.043 288.43 233.156 289.268 230.798C290.084 228.435 291.025 225.6 291.659 222.362C292.323 219.135 292.612 215.485 292.142 211.716C291.653 207.947 290.608 204.447 289.675 201.271C288.722 198.115 287.86 195.263 287.129 192.842C286.438 190.489 285.871 188.559 285.455 187.144C285.281 186.513 285.139 185.998 285.025 185.586C284.932 185.226 284.891 185.035 284.909 185.03Z" fill="#263238"/>
<g opacity="0.3">
<path d="M293.56 214.603C295.12 209.861 294.649 204.627 293.074 199.891C291.499 195.154 288.88 190.839 286.122 186.678C287.497 196.143 291.833 205.042 292.69 214.568" fill="black"/>
</g>
<g opacity="0.3">
<path d="M213.719 275.185C217.784 269.465 223.708 265.237 230.131 262.41C236.554 259.583 243.484 258.083 250.429 257.076C253.182 256.677 256.172 256.395 258.579 257.79C260.985 259.185 262.13 262.951 260.034 264.779C258.978 265.7 257.478 265.86 256.081 265.961C246.459 266.658 236.296 266.694 227.981 271.585C224.693 273.519 221.768 276.181 218.137 277.347C216.489 277.876 214.048 277.579 213.884 275.857" fill="black"/>
</g>
<path d="M262.765 255.788C262.764 255.806 262.563 255.822 262.182 255.837C261.744 255.847 261.193 255.86 260.517 255.875C260.149 255.879 259.749 255.884 259.315 255.89C258.872 255.919 258.396 255.951 257.888 255.984C256.865 256.064 255.697 256.099 254.419 256.292C253.777 256.372 253.107 256.456 252.41 256.543C251.713 256.641 250.996 256.794 250.249 256.923C248.749 257.156 247.181 257.574 245.521 257.961C242.229 258.849 238.667 260.04 235.046 261.587C231.431 263.153 228.12 264.931 225.178 266.659C223.724 267.553 222.334 268.39 221.086 269.256C219.811 270.082 218.667 270.915 217.622 271.674C216.561 272.413 215.656 273.153 214.838 273.774C214.017 274.391 213.332 274.951 212.776 275.413C212.248 275.837 211.818 276.182 211.477 276.457C211.176 276.691 211.012 276.808 211 276.794C210.988 276.781 211.129 276.638 211.408 276.377C211.733 276.083 212.143 275.712 212.645 275.258C213.183 274.771 213.85 274.188 214.656 273.547C215.459 272.902 216.351 272.139 217.402 271.378C218.437 270.597 219.574 269.744 220.844 268.898C222.088 268.013 223.476 267.158 224.931 266.248C227.875 264.487 231.201 262.685 234.84 261.109C238.485 259.551 242.079 258.365 245.401 257.496C247.077 257.119 248.659 256.714 250.173 256.498C250.927 256.377 251.651 256.234 252.354 256.145C253.057 256.069 253.733 255.996 254.38 255.926C255.668 255.756 256.845 255.745 257.874 255.693C258.389 255.674 258.868 255.645 259.309 255.641C259.744 255.652 260.147 255.662 260.516 255.672C261.194 255.696 261.746 255.716 262.185 255.732C262.566 255.751 262.766 255.77 262.765 255.788Z" fill="#263238"/>
<g opacity="0.3">
<path d="M181.645 202.533C179.099 206.058 178.807 210.822 179.856 215.042C180.905 219.262 183.144 223.074 185.355 226.819C185.656 223.08 185.366 219.293 184.497 215.644C183.453 211.26 181.572 206.996 181.579 202.489" fill="black"/>
</g>
<path d="M252.884 67.3241C252.938 64.1341 256.583 61.8731 259.729 62.4051C262.875 62.9371 265.336 65.4981 266.81 68.3271C268.284 71.1571 268.989 74.3131 270.099 77.3041C273.086 85.3541 278.995 92.1941 281.141 100.507C282.648 106.345 282.175 112.566 280.598 118.386C279.02 124.206 276.376 129.678 273.53 134.995C271.807 138.213 269.994 141.415 268.876 144.89C267.758 148.365 267.376 152.193 268.552 155.649C268.711 156.116 268.897 156.636 268.691 157.085C268.377 157.772 267.41 157.799 266.679 157.611C263.008 156.67 260.467 153.06 259.836 149.323C259.206 145.586 260.168 141.759 261.506 138.213C262.844 134.667 264.568 131.256 265.557 127.598C267.723 119.589 266.218 111.122 265.843 102.834C265.631 98.1641 265.781 93.4431 264.851 88.8621C263.922 84.2801 261.743 79.7251 257.869 77.1071C256.361 76.0881 254.62 75.3741 253.349 74.0711C252.078 72.7681 251.439 70.5561 252.588 69.1451" fill="#263238"/>
<path d="M256.167 160.066C256.167 160.066 256.06 155.229 256.065 155.282C256.065 155.282 270.388 152.555 272.924 133.723C274.185 124.358 273.354 109.071 272.271 96.5851C271.296 85.3471 263.512 71.7131 252.325 73.1651L217.515 82.8441C214.117 83.2851 212.998 86.1921 213.146 89.6161L212.901 91.2271L215.803 144.918L216.796 153.883C217.308 164.085 226.179 174.871 237.124 175.161C247.682 175.717 256.312 171.369 256.167 160.066Z" fill="#AD6359"/>
<path d="M265.866 108.701C265.941 109.971 264.927 111.081 263.603 111.183C262.281 111.285 261.147 110.342 261.072 109.072C260.998 107.803 262.01 106.691 263.332 106.588C264.656 106.486 265.791 107.431 265.866 108.701Z" fill="#263238"/>
<path d="M241.798 111.121C241.873 112.391 240.859 113.501 239.535 113.603C238.213 113.705 237.079 112.762 237.004 111.492C236.93 110.223 237.942 109.111 239.264 109.008C240.588 108.906 241.723 109.851 241.798 111.121Z" fill="#263238"/>
<path d="M269.044 105.136C268.753 105.457 266.898 104.151 264.309 104.219C261.722 104.25 259.853 105.627 259.565 105.316C259.423 105.179 259.715 104.606 260.527 103.983C261.327 103.364 262.703 102.748 264.316 102.717C265.929 102.688 267.299 103.25 268.094 103.839C268.905 104.431 269.188 104.992 269.044 105.136Z" fill="#263238"/>
<path d="M243.849 107.983C243.557 108.304 241.701 106.998 239.113 107.066C236.526 107.097 234.657 108.474 234.369 108.163C234.228 108.026 234.515 107.453 235.332 106.831C236.132 106.211 237.507 105.596 239.12 105.564C240.733 105.535 242.103 106.097 242.898 106.686C243.707 107.278 243.992 107.839 243.849 107.983Z" fill="#263238"/>
<path d="M253.551 124.685C253.535 124.538 255.138 124.222 257.739 123.827C258.399 123.743 259.021 123.597 259.122 123.144C259.267 122.662 258.973 121.956 258.635 121.195C257.975 119.61 257.285 117.948 256.561 116.207C253.677 109.103 251.571 103.256 251.859 103.142C252.146 103.028 254.717 108.694 257.602 115.797C258.297 117.549 258.962 119.219 259.595 120.817C259.863 121.563 260.314 122.404 259.999 123.404C259.833 123.902 259.356 124.272 258.935 124.397C258.514 124.536 258.142 124.552 257.816 124.58C255.193 124.782 253.564 124.833 253.551 124.685Z" fill="#263238"/>
<path d="M256.064 155.281C256.064 155.281 243.462 156.393 230.78 149.173C230.78 149.173 237.431 162.265 256.167 160.066L256.064 155.281Z" fill="#D9897F"/>
<path d="M243.755 101.431C243.457 102.118 240.896 101.625 237.841 101.803C234.782 101.92 232.281 102.656 231.918 102C231.757 101.687 232.224 101.053 233.255 100.434C234.277 99.8151 235.881 99.2671 237.715 99.1761C239.548 99.0901 241.197 99.4821 242.274 100C243.359 100.518 243.885 101.105 243.755 101.431Z" fill="#263238"/>
<path d="M268.653 97.1541C268.128 97.7551 266.003 97.1941 263.465 97.2261C260.926 97.1821 258.788 97.7321 258.279 97.1291C258.055 96.8351 258.38 96.2381 259.306 95.6601C260.218 95.0831 261.755 94.5931 263.499 94.5971C265.243 94.6031 266.767 95.1001 267.664 95.6811C268.575 96.2621 268.883 96.8611 268.653 97.1541Z" fill="#263238"/>
<path d="M258.733 132.627C258.011 131.614 256.747 131.092 255.505 131.006C254.34 130.925 252.745 131.685 251.791 132.788C251.769 132.809 251.75 132.83 251.728 132.852C251.687 132.901 251.629 132.94 251.591 132.991L251.644 132.967C251.298 133.358 251.047 133.846 251.008 134.365C250.919 135.535 251.613 136.659 252.549 137.366C254.037 138.49 256.254 138.655 257.771 137.571C259.289 136.488 259.815 134.146 258.733 132.627Z" fill="#D9897F"/>
<path d="M250.221 130.397C250.451 130.319 250.833 131.002 251.754 131.846C252.654 132.689 254.21 133.671 256.31 134.031C258.415 134.384 260.534 134.024 261.98 133.578C263.444 133.139 264.312 132.667 264.45 132.807C264.572 132.912 263.905 133.652 262.347 134.373C260.826 135.088 258.327 135.689 255.789 135.263C253.256 134.829 251.563 133.519 250.809 132.417C250.03 131.301 250.032 130.448 250.221 130.397Z" fill="#263238"/>
<path d="M256.6 73.465C256.259 75.333 257.262 77.226 258.639 78.533C260.016 79.84 261.743 80.703 263.353 81.708C268.354 84.831 270.82 91.646 273.164 97.056C277.281 89.214 270.945 79.042 265.713 72.914C264.769 71.809 263.737 70.738 262.446 70.07C261.156 69.401 259.558 69.187 258.25 69.819" fill="#263238"/>
<path d="M273.173 136.078C273.156 136.071 273.232 135.832 273.392 135.385C273.573 134.891 273.81 134.244 274.106 133.436C274.68 131.728 275.524 129.259 276.27 126.126C277.787 119.893 278.903 110.926 277.639 101.173C277.015 96.3121 275.974 91.7141 274.401 87.7771C272.828 83.8411 270.586 80.6451 268.147 78.5721C265.735 76.4541 263.279 75.4261 261.563 74.9551C259.828 74.4961 258.816 74.5011 258.822 74.4401C258.823 74.4221 259.072 74.4241 259.549 74.4441C260.025 74.4731 260.726 74.5571 261.613 74.7581C263.369 75.1751 265.897 76.1681 268.386 78.2911C270.904 80.3681 273.227 83.6141 274.844 87.5951C276.464 91.5811 277.524 96.2071 278.154 101.106C279.429 110.937 278.243 119.97 276.626 126.213C275.83 129.351 274.929 131.814 274.295 133.505C273.959 134.344 273.676 134.987 273.488 135.423C273.298 135.859 273.19 136.085 273.173 136.078Z" fill="#455A64"/>
<path d="M274.861 149.577C274.852 149.58 274.822 149.506 274.77 149.357C274.711 149.178 274.64 148.96 274.553 148.694C274.389 148.104 274.188 147.214 274.124 146.046C273.947 143.716 274.526 140.269 276.371 136.515C278.143 132.705 281.377 128.881 284.469 124.387C285.998 122.13 287.464 119.642 288.392 116.836C289.31 114.032 289.697 110.941 289.452 107.82C289.209 104.697 288.341 101.705 286.984 99.085C285.623 96.458 283.831 94.197 282.012 92.163C278.345 88.116 274.667 84.745 272.264 81.316C269.795 77.945 268.518 74.728 268.1 72.433C267.666 70.131 267.867 68.833 267.867 68.833C267.941 68.829 267.808 70.132 268.298 72.392C268.773 74.646 270.081 77.791 272.561 81.1C274.976 84.466 278.653 87.784 282.369 91.844C284.211 93.884 286.04 96.17 287.437 98.851C288.832 101.529 289.723 104.589 289.971 107.781C290.222 110.972 289.823 114.131 288.877 116.998C287.919 119.871 286.417 122.392 284.866 124.659C281.724 129.174 278.49 132.94 276.701 136.679C274.838 140.367 274.214 143.74 274.326 146.039C274.4 148.35 274.944 149.559 274.861 149.577Z" fill="#263238"/>
<path d="M253.582 63.633C250.371 61.355 246.234 60.843 242.297 60.899C231.697 61.051 220.939 65.103 213.847 72.981C207.874 79.615 199.043 92.395 197.371 101.164C193.3 122.513 206.794 128.495 195.802 161.821C193.821 167.827 191.321 173.695 190.102 179.901C189.672 182.09 189.446 184.364 189.489 186.616C188.201 190.52 188.99 195.024 190.581 198.905C192.448 203.46 195.303 207.565 197.091 212.152C198.88 216.739 202.817 224.272 200.192 228.436C203.9 227.445 204.033 223.574 206.972 221.105C207.837 224.398 207.809 227.921 206.891 231.2C211.46 230.897 215.913 229.046 219.351 226.02C226.214 219.979 228.371 210.274 229.421 201.192C231.717 181.335 229.473 162.303 224.211 143.019L224.135 143.113C220.309 130.782 213.062 119.396 219.571 116.681C230.905 111.953 220.554 106.969 224.87 95.05C226.218 91.329 227.722 87.39 230.898 85.028C234.68 82.215 239.794 82.357 244.501 82.097C249.207 81.837 254.552 80.604 256.762 76.441L257.048 73.946C258.711 70.376 256.793 65.911 253.582 63.633Z" fill="#263238"/>
<path d="M202.438 142.557C202.409 142.524 202.824 142.358 203.266 141.717C203.717 141.087 204.026 139.928 203.9 138.454C203.584 135.5 202.09 131.417 200.143 126.457C199.21 123.959 198.16 121.2 197.604 118.079C197.031 114.987 197.048 111.452 198.334 108.093C199.579 104.745 201.907 101.588 205.133 99.384C208.324 97.079 212.68 96.732 215.35 93.607C218.096 90.637 219.322 86.748 220.507 83.129C221.107 81.305 221.716 79.503 222.511 77.815C223.295 76.122 224.253 74.559 225.306 73.125C227.433 70.268 229.992 67.973 232.668 66.288C234.006 65.446 235.391 64.755 236.809 64.326C238.225 63.886 239.665 63.756 241.012 63.829C243.724 63.973 246.05 64.807 248.023 65.572C249.99 66.378 251.671 67.089 252.993 67.811C254.312 68.537 255.183 69.367 255.624 70.027C256.065 70.691 256.153 71.107 256.153 71.107C256.124 71.121 255.997 70.718 255.538 70.088C255.078 69.461 254.21 68.677 252.895 67.988C251.582 67.305 249.882 66.617 247.917 65.842C245.947 65.107 243.636 64.311 240.995 64.196C239.681 64.137 238.294 64.273 236.926 64.709C235.556 65.135 234.208 65.816 232.898 66.652C230.276 68.325 227.77 70.595 225.691 73.41C224.662 74.823 223.725 76.361 222.961 78.025C222.185 79.683 221.586 81.465 220.99 83.288C219.81 86.901 218.58 90.873 215.729 93.962C214.339 95.521 212.475 96.56 210.631 97.286C208.779 98.026 206.978 98.724 205.417 99.806C202.281 101.939 200.004 105.007 198.781 108.261C197.518 111.524 197.482 114.955 198.027 118.004C198.554 121.076 199.575 123.826 200.485 126.326C202.386 131.302 203.84 135.422 204.099 138.44C204.197 139.947 203.845 141.144 203.348 141.777C203.11 142.099 202.869 142.293 202.702 142.407C202.533 142.515 202.443 142.565 202.438 142.557Z" fill="#455A64"/>
<path d="M218.957 118.308C218.672 114.321 214.267 111.749 210.849 113.823C208.973 114.962 207.567 117.201 207.833 121.435C208.541 132.727 219.731 129.687 219.731 129.362C219.73 129.161 219.29 122.977 218.957 118.308Z" fill="#AD6359"/>
<path d="M216.013 125.301C215.961 125.268 215.825 125.451 215.502 125.624C215.187 125.793 214.636 125.93 214.033 125.746C212.813 125.383 211.69 123.552 211.508 121.52C211.415 120.494 211.569 119.502 211.882 118.669C212.175 117.821 212.672 117.211 213.267 117.066C213.856 116.89 214.304 117.223 214.462 117.532C214.633 117.838 214.575 118.068 214.637 118.084C214.67 118.11 214.867 117.88 214.747 117.419C214.686 117.198 214.537 116.94 214.259 116.739C213.974 116.536 213.569 116.448 213.153 116.52C212.286 116.635 211.552 117.485 211.208 118.399C210.816 119.321 210.619 120.437 210.723 121.589C210.938 123.86 212.236 125.916 213.898 126.285C214.705 126.443 215.353 126.162 215.678 125.874C216.01 125.575 216.053 125.319 216.013 125.301Z" fill="#CC7A6E"/>
<path d="M220.316 133.006C220.344 133.005 220.396 133.232 220.296 133.634C220.192 134.026 219.895 134.59 219.272 135.016C218.669 135.455 217.676 135.654 216.735 135.307C215.795 134.993 214.915 134.182 214.511 133.116C214.095 132.055 214.1 130.946 214.324 130.009C214.55 129.066 215.007 128.299 215.493 127.76C216.502 126.662 217.507 126.594 217.49 126.641C217.534 126.732 216.624 126.93 215.774 127.999C215.361 128.525 214.975 129.248 214.793 130.115C214.612 130.972 214.627 131.989 214.996 132.923C215.354 133.862 216.094 134.556 216.899 134.855C217.705 135.172 218.522 135.047 219.075 134.705C219.642 134.372 219.955 133.904 220.105 133.567C220.252 133.223 220.273 133.004 220.316 133.006Z" fill="white"/>
<path d="M254.399 75.1931C254.344 75.2491 253.7 74.2781 252.011 73.1681C250.328 72.0971 247.431 71.0771 243.828 71.4511C242.04 71.6141 240.112 72.1621 238.243 73.1301C236.38 74.1291 234.569 75.5231 232.93 77.2521C231.278 78.9711 229.798 81.0111 228.421 83.2181C227.047 85.4301 225.804 87.8321 224.511 90.2871C223.218 92.7431 221.928 95.1401 220.476 97.3371C219.039 99.5401 217.405 101.52 215.668 103.198C213.948 104.893 212.234 106.402 210.758 107.934C209.278 109.458 208.029 111.01 207.178 112.592C205.459 115.773 205.267 118.862 205.746 120.799C206.215 122.773 207.065 123.62 206.986 123.659C206.972 123.67 206.8 123.448 206.483 123.011C206.214 122.549 205.795 121.852 205.55 120.848C204.997 118.876 205.135 115.698 206.853 112.42C207.707 110.783 208.965 109.189 210.447 107.636C211.926 106.074 213.634 104.548 215.33 102.858C217.042 101.183 218.631 99.2411 220.05 97.0571C221.48 94.8821 222.759 92.4991 224.051 90.0451C225.343 87.5931 226.596 85.1801 227.989 82.9491C229.385 80.7241 230.893 78.6611 232.585 76.9201C234.264 75.1681 236.126 73.7541 238.043 72.7481C239.978 71.7661 241.962 71.2281 243.795 71.0841C247.489 70.7481 250.443 71.8521 252.124 72.9981C252.966 73.5871 253.547 74.1401 253.897 74.5481C254.24 74.9611 254.413 75.1821 254.399 75.1931Z" fill="#455A64"/>
<path d="M169.311 197.43L171.408 187.289L152.091 178.475C152.091 178.475 151.913 179.067 151.593 180.132C148.832 189.323 135.067 233.612 134.232 236.917C131.126 249.208 131.814 273.527 136.722 278.083C140.637 281.718 148.171 284.404 153.151 283.851C158.13 283.298 171.855 265.634 171.855 265.634L184.453 225.293L169.311 197.43Z" fill="#AD6359"/>
<path d="M170.163 191.398C170.181 191.401 170.147 191.672 170.068 192.183C169.975 192.742 169.85 193.485 169.695 194.416C169.337 196.404 168.835 199.19 168.219 202.609C167.602 206.068 166.871 210.188 166.245 214.786C165.628 219.383 165.102 224.467 165.078 229.814C165.078 235.163 165.646 240.244 166.767 244.744C167.861 249.243 168.866 253.378 168.761 256.945C168.71 260.502 167.721 263.304 166.685 264.986C165.658 266.693 164.745 267.35 164.745 267.35C164.689 267.303 165.555 266.594 166.509 264.885C167.474 263.2 168.388 260.439 168.392 256.941C168.449 253.438 167.423 249.362 166.3 244.856C165.146 240.337 164.556 235.193 164.557 229.813C164.582 224.43 165.125 219.326 165.77 214.72C166.424 210.112 167.194 205.994 167.858 202.541C168.542 199.134 169.099 196.358 169.496 194.377C169.692 193.453 169.848 192.716 169.965 192.162C170.077 191.658 170.145 191.394 170.163 191.398Z" fill="#D9897F"/>
<path d="M190.133 170.518L186.391 166.381V161.457L182.506 155.883L174.77 157.124L172.406 157.321L173.979 146.019C173.979 146.019 174.704 143.162 177.461 137.647C180.219 132.132 175.778 129.603 175.778 129.603L167.481 144.123L164.723 153.775L163.541 145.896C163.541 145.896 164.941 138.238 164.744 134.299C164.547 130.36 160.586 130.926 160.586 130.926L157.434 148.26V156.927L154.676 151.806C154.676 151.806 154.085 147.473 153.691 143.533C153.297 139.594 150.145 140.775 150.145 140.775V153.578L153.691 165.396C153.691 165.396 151.362 180.647 150.968 181.238L169.209 194.02C169.209 194.02 173.192 191.003 173.98 190.806C174.768 190.609 184.617 183.321 184.617 183.321L191.511 176.033C191.511 176.033 192.693 175.245 192.693 174.457C192.693 173.669 190.133 170.518 190.133 170.518ZM180.678 175.245L176.738 173.472L174.571 168.154L176.176 165.235L176.737 164.214L177.459 163.71L180.086 164.214C180.086 164.214 181.268 167.957 181.071 169.729C180.874 171.502 183.238 173.275 183.238 173.275L180.678 175.245Z" fill="#AD6359"/>
<path d="M177.461 163.711C177.454 163.773 177.098 163.806 176.556 163.635C176.016 163.469 175.313 163.054 174.758 162.38C174.205 161.703 173.935 160.932 173.878 160.371C173.817 159.805 173.919 159.463 173.981 159.468C174.131 159.46 174.134 160.834 175.161 162.049C176.15 163.293 177.497 163.565 177.461 163.711Z" fill="#D9897F"/>
<path d="M187.599 173.924C187.453 173.901 187.54 172.621 187.608 171.049C187.681 169.477 187.709 168.194 187.856 168.184C187.996 168.173 188.203 169.466 188.128 171.072C188.059 172.677 187.738 173.947 187.599 173.924Z" fill="#D9897F"/>
<path d="M181.525 181.369C181.478 181.411 181.025 181.048 180.46 180.289C179.922 179.532 179.247 178.288 179.438 176.738C179.499 176.355 179.672 175.979 179.924 175.694C180.154 175.438 180.39 175.212 180.62 175.003C181.081 174.588 181.521 174.249 181.901 173.98C182.657 173.44 183.202 173.195 183.239 173.275C183.262 173.326 182.818 173.662 182.128 174.27C181.783 174.57 181.376 174.932 180.948 175.352C180.735 175.563 180.516 175.787 180.307 176.029C180.126 176.246 180 176.517 179.949 176.828C179.843 177.452 179.973 178.103 180.135 178.662C180.297 179.222 180.541 179.696 180.767 180.086C181.23 180.863 181.586 181.317 181.525 181.369Z" fill="#D9897F"/>
<path d="M186.402 165.881C186.526 165.864 186.514 167.92 185.088 169.941C184.724 170.433 184.256 170.843 183.746 171.065C183.227 171.294 182.702 171.296 182.298 171.2C181.453 170.985 181.23 170.406 181.293 170.399C181.354 170.343 181.655 170.756 182.364 170.838C182.708 170.876 183.14 170.835 183.541 170.631C183.952 170.426 184.34 170.074 184.671 169.629C185.987 167.78 186.246 165.841 186.402 165.881Z" fill="#D9897F"/>
<path d="M181.089 169.447C180.968 169.445 180.683 167.715 180.131 165.576C179.877 164.502 179.681 163.512 179.614 162.781C179.542 162.05 179.591 161.592 179.659 161.589C179.735 161.586 179.816 162.024 179.978 162.722C180.214 163.698 180.419 164.549 180.638 165.456C181.193 167.6 181.259 169.446 181.089 169.447Z" fill="#D9897F"/>
<path d="M187.599 175.097C187.595 175.211 185.398 174.942 183.139 173.519C182.567 173.174 182.056 172.757 181.685 172.286C181.315 171.814 181.099 171.3 181.017 170.859C180.854 169.969 181.038 169.436 181.09 169.446C181.179 169.448 181.138 169.991 181.374 170.767C181.587 171.554 182.311 172.442 183.411 173.074C185.579 174.446 187.645 174.928 187.599 175.097Z" fill="#D9897F"/>
<path d="M171.363 179.478C171.216 179.568 169.944 176.598 166.994 174.1C164.079 171.559 160.953 170.749 161.02 170.59C161.034 170.533 161.826 170.651 163.032 171.111C164.235 171.566 165.831 172.419 167.334 173.705C168.831 174.996 169.914 176.446 170.545 177.567C171.181 178.69 171.417 179.456 171.363 179.478Z" fill="#D9897F"/>
<path d="M164.761 161.086C164.767 161.24 163.318 161.362 161.654 161.946C159.984 162.514 158.769 163.313 158.678 163.188C158.589 163.089 159.723 162.055 161.484 161.454C163.24 160.84 164.77 160.952 164.761 161.086Z" fill="#D9897F"/>
<path d="M196.417 380.699C196.417 380.699 137.991 396.87 135.647 397.695C132.128 398.934 132.719 411.829 138.196 411.628C140.787 411.533 183.073 413.203 188.416 412.869C193.759 412.535 208.137 406.855 208.137 406.855L196.417 380.699Z" fill="#455A64"/>
<path d="M172.077 402.992C171.783 403.033 171.389 399.942 169.502 396.719C167.662 393.468 165.189 391.575 165.371 391.341C165.473 391.116 168.375 392.762 170.349 396.232C172.358 399.68 172.324 403.017 172.077 402.992Z" fill="#263238"/>
<path d="M178.169 400.23C177.883 400.28 177.291 397.517 175.735 394.466C174.209 391.398 172.343 389.277 172.553 389.078C172.714 388.886 174.996 390.797 176.608 394.027C178.243 397.243 178.419 400.215 178.169 400.23Z" fill="#263238"/>
<path d="M183.883 398.7C183.588 398.682 183.813 395.764 182.516 392.527C181.274 389.268 179.13 387.277 179.334 387.063C179.451 386.841 182.071 388.647 183.427 392.171C184.82 395.679 184.12 398.784 183.883 398.7Z" fill="#263238"/>
<path d="M182.846 391.153C182.742 391.179 182.224 389.548 182.219 386.806C182.223 385.441 182.38 383.806 182.811 382.042C183.025 381.16 183.314 380.249 183.681 379.33C183.87 378.866 184.086 378.332 184.617 377.898C185.162 377.409 186.153 377.51 186.623 377.997C187.159 378.464 187.328 379.122 187.402 379.649C187.461 380.186 187.491 380.686 187.478 381.192C187.464 382.198 187.334 383.162 187.117 384.052C186.685 385.836 185.989 387.332 185.319 388.518C183.957 390.889 182.778 392.101 182.695 392.036C182.561 391.942 183.54 390.582 184.707 388.199C185.281 387.007 185.88 385.544 186.239 383.855C186.419 383.013 186.52 382.114 186.52 381.186C186.494 380.288 186.507 379.166 185.982 378.734C185.703 378.503 185.452 378.488 185.209 378.669C184.951 378.866 184.735 379.266 184.569 379.69C184.207 380.563 183.913 381.428 183.684 382.268C183.224 383.947 183.002 385.511 182.911 386.83C182.739 389.476 183.005 391.13 182.846 391.153Z" fill="#263238"/>
<path d="M182.919 390.559C182.892 390.452 184.302 389.967 186.687 389.951C187.874 389.949 189.299 390.074 190.832 390.459C191.589 390.663 192.402 390.859 193.22 391.339C194.02 391.745 194.857 392.856 194.54 394.009C194.29 395.095 193.359 395.856 192.435 396.094C191.505 396.354 190.604 396.261 189.814 396.087C188.211 395.719 186.964 394.93 186.018 394.221C184.146 392.752 183.231 391.628 183.301 391.546C183.404 391.422 184.51 392.383 186.413 393.654C187.371 394.266 188.569 394.927 189.997 395.205C190.707 395.341 191.472 395.383 192.164 395.175C192.852 394.985 193.423 394.461 193.587 393.786C193.755 393.133 193.358 392.535 192.719 392.156C192.093 391.768 191.319 391.545 190.599 391.329C189.153 390.916 187.802 390.726 186.662 390.642C184.377 390.482 182.943 390.716 182.919 390.559Z" fill="#263238"/>
<path d="M163.1 403.618C162.811 403.585 163.097 401.088 161.948 398.348C160.854 395.585 158.904 394 159.088 393.774C159.184 393.536 161.627 394.92 162.854 397.978C164.114 401.023 163.336 403.721 163.1 403.618Z" fill="#263238"/>
<path d="M203.868 406.315C203.894 406.377 203.09 406.752 201.608 407.378C200.107 407.945 197.91 408.739 195.106 409.393C189.518 410.801 181.552 411.6 172.8 411.507C164.044 411.411 156.154 411.012 150.433 410.783C147.725 410.639 145.455 410.519 143.662 410.424C142.064 410.317 141.182 410.226 141.183 410.159C141.185 410.091 142.072 410.054 143.673 410.043C145.468 410.056 147.741 410.072 150.453 410.091C156.371 410.207 164.175 410.36 172.805 410.528C181.517 410.619 189.388 409.937 194.954 408.718C200.539 407.571 203.8 406.134 203.868 406.315Z" fill="#263238"/>
<path d="M205.595 407.647C205.516 407.782 203.917 406.848 201.218 405.664C198.551 404.519 194.552 403.148 190.162 403.826C185.759 404.5 182.638 407.458 180.606 409.511C178.557 411.637 177.357 413.05 177.239 412.95C177.151 412.877 178.148 411.325 180.098 409.042C181.084 407.913 182.335 406.605 183.972 405.42C185.591 404.23 187.674 403.218 190.008 402.861C194.718 402.14 198.868 403.714 201.509 405.037C204.19 406.408 205.655 407.551 205.595 407.647Z" fill="#263238"/>
<path d="M146.984 410.174C146.878 410.103 147.377 409.33 147.837 407.966C148.302 406.616 148.659 404.613 148.266 402.475C147.87 400.337 146.821 398.594 145.905 397.498C144.988 396.388 144.246 395.844 144.32 395.74C144.366 395.662 145.239 396.047 146.321 397.12C147.396 398.174 148.618 400.009 149.047 402.33C149.474 404.65 148.988 406.801 148.361 408.169C147.733 409.559 147.054 410.23 146.984 410.174Z" fill="#263238"/>
<path d="M190.727 298.174L180.23 324.035C180.23 324.035 128.053 304.943 97.51 310.505C85.897 312.62 73.468 338.969 90.389 355.889C106.898 372.398 136.424 395.736 191.812 403.29C193.194 403.479 215.88 408.35 214.483 408.185C213.086 408.02 246.29 413.275 246.29 413.275L254.085 383.799L315.95 393.507C352.409 391.017 370.253 352.031 348.297 339.481C327.815 327.774 289.303 326.835 289.303 326.835L279.845 301.045L190.727 298.174Z" fill="#263238"/>
<path d="M247.522 414.344C247.685 413.347 248.125 410.662 249.027 405.155C249.519 402.215 250.126 398.632 250.907 394.509C251.299 392.448 251.738 390.252 252.26 387.94C252.526 386.785 252.809 385.6 253.147 384.394C253.32 383.792 253.5 383.183 253.72 382.573C253.95 381.963 254.147 381.35 254.658 380.754L254.751 381.201C241.581 376.526 225.122 370.35 207.575 362.952C196.787 358.363 186.609 353.728 177.654 348.904C173.193 346.478 168.991 344.034 165.381 341.293C161.74 338.604 158.499 335.92 155.46 333.581C149.439 328.832 143.982 325.763 139.897 324.459C138.896 324.074 137.969 323.863 137.172 323.654C136.38 323.422 135.693 323.301 135.136 323.213C134.609 323.117 134.191 323.041 133.872 322.983C133.587 322.927 133.442 322.893 133.443 322.882C133.444 322.871 133.592 322.882 133.88 322.916C134.202 322.958 134.624 323.013 135.157 323.082C135.72 323.149 136.415 323.25 137.217 323.462C138.024 323.652 138.963 323.845 139.978 324.214C142.046 324.826 144.467 325.915 147.14 327.401C149.813 328.896 152.688 330.879 155.745 333.208C158.81 335.529 162.067 338.191 165.705 340.848C169.309 343.554 173.484 345.958 177.944 348.365C186.886 353.143 197.057 357.756 207.834 362.339C225.362 369.729 241.799 375.949 254.928 380.698L255.295 380.831L255.022 381.145C254.677 381.542 254.418 382.175 254.21 382.753C253.993 383.342 253.811 383.942 253.637 384.535C253.295 385.725 253.005 386.902 252.732 388.05C252.195 390.349 251.739 392.537 251.329 394.592C250.511 398.702 249.863 402.277 249.326 405.208C248.788 408.107 248.364 410.386 248.068 411.984C247.914 412.761 247.791 413.354 247.694 413.75C247.601 414.147 247.522 414.344 247.522 414.344Z" fill="#455A64"/>
<path d="M336.296 343.038C336.293 343.049 336.181 343.039 335.963 343.008C335.708 342.967 335.391 342.917 335 342.855C334.15 342.743 332.923 342.426 331.304 342.27C328.091 341.796 323.378 341.486 317.582 341.784C311.782 342.061 304.927 343.179 297.494 345.098C293.785 346.092 289.925 347.26 285.974 348.628C282.023 350 277.995 351.576 273.867 353.22C269.732 354.89 265.57 356.181 261.523 357.293C257.475 358.411 253.519 359.283 249.735 360.015C242.166 361.489 235.283 362.399 229.502 363.104C223.72 363.801 219.033 364.284 215.794 364.616C214.215 364.771 212.968 364.893 212.063 364.982C211.668 365.014 211.349 365.04 211.091 365.061C210.872 365.075 210.758 365.077 210.757 365.065C210.756 365.054 210.866 365.03 211.083 364.993C211.339 364.955 211.656 364.907 212.048 364.849C212.95 364.73 214.192 364.566 215.765 364.359C219.049 363.946 223.708 363.359 229.443 362.638C235.211 361.874 242.076 360.917 249.616 359.414C253.386 358.668 257.324 357.785 261.35 356.664C265.376 355.549 269.513 354.261 273.62 352.601C277.744 350.958 281.795 349.379 285.76 348.011C289.728 346.647 293.609 345.486 297.339 344.504C304.817 342.609 311.721 341.533 317.558 341.314C323.392 341.074 328.127 341.459 331.341 342.013C332.961 342.209 334.185 342.568 335.027 342.723C335.413 342.812 335.726 342.884 335.978 342.941C336.191 342.994 336.299 343.026 336.296 343.038Z" fill="#455A64"/>
<path d="M240.987 332.429C241.026 332.867 238.218 333.57 233.584 334.005C228.957 334.443 222.499 334.525 215.428 333.773C208.356 333.01 202.062 331.561 197.632 330.153C193.196 328.747 190.601 327.465 190.732 327.045C191.025 326.112 201.983 329.028 215.783 330.464C229.569 331.983 240.898 331.455 240.987 332.429Z" fill="#263238"/>
<path d="M289.891 327.254C289.899 327.299 289.169 327.491 287.849 327.798C287.185 327.936 286.383 328.143 285.46 328.421C284.533 328.68 283.477 328.967 282.336 329.378C280.023 330.097 277.36 331.215 274.438 332.515C271.545 333.885 268.428 335.525 265.253 337.419C258.919 341.243 253.554 345.283 249.765 348.311C247.867 349.823 246.352 351.074 245.311 351.947C244.267 352.816 243.675 353.281 243.644 353.247C243.613 353.213 244.147 352.683 245.14 351.752C246.13 350.818 247.601 349.509 249.467 347.946C253.19 344.816 258.536 340.695 264.91 336.847C268.104 334.941 271.253 333.305 274.182 331.956C277.141 330.676 279.844 329.596 282.193 328.929C283.351 328.545 284.425 328.287 285.367 328.061C286.304 327.816 287.12 327.644 287.796 327.545C289.139 327.315 289.883 327.209 289.891 327.254Z" fill="#455A64"/>
<path d="M231.891 353.247C231.871 353.323 230.439 353.016 228.226 352.203C226.009 351.402 223.043 350.055 219.853 348.423C216.78 346.813 214.001 345.358 211.737 344.172C209.662 343.089 208.361 342.449 208.399 342.359C208.432 342.28 209.806 342.769 211.943 343.749C214.084 344.721 216.973 346.2 220.154 347.83C223.336 349.458 226.244 350.86 228.398 351.766C230.547 352.683 231.92 353.147 231.891 353.247Z" fill="#455A64"/>
<path d="M237.534 299.687C237.635 299.703 237.457 302.07 237.262 305.898C237.065 309.726 236.894 315.02 236.982 320.866C237.076 326.714 237.412 331.997 237.727 335.812C238.041 339.628 238.292 341.984 238.192 342.004C238.147 342.013 238.031 341.435 237.859 340.379C237.684 339.324 237.476 337.788 237.259 335.881C236.822 332.069 236.41 326.763 236.315 320.881C236.226 315.001 236.473 309.679 236.791 305.849C236.949 303.934 237.108 302.388 237.25 301.326C237.39 300.263 237.488 299.68 237.534 299.687Z" fill="#455A64"/>
<path d="M243.341 309.832C243.374 309.886 243.122 310.035 242.797 310.413C242.47 310.784 242.105 311.429 241.982 312.297C241.874 313.148 242.028 314.274 242.784 315.095C243.514 315.936 244.896 316.183 246.118 315.726C247.344 315.277 248.231 314.188 248.236 313.074C248.274 311.958 247.657 311.004 247.02 310.429C246.36 309.851 245.663 309.599 245.173 309.531C244.68 309.456 244.392 309.507 244.382 309.445C244.373 309.419 244.648 309.276 245.194 309.273C245.733 309.265 246.54 309.466 247.322 310.068C248.073 310.666 248.85 311.713 248.849 313.09C248.878 314.483 247.781 315.839 246.349 316.351C244.93 316.896 243.215 316.582 242.329 315.507C241.431 314.464 241.338 313.163 241.517 312.22C241.718 311.254 242.198 310.575 242.613 310.23C243.029 309.878 243.331 309.807 243.341 309.832Z" fill="#455A64"/>
<path d="M254.451 382.992C254.451 382.992 313.747 392.005 316.146 392.54C319.749 393.343 320.685 406.08 315.281 406.527C312.724 406.739 271.382 413.352 266.094 413.653C260.806 413.953 244.225 409.609 244.225 409.609L254.451 382.992Z" fill="#455A64"/>
<path d="M280.983 402.029C281.276 402.034 281.3 398.952 282.775 395.564C284.2 392.154 286.407 390.003 286.2 389.795C286.073 389.585 283.416 391.544 281.885 395.185C280.318 398.808 280.744 402.083 280.983 402.029Z" fill="#263238"/>
<path d="M274.674 400.032C274.961 400.047 275.217 397.264 276.387 394.083C277.525 390.89 279.109 388.588 278.879 388.416C278.698 388.247 276.681 390.392 275.477 393.754C274.25 397.107 274.427 400.047 274.674 400.032Z" fill="#263238"/>
<path d="M268.881 399.201C269.168 399.149 268.605 396.308 269.498 392.977C270.334 389.63 272.207 387.421 271.981 387.235C271.84 387.031 269.479 389.113 268.561 392.734C267.605 396.344 268.658 399.311 268.881 399.201Z" fill="#263238"/>
<path d="M269.012 391.666C269.118 391.679 269.434 390.016 269.116 387.322C268.952 385.981 268.605 384.394 267.974 382.712C267.66 381.871 267.269 381.01 266.801 380.15C266.561 379.717 266.286 379.218 265.713 378.854C265.12 378.438 264.158 378.653 263.753 379.187C263.282 379.709 263.193 380.375 263.183 380.901C263.188 381.435 263.218 381.93 263.29 382.426C263.422 383.412 263.663 384.344 263.981 385.193C264.615 386.895 265.475 388.283 266.273 389.369C267.89 391.538 269.191 392.589 269.265 392.515C269.385 392.408 268.263 391.186 266.837 388.982C266.133 387.879 265.372 386.511 264.821 384.895C264.545 384.089 264.34 383.218 264.23 382.306C264.15 381.421 264.005 380.32 264.47 379.835C264.716 379.576 264.961 379.531 265.221 379.68C265.497 379.843 265.757 380.211 265.97 380.607C266.428 381.422 266.819 382.238 267.143 383.035C267.792 384.63 268.194 386.14 268.439 387.426C268.919 390.006 268.852 391.662 269.012 391.666Z" fill="#263238"/>
<path d="M268.87 391.091C268.884 390.983 267.442 390.672 265.097 390.937C263.931 391.075 262.546 391.365 261.085 391.924C260.366 392.214 259.59 392.502 258.843 393.069C258.105 393.562 257.413 394.752 257.86 395.847C258.234 396.885 259.238 397.523 260.173 397.648C261.117 397.794 261.991 397.597 262.747 397.333C264.278 396.783 265.41 395.861 266.256 395.053C267.923 393.39 268.689 392.178 268.61 392.106C268.494 391.996 267.52 393.07 265.8 394.543C264.931 395.256 263.832 396.047 262.462 396.488C261.78 396.705 261.034 396.837 260.33 396.713C259.632 396.608 259.009 396.16 258.769 395.516C258.528 394.894 258.846 394.26 259.43 393.812C259.999 393.357 260.734 393.047 261.415 392.751C262.786 392.175 264.092 391.83 265.202 391.613C267.429 391.186 268.865 391.247 268.87 391.091Z" fill="#263238"/>
<path d="M289.875 401.588C290.155 401.522 289.58 399.102 290.387 396.276C291.136 393.433 292.866 391.647 292.659 391.447C292.537 391.224 290.299 392.872 289.454 396.02C288.573 399.158 289.655 401.717 289.875 401.588Z" fill="#263238"/>
<path d="M250.145 409.032C250.127 409.096 250.96 409.37 252.49 409.811C254.031 410.191 256.283 410.713 259.114 411.026C264.768 411.752 272.688 411.6 281.274 410.479C289.864 409.355 297.568 408.035 303.161 407.137C305.805 406.677 308.02 406.292 309.77 405.988C311.327 405.695 312.183 405.502 312.173 405.437C312.163 405.371 311.288 405.438 309.713 405.616C307.952 405.84 305.721 406.123 303.059 406.461C297.259 407.271 289.611 408.339 281.154 409.52C272.606 410.635 264.795 410.89 259.184 410.347C253.563 409.875 250.19 408.846 250.145 409.032Z" fill="#263238"/>
<path d="M248.605 410.543C248.698 410.666 250.159 409.56 252.671 408.08C255.157 406.642 258.924 404.824 263.316 404.974C267.721 405.118 271.134 407.657 273.372 409.435C275.635 411.283 276.98 412.529 277.084 412.417C277.162 412.335 276 410.927 273.816 408.914C272.715 407.921 271.332 406.783 269.584 405.812C267.854 404.834 265.688 404.084 263.354 404.008C258.643 403.854 254.751 405.888 252.312 407.499C249.839 409.162 248.535 410.457 248.605 410.543Z" fill="#263238"/>
<path d="M288.417 234.078C288.189 235.541 287.418 275.05 289.779 278.671C293.493 284.366 305.455 294.566 312.89 291.778C324.956 287.254 327.686 261.724 327.474 266.462L317.916 185.788H299.531L298.001 214.72L292.642 217.992C292.29 221.321 291.592 224.626 290.589 227.91L288.417 234.078Z" fill="#AD6359"/>
<path d="M299.532 185.788C299.532 185.788 292.188 178.534 292.188 176.922C292.188 175.31 289.322 174.414 289.322 174.414L284.665 172.085C284.665 172.085 281.62 169.219 282.336 167.607C283.052 165.995 284.306 165.457 284.306 165.457C284.306 165.457 284.543 161.516 287.47 160.441C287.47 160.441 284.723 157.396 287.47 155.246C290.217 153.096 290.879 153.992 290.879 153.992C290.879 153.992 290.575 151.663 292.188 151.484C293.8 151.305 305.317 148.439 305.317 148.439C305.317 148.439 308.489 150.051 309.922 151.484C311.355 152.917 312.072 153.813 312.072 153.813C312.072 153.813 314.221 151.126 314.938 148.439C315.654 145.752 316.729 137.691 324.79 138.05V140.02C324.79 140.02 322.64 142.886 321.566 147.902C320.491 152.918 318.521 164.009 318.521 164.009L317.918 185.787L299.532 185.788Z" fill="#AD6359"/>
<path d="M292.451 266.261C292.433 266.264 292.379 265.985 292.292 265.45C292.215 264.914 292.057 264.128 291.979 263.101C291.755 261.055 291.612 258.065 291.854 254.387C292.084 250.71 292.676 246.357 293.577 241.58C294.449 236.797 295.633 231.584 296.514 226.062C298.227 214.992 298.45 204.818 298.731 197.484C298.86 193.851 298.965 190.894 299.04 188.788C299.089 187.799 299.129 187.012 299.158 186.424C299.191 185.884 299.217 185.601 299.235 185.601C299.253 185.602 299.262 185.886 299.263 186.427C299.258 187.015 299.251 187.803 299.242 188.793C299.207 190.9 299.158 193.859 299.098 197.494C298.91 204.831 298.746 215.025 297.027 226.142C296.142 231.693 294.943 236.899 294.047 241.668C293.121 246.431 292.495 250.757 292.219 254.411C291.931 258.066 292.017 261.04 292.178 263.082C292.225 264.107 292.35 264.895 292.393 265.434C292.449 265.974 292.469 266.258 292.451 266.261Z" fill="#D9897F"/>
<path d="M305.28 152.817C305.271 152.888 304.48 152.866 303.204 153.035C301.922 153.197 300.142 153.389 298.176 153.567C294.242 153.925 291.043 154.098 291.03 153.955C291.017 153.812 294.195 153.406 298.129 153.048C300.096 152.87 301.877 152.735 303.173 152.667C304.478 152.591 305.292 152.745 305.28 152.817Z" fill="#CC7A6E"/>
<path d="M301.897 161.42C301.884 161.497 301.095 161.416 299.821 161.346C298.547 161.27 296.785 161.237 294.828 161.193C292.871 161.149 291.089 161.025 289.814 160.818C288.537 160.617 287.773 160.373 287.787 160.31C287.803 160.232 288.588 160.346 289.857 160.452C291.127 160.564 292.886 160.628 294.841 160.672C296.795 160.716 298.575 160.807 299.854 160.979C301.135 161.145 301.909 161.356 301.897 161.42Z" fill="#CC7A6E"/>
<path d="M299.249 168.367C299.236 168.438 298.428 168.337 297.131 168.117C295.834 167.897 294.049 167.558 292.084 167.152C290.118 166.746 288.344 166.349 287.067 166.037C285.789 165.725 285.008 165.497 285.024 165.427C285.04 165.357 285.85 165.458 287.147 165.678C288.444 165.898 290.227 166.237 292.19 166.642C294.152 167.048 295.923 167.443 297.201 167.755C298.478 168.068 299.263 168.297 299.249 168.367Z" fill="#CC7A6E"/>
</svg>
