<svg width="420" height="396" viewBox="0 0 420 396" fill="none" xmlns="http://www.w3.org/2000/svg">
<ellipse cx="155.5" cy="176" rx="37.5" ry="38" fill="#D9D9D9"/>
<circle cx="126.5" cy="155.5" r="26.5" fill="#FF7A7A" fill-opacity="0.4"/>
<path d="M100.3 319.531H24.478V394.847H100.3V319.531Z" fill="#FF7A7A"/>
<path opacity="0.1" d="M46.822 319.531H24.478V394.847H46.822V319.531Z" fill="black"/>
<path d="M198.707 284.878H122.885V394.847H198.707V284.878Z" fill="#FF7A7A"/>
<path opacity="0.1" d="M145.229 284.878H122.885V394.847H145.229V284.878Z" fill="black"/>
<path d="M297.115 250.224H221.293V394.847H297.115V250.224Z" fill="#FF7A7A"/>
<path opacity="0.1" d="M243.637 250.224H221.293V394.847H243.637V250.224Z" fill="black"/>
<path d="M395.522 215.571H319.7V394.847H395.522V215.571Z" fill="#FF7A7A"/>
<path opacity="0.1" d="M342.044 215.571H319.7V394.847H342.044V215.571Z" fill="black"/>
<path d="M364.454 209.908H350.13C350.13 209.908 349.019 206.683 353.166 194.244C357.313 181.805 359.846 170.056 354.318 157.847C348.789 145.638 345.182 130.473 351.155 115.166C357.898 97.884 359.763 98.133 350.982 73.547C350.214 71.397 350.939 71.309 352.014 72.691C353.089 74.073 359.539 90.352 360.307 94.805C360.307 94.805 366.604 84.362 368.907 84.209C371.211 84.055 370.415 84.464 368.907 86.205C358.11 98.673 352.168 118.916 351.86 128.898C351.553 138.88 356.774 149.63 356.774 149.63C356.774 149.63 363.838 138.88 368.446 134.426C373.053 129.972 376.125 123.215 373.667 117.226C371.21 111.237 381.395 120.144 374.536 129.973C374.536 129.973 384.878 127.977 387.335 132.123C389.792 136.269 380.578 127.209 371.517 135.348C362.456 143.487 359.692 153.162 359.692 153.162C359.692 153.162 368.516 173.247 365.681 184.491C361.075 202.767 364.454 209.908 364.454 209.908Z" fill="#FFC727"/>
<path opacity="0.5" d="M364.454 209.908H350.13C350.13 209.908 349.019 206.683 353.166 194.244C357.313 181.805 359.846 170.056 354.318 157.847C348.789 145.638 345.182 130.473 351.155 115.166C357.898 97.884 359.763 98.133 350.982 73.547C350.214 71.397 350.939 71.309 352.014 72.691C353.089 74.073 359.539 90.352 360.307 94.805C360.307 94.805 366.604 84.362 368.907 84.209C371.211 84.055 370.415 84.464 368.907 86.205C358.11 98.673 352.168 118.916 351.86 128.898C351.553 138.88 356.774 149.63 356.774 149.63C356.774 149.63 363.838 138.88 368.446 134.426C373.053 129.972 376.125 123.215 373.667 117.226C371.21 111.237 381.395 120.144 374.536 129.973C374.536 129.973 384.878 127.977 387.335 132.123C389.792 136.269 380.578 127.209 371.517 135.348C362.456 143.487 359.692 153.162 359.692 153.162C359.692 153.162 368.516 173.247 365.681 184.491C361.075 202.767 364.454 209.908 364.454 209.908Z" fill="black"/>
<path d="M361.649 150.664C361.649 150.664 374.503 147.111 381.474 159.697C381.474 159.697 368.369 162.101 361.649 150.664Z" fill="#3FC400"/>
<path d="M330.13 81.837C330.13 81.837 341.913 75.59 351.438 86.373C351.438 86.373 339.162 91.552 330.13 81.837Z" fill="#3FC400"/>
<path d="M364.922 147.198C364.922 147.198 371.318 140.567 379.888 145.602C379.888 145.602 372.939 151.638 364.922 147.198Z" fill="#3FC400"/>
<path d="M359.118 82.813C359.118 82.813 360.126 73.655 369.986 72.401C369.986 72.401 368.176 81.426 359.118 82.813Z" fill="#3FC400"/>
<path d="M333.12 114.176C333.12 114.176 342.138 112.285 346.396 121.266C346.396 121.266 337.255 122.354 333.12 114.176Z" fill="#3FC400"/>
<path d="M340.979 176.541L341.791 186.179L344.28 215.571H370.942L373.432 186.179L374.244 176.541H340.979Z" fill="#455A64"/>
<path d="M340.979 176.541L341.791 186.179H373.432L374.244 176.541H340.979Z" fill="#263238"/>
<path d="M338.363 181.92H376.861V172.674H338.363V181.92Z" fill="#455A64"/>
<path d="M251.262 241.966H267.821C267.821 241.966 257.252 227.236 254.861 219.338C251.323 207.648 257.5 196.346 265.912 190.099C269.731 187.263 273.655 191.413 279.186 190.074C285.994 188.426 285.841 182.731 285.573 182.166C285.305 181.6 284.348 187.141 281.088 188.234C273.61 190.743 271.069 185.078 264.37 187.368C264.37 187.368 264.786 184.162 264.477 180.203C264.168 176.243 268.346 164.558 279.494 165.752C280.934 165.906 280.06 164.929 277.437 164.723C274.814 164.517 272.037 165.7 272.037 165.7C272.037 165.7 274.351 163.129 274.608 159.889C274.865 156.649 276.819 154.643 276.614 154.129C276.408 153.615 274.763 154.746 274.043 158.14C274.043 158.14 272.397 163.437 270.443 165.134C268.489 166.831 264.439 171.524 263.41 176.101C263.41 176.101 263.119 173.225 262.626 167.706C262.265 163.662 259.798 160.403 259.18 160.66C258.563 160.917 261.546 164.466 261.7 168.271C261.854 172.076 261.125 176.19 261.873 179.35C263.069 184.403 261.803 189.921 259.386 192.698C256.969 195.475 250.695 201.147 250.387 211.33C250.079 221.513 253.833 237.749 251.262 241.966Z" fill="#FFC727"/>
<g opacity="0.5">
<path d="M251.262 241.966H267.821C267.821 241.966 257.252 227.236 254.861 219.338C251.323 207.648 257.5 196.346 265.912 190.099C269.731 187.263 273.655 191.413 279.186 190.074C285.994 188.426 285.841 182.731 285.573 182.166C285.305 181.6 284.348 187.141 281.088 188.234C273.61 190.743 271.069 185.078 264.37 187.368C264.37 187.368 264.786 184.162 264.477 180.203C264.168 176.243 268.346 164.558 279.494 165.752C280.934 165.906 280.06 164.929 277.437 164.723C274.814 164.517 272.037 165.7 272.037 165.7C272.037 165.7 274.351 163.129 274.608 159.889C274.865 156.649 276.819 154.643 276.614 154.129C276.408 153.615 274.763 154.746 274.043 158.14C274.043 158.14 272.397 163.437 270.443 165.134C268.489 166.831 264.439 171.524 263.41 176.101C263.41 176.101 263.119 173.225 262.626 167.706C262.265 163.662 259.798 160.403 259.18 160.66C258.563 160.917 261.546 164.466 261.7 168.271C261.854 172.076 261.125 176.19 261.873 179.35C263.069 184.403 261.803 189.921 259.386 192.698C256.969 195.475 250.695 201.147 250.387 211.33C250.079 221.513 253.833 237.749 251.262 241.966Z" fill="black"/>
</g>
<path d="M261.255 185.633C261.255 185.633 249.873 187.46 245.085 175.983C245.085 175.983 256.572 175.167 261.255 185.633Z" fill="#37474F"/>
<path d="M260.565 188.291C260.565 188.291 256.324 195.031 248.183 192.283C248.183 192.283 252.998 185.949 260.565 188.291Z" fill="#37474F"/>
<path d="M295.697 194.292C295.697 194.292 288.006 196.36 283.896 188.816C283.896 188.816 291.732 187.435 295.697 194.292Z" fill="#37474F"/>
<path d="M271.709 161.778C271.709 161.778 263.834 160.594 263.089 152.035C263.089 152.035 270.822 153.906 271.709 161.778Z" fill="#37474F"/>
<path d="M243.932 211.328L244.744 220.966L247.233 250.358H273.896L276.385 220.966L277.197 211.328H243.932Z" fill="#455A64"/>
<path d="M243.932 211.328L244.744 220.966H276.385L277.197 211.328H243.932Z" fill="#263238"/>
<path d="M241.315 216.706H279.813V207.46H241.315V216.706Z" fill="#455A64"/>
<path d="M149.271 274.017H162.689C162.689 274.017 154.125 262.081 152.188 255.681C149.321 246.208 154.327 237.05 161.143 231.988C164.237 229.69 167.417 233.053 171.899 231.968C177.416 230.633 177.291 226.018 177.075 225.56C176.858 225.102 176.082 229.591 173.441 230.477C167.382 232.51 165.322 227.92 159.894 229.775C159.894 229.775 159.723 227.177 159.981 223.969C160.529 217.148 166.107 212.218 166.107 212.218C166.107 212.218 167.982 210.134 168.191 207.509C168.399 204.884 169.983 203.258 169.816 202.842C169.649 202.425 168.316 203.342 167.732 206.092C167.732 206.092 166.399 210.384 164.815 211.759C163.232 213.134 159.95 216.937 159.116 220.646C159.116 220.646 157.814 231.845 155.855 234.096C153.896 236.346 148.813 240.943 148.562 249.194C148.312 257.444 151.354 270.6 149.271 274.017Z" fill="#FFC727"/>
<g opacity="0.5">
<path d="M149.271 274.017H162.689C162.689 274.017 154.125 262.081 152.188 255.681C149.321 246.208 154.327 237.05 161.143 231.988C164.237 229.69 167.417 233.053 171.899 231.968C177.416 230.633 177.291 226.018 177.075 225.56C176.858 225.102 176.082 229.591 173.441 230.477C167.382 232.51 165.322 227.92 159.894 229.775C159.894 229.775 159.723 227.177 159.981 223.969C160.529 217.148 166.107 212.218 166.107 212.218C166.107 212.218 167.982 210.134 168.191 207.509C168.399 204.884 169.983 203.258 169.816 202.842C169.649 202.425 168.316 203.342 167.732 206.092C167.732 206.092 166.399 210.384 164.815 211.759C163.232 213.134 159.95 216.937 159.116 220.646C159.116 220.646 157.814 231.845 155.855 234.096C153.896 236.346 148.813 240.943 148.562 249.194C148.312 257.444 151.354 270.6 149.271 274.017Z" fill="black"/>
</g>
<path d="M157.629 224.117C157.629 224.117 149.665 224.115 147.658 215.761C147.658 215.761 155.583 216.465 157.629 224.117Z" fill="#37474F"/>
<path d="M188.277 219.967C188.277 219.967 185.704 227.504 177.15 226.707C177.15 226.707 180.374 219.434 188.277 219.967Z" fill="#37474F"/>
<path d="M168.671 203.046C168.671 203.046 161.435 199.721 163.097 191.292C163.097 191.292 170.005 195.238 168.671 203.046Z" fill="#37474F"/>
<path d="M138.646 245.848L139.458 255.485L141.947 284.878H168.609L171.099 255.485L171.911 245.848H138.646Z" fill="#455A64"/>
<path d="M138.646 245.848L139.458 255.485H171.099L171.911 245.848H138.646Z" fill="#263238"/>
<path d="M136.03 251.226H174.528V241.98H136.03V251.226Z" fill="#455A64"/>
<path d="M58.1078 296.386H68.7128C68.7128 296.386 61.9438 286.952 60.4128 281.894C58.1468 274.407 62.9848 266.066 67.1028 263.463C69.6778 261.835 72.4488 264.009 75.9918 263.152C80.3518 262.097 80.2538 258.449 80.0828 258.087C79.9118 257.725 79.2978 261.273 77.2108 261.974C72.4218 263.581 70.7938 259.953 66.5038 261.419C66.5038 261.419 66.6648 255.641 62.1968 252.969C61.3988 252.492 64.0358 255.244 64.7378 258.488C65.2868 261.026 64.8688 263 63.3118 264.833C61.7848 266.63 57.7458 270.244 57.5478 276.766C57.3498 283.287 59.7538 293.685 58.1078 296.386Z" fill="#FFC727"/>
<g opacity="0.5">
<path d="M58.1078 296.386H68.7128C68.7128 296.386 61.9438 286.952 60.4128 281.894C58.1468 274.407 62.9848 266.066 67.1028 263.463C69.6778 261.835 72.4488 264.009 75.9918 263.152C80.3518 262.097 80.2538 258.449 80.0828 258.087C79.9118 257.725 79.2978 261.273 77.2108 261.974C72.4218 263.581 70.7938 259.953 66.5038 261.419C66.5038 261.419 66.6648 255.641 62.1968 252.969C61.3988 252.492 64.0358 255.244 64.7378 258.488C65.2868 261.026 64.8688 263 63.3118 264.833C61.7848 266.63 57.7458 270.244 57.5478 276.766C57.3498 283.287 59.7538 293.685 58.1078 296.386Z" fill="black"/>
</g>
<path d="M45.7559 280.501L46.5679 290.139L49.0569 319.531H75.7199L78.2089 290.139L79.0209 280.501H45.7559Z" fill="#455A64"/>
<path d="M45.7559 280.501L46.5679 290.139H78.2089L79.0209 280.501H45.7559Z" fill="#263238"/>
<path d="M43.1392 285.88H81.6372V276.634H43.1392V285.88Z" fill="#455A64"/>
<path d="M0.365967 394.847L52.775 394.604L105.183 394.516L210 394.348L314.817 394.515L367.225 394.603L419.634 394.847L367.225 395.092L314.817 395.18L210 395.346L105.183 395.179L52.775 395.09L0.365967 394.847Z" fill="#263238"/>
<path d="M223.431 43.673C223.432 43.7719 223.581 43.761 223.584 43.664C223.721 38.939 228.372 35.795 228.215 30.985C228.146 28.873 227.298 26.827 226.114 25.1019C225.328 23.9559 224.353 22.967 223.427 21.938C223.299 21.764 223.172 21.59 223.047 21.417C222.248 20.314 221.459 19.188 220.869 17.957C220.188 16.535 219.895 15.025 219.735 13.47C219.434 10.511 219.329 7.49795 217.26 5.15295C215.533 3.19595 213.038 2.05495 210.538 1.44595C204.878 0.0679519 198.142 1.06195 194.392 5.91095C193.727 6.77295 193.206 7.71295 192.835 8.72895C192.835 8.72895 189.54 11.126 188.546 14.984C187.671 18.38 189.94 21.165 189.731 22.859C189.547 24.352 188.636 25.629 188.031 26.976C187.409 28.124 186.792 29.279 186.353 30.499C185.738 32.209 185.8 34.035 186.224 35.783C186.605 37.351 187.267 38.885 188.348 40.1C189.392 41.273 190.764 41.954 192.25 42.396C192.605 42.502 192.962 42.598 193.318 42.692C193.327 42.697 193.336 42.703 193.346 42.708C194.594 43.395 195.945 43.904 197.133 44.697C198.478 45.599 199.315 46.856 199.764 48.402C200.172 49.8 200.307 51.26 200.621 52.679C200.914 54.008 201.408 55.261 202.179 56.385C203.692 58.594 206.002 60.16 208.533 60.978C211.486 61.931 214.717 61.903 217.74 61.305C220.466 60.77 223.038 59.585 224.566 57.17C225.88 55.097 226.303 52.437 225.589 50.076C225.155 48.6399 224.277 47.401 223.587 46.086C222.89 44.753 222.506 43.355 222.703 41.847C223.333 36.977 228.026 33.21 226.788 27.996C226.469 26.657 225.834 25.442 225.088 24.289C226.48 25.991 227.536 28.0169 227.82 30.2149C228.137 32.6669 227.241 34.827 226.038 36.911C224.831 39.001 223.395 41.164 223.431 43.673ZM192.48 42.212C190.406 41.556 188.7 40.432 187.622 38.501C186.519 36.526 185.92 33.977 186.296 31.733C186.484 30.613 186.968 29.582 187.448 28.563C187.461 28.535 187.474 28.5069 187.487 28.4789C187.287 29.1899 187.156 29.919 187.095 30.656C186.899 33.0149 187.386 35.415 188.44 37.531C189.39 39.436 190.8 41.074 192.571 42.24C192.541 42.231 192.51 42.222 192.48 42.212Z" fill="#263238"/>
<path d="M203.218 44.8069C207.137 64.5529 217.12 81.8749 222.977 83.2149C231.38 85.1379 253.793 82.5749 263.975 79.5599C266.966 78.6739 259.603 55.5309 256.404 56.4749C252.538 57.6149 230.092 62.8499 229.687 62.8429C228.82 62.8279 215.331 44.908 212.101 40.272C206.177 31.7689 201.086 34.0679 203.218 44.8069Z" fill="#EFA554"/>
<path d="M276.527 75.8429C272.273 78.4229 261.509 80.2969 258.738 79.7509C255.967 79.2039 252.173 61.0099 254.055 58.8059C255.937 56.6019 270.933 49.0239 275.967 49.6819C281.001 50.3399 280.934 73.1699 276.527 75.8429Z" fill="#EFA554"/>
<path d="M326.462 59.9238L324.537 68.8248L332.092 73.4098L326.462 59.9238Z" fill="#37474F"/>
<path d="M305.41 74.6128L299.774 86.2328L326.75 70.1858L324.906 67.2678L305.41 74.6128Z" fill="#455A64"/>
<path d="M287.64 62.0888C287.64 62.0888 283.002 45.3228 278.496 44.3208C273.982 43.3148 265.195 70.0738 273.479 78.4528C276.13 81.1458 281.416 80.1158 281.416 80.1158L287.64 62.0888ZM274.995 76.2298C268.544 69.7058 275.152 47.3358 278.662 48.1138C282.172 48.8928 286.017 63.4878 286.017 63.4878L281.171 77.5228C281.171 77.5228 277.059 78.3238 274.995 76.2298Z" fill="#455A64"/>
<path d="M306.589 93.8239L276.813 88.2428L289.929 45.0688L309.002 48.8168L306.589 93.8239Z" fill="#37474F"/>
<path d="M289.929 45.0689L287.478 41.2859L311.948 45.6029L309.002 48.8169L289.929 45.0689Z" fill="#455A64"/>
<path d="M330.13 61.557C330.13 61.557 332.727 58.087 333.581 59.565C334.434 61.044 330.13 61.557 330.13 61.557Z" fill="#455A64"/>
<path d="M330.996 67.1039C330.996 67.1039 334.14 64.1199 334.732 65.7209C335.325 67.3229 330.996 67.1039 330.996 67.1039Z" fill="#455A64"/>
<path d="M336.119 63.3609C336.119 63.3609 340.055 61.5449 340.101 63.2519C340.148 64.9589 336.119 63.3609 336.119 63.3609Z" fill="#455A64"/>
<path d="M338.319 67.6569C338.319 67.6569 342.394 66.1809 342.297 67.8859C342.199 69.5899 338.319 67.6569 338.319 67.6569Z" fill="#455A64"/>
<path d="M338.212 59.6959C338.212 59.6959 341.754 57.198 342.109 58.869C342.464 60.539 338.212 59.6959 338.212 59.6959Z" fill="#455A64"/>
<path d="M343.1 63.191C343.1 63.191 347.238 61.902 347.063 63.601C346.888 65.299 343.1 63.191 343.1 63.191Z" fill="#455A64"/>
<path d="M332.992 73.0039C332.992 73.0039 337.28 73.6399 336.384 75.0939C335.489 76.5469 332.992 73.0039 332.992 73.0039Z" fill="#455A64"/>
<path d="M342.123 80.2019C342.123 80.2019 345.391 83.0489 343.854 83.7899C342.316 84.5319 342.123 80.2019 342.123 80.2019Z" fill="#455A64"/>
<path d="M337.234 77.475C337.234 77.475 340.989 79.64 339.623 80.663C338.256 81.687 337.234 77.475 337.234 77.475Z" fill="#455A64"/>
<path d="M334.535 70.5889C334.535 70.5889 338.812 69.8849 338.403 71.5429C337.994 73.2009 334.535 70.5889 334.535 70.5889Z" fill="#455A64"/>
<path d="M340.037 74.0459C340.037 74.0459 344.08 75.6089 342.887 76.8299C341.693 78.0509 340.037 74.0459 340.037 74.0459Z" fill="#455A64"/>
<path d="M268.02 50.2249C266.799 52.5609 270.251 52.6629 270.251 52.6629C270.251 52.6629 265.246 53.7139 264.919 56.6089C264.611 59.3999 268.785 59.3769 269.085 59.3789C268.821 59.4369 264.247 60.5219 264.218 63.4659C264.19 66.5249 268.376 65.7819 268.647 65.7329C268.415 65.8659 265.372 67.6759 265.858 69.9179C266.695 73.7689 274.603 69.3539 277.633 70.3519C277.633 70.3519 276.528 75.6809 276.528 75.8429C276.528 75.8429 284.137 71.7959 285.255 67.6329C285.845 65.4379 283.915 64.4559 283.915 64.4559C283.915 64.4559 286.513 63.4219 286.609 61.1059C286.655 59.9169 284.794 58.7839 284.794 58.7839C284.794 58.7839 286.839 57.8689 286.797 55.8029C286.768 54.1539 284.906 53.2749 284.906 53.2749C284.906 53.2749 286.462 51.4859 285.886 49.8109C284.729 46.4299 270.639 45.2249 268.02 50.2249Z" fill="#EFA554"/>
<path d="M284.632 53.0909C284.678 53.0989 284.699 53.0349 284.653 53.0189C280.116 51.4919 274.663 51.2039 270.066 52.6369C269.915 52.6839 269.926 52.9489 270.102 52.9289C275.122 52.3589 279.624 52.2529 284.632 53.0909Z" fill="#263238"/>
<path d="M284.866 58.7619C284.92 58.7709 284.936 58.6809 284.88 58.6629C280.197 57.1149 274.046 56.9599 268.942 59.2349C268.767 59.3129 268.688 59.5589 268.896 59.4839C272.405 58.2279 280.362 57.9839 284.866 58.7619Z" fill="#263238"/>
<path d="M268.344 66.0139C273.323 64.0209 278.44 63.8249 283.725 64.3789C283.794 64.3859 283.797 64.2879 283.741 64.2659C281.23 63.2909 277.824 63.2889 275.174 63.5109C272.636 63.7239 270.389 64.4269 268.274 65.8389C268.192 65.8949 268.238 66.0569 268.344 66.0139Z" fill="#263238"/>
<path d="M270.251 52.6628C269.308 52.9588 268.389 53.3268 267.526 53.7848C266.678 54.2458 265.841 54.8258 265.381 55.6128C265.157 56.0018 265.063 56.4418 265.153 56.8648C265.248 57.2948 265.438 57.7198 265.729 58.0388C266.301 58.6928 267.273 58.9558 268.132 58.9398L270.293 58.8988L268.277 59.6888C267.397 60.0338 266.517 60.5208 265.801 61.1298C265.086 61.7358 264.534 62.5298 264.526 63.3798C264.5 64.2678 264.964 65.0108 265.804 65.2608C266.623 65.5428 267.644 65.4978 268.542 65.3158L271.052 64.8088L268.855 66.1028C268.26 66.4538 267.668 66.9038 267.178 67.4018C266.692 67.9018 266.283 68.4878 266.178 69.1058C266.072 69.7108 266.297 70.3808 266.784 70.7108C267.291 71.0648 268.036 71.1488 268.748 71.1578C270.203 71.1588 271.677 70.8468 273.154 70.6118C273.893 70.4878 274.636 70.3618 275.384 70.2728C276.126 70.1968 276.909 70.1098 277.63 70.3518C276.893 70.1868 276.145 70.3558 275.416 70.4778C274.685 70.6228 273.959 70.8028 273.231 70.9838C271.776 71.3438 270.307 71.6908 268.759 71.7768C267.993 71.7928 267.16 71.7828 266.387 71.3158C265.593 70.8278 265.258 69.8408 265.402 68.9818C265.545 68.1058 266.049 67.4108 266.586 66.8338C267.141 66.2568 267.744 65.7808 268.432 65.3598L268.745 66.1468C267.685 66.3698 266.618 66.4578 265.51 66.1138C264.966 65.9418 264.423 65.5748 264.093 65.0488C263.759 64.5218 263.643 63.9328 263.659 63.3528C263.7 62.1458 264.463 61.1668 265.272 60.5038C266.106 59.8228 267.021 59.3358 268.02 58.9608L268.165 59.7098C267.072 59.6928 265.973 59.3168 265.252 58.4388C264.901 58.0028 264.705 57.4868 264.615 56.9498C264.524 56.3968 264.682 55.8138 264.973 55.3658C265.578 54.4608 266.51 53.9658 267.407 53.5488C268.324 53.1438 269.28 52.8538 270.251 52.6628Z" fill="#263238"/>
<path d="M256.382 57.0649C256.382 57.0649 268.665 39.8979 273.022 47.9859C274.317 50.3899 276.766 61.8059 274.482 62.3419C271.534 63.0339 269.622 58.4599 268.878 55.3979C268.878 55.3979 265.522 61.8249 260.35 60.8229C257.107 60.1949 256.382 57.0649 256.382 57.0649Z" fill="#EFA554"/>
<path d="M272.618 47.3379C273.273 48.1929 273.685 49.2079 274.063 50.2119C274.439 51.2229 274.717 52.2669 274.953 53.3169C275.399 55.4289 275.778 57.5299 275.855 59.7279C275.866 60.2799 275.854 60.8409 275.698 61.4369C275.62 61.7309 275.488 62.0499 275.264 62.3159C275.155 62.4509 275.045 62.5569 274.861 62.6769C274.695 62.7729 274.53 62.8429 274.364 62.8769C273.698 63.0429 273.045 62.8829 272.499 62.6129C271.96 62.3219 271.518 61.9259 271.135 61.4969C270.378 60.6289 269.873 59.6259 269.471 58.6079C269.057 57.5899 268.773 56.5399 268.516 55.4879L269.213 55.5639C268.796 56.3059 268.321 56.9599 267.79 57.5909C267.261 58.2179 266.672 58.7949 266.025 59.3019C265.375 59.8039 264.653 60.2139 263.888 60.5029C263.125 60.7979 262.31 60.9409 261.506 60.9269C262.304 60.8309 263.076 60.6089 263.785 60.2639C264.497 59.9219 265.136 59.4539 265.724 58.9379C266.312 58.4199 266.842 57.8369 267.314 57.2109C267.782 56.5889 268.213 55.9109 268.544 55.2329L268.965 54.3709L269.241 55.3089C269.538 56.3189 269.83 57.3339 270.255 58.2839C270.666 59.2329 271.138 60.1709 271.804 60.9069C272.442 61.6279 273.348 62.2089 274.15 62.0109C274.869 61.8989 275.009 60.7339 275.007 59.7329C275.012 58.6969 274.908 57.6389 274.804 56.5839C274.697 55.5269 274.576 54.4709 274.402 53.4249C274.015 51.3489 273.635 49.2239 272.618 47.3379Z" fill="#263238"/>
<path d="M239.383 60.319L241.002 84.789C241.002 84.789 224.883 86.964 220.433 83.268C215.983 79.573 205.714 61.443 203.205 47.084C200.696 32.725 205.87 30.535 214.282 42.726C222.695 54.917 229.399 62.419 229.803 62.398C230.209 62.378 239.383 60.319 239.383 60.319Z" fill="#FF7A7A"/>
<path d="M235.042 62.279C235.033 62.2 234.903 62.21 234.902 62.289C234.851 69.481 235.314 76.7 236.046 83.852C236.054 83.931 236.186 83.921 236.186 83.842C236.158 76.653 235.853 69.425 235.042 62.279Z" fill="#263238"/>
<path opacity="0.1" d="M227.772 85.3079C224.711 85.0869 221.927 84.5039 220.435 83.2659C215.988 79.5689 205.716 61.4469 203.208 47.0789C201.391 36.6999 203.587 32.6829 208.123 35.8579L227.772 85.3079Z" fill="black"/>
<path d="M189.083 287.297C187.162 287.519 135.851 276.583 134.164 274.925C133.512 274.306 134.669 266.736 136.331 257.63C136.349 257.535 136.368 257.44 136.386 257.345C136.724 255.468 145.76 224.064 145.76 224.064L179.205 231.942L169.568 264.032L169.435 264.591C169.435 264.591 187.203 277.562 188.868 279.581C190.517 281.59 191.003 287.083 189.083 287.297Z" fill="#EFA554"/>
<path d="M135.522 262.158C134.324 269.136 133.619 274.411 134.165 274.925C135.854 276.585 187.162 287.521 189.085 287.297C191.007 287.081 190.519 281.591 188.866 279.579C187.853 278.352 180.861 273.056 175.547 269.098C179.108 271.98 184.228 278.875 162.267 271.819C148.716 267.464 140.25 264.163 135.522 262.158Z" fill="#263238"/>
<path d="M208.503 76.976C208.503 76.976 211.369 101.504 206.306 107.091C206.306 107.091 198.522 162.669 195.316 178.941C191.083 200.421 173.974 255.115 173.974 255.115L137.384 246.264C137.384 246.264 160.5 176.592 160.679 175.192C161.699 167.248 167.684 112.118 167.202 110.757C160.973 93.178 169.275 76.977 169.275 76.977H208.503V76.976Z" fill="#37474F"/>
<path d="M173.295 245.273C168.199 243.865 169.686 244.175 164.57 242.842C162.066 242.19 145.61 237.923 143.138 237.853C143.083 237.852 143.055 237.966 143.104 237.99C145.325 239.08 161.874 242.969 164.393 243.558C169.541 244.761 168.081 244.342 173.246 245.47C173.344 245.491 173.391 245.3 173.295 245.273Z" fill="#263238"/>
<path d="M169.383 239.217L180.462 200.207L183.203 190.448L184.536 185.561C184.99 183.929 185.382 182.308 185.617 180.646C186.602 173.968 187.46 167.261 188.339 160.561L193.727 120.368L195.078 110.319L195.769 105.296C195.896 104.45 195.99 103.643 196.145 102.764C196.23 102.292 196.274 101.995 196.288 101.548L196.333 100.288C196.471 93.537 196.426 86.774 196.405 80.016C196.548 86.774 196.716 93.529 196.7 100.295C196.693 100.719 196.692 101.141 196.668 101.568C196.672 101.967 196.576 102.506 196.52 102.866C196.389 103.653 196.287 104.525 196.17 105.351L195.511 110.376L194.223 120.432L189.082 160.659C188.161 167.356 187.262 174.053 186.233 180.742C185.984 182.428 185.57 184.092 185.107 185.713L183.742 190.598L180.939 200.343L175.243 219.804L169.383 239.217Z" fill="#263238"/>
<path d="M206.304 107.09C206.304 107.09 203.244 128.94 200.174 149.24L169.274 76.98H208.504C208.504 76.98 211.364 101.5 206.304 107.09Z" fill="#263238"/>
<path d="M268.984 250.365C267.147 250.968 214.685 250.557 212.699 249.272C211.936 248.797 217.576 202.188 217.576 202.188L251.1 203.634L245.177 232.066C245.177 232.066 265.188 241.205 267.224 242.849C269.244 244.486 270.822 249.77 268.984 250.365Z" fill="#EFA554"/>
<path d="M268.987 250.365C268.178 250.63 257.6 250.699 245.819 250.587C245.046 250.577 244.263 250.567 243.48 250.558C241.47 250.543 239.44 250.51 237.429 250.477C236.646 250.459 235.863 250.44 235.089 250.43L235.053 250.433C234.279 250.414 233.505 250.395 232.749 250.383C231.575 250.364 230.427 250.335 229.307 250.303C228.578 250.281 227.858 250.258 227.157 250.243L227.13 250.245C226.428 250.221 225.736 250.196 225.071 250.178L225.044 250.18C224.033 250.15 223.067 250.117 222.146 250.072C221.526 250.051 220.916 250.03 220.331 249.998C219.191 249.95 218.151 249.894 217.228 249.831C216.763 249.809 216.324 249.775 215.922 249.74C214.917 249.664 214.111 249.584 213.559 249.494C213.109 249.425 212.812 249.346 212.698 249.272C212.432 249.109 212.603 243.433 212.929 236.055C217.993 237.241 227.259 239.1 241.428 241.137C264.725 244.489 257.782 238.223 253.826 236.097C253.788 236.072 253.75 236.057 253.712 236.032C253.956 236.142 254.21 236.261 254.454 236.381C254.492 236.397 254.538 236.412 254.576 236.436C255.027 236.65 255.478 236.864 255.93 237.079C256.419 237.309 256.917 237.547 257.406 237.786C258.224 238.175 259.042 238.564 259.823 238.955C260.612 239.328 261.366 239.703 262.082 240.062C262.506 240.278 262.921 240.486 263.316 240.677C263.514 240.772 263.703 240.878 263.891 240.974C264.145 241.102 264.4 241.23 264.636 241.359C265.164 241.632 265.627 241.881 266.024 242.108C266.118 242.156 266.212 242.204 266.298 242.262C266.724 242.505 267.038 242.711 267.221 242.853C269.243 244.483 270.818 249.765 268.987 250.365Z" fill="#263238"/>
<path d="M249.583 219.011L214.457 219.436C214.457 219.436 223.157 155.738 222.253 152.722C221.899 151.543 179.294 112.901 179.294 112.901C164.013 97.838 169.275 76.975 169.275 76.975H208.503C208.503 76.975 209.03 83.102 211.093 85.416C222.891 98.653 252.962 126.034 257.568 138.198C263.349 153.466 249.583 219.011 249.583 219.011Z" fill="#37474F"/>
<path d="M169.383 90.495C169.518 92.836 169.925 95.148 170.665 97.356C171.364 99.574 172.302 101.71 173.423 103.743C175.668 107.807 178.51 111.537 181.763 114.856C184.96 118.247 188.452 121.372 191.917 124.515C193.654 126.084 195.41 127.634 197.177 129.171L202.47 133.801C200.565 132.431 198.719 130.984 196.863 129.549C195.03 128.086 193.215 126.599 191.411 125.097C187.831 122.061 184.331 118.925 181.042 115.545C177.801 112.118 174.89 108.326 172.748 104.098C170.631 99.889 169.198 95.211 169.383 90.495Z" fill="#263238"/>
<path d="M199.388 80.015C199.322 81.522 199.411 83.04 199.718 84.513C199.884 85.238 200.076 85.992 200.441 86.622C200.872 87.23 201.378 87.796 201.868 88.366C203.86 90.63 205.924 92.834 207.981 95.042L220.339 108.283C224.467 112.689 228.549 117.139 232.612 121.607C236.664 126.086 240.708 130.573 244.573 135.229C245.533 136.399 246.476 137.583 247.376 138.811C247.823 139.428 248.263 140.05 248.656 140.725C248.85 141.049 249.045 141.441 249.151 141.835C249.26 142.217 249.337 142.6 249.398 142.981C249.836 146.037 249.714 149.07 249.599 152.094C249.297 158.14 248.678 164.155 247.935 170.15C246.453 182.141 244.565 194.074 242.445 205.962C243.386 199.998 244.255 194.023 245.071 188.042C245.906 182.064 246.69 176.079 247.363 170.082C248.015 164.085 248.653 158.081 248.918 152.064C249.023 149.065 249.125 146.026 248.692 143.098C248.633 142.735 248.559 142.377 248.459 142.033C248.367 141.698 248.221 141.409 248.029 141.086C247.661 140.458 247.226 139.846 246.786 139.243C245.896 138.039 244.953 136.866 243.995 135.704C236.289 126.434 228.035 117.604 219.917 108.671L207.712 95.287C205.699 93.037 203.68 90.791 201.729 88.483C201.248 87.9 200.756 87.328 200.326 86.695C199.949 86.012 199.783 85.269 199.627 84.529C199.349 83.042 199.292 81.52 199.388 80.015Z" fill="#263238"/>
<path d="M246.843 210.667C241.933 210.523 243.343 210.466 238.432 210.4C236.028 210.367 220.235 210.173 217.989 210.698C217.939 210.71 217.939 210.828 217.989 210.839C220.235 211.364 236.028 211.17 238.432 211.137C243.343 211.07 241.933 211.014 246.843 210.869C246.935 210.867 246.935 210.67 246.843 210.667Z" fill="#263238"/>
<path d="M210.683 70.8019L208.735 76.9749C208.735 76.9749 182.259 79.7879 169.382 76.9749C169.382 76.9749 178.466 45.5068 193.356 36.8118C200.803 32.4628 207.221 34.9299 210.099 40.4529C210.827 41.8509 216.107 55.2828 216.107 60.9188C216.107 66.9238 210.683 70.8019 210.683 70.8019Z" fill="#FF7A7A"/>
<path d="M205.099 66.2089C202.979 66.4459 200.852 66.7559 198.787 67.3039C197.76 67.5769 196.752 67.8949 195.746 68.2369C195.244 68.4069 194.74 68.5599 194.233 68.7099C193.712 68.8639 193.153 69.0089 192.607 69.0309C192.558 69.0329 192.56 69.1059 192.609 69.1069C193.14 69.1169 193.648 69.1249 194.177 69.0639C194.68 69.0059 195.179 68.8939 195.67 68.7689C196.714 68.5019 197.746 68.1869 198.788 67.9099C200.89 67.3499 202.99 66.7909 205.128 66.3839C205.226 66.3659 205.2 66.1979 205.099 66.2089Z" fill="#263238"/>
<path d="M210.378 68.0489C208.631 67.8869 206.85 67.8049 205.095 67.8409C204.212 67.8589 203.338 67.9289 202.46 68.0209C202.041 68.0649 201.623 68.1169 201.205 68.1739C200.746 68.2369 200.294 68.3609 199.834 68.4169C199.786 68.4229 199.787 68.4979 199.836 68.4929C200.271 68.4529 200.715 68.4859 201.152 68.4719C201.591 68.4579 202.03 68.4399 202.469 68.4249C203.349 68.3959 204.227 68.3769 205.107 68.3389C206.867 68.2639 208.62 68.2069 210.381 68.1929C210.477 68.1929 210.468 68.0579 210.378 68.0489Z" fill="#263238"/>
<path d="M192.018 37.7489C173.954 48.3419 157.325 61.8909 157.069 68.2949C156.724 76.9089 165.219 95.4219 170.518 104.624C172.075 107.327 192.872 94.7869 191.211 91.8949C189.204 88.3999 178.529 70.4819 178.442 70.0869C178.255 69.2399 192.244 49.6259 195.7 45.0209C201.471 37.3289 200.035 33.0479 192.018 37.7489Z" fill="#EFA554"/>
<path d="M206.405 117.808C204.841 119.866 202.323 118.96 202.323 118.96C202.323 118.96 202.194 121.019 200.724 122.351C199.042 123.876 195.913 121.906 195.913 121.906C195.913 121.906 195.35 123.964 193.657 125.214C191.9 126.511 188.46 124.974 188.46 124.974C188.46 124.974 186.883 126.603 184.645 126.633C180.818 126.685 177.652 121.771 175.607 118.667C173.563 115.564 170.671 104.845 169.914 102.859L189.72 89.5669C189.72 89.5669 202.846 100.876 204.732 104.867C206.32 108.229 208.161 115.499 206.405 117.808Z" fill="#EFA554"/>
<path d="M202.549 118.61C201.718 114.631 199.755 111.114 197.996 107.492C197.957 107.411 197.831 107.474 197.871 107.554C199.663 111.136 200.72 115.026 202.366 118.672C202.411 118.773 202.571 118.718 202.549 118.61Z" fill="#263238"/>
<path d="M196.13 121.669C195.915 120.774 195.405 119.954 194.966 119.154C194.493 118.293 194.006 117.441 193.505 116.596C192.502 114.905 191.461 113.236 190.371 111.599C190.323 111.526 190.2 111.582 190.247 111.661C191.243 113.349 192.214 115.051 193.139 116.779C193.602 117.644 194.057 118.513 194.506 119.384C194.924 120.195 195.298 121.085 195.889 121.788C195.976 121.892 196.162 121.804 196.13 121.669Z" fill="#263238"/>
<path d="M188.42 124.901C188.264 124.116 187.668 123.363 187.251 122.693C186.778 121.932 186.31 121.168 185.845 120.402C184.916 118.87 183.989 117.337 183.114 115.773C183.07 115.695 182.946 115.757 182.989 115.835C183.87 117.429 184.728 119.034 185.623 120.62C186.062 121.399 186.506 122.175 186.954 122.949C187.335 123.607 187.736 124.472 188.344 124.952C188.379 124.978 188.428 124.941 188.42 124.901Z" fill="#263238"/>
<path d="M184.091 78.9749L160.718 88.8149C160.718 88.8149 155.174 71.9549 157.215 66.5429C159.256 61.1309 175.85 46.0619 188.603 39.0049C201.357 31.9469 202.921 36.2939 194.143 48.2249C185.365 60.1559 179.182 69.6179 179.334 69.9939C179.486 70.3699 184.091 78.9749 184.091 78.9749Z" fill="#FF7A7A"/>
<path d="M180.366 74.5399C180.438 74.5049 180.385 74.3849 180.309 74.4109C173.515 76.7709 166.868 79.6239 160.374 82.7089C160.302 82.7429 160.356 82.8639 160.431 82.8369C167.195 80.4049 173.903 77.6969 180.366 74.5399Z" fill="#263238"/>
<path d="M184.091 78.9749C183.218 77.5209 182.377 76.0489 181.535 74.5779L179.053 70.1419L178.962 69.9789L179.07 69.8169L182.543 64.6059C183.696 62.8649 184.903 61.1619 186.08 59.4379C187.254 57.7119 188.468 56.0139 189.681 54.3149C190.885 52.6109 192.126 50.9329 193.38 49.2649C192.293 51.0519 191.192 52.8289 190.056 54.5789C188.928 56.3359 187.801 58.0919 186.633 59.8209C185.469 61.5519 184.335 63.3029 183.147 65.0179L179.597 70.1709L179.614 69.8459L181.889 74.3909C182.635 75.9129 183.379 77.4359 184.091 78.9749Z" fill="#263238"/>
<path d="M190.038 54.2969C190.483 53.6389 191.02 53.0889 191.574 52.5559C192.139 52.0329 192.723 51.5459 193.381 51.1069C193.203 51.4649 192.961 51.7759 192.714 52.0759C192.469 52.3799 192.194 52.6519 191.916 52.9209C191.344 53.4419 190.742 53.9299 190.038 54.2969Z" fill="#263238"/>
<path d="M200.152 35.7589C200.248 36.6369 203.649 42.6759 207.574 42.9689C208.853 43.0619 209.672 36.1059 209.672 36.1059L209.85 35.6059L212.334 28.6099L204.546 22.1609L203.412 21.2949C203.412 21.2949 202.859 23.2539 202.194 25.6999C202.163 25.8139 202.131 25.9269 202.099 26.0479C202.058 26.1859 202.017 26.3149 201.985 26.4449C201.881 26.8089 201.777 27.1809 201.68 27.5549C201.606 27.8379 201.532 28.1139 201.464 28.4139C201.388 28.7139 201.322 29.0059 201.246 29.3059C200.566 32.2779 200.117 35.3869 200.152 35.7589Z" fill="#EFA554"/>
<path d="M202.193 25.6999C203.556 31.6749 207.845 34.5649 209.849 35.6069L212.333 28.6109L204.545 22.1619L203.411 21.2959C203.411 21.2939 202.858 23.2529 202.193 25.6999Z" fill="#263238"/>
<path d="M223.147 16.2149C225.155 29.0889 217.671 31.7459 214.894 32.1749C212.373 32.5649 203.742 33.5739 200.414 20.9759C197.087 8.37786 202.438 3.37486 208.155 2.17686C213.872 0.979863 221.139 3.34086 223.147 16.2149Z" fill="#EFA554"/>
<path d="M220.226 12.952C219.919 12.964 219.633 12.9239 219.327 12.9049C218.982 12.8829 218.706 12.9009 218.42 12.6819C218.267 12.5639 218.233 12.2819 218.333 12.1229C218.566 11.7509 218.995 11.6729 219.411 11.6819C219.862 11.6919 220.208 11.8149 220.551 12.1079C220.883 12.3919 220.632 12.936 220.226 12.952Z" fill="#263238"/>
<path d="M211.913 15.4659C212.221 15.4719 212.506 15.4269 212.811 15.4019C213.155 15.3729 213.432 15.3859 213.714 15.1619C213.865 15.0419 213.893 14.7589 213.79 14.6009C213.55 14.2329 213.12 14.1639 212.704 14.1809C212.253 14.1999 211.91 14.3299 211.573 14.6289C211.246 14.9179 211.507 15.4579 211.913 15.4659Z" fill="#263238"/>
<path d="M214.25 18.0519C214.237 18.0199 214.189 18.1059 214.197 18.1409C214.383 19.0089 214.449 20.0339 213.711 20.4669C213.688 20.4799 213.699 20.5239 213.727 20.5139C214.667 20.2039 214.565 18.8439 214.25 18.0519Z" fill="#263238"/>
<path d="M213.306 17.2809C211.883 17.4279 212.281 20.2639 213.6 20.1279C214.898 19.9929 214.499 17.1569 213.306 17.2809Z" fill="#263238"/>
<path d="M212.77 17.509C212.545 17.704 212.342 18.022 212.048 18.093C211.707 18.176 211.405 17.916 211.139 17.662C211.111 17.636 211.09 17.664 211.095 17.701C211.163 18.246 211.451 18.774 212.045 18.773C212.587 18.772 212.901 18.237 212.959 17.672C212.969 17.567 212.86 17.43 212.77 17.509Z" fill="#263238"/>
<path d="M219.035 17.065C219.037 17.031 219.109 17.097 219.113 17.134C219.202 18.017 219.453 19.014 220.287 19.2C220.313 19.206 220.316 19.25 220.286 19.25C219.297 19.243 218.978 17.916 219.035 17.065Z" fill="#263238"/>
<path d="M219.698 16.0429C221.099 15.7479 221.586 18.5699 220.289 18.8429C219.012 19.1119 218.525 16.2899 219.698 16.0429Z" fill="#263238"/>
<path d="M220.319 16.1269C220.568 16.2379 220.836 16.4719 221.105 16.4429C221.417 16.4099 221.593 16.0649 221.739 15.7379C221.754 15.7039 221.781 15.7239 221.788 15.7609C221.896 16.2979 221.815 16.8899 221.314 17.0839C220.858 17.2599 220.431 16.8569 220.209 16.3419C220.168 16.2469 220.219 16.0819 220.319 16.1269Z" fill="#263238"/>
<path d="M215.266 24.988C215.497 25.175 215.735 25.44 216.058 25.436C216.368 25.433 216.715 25.26 216.986 25.124C217.013 25.11 217.044 25.137 217.029 25.165C216.832 25.526 216.369 25.784 215.953 25.751C215.547 25.719 215.316 25.392 215.184 25.036C215.166 24.986 215.232 24.961 215.266 24.988Z" fill="#263238"/>
<path d="M218.448 21.258C218.448 21.258 218.829 22.54 218.923 23.158C218.931 23.216 218.786 23.266 218.578 23.31C218.569 23.315 218.563 23.319 218.554 23.314C217.489 23.651 216.333 23.442 215.534 22.652C215.482 22.598 215.551 22.523 215.613 22.552C216.519 23.026 217.443 23.043 218.413 22.911C218.43 22.733 217.687 20.737 217.784 20.715C218.117 20.634 218.818 20.763 219.236 20.819C218.52 18.125 217.378 15.568 216.705 12.875C216.683 12.779 216.818 12.728 216.86 12.811C218.247 15.406 219.139 18.488 219.95 21.251C220.054 21.595 218.711 21.325 218.448 21.258Z" fill="#263238"/>
<path d="M200.422 21.9789C202.644 21.8999 202.627 17.2239 202.627 17.2239C202.627 17.2239 207.105 16.7309 207.854 10.1259C207.854 10.1259 208.096 13.1329 206.475 15.6729C206.475 15.6729 214.273 13.9429 216.85 6.9619C216.85 6.9619 215.905 10.4769 214.797 11.8139C214.797 11.8139 218.003 10.5159 219.313 7.6449C219.313 7.6449 221.126 11.3009 222.309 12.2339C222.309 12.2339 220.421 -1.5401 207.792 1.3759C207.792 1.3759 199.841 2.8139 197.681 9.4809C195.522 16.1489 200.422 21.9789 200.422 21.9789Z" fill="#263238"/>
<path d="M203.025 21.4439C203.025 21.4439 200.1 17.4349 198.275 18.4859C196.45 19.5369 198.707 25.3879 200.889 26.1509C203.071 26.9139 203.817 24.9069 203.817 24.9069L203.025 21.4439Z" fill="#EFA554"/>
<path d="M198.964 20.1469C198.929 20.1449 198.923 20.1939 198.954 20.2049C200.485 20.7899 201.313 22.1819 201.903 23.6309C201.44 23.0779 200.819 22.7819 200.077 23.3349C200.038 23.3639 200.077 23.4249 200.12 23.4149C200.739 23.2689 201.191 23.3679 201.621 23.8579C201.926 24.2049 202.138 24.6469 202.359 25.0499C202.433 25.1839 202.677 25.1069 202.622 24.9509C202.618 24.9399 202.613 24.9279 202.609 24.9159C202.607 22.9799 201.047 20.2999 198.964 20.1469Z" fill="#263238"/>
<path d="M209.67 36.2339L206.725 41.7079L200.415 33.6559L198.135 35.7569C198.135 35.7569 203.811 48.0619 203.913 47.5469L206.83 42.8709L209.855 46.6909L210.546 38.0289L209.67 36.2339Z" fill="white"/>
<path d="M210.438 42.4279C210.504 40.9939 210.611 39.5519 210.611 38.1159C210.611 38.0649 210.535 38.0339 210.516 38.0919C210.077 39.4349 209.853 44.9199 209.7 46.2239C209.696 46.2189 209.691 46.2129 209.687 46.2069C209.561 46.0419 206.865 42.8279 206.83 42.8699C206.23 43.5969 204.092 47.0009 203.937 47.3149C203.04 45.3609 199.563 38.2329 198.453 36.3559C198.421 36.3019 198.339 36.3339 198.362 36.3959C199.119 38.4379 203.703 48.0259 203.791 48.0109C203.844 48.0629 206.496 43.8719 206.848 43.0639C207.289 43.7479 209.972 47.3349 210.006 47.1249C210.235 45.7039 210.372 43.8639 210.438 42.4279Z" fill="#263238"/>
<path d="M222 153C224.409 153.692 226.669 154.706 228.806 155.844C230.955 156.976 232.965 158.273 234.903 159.629C236.814 161.015 238.643 162.474 240.332 164.039C242.043 165.586 243.586 167.258 245 169C241.158 166.251 237.53 163.424 233.747 160.729C231.867 159.374 229.948 158.06 228.005 156.762C226.037 155.49 224.089 154.19 222 153Z" fill="#37474F"/>
</svg>
