<svg width="50" height="56" viewBox="0 0 50 56" fill="none" xmlns="http://www.w3.org/2000/svg">
<path d="M29.4816 11.0224C29.0645 11.025 28.7211 10.6856 28.7185 10.2685L28.6802 3.89396C28.6776 3.4769 29.017 3.13343 29.4341 3.13087C29.8511 3.12832 30.1946 3.4677 30.1972 3.88476L30.2355 10.2593C30.2381 10.6769 29.8987 11.0199 29.4816 11.0224Z" fill="#CAE9FF"/>
<path d="M42.9095 46.8011C41.7952 46.8011 40.7577 47.1165 39.8699 47.6552C38.9366 45.6429 36.9044 44.244 34.54 44.244C32.1761 44.244 30.1434 45.6429 29.2101 47.6552C28.3223 47.117 27.2843 46.8011 26.1706 46.8011C25.0149 46.8011 23.9406 47.1395 23.0318 47.715C22.1118 45.67 20.0607 44.244 17.6733 44.244C16.0828 44.244 14.6425 44.8783 13.5845 45.9046V14.459L17.3738 18.5213C18.1477 19.3509 19.4469 19.3958 20.2764 18.6225L25.5537 13.6995C26.2978 13.0054 26.2973 11.8115 25.5163 11.1199C24.8361 10.5168 23.7888 10.5848 23.1238 11.2053L18.9455 15.103L14.6885 10.5398C13.9841 9.78387 12.9977 9.35505 11.9653 9.35454L5.47516 9.35352C3.11996 9.353 1.21045 11.2625 1.21045 13.6177V26.3388C1.21045 27.2818 1.97456 28.0459 2.91756 28.0459C3.86056 28.0459 4.62467 27.2813 4.62467 26.3388V49.1328C3.87589 50.1192 3.42663 51.3449 3.42663 52.6789V54.4678C3.42663 55.0321 3.88407 55.49 4.44885 55.49H14.16C14.7247 55.49 15.1822 55.0321 15.1822 54.4678V52.9329H20.2933V54.4678C20.2933 55.0321 20.7507 55.49 21.3155 55.49H31.0266C31.5914 55.49 32.0489 55.0321 32.0489 54.4678V52.9329H37.0322V54.4678C37.0322 55.0321 37.4896 55.49 38.0544 55.49H47.7655C48.3303 55.49 48.7878 55.0321 48.7878 54.4678V52.6789C48.7872 49.4323 46.156 46.8011 42.9095 46.8011Z" fill="#CAE9FF"/>
<path d="M24.3835 8.13927C24.6442 8.20622 24.9008 8.28851 25.1487 8.3984L28.7183 9.98387L28.6835 4.17969L25.1333 5.80962C24.5077 6.09687 23.83 6.24764 23.1441 6.25173L22.3084 6.25684C22.0493 6.25838 21.8408 6.47458 21.8423 6.73882L21.8469 7.51009C21.8484 7.77484 22.0595 7.98798 22.3186 7.98644L22.8911 7.98287C22.886 8.07333 22.8962 8.16636 22.9269 8.25733L24.1254 11.8479C24.2512 12.2246 24.6554 12.428 25.0245 12.2992C25.393 12.1709 25.5918 11.7574 25.4661 11.3802L24.3835 8.13927Z" fill="#CAE9FF"/>
<path d="M9.07443 7.7343C11.0693 7.7343 12.6864 6.11714 12.6864 4.12228C12.6864 2.12741 11.0693 0.510254 9.07443 0.510254C7.07956 0.510254 5.4624 2.12741 5.4624 4.12228C5.4624 6.11714 7.07956 7.7343 9.07443 7.7343Z" fill="#CAE9FF"/>
<path d="M17.6724 43.2217C19.9306 43.2217 21.7613 41.3911 21.7613 39.1328C21.7613 36.8746 19.9306 35.0439 17.6724 35.0439C15.4142 35.0439 13.5835 36.8746 13.5835 39.1328C13.5835 41.3911 15.4142 43.2217 17.6724 43.2217Z" fill="#CAE9FF"/>
<path d="M34.5391 43.2217C36.7973 43.2217 38.628 41.3911 38.628 39.1328C38.628 36.8746 36.7973 35.0439 34.5391 35.0439C32.2809 35.0439 30.4502 36.8746 30.4502 39.1328C30.4502 41.3911 32.2809 43.2217 34.5391 43.2217Z" fill="#CAE9FF"/>
<path d="M26.1709 45.7793C28.4292 45.7793 30.2598 43.9487 30.2598 41.6905C30.2598 39.4322 28.4292 37.6016 26.1709 37.6016C23.9127 37.6016 22.082 39.4322 22.082 41.6905C22.082 43.9487 23.9127 45.7793 26.1709 45.7793Z" fill="#CAE9FF"/>
<path d="M42.9092 45.7793C45.1674 45.7793 46.9981 43.9487 46.9981 41.6905C46.9981 39.4322 45.1674 37.6016 42.9092 37.6016C40.651 37.6016 38.8203 39.4322 38.8203 41.6905C38.8203 43.9487 40.651 45.7793 42.9092 45.7793Z" fill="#CAE9FF"/>
<path d="M42.9092 39.1349C44.9051 39.1349 46.5647 40.5655 46.924 42.4571C46.971 42.2087 46.9981 41.9527 46.9981 41.6905C46.9981 39.4324 45.1673 37.6016 42.9092 37.6016C40.6511 37.6016 38.8203 39.4324 38.8203 41.6905C38.8203 41.9527 38.8474 42.2087 38.8944 42.4571C39.2542 40.5655 40.9133 39.1349 42.9092 39.1349Z" fill="white"/>
<path d="M9.07477 8.24525C11.3482 8.24525 13.1979 6.39605 13.1979 4.12262C13.1979 1.8492 11.3482 0 9.07477 0C6.80135 0 4.95215 1.8492 4.95215 4.12262C4.95215 6.39605 6.80135 8.24525 9.07477 8.24525ZM9.07477 1.02171C10.7844 1.02171 12.1757 2.41296 12.1757 4.12211C12.1757 5.83127 10.7844 7.22251 9.07477 7.22251C7.3651 7.22251 5.97437 5.83127 5.97437 4.12211C5.97437 2.41296 7.3651 1.02171 9.07477 1.02171Z" fill="#14242D"/>
<path d="M13.5844 21.5791C13.3022 21.5791 13.0732 21.8076 13.0732 22.0902V24.9437C13.0732 25.2264 13.3022 25.4549 13.5844 25.4549C13.8665 25.4549 14.0955 25.2264 14.0955 24.9437V22.0902C14.0955 21.8076 13.8665 21.5791 13.5844 21.5791Z" fill="#14242D"/>
<path d="M32.7626 5.39706C32.8648 5.39706 32.968 5.36639 33.058 5.3025L35.3345 3.68432C35.5645 3.52077 35.6186 3.20183 35.4551 2.97132C35.2915 2.74183 34.9731 2.68714 34.7421 2.8507L32.4656 4.46888C32.2356 4.63243 32.1814 4.95137 32.345 5.18188C32.4446 5.32243 32.6026 5.39706 32.7626 5.39706Z" fill="#14242D"/>
<path d="M33.058 10.1653C32.8275 10.0017 32.5085 10.0559 32.345 10.2859C32.1814 10.5159 32.2356 10.8349 32.4656 10.9989L34.7421 12.6176C34.8321 12.6815 34.9353 12.7122 35.0375 12.7122C35.1975 12.7122 35.3549 12.6375 35.4546 12.497C35.6176 12.267 35.564 11.9481 35.334 11.784L33.058 10.1653Z" fill="#14242D"/>
<path d="M32.3607 8.35425H35.4381C35.7208 8.35425 35.9492 8.12579 35.9492 7.84314C35.9492 7.5605 35.7208 7.33203 35.4381 7.33203H32.3607C32.0781 7.33203 31.8496 7.5605 31.8496 7.84314C31.8496 8.12579 32.0786 8.35425 32.3607 8.35425Z" fill="#14242D"/>
<path d="M42.9088 46.2885C41.8917 46.2885 40.9333 46.5333 40.0788 46.9581C38.9773 45.0342 36.9104 43.7314 34.5393 43.7314C32.1678 43.7314 30.1014 45.0342 28.9999 46.9581C28.1459 46.5333 27.187 46.2885 26.1704 46.2885C25.1144 46.2885 24.1193 46.5502 23.2407 47.0061C22.1464 45.0557 20.0642 43.7314 17.6732 43.7314C16.3463 43.7314 15.1161 44.1418 14.0954 44.838V42.0161C14.9392 43.0608 16.2288 43.7314 17.6732 43.7314C19.321 43.7314 20.7649 42.8579 21.577 41.552C21.5755 41.5975 21.5704 41.6425 21.5704 41.6885C21.5704 44.2252 23.6343 46.2885 26.1704 46.2885C28.684 46.2885 30.7305 44.2609 30.7668 41.756C31.5989 42.9484 32.9779 43.7314 34.5393 43.7314C36.1008 43.7314 37.4808 42.9484 38.3129 41.756C38.3487 44.2614 40.3951 46.2885 42.9088 46.2885C45.4454 46.2885 47.5088 44.2252 47.5088 41.6885C47.5088 39.1519 45.4454 37.0885 42.9088 37.0885C41.3479 37.0885 39.9679 37.8715 39.1358 39.064C39.0995 36.5585 37.053 34.5314 34.5393 34.5314C32.0257 34.5314 29.9792 36.559 29.9429 39.064C29.1108 37.8715 27.7313 37.0885 26.1704 37.0885C24.5226 37.0885 23.0787 37.962 22.2665 39.2679C22.2681 39.2224 22.2732 39.1774 22.2732 39.1314C22.2732 36.5948 20.2093 34.5314 17.6732 34.5314C16.2288 34.5314 14.9392 35.202 14.0954 36.2467V26.7308C14.0954 26.4482 13.8664 26.2197 13.5843 26.2197C13.3022 26.2197 13.0732 26.4482 13.0732 26.7308V39.0594C12.3157 37.9768 11.1064 37.2347 9.71978 37.1095V28.1614C9.71978 27.8788 9.4908 27.6503 9.20866 27.6503C8.92653 27.6503 8.69755 27.8788 8.69755 28.1614V37.133C7.11413 37.343 5.78524 38.3591 5.13511 39.756V26.5821V26.3378V14.5955C5.13511 14.3129 4.90613 14.0844 4.624 14.0844C4.34186 14.0844 4.11289 14.3129 4.11289 14.5955V26.3378C4.11289 26.9976 3.57622 27.5343 2.91688 27.5343C2.25755 27.5343 1.72088 26.9976 1.72088 26.3378V13.6167C1.72088 12.6139 2.11137 11.6715 2.82028 10.9631C3.5292 10.2541 4.47117 9.86417 5.47346 9.86417H5.47449L11.9646 9.86519C12.8524 9.86519 13.709 10.2378 14.3147 10.8864L18.5717 15.4501C18.6642 15.5493 18.7925 15.608 18.928 15.6121C19.0634 15.6229 19.1953 15.5677 19.2944 15.4751L23.4728 11.5774C23.4789 11.5718 23.4855 11.5687 23.4917 11.5631L23.6399 12.0073C23.7452 12.3226 23.9665 12.5761 24.2634 12.7218C24.4326 12.8051 24.6141 12.847 24.796 12.847C24.9289 12.847 25.0623 12.8245 25.1916 12.7795C25.3393 12.7279 25.4702 12.6482 25.5826 12.5506C25.552 12.8439 25.4226 13.1205 25.2049 13.3234L19.9277 18.2464C19.3062 18.827 18.3274 18.7923 17.7473 18.1713L13.9579 14.1095C13.8148 13.9556 13.5925 13.905 13.3967 13.9822C13.2015 14.0589 13.0732 14.248 13.0732 14.458V20.0777C13.0732 20.3603 13.3022 20.5888 13.5843 20.5888C13.8664 20.5888 14.0954 20.3603 14.0954 20.0777V15.7552L17 18.8694C17.9655 19.9034 19.5909 19.9601 20.6248 18.9952L25.9021 14.0721C26.3651 13.6403 26.6263 13.029 26.6176 12.3957C26.6094 11.7635 26.3314 11.1583 25.855 10.7366C25.8285 10.7126 25.7968 10.6973 25.7692 10.6753L25.2039 8.98097L28.2138 10.318C28.2276 10.6385 28.3564 10.9385 28.5869 11.1655C28.8272 11.4021 29.1435 11.5324 29.4788 11.5324C29.4814 11.5324 29.4839 11.5324 29.4865 11.5324C29.8243 11.5304 30.1423 11.396 30.3809 11.1547C30.6201 10.913 30.7505 10.5935 30.7484 10.2557L30.7101 3.88059C30.7081 3.54223 30.5736 3.22432 30.3324 2.98563C30.0906 2.74745 29.7773 2.63807 29.4328 2.61865C29.095 2.6207 28.7771 2.75512 28.5384 2.99636C28.3104 3.22687 28.1852 3.52843 28.1755 3.8489L24.9202 5.34339C24.3565 5.60201 23.7585 5.73541 23.1416 5.73848L22.3059 5.7441C21.7656 5.74716 21.3286 6.19439 21.3317 6.74025L21.3363 7.51152C21.3378 7.77781 21.4426 8.02825 21.6317 8.2143C21.8178 8.39779 22.0503 8.50103 22.3222 8.49592L22.4679 8.4949L23.1538 10.5496C23.0209 10.6293 22.8932 10.7203 22.7761 10.8297L18.9719 14.3788L15.064 10.1887C14.2656 9.33312 13.1366 8.84245 11.9661 8.84245L5.47602 8.84143H5.475C4.19977 8.84143 3.00071 9.33823 2.09911 10.2393C1.197 11.1414 0.700195 12.3405 0.700195 13.6162V26.3378C0.700195 27.5614 1.69533 28.5565 2.91842 28.5565C3.35849 28.5565 3.76942 28.4277 4.11442 28.2054V48.9667C3.3636 50.014 2.91637 51.2933 2.91637 52.6774V54.4663C2.91637 55.3117 3.60433 55.9996 4.44971 55.9996H14.1608C15.0062 55.9996 15.6942 55.3117 15.6942 54.4663V53.4425H19.783V54.4663C19.783 55.3117 20.471 55.9996 21.3164 55.9996H31.0275C31.8729 55.9996 32.5608 55.3117 32.5608 54.4663V53.4425H36.5219V54.4663C36.5219 55.3117 37.2099 55.9996 38.0553 55.9996H47.7664C48.6118 55.9996 49.2997 55.3117 49.2997 54.4663V52.6774C49.2977 49.1548 46.4319 46.2885 42.9088 46.2885ZM42.9088 38.1107C44.8812 38.1107 46.4866 39.7161 46.4866 41.6885C46.4866 43.6609 44.8812 45.2663 42.9088 45.2663C40.9364 45.2663 39.331 43.6609 39.331 41.6885C39.331 39.7161 40.9364 38.1107 42.9088 38.1107ZM34.5393 35.5536C36.5117 35.5536 38.1171 37.159 38.1171 39.1314C38.1171 41.1038 36.5117 42.7092 34.5393 42.7092C32.567 42.7092 30.9616 41.1038 30.9616 39.1314C30.9616 37.159 32.567 35.5536 34.5393 35.5536ZM26.1704 38.1107C28.1433 38.1107 29.7482 39.7161 29.7482 41.6885C29.7482 43.6609 28.1433 45.2663 26.1704 45.2663C24.1975 45.2663 22.5926 43.6609 22.5926 41.6885C22.5926 39.7161 24.1975 38.1107 26.1704 38.1107ZM17.6732 35.5536C19.6461 35.5536 21.251 37.159 21.251 39.1314C21.251 41.1038 19.6461 42.7092 17.6732 42.7092C15.7003 42.7092 14.0954 41.1038 14.0954 39.1314C14.0954 37.159 15.7003 35.5536 17.6732 35.5536ZM24.8548 11.8151C24.7955 11.8355 24.7454 11.8217 24.7132 11.8054C24.6846 11.7911 24.633 11.7563 24.6084 11.6842L23.5484 8.50717C23.6956 8.51943 23.8418 8.53988 23.9874 8.56799L24.9795 11.5406C25.0173 11.6525 24.9601 11.7783 24.8548 11.8151ZM29.2642 3.71499C29.2918 3.68739 29.348 3.62452 29.4395 3.64036C29.5269 3.64036 29.5857 3.68534 29.6133 3.71243C29.6409 3.74003 29.6869 3.7983 29.6874 3.88621L29.7257 10.2613C29.7262 10.3492 29.6807 10.408 29.6536 10.4356C29.626 10.4632 29.5678 10.5097 29.4798 10.5102H29.4783C29.3909 10.5102 29.3321 10.4652 29.3045 10.4381C29.2769 10.4105 29.2309 10.3523 29.2304 10.2644L29.1921 3.88928C29.1916 3.80136 29.2371 3.74259 29.2642 3.71499ZM22.3529 6.76581L23.1467 6.7607C23.9098 6.7561 24.6498 6.59203 25.346 6.27208L28.177 4.97283L28.2026 9.1941L25.3557 7.92961C24.6662 7.62345 23.9368 7.46859 23.1865 7.46859C23.1748 7.46859 23.1625 7.46859 23.1508 7.46859L22.357 7.4737L22.3529 6.76581ZM34.5393 44.7536C36.5388 44.7536 38.2812 45.8561 39.2037 47.4825C37.6479 48.5952 36.6145 50.3856 36.5327 52.4203H32.5455C32.4637 50.3856 31.4303 48.5952 29.8744 47.4825C30.7975 45.8561 32.5399 44.7536 34.5393 44.7536ZM22.3774 47.5484C20.8712 48.6657 19.8745 50.4249 19.7943 52.4208H15.6793C15.5976 50.3861 14.5641 48.5957 13.0083 47.483C13.9308 45.8566 15.6732 44.7542 17.6727 44.7542C19.6997 44.7536 21.4646 45.8852 22.3774 47.5484ZM9.30373 38.1107C11.2766 38.1107 12.8815 39.7161 12.8815 41.6885C12.8815 43.6609 11.2766 45.2663 9.30373 45.2663C7.33084 45.2663 5.72595 43.6609 5.72595 41.6885C5.72595 39.7161 7.33084 38.1107 9.30373 38.1107ZM9.30373 46.2885C10.8626 46.2885 12.2406 45.5075 13.0732 44.3177V45.7043C12.7118 46.0815 12.3954 46.5016 12.1338 46.9581C11.2792 46.5333 10.3203 46.2885 9.30373 46.2885C7.7106 46.2885 6.25495 46.8788 5.13511 47.8469V43.621C5.86651 45.1932 7.4576 46.2885 9.30373 46.2885ZM14.6704 54.4663C14.6704 54.7484 14.4409 54.9774 14.1593 54.9774H4.44817C4.16655 54.9774 3.93706 54.7484 3.93706 54.4663V52.6774C3.93706 49.7181 6.3444 47.3107 9.30373 47.3107C12.2631 47.3107 14.6704 49.7181 14.6704 52.6774V54.4663ZM31.5366 54.4663C31.5366 54.7484 31.3076 54.9774 31.0254 54.9774H21.3143C21.0327 54.9774 20.8032 54.7484 20.8032 54.4663V52.6774C20.8032 49.7181 23.2106 47.3107 26.1699 47.3107C29.1292 47.3107 31.5366 49.7181 31.5366 52.6774V54.4663ZM48.2755 54.4663C48.2755 54.7484 48.0465 54.9774 47.7643 54.9774H38.0532C37.7711 54.9774 37.5421 54.7484 37.5421 54.4663V52.6774C37.5421 49.7181 39.9495 47.3107 42.9088 47.3107C45.8681 47.3107 48.2755 49.7181 48.2755 52.6774V54.4663Z" fill="#14242D"/>
</svg>
