<svg width="15" height="15" viewBox="0 0 15 15" fill="none" xmlns="http://www.w3.org/2000/svg">
<g clip-path="url(#clip0_4_520)">
<path d="M10.115 11.8848H1.64826C1.26124 11.8843 0.890211 11.7304 0.616549 11.4567C0.342887 11.1831 0.18894 10.812 0.188477 10.425L0.188477 1.66633C0.188477 0.861694 0.843627 0.206543 1.64826 0.206543H6.31957C6.38043 0.206546 6.43977 0.225572 6.48929 0.260959C6.53881 0.296345 6.57604 0.346324 6.59576 0.403906L10.3912 11.4983C10.406 11.5422 10.4101 11.589 10.4033 11.6349C10.3964 11.6808 10.3788 11.7244 10.3519 11.7621C10.3249 11.7998 10.2894 11.8306 10.2482 11.852C10.207 11.8733 10.1614 11.8845 10.115 11.8848ZM1.64826 0.790456C1.16536 0.790456 0.77239 1.18343 0.77239 1.66633V10.425C0.77239 10.9079 1.16536 11.3009 1.64826 11.3009H9.70626L6.11111 0.790456H1.64826Z" fill="#484848"/>
<path d="M12.7426 14.2204H8.07133C8.01194 14.2204 7.95397 14.2023 7.90515 14.1685C7.85632 14.1347 7.81896 14.0868 7.79806 14.0313L6.92219 11.6956C6.89493 11.6231 6.89758 11.5428 6.92956 11.4723C6.96154 11.4017 7.02022 11.3468 7.09269 11.3196C7.16517 11.2923 7.2455 11.295 7.31602 11.3269C7.38654 11.3589 7.44148 11.4176 7.46873 11.4901L8.27395 13.6365H12.7426C13.2255 13.6365 13.6185 13.2436 13.6185 12.7607V4.00196C13.6185 3.51906 13.2255 3.12609 12.7426 3.12609H7.19546C7.11803 3.12609 7.04377 3.09533 6.98902 3.04058C6.93426 2.98582 6.9035 2.91156 6.9035 2.83413C6.9035 2.7567 6.93426 2.68244 6.98902 2.62769C7.04377 2.57293 7.11803 2.54218 7.19546 2.54218H12.7426C13.5473 2.54218 14.2024 3.19733 14.2024 4.00196V12.7607C14.2024 13.5653 13.5473 14.2204 12.7426 14.2204Z" fill="#484848"/>
<path d="M8.07132 14.2204C8.01517 14.2205 7.96019 14.2043 7.91298 14.1739C7.86577 14.1435 7.82834 14.1001 7.80517 14.0489C7.78199 13.9978 7.77407 13.941 7.78233 13.8855C7.7906 13.83 7.81471 13.778 7.85177 13.7358L9.89547 11.4001C9.92073 11.3713 9.95144 11.3476 9.98583 11.3306C10.0202 11.3136 10.0576 11.3036 10.0959 11.301C10.1342 11.2985 10.1726 11.3035 10.2089 11.3158C10.2453 11.3281 10.2788 11.3474 10.3077 11.3727C10.3366 11.398 10.3602 11.4287 10.3772 11.463C10.3942 11.4974 10.4043 11.5348 10.4068 11.5731C10.4094 11.6114 10.4043 11.6498 10.392 11.6862C10.3798 11.7225 10.3604 11.7561 10.3352 11.7849L8.29146 14.1206C8.26397 14.1519 8.23012 14.177 8.19216 14.1943C8.1542 14.2115 8.11301 14.2204 8.07132 14.2204ZM5.73567 8.3813C5.67541 8.38139 5.6166 8.3628 5.56735 8.32808C5.51809 8.29336 5.48081 8.24422 5.46065 8.18744L4.27589 4.87023L3.09113 8.18744C3.06511 8.26038 3.01118 8.32 2.94121 8.35318C2.87124 8.38636 2.79095 8.39038 2.71801 8.36436C2.64507 8.33835 2.58545 8.28442 2.55227 8.21445C2.51909 8.14447 2.51506 8.06418 2.54108 7.99124L4.00086 3.90385C4.08378 3.67145 4.46799 3.67145 4.55033 3.90385L6.01011 7.99124C6.02581 8.03526 6.03072 8.0824 6.02442 8.1287C6.01812 8.17501 6.00079 8.21912 5.9739 8.25734C5.94701 8.29556 5.91134 8.32677 5.86988 8.34834C5.82843 8.36991 5.7824 8.38121 5.73567 8.3813Z" fill="#484848"/>
<path d="M4.85981 6.62957H3.69198C3.61455 6.62957 3.54029 6.59881 3.48554 6.54406C3.43078 6.4893 3.40002 6.41504 3.40002 6.33761C3.40002 6.26018 3.43078 6.18592 3.48554 6.13117C3.54029 6.07641 3.61455 6.04565 3.69198 6.04565H4.85981C4.93724 6.04565 5.0115 6.07641 5.06625 6.13117C5.121 6.18592 5.15176 6.26018 5.15176 6.33761C5.15176 6.41504 5.121 6.4893 5.06625 6.54406C5.0115 6.59881 4.93724 6.62957 4.85981 6.62957ZM12.7426 6.62957H8.65524C8.57781 6.62957 8.50355 6.59881 8.4488 6.54406C8.39405 6.4893 8.36329 6.41504 8.36329 6.33761C8.36329 6.26018 8.39405 6.18592 8.4488 6.13117C8.50355 6.07641 8.57781 6.04565 8.65524 6.04565H12.7426C12.8201 6.04565 12.8943 6.07641 12.9491 6.13117C13.0038 6.18592 13.0346 6.26018 13.0346 6.33761C13.0346 6.41504 13.0038 6.4893 12.9491 6.54406C12.8943 6.59881 12.8201 6.62957 12.7426 6.62957Z" fill="#484848"/>
<path d="M10.4069 6.62962C10.3295 6.62962 10.2552 6.59886 10.2005 6.54411C10.1457 6.48935 10.115 6.41509 10.115 6.33766V5.75375C10.115 5.67632 10.1457 5.60206 10.2005 5.5473C10.2552 5.49255 10.3295 5.46179 10.4069 5.46179C10.4844 5.46179 10.5586 5.49255 10.6134 5.5473C10.6681 5.60206 10.6989 5.67632 10.6989 5.75375V6.33766C10.6989 6.41509 10.6681 6.48935 10.6134 6.54411C10.5586 6.59886 10.4844 6.62962 10.4069 6.62962ZM9.53107 10.1331C9.46884 10.1338 9.40801 10.1146 9.35753 10.0782C9.30705 10.0418 9.26958 9.99017 9.25063 9.93089C9.23168 9.87161 9.23224 9.80782 9.25224 9.74888C9.27224 9.68995 9.31062 9.63899 9.36173 9.60349C10.6399 8.6955 11.5748 6.84333 11.5748 6.33825C11.5748 6.26081 11.6055 6.18655 11.6603 6.1318C11.715 6.07705 11.7893 6.04629 11.8667 6.04629C11.9442 6.04629 12.0184 6.07705 12.0732 6.1318C12.1279 6.18655 12.1587 6.26081 12.1587 6.33825C12.1587 7.10784 11.0335 9.13227 9.7004 10.08C9.65072 10.1146 9.59162 10.1331 9.53107 10.1331Z" fill="#484848"/>
<path d="M11.8667 10.717C11.7938 10.7173 11.7235 10.69 11.67 10.6405C11.458 10.4467 9.5924 8.72353 9.26074 7.90722C9.23465 7.83613 9.23719 7.7577 9.26783 7.68845C9.29848 7.61921 9.35482 7.56458 9.42498 7.5361C9.49513 7.50761 9.57361 7.5075 9.64385 7.53577C9.71409 7.56405 9.7706 7.61851 9.80145 7.68766C10.0403 8.27566 11.5158 9.70742 12.0641 10.2096C12.1076 10.2493 12.138 10.3013 12.1514 10.3586C12.1648 10.4159 12.1605 10.476 12.1392 10.5309C12.1179 10.5858 12.0804 10.6329 12.0318 10.6661C11.9832 10.6993 11.9256 10.7171 11.8667 10.717Z" fill="#484848"/>
</g>
<defs>
<clipPath id="clip0_4_520">
<rect width="14.0139" height="14.0139" fill="white" transform="translate(0.188477 0.206543)"/>
</clipPath>
</defs>
</svg>
